<svg width="21" height="22" viewBox="0 0 21 22" xmlns="http://www.w3.org/2000/svg"><title>BAB2F883-D2FF-4A27-9D1F-027B8BD80710</title><g fill="none" fill-rule="evenodd"><path fill="#007334" d="M12.213 0v21.984L0 19.297V2.687z"/><path d="M20.763 20.152H10.38V1.832h10.382v18.32zm-9.16-1.222h7.938V3.053h-7.939V18.93z" fill="#007334"/><path fill="#007334" d="M15.267 6.717h2.442V5.496h-2.442zM15.267 9.16h2.442V7.939h-2.442zM15.267 11.603h2.442V10.38h-2.442zM15.267 14.045h2.442v-1.221h-2.442zM15.267 16.488h2.442v-1.221h-2.442zM11.603 6.717h2.442V5.496h-2.442zM11.603 9.16h2.442V7.939h-2.442zM11.603 11.603h2.442V10.38h-2.442zM11.603 14.045h2.442v-1.221h-2.442zM11.603 16.488h2.442v-1.221h-2.442z"/><path fill="#FFF" d="M8.958 14.341H7.48l-1.42-2.308-1.419 2.308H3.256l2.024-3.147-1.895-2.956h1.428l1.315 2.196 1.29-2.196h1.394l-1.916 3.027z"/></g></svg>