<?xml version="1.0" encoding="UTF-8" standalone="no"?>
<!DOCTYPE svg PUBLIC "-//W3C//DTD SVG 1.1//EN" "http://www.w3.org/Graphics/SVG/1.1/DTD/svg11.dtd">
<svg width="100%" height="100%" viewBox="0 0 59 45" version="1.1" xmlns="http://www.w3.org/2000/svg" xmlns:xlink="http://www.w3.org/1999/xlink" xml:space="preserve" style="fill-rule:evenodd;clip-rule:evenodd;stroke-linejoin:round;stroke-miterlimit:1.41421;">
    <g transform="matrix(1,0,0,1,-6579,-866)">
        <g transform="matrix(0.972869,7.94446e-34,-1.28797e-33,0.978988,6514.96,-363.425)">
            <g transform="matrix(1.24845,-3.84878e-49,-7.69756e-49,1.24845,-9882.89,-11317.2)">
                <path d="M8016,10071C8016.55,10071 8017,10071.4 8017,10072L8017,10106C8017,10106.6 8016.55,10107 8016,10107L7970,10107C7969.45,10107 7969,10106.6 7969,10106L7969,10072C7969,10071.4 7969.45,10071 7970,10071L8016,10071ZM8011,10100L8011,10096L7993,10096L7993,10100L8011,10100ZM8011,10091L8011,10087L7993,10087L7993,10091L8011,10091ZM7987,10077L7976,10077L7976,10088L7987,10088L7987,10077Z" style="fill:rgb(90,157,255);"/>
            </g>
        </g>
    </g>
</svg>
