<?xml version="1.0" encoding="UTF-8" standalone="no"?>
<!DOCTYPE svg PUBLIC "-//W3C//DTD SVG 1.1//EN" "http://www.w3.org/Graphics/SVG/1.1/DTD/svg11.dtd">
<svg width="100%" height="100%" viewBox="0 0 50 50" version="1.1" xmlns="http://www.w3.org/2000/svg" xmlns:xlink="http://www.w3.org/1999/xlink" xml:space="preserve" style="fill-rule:evenodd;clip-rule:evenodd;stroke-miterlimit:1.41421;">
    <g transform="matrix(1,0,0,1,-22901,-5476)">
        <g transform="matrix(1,0,0,1.76762,22316,4499)">
            <g>
                <g transform="matrix(0.806453,0,0,0.456238,-17894.1,-1821.1)">
                    <path d="M22976,5215.4C22976,5208.56 22970.4,5203 22963.6,5203L22926.4,5203C22919.6,5203 22914,5208.56 22914,5215.4L22914,5252.6C22914,5259.44 22919.6,5265 22926.4,5265L22963.6,5265C22970.4,5265 22976,5259.44 22976,5252.6L22976,5215.4Z" style="fill:rgb(90,157,255);"/>
                </g>
                <g transform="matrix(0.861583,1.56458e-34,2.41988e-34,0.487426,309.621,397.058)">
                    <g transform="matrix(1,0,0,1,-16.3636,-16.6667)">
                        <path d="M350.68,373.32C350.245,373.755 350,374.346 350,374.962C350,376.657 350,380 350,380C350,380 353.343,380 355.038,380C355.654,380 356.245,379.755 356.68,379.32C359.892,376.108 373.593,362.407 378.359,357.641C379.265,356.735 379.265,355.265 378.359,354.359C377.514,353.514 376.486,352.486 375.641,351.641C374.735,350.735 373.265,350.735 372.359,351.641C367.593,356.407 353.892,370.108 350.68,373.32Z" style="fill:none;stroke:white;stroke-width:2.32px;"/>
                    </g>
                    <g transform="matrix(1,2.13821e-50,0,1,-16.3636,-16.6667)">
                        <path d="M370,354L376,360" style="fill:none;stroke:white;stroke-width:2.32px;"/>
                    </g>
                    <g transform="matrix(1,6.41464e-50,0,1,-33.0013,-0.0289855)">
                        <path d="M370,354L376,360" style="fill:none;stroke:white;stroke-width:2.32px;"/>
                    </g>
                    <g transform="matrix(1,4.27642e-50,0,1,-18.0303,-15)">
                        <path d="M351.667,374.667L355.333,378.333" style="fill:none;stroke:white;stroke-width:2.32px;"/>
                    </g>
                </g>
            </g>
        </g>
    </g>
</svg>
