<?xml version="1.0" encoding="UTF-8" standalone="no"?><!DOCTYPE svg PUBLIC "-//W3C//DTD SVG 1.1//EN" "http://www.w3.org/Graphics/SVG/1.1/DTD/svg11.dtd"><svg width="100%" height="100%" viewBox="0 0 45 52" version="1.1" xmlns="http://www.w3.org/2000/svg" xmlns:xlink="http://www.w3.org/1999/xlink" xml:space="preserve" style="fill-rule:evenodd;clip-rule:evenodd;stroke-linejoin:round;stroke-miterlimit:1.41421;"><g><path d="M0.305,37.925l0,3.247l0.464,0c0,0 7.849,-3.479 23.659,-3.479c7.77,0 18.905,3.479 18.905,3.479l1.043,-0.232l0,-26.675l-0.695,-0.348c-2.002,2.446 -8.699,8.351 -8.699,8.351l0.116,14.497l-0.812,0.232c0,0 -5.06,-1.392 -11.829,-1.392c-11.336,0 -21.34,4.987 -21.34,4.987c0,0 9.007,-5.567 22.036,-5.567c7.29,0 9.858,1.044 9.858,1.044l1.275,-0.232l0,-28.414l-0.927,-0.232c-1.525,4.639 -7.011,13.093 -10.438,16.004l0,9.974l-0.348,0.232c-11.34,0 -21.108,6.843 -21.108,6.843c0,0 9.28,-7.538 20.064,-7.538l0.58,-0.232l0,-32.242l-1.044,-0.232c-2.046,11.509 -10.37,27.789 -20.76,37.925Z" style="fill:#5a9dff;"/><g><path d="M19.988,51.348c-0.568,0.3 -1.276,0.45 -2.123,0.45c-1.094,0 -1.97,-0.352 -2.628,-1.056c-0.658,-0.704 -0.987,-1.629 -0.987,-2.773c0,-1.229 0.37,-2.223 1.11,-2.981c0.74,-0.758 1.679,-1.137 2.816,-1.137c0.729,0 1.333,0.106 1.812,0.316l0,0.96c-0.55,-0.307 -1.158,-0.461 -1.823,-0.461c-0.883,0 -1.599,0.295 -2.148,0.885c-0.548,0.59 -0.823,1.378 -0.823,2.365c0,0.936 0.257,1.683 0.77,2.239c0.513,0.556 1.186,0.833 2.019,0.833c0.772,0 1.44,-0.171 2.005,-0.514l0,0.874Z" style="fill:#5a9dff;fill-rule:nonzero;"/><path d="M27.067,51.67l-1.073,0l-1.287,-2.156c-0.118,-0.2 -0.232,-0.371 -0.343,-0.512c-0.111,-0.142 -0.224,-0.257 -0.341,-0.346c-0.116,-0.09 -0.241,-0.155 -0.375,-0.196c-0.134,-0.041 -0.285,-0.062 -0.453,-0.062l-0.74,0l0,3.272l-0.901,0l0,-7.69l2.295,0c0.336,0 0.646,0.042 0.93,0.126c0.285,0.084 0.531,0.212 0.741,0.383c0.209,0.172 0.372,0.385 0.49,0.641c0.118,0.256 0.177,0.555 0.177,0.898c0,0.268 -0.04,0.514 -0.121,0.738c-0.08,0.223 -0.194,0.422 -0.343,0.597c-0.148,0.176 -0.327,0.325 -0.536,0.448c-0.209,0.124 -0.444,0.219 -0.705,0.287l0,0.022c0.129,0.057 0.24,0.122 0.335,0.195c0.095,0.074 0.185,0.16 0.271,0.26c0.086,0.1 0.171,0.214 0.255,0.341c0.084,0.127 0.177,0.274 0.281,0.442l1.443,2.312Zm-4.612,-6.875l0,2.788l1.223,0c0.225,0 0.433,-0.034 0.624,-0.102c0.191,-0.067 0.357,-0.165 0.496,-0.292c0.14,-0.127 0.249,-0.282 0.327,-0.466c0.079,-0.184 0.118,-0.391 0.118,-0.62c0,-0.411 -0.133,-0.732 -0.399,-0.962c-0.266,-0.231 -0.652,-0.346 -1.156,-0.346l-1.233,0Z" style="fill:#5a9dff;fill-rule:nonzero;"/><path d="M35.963,51.67l-0.896,0l0,-5.159c0,-0.408 0.025,-0.906 0.075,-1.496l-0.021,0c-0.086,0.347 -0.163,0.595 -0.231,0.745l-2.627,5.91l-0.44,0l-2.622,-5.867c-0.075,-0.172 -0.152,-0.434 -0.231,-0.788l-0.021,0c0.028,0.307 0.043,0.809 0.043,1.507l0,5.148l-0.869,0l0,-7.69l1.19,0l2.36,5.362c0.182,0.411 0.3,0.719 0.354,0.923l0.032,0c0.154,-0.422 0.277,-0.737 0.37,-0.944l2.408,-5.341l1.126,0l0,7.69Z" style="fill:#5a9dff;fill-rule:nonzero;"/></g></g></svg>