<?xml version="1.0" encoding="UTF-8" standalone="no"?>
<!DOCTYPE svg PUBLIC "-//W3C//DTD SVG 1.1//EN" "http://www.w3.org/Graphics/SVG/1.1/DTD/svg11.dtd">
<svg width="100%" height="100%" viewBox="0 0 178 178" version="1.1" xmlns="http://www.w3.org/2000/svg" xmlns:xlink="http://www.w3.org/1999/xlink" xml:space="preserve" style="fill-rule:evenodd;clip-rule:evenodd;stroke-linejoin:round;stroke-miterlimit:1.41421;">
    <g transform="matrix(1,0,0,1,-7074,-9170)">
        <g transform="matrix(1,0,0,1,6788,8814)">
            <g transform="matrix(2.85714,0,0,2.85714,177.857,-635)">
                <g transform="matrix(1,0,0,1,-3717,191)">
                    <path d="M3786.19,157.251L3786.29,157.251L3786.48,157.254L3786.67,157.257L3786.77,157.26L3786.86,157.262L3787.05,157.268L3787.24,157.276L3787.34,157.28L3787.53,157.289L3787.72,157.299L3787.91,157.31L3788.1,157.323L3788.19,157.33L3788.28,157.336L3788.38,157.344L3788.57,157.36L3788.66,157.368L3788.76,157.377L3788.94,157.394L3789.04,157.403L3789.13,157.413L3789.23,157.423L3789.41,157.444L3789.51,157.455L3789.6,157.466L3789.69,157.477L3789.78,157.489L3789.88,157.501L3789.97,157.513L3790.07,157.526L3790.16,157.539L3790.25,157.552L3790.34,157.565L3790.53,157.593L3790.62,157.608L3790.71,157.622L3790.8,157.636L3790.89,157.652L3791.08,157.683L3791.17,157.699L3791.26,157.715L3791.45,157.748L3791.54,157.766L3791.72,157.8L3791.81,157.818L3791.9,157.837L3791.99,157.855L3792.08,157.873L3792.17,157.893L3792.35,157.931L3792.45,157.952L3792.53,157.972L3792.62,157.992L3792.71,158.012L3792.8,158.033L3792.89,158.055L3793.08,158.098L3793.16,158.12L3793.25,158.142L3793.43,158.187L3793.52,158.211L3793.61,158.234L3793.7,158.258L3793.79,158.281L3793.88,158.306L3793.96,158.33L3794.05,158.354L3794.14,158.38L3794.32,158.43L3794.4,158.456L3794.49,158.481L3794.58,158.508L3794.67,158.535L3794.76,158.562L3794.85,158.59L3795.02,158.644L3795.1,158.671L3795.19,158.699L3795.28,158.728L3795.37,158.757L3795.45,158.785L3795.54,158.814L3795.62,158.844L3795.71,158.874L3795.8,158.903L3795.88,158.934L3795.97,158.965L3796.06,158.996L3796.14,159.026L3796.22,159.057L3796.31,159.088L3796.4,159.12L3796.48,159.153L3796.57,159.185L3796.65,159.217L3796.74,159.25L3796.91,159.316L3797.07,159.383L3797.24,159.451L3797.41,159.52L3797.58,159.59L3797.74,159.661L3797.91,159.733L3798.08,159.807L3798.24,159.881L3798.4,159.956L3798.57,160.032L3798.73,160.108L3798.89,160.187L3799.06,160.266L3799.22,160.346L3799.38,160.425L3799.54,160.508L3799.7,160.59L3799.86,160.674L3800.02,160.759L3800.18,160.844L3800.34,160.93L3800.49,161.018L3800.65,161.106L3800.81,161.195L3800.96,161.285L3801.12,161.376L3801.27,161.468L3801.42,161.561L3801.58,161.655L3801.73,161.749L3801.88,161.845L3802.03,161.94L3802.18,162.037L3802.33,162.136L3802.48,162.235L3802.63,162.335L3802.78,162.435L3802.93,162.538L3803.07,162.639L3803.22,162.743L3803.36,162.846L3803.51,162.952L3803.65,163.058L3803.8,163.164L3803.94,163.271L3804.08,163.38L3804.22,163.49L3804.36,163.599L3804.5,163.71L3804.64,163.822L3804.78,163.935L3804.92,164.048L3805.06,164.162L3805.19,164.276L3805.33,164.392L3805.47,164.509L3805.6,164.626L3805.73,164.744L3805.87,164.863L3806,164.983L3806.13,165.103L3806.26,165.224L3806.39,165.346L3806.52,165.47L3806.65,165.593L3806.78,165.716L3806.91,165.842L3807.03,165.968L3807.16,166.093L3807.28,166.221L3807.41,166.349L3807.53,166.478L3807.65,166.608L3807.78,166.737L3807.9,166.869L3808.02,167.001L3808.14,167.133L3808.26,167.266L3808.37,167.399L3808.49,167.535L3808.61,167.67L3808.72,167.805L3808.84,167.942L3808.95,168.08L3809.07,168.218L3809.18,168.357L3809.29,168.496L3809.4,168.636L3809.51,168.777L3809.62,168.919L3809.73,169.06L3809.84,169.203L3809.94,169.347L3810.05,169.492L3810.15,169.636L3810.26,169.781L3810.36,169.927L3810.46,170.074L3810.56,170.221L3810.66,170.369L3810.77,170.519L3810.86,170.668L3810.96,170.817L3811.06,170.968L3811.16,171.12L3811.25,171.271L3811.35,171.423L3811.44,171.576L3811.53,171.731L3811.62,171.885L3811.72,172.04L3811.81,172.195L3811.89,172.35L3811.98,172.507L3812.07,172.665L3812.16,172.822L3812.24,172.981L3812.33,173.14L3812.41,173.299L3812.49,173.46L3812.57,173.62L3812.66,173.781L3812.74,173.944L3812.81,174.105L3812.89,174.268L3812.97,174.432L3813.04,174.596L3813.12,174.76L3813.19,174.925L3813.27,175.091L3813.34,175.257L3813.41,175.424L3813.48,175.59L3813.55,175.759L3813.62,175.926L3813.68,176.092L3813.72,176.179L3813.75,176.265L3813.78,176.349L3813.82,176.435L3813.85,176.518L3813.88,176.602L3813.91,176.689L3813.94,176.775L3814.01,176.946L3814.07,177.117L3814.1,177.203L3814.13,177.29L3814.16,177.377L3814.18,177.462L3814.21,177.548L3814.24,177.635L3814.27,177.721L3814.3,177.808L3814.33,177.896L3814.36,177.983L3814.38,178.069L3814.41,178.157L3814.44,178.246L3814.47,178.332L3814.49,178.419L3814.52,178.508L3814.54,178.596L3814.57,178.684L3814.6,178.77L3814.62,178.86L3814.64,178.948L3814.67,179.036L3814.7,179.126L3814.72,179.214L3814.74,179.303L3814.77,179.391L3814.79,179.48L3814.81,179.569L3814.84,179.658L3814.86,179.748L3814.88,179.838L3814.9,179.927L3814.92,180.017L3814.95,180.107L3814.97,180.195L3814.99,180.284L3815.01,180.377L3815.03,180.465L3815.05,180.556L3815.07,180.648L3815.09,180.736L3815.11,180.827L3815.13,180.918L3815.14,181.009L3815.16,181.099L3815.18,181.19L3815.2,181.282L3815.22,181.373L3815.24,181.464L3815.25,181.555L3815.27,181.646L3815.28,181.739L3815.3,181.83L3815.32,181.921L3815.33,182.013L3815.35,182.105L3815.36,182.197L3815.38,182.29L3815.39,182.381L3815.41,182.473L3815.42,182.565L3815.43,182.658L3815.45,182.75L3815.46,182.843L3815.47,182.938L3815.49,183.03L3815.5,183.121L3815.51,183.215L3815.52,183.309L3815.53,183.4L3815.55,183.494L3815.56,183.588L3815.57,183.681L3815.58,183.776L3815.59,183.869L3815.6,183.961L3815.61,184.055L3815.62,184.15L3815.62,184.243L3815.63,184.337L3815.64,184.431L3815.65,184.525L3815.66,184.621L3815.66,184.715L3815.67,184.809L3815.68,184.903L3815.68,184.997L3815.69,185.091L3815.7,185.186L3815.7,185.282L3815.71,185.376L3815.71,185.471L3815.72,185.567L3815.72,185.662L3815.72,185.755L3815.73,185.852L3815.73,185.948L3815.74,186.042L3815.74,186.137L3815.74,186.234L3815.74,186.329L3815.74,186.424L3815.75,186.521L3815.75,186.616L3815.75,186.712L3815.75,186.809L3815.75,186.904L3815.75,187L3815.75,187.096L3815.75,187.191L3815.75,187.288L3815.75,187.384L3815.75,187.479L3815.74,187.576L3815.74,187.671L3815.74,187.766L3815.74,187.863L3815.74,187.958L3815.73,188.052L3815.73,188.148L3815.72,188.245L3815.72,188.338L3815.72,188.433L3815.71,188.529L3815.71,188.624L3815.7,188.718L3815.7,188.814L3815.69,188.909L3815.68,189.003L3815.68,189.097L3815.67,189.191L3815.66,189.285L3815.66,189.379L3815.65,189.475L3815.64,189.569L3815.63,189.663L3815.62,189.757L3815.62,189.85L3815.61,189.945L3815.6,190.039L3815.59,190.131L3815.58,190.224L3815.57,190.319L3815.56,190.412L3815.55,190.506L3815.53,190.6L3815.52,190.691L3815.51,190.785L3815.5,190.879L3815.49,190.97L3815.47,191.062L3815.46,191.157L3815.45,191.25L3815.43,191.342L3815.42,191.435L3815.41,191.527L3815.39,191.619L3815.38,191.71L3815.36,191.803L3815.35,191.895L3815.33,191.987L3815.32,192.079L3815.3,192.17L3815.28,192.261L3815.27,192.354L3815.25,192.445L3815.24,192.536L3815.22,192.627L3815.2,192.718L3815.18,192.81L3815.16,192.901L3815.14,192.991L3815.13,193.082L3815.11,193.173L3815.09,193.264L3815.07,193.352L3815.05,193.444L3815.03,193.535L3815.01,193.623L3814.99,193.716L3814.97,193.805L3814.95,193.893L3814.92,193.983L3814.9,194.073L3814.88,194.162L3814.86,194.252L3814.84,194.342L3814.81,194.431L3814.79,194.52L3814.77,194.609L3814.74,194.697L3814.72,194.786L3814.7,194.874L3814.67,194.964L3814.64,195.052L3814.62,195.14L3814.6,195.23L3814.57,195.316L3814.54,195.404L3814.52,195.492L3814.49,195.581L3814.47,195.668L3814.44,195.754L3814.41,195.843L3814.38,195.931L3814.36,196.017L3814.33,196.104L3814.3,196.192L3814.27,196.279L3814.24,196.365L3814.21,196.452L3814.18,196.538L3814.16,196.623L3814.13,196.71L3814.1,196.797L3814.07,196.883L3814.04,196.967L3814.01,197.054L3813.97,197.14L3813.94,197.225L3813.91,197.311L3813.88,197.398L3813.85,197.482L3813.82,197.565L3813.78,197.651L3813.75,197.735L3813.72,197.821L3813.68,197.908L3813.62,198.074L3813.55,198.241L3813.48,198.41L3813.41,198.576L3813.34,198.743L3813.27,198.909L3813.19,199.075L3813.12,199.24L3813.04,199.404L3812.97,199.568L3812.89,199.732L3812.81,199.895L3812.74,200.056L3812.66,200.219L3812.57,200.38L3812.49,200.54L3812.41,200.701L3812.33,200.86L3812.24,201.019L3812.16,201.178L3812.07,201.335L3811.98,201.493L3811.89,201.65L3811.81,201.805L3811.72,201.96L3811.62,202.115L3811.53,202.269L3811.44,202.424L3811.35,202.577L3811.25,202.729L3811.16,202.88L3811.06,203.032L3810.96,203.183L3810.86,203.332L3810.77,203.481L3810.66,203.631L3810.56,203.779L3810.46,203.926L3810.36,204.073L3810.26,204.219L3810.15,204.364L3810.05,204.508L3809.94,204.653L3809.84,204.797L3809.73,204.94L3809.62,205.081L3809.51,205.223L3809.4,205.364L3809.29,205.504L3809.18,205.643L3809.07,205.782L3808.95,205.92L3808.84,206.058L3808.72,206.195L3808.61,206.33L3808.49,206.465L3808.37,206.601L3808.26,206.734L3808.14,206.867L3808.02,206.999L3807.9,207.131L3807.78,207.263L3807.65,207.392L3807.53,207.522L3807.41,207.651L3807.28,207.779L3807.16,207.907L3807.03,208.032L3806.91,208.158L3806.78,208.284L3806.65,208.407L3806.52,208.53L3806.39,208.654L3806.26,208.776L3806.13,208.897L3806,209.017L3805.87,209.137L3805.73,209.256L3805.6,209.374L3805.47,209.491L3805.33,209.608L3805.19,209.724L3805.06,209.838L3804.92,209.952L3804.78,210.065L3804.64,210.178L3804.5,210.29L3804.36,210.401L3804.22,210.51L3804.08,210.62L3803.94,210.729L3803.8,210.836L3803.65,210.942L3803.51,211.048L3803.36,211.154L3803.22,211.257L3803.07,211.361L3802.93,211.462L3802.78,211.565L3802.63,211.665L3802.48,211.765L3802.33,211.864L3802.18,211.963L3802.03,212.06L3801.88,212.155L3801.73,212.251L3801.58,212.345L3801.42,212.439L3801.27,212.532L3801.12,212.624L3800.96,212.715L3800.81,212.805L3800.65,212.894L3800.49,212.982L3800.34,213.07L3800.18,213.156L3800.02,213.241L3799.86,213.326L3799.7,213.41L3799.54,213.492L3799.38,213.575L3799.22,213.654L3799.06,213.734L3798.89,213.813L3798.73,213.892L3798.57,213.968L3798.4,214.044L3798.24,214.119L3798.08,214.193L3797.91,214.267L3797.74,214.339L3797.58,214.41L3797.41,214.48L3797.24,214.549L3797.07,214.617L3796.91,214.684L3796.82,214.717L3796.74,214.75L3796.65,214.783L3796.57,214.815L3796.48,214.847L3796.4,214.88L3796.31,214.912L3796.22,214.943L3796.14,214.974L3796.06,215.004L3795.97,215.035L3795.88,215.066L3795.8,215.097L3795.71,215.126L3795.62,215.156L3795.54,215.186L3795.45,215.215L3795.37,215.243L3795.28,215.272L3795.19,215.301L3795.1,215.329L3795.02,215.356L3794.93,215.383L3794.85,215.41L3794.76,215.438L3794.67,215.465L3794.58,215.492L3794.49,215.519L3794.4,215.544L3794.32,215.57L3794.23,215.595L3794.14,215.62L3794.05,215.646L3793.96,215.67L3793.88,215.694L3793.79,215.719L3793.7,215.742L3793.61,215.766L3793.52,215.789L3793.43,215.813L3793.34,215.835L3793.25,215.858L3793.16,215.88L3793.08,215.902L3792.98,215.924L3792.89,215.945L3792.8,215.967L3792.71,215.988L3792.62,216.008L3792.53,216.028L3792.45,216.048L3792.35,216.069L3792.26,216.088L3792.17,216.107L3792.08,216.127L3791.99,216.145L3791.9,216.163L3791.81,216.182L3791.72,216.2L3791.63,216.217L3791.54,216.234L3791.45,216.252L3791.36,216.268L3791.26,216.285L3791.17,216.301L3791.08,216.317L3790.99,216.333L3790.89,216.348L3790.8,216.364L3790.71,216.378L3790.62,216.392L3790.53,216.407L3790.43,216.421L3790.34,216.435L3790.25,216.448L3790.16,216.461L3790.07,216.474L3789.97,216.487L3789.88,216.499L3789.78,216.511L3789.69,216.523L3789.6,216.534L3789.51,216.545L3789.41,216.556L3789.32,216.566L3789.23,216.577L3789.13,216.587L3789.04,216.597L3788.94,216.606L3788.85,216.615L3788.76,216.623L3788.66,216.632L3788.57,216.64L3788.47,216.648L3788.38,216.656L3788.28,216.664L3788.19,216.67L3788.1,216.677L3788,216.683L3787.91,216.69L3787.81,216.696L3787.72,216.701L3787.62,216.706L3787.53,216.711L3787.43,216.716L3787.34,216.72L3787.24,216.724L3787.15,216.728L3787.05,216.732L3786.96,216.735L3786.86,216.738L3786.77,216.74L3786.67,216.743L3786.58,216.744L3786.48,216.746L3786.38,216.747L3786.29,216.749L3786.19,216.749L3786.1,216.75L3785.9,216.75L3785.81,216.749L3785.71,216.749L3785.62,216.747L3785.52,216.746L3785.42,216.744L3785.33,216.743L3785.23,216.74L3785.14,216.738L3785.04,216.735L3784.95,216.732L3784.85,216.728L3784.76,216.724L3784.66,216.72L3784.57,216.716L3784.47,216.711L3784.38,216.706L3784.28,216.701L3784.19,216.696L3784.09,216.69L3784,216.683L3783.9,216.677L3783.81,216.67L3783.72,216.664L3783.62,216.656L3783.53,216.648L3783.43,216.64L3783.34,216.632L3783.24,216.623L3783.15,216.615L3783.06,216.606L3782.96,216.597L3782.87,216.587L3782.77,216.577L3782.68,216.566L3782.59,216.556L3782.49,216.545L3782.4,216.534L3782.31,216.523L3782.22,216.511L3782.12,216.499L3782.03,216.487L3781.93,216.474L3781.84,216.461L3781.75,216.448L3781.66,216.435L3781.57,216.421L3781.47,216.407L3781.38,216.392L3781.29,216.378L3781.2,216.364L3781.11,216.348L3781.01,216.333L3780.92,216.317L3780.83,216.301L3780.74,216.285L3780.64,216.268L3780.56,216.252L3780.46,216.234L3780.37,216.217L3780.28,216.2L3780.19,216.182L3780.1,216.163L3780.01,216.145L3779.92,216.127L3779.83,216.107L3779.74,216.088L3779.65,216.069L3779.55,216.048L3779.47,216.028L3779.38,216.008L3779.29,215.988L3779.2,215.967L3779.11,215.945L3779.02,215.924L3778.93,215.902L3778.84,215.88L3778.75,215.858L3778.66,215.835L3778.57,215.813L3778.48,215.789L3778.39,215.766L3778.3,215.742L3778.21,215.719L3778.12,215.694L3778.04,215.67L3777.95,215.646L3777.86,215.62L3777.77,215.595L3777.68,215.57L3777.6,215.544L3777.51,215.519L3777.42,215.492L3777.33,215.465L3777.24,215.438L3777.16,215.41L3777.07,215.383L3776.98,215.356L3776.9,215.329L3776.81,215.301L3776.72,215.272L3776.63,215.243L3776.55,215.215L3776.46,215.186L3776.38,215.156L3776.29,215.126L3776.2,215.097L3776.12,215.066L3776.03,215.035L3775.94,215.004L3775.86,214.974L3775.78,214.943L3775.69,214.912L3775.6,214.88L3775.52,214.847L3775.43,214.815L3775.35,214.783L3775.26,214.75L3775.18,214.717L3775.1,214.684L3774.93,214.617L3774.76,214.549L3774.59,214.48L3774.42,214.41L3774.26,214.339L3774.09,214.267L3773.92,214.193L3773.76,214.119L3773.6,214.044L3773.43,213.968L3773.27,213.892L3773.11,213.813L3772.94,213.734L3772.78,213.654L3772.62,213.575L3772.46,213.492L3772.3,213.41L3772.14,213.326L3771.98,213.241L3771.82,213.156L3771.66,213.07L3771.51,212.982L3771.35,212.894L3771.19,212.805L3771.04,212.715L3770.89,212.624L3770.73,212.532L3770.58,212.439L3770.42,212.345L3770.27,212.251L3770.12,212.155L3769.97,212.06L3769.82,211.963L3769.67,211.864L3769.52,211.765L3769.37,211.665L3769.22,211.565L3769.07,211.462L3768.93,211.361L3768.78,211.257L3768.64,211.154L3768.49,211.048L3768.35,210.942L3768.2,210.836L3768.06,210.729L3767.92,210.62L3767.78,210.51L3767.64,210.401L3767.5,210.29L3767.36,210.178L3767.22,210.065L3767.08,209.952L3766.94,209.838L3766.81,209.724L3766.67,209.608L3766.53,209.491L3766.4,209.374L3766.27,209.256L3766.13,209.137L3766,209.017L3765.87,208.897L3765.74,208.776L3765.61,208.654L3765.48,208.53L3765.35,208.407L3765.22,208.284L3765.09,208.158L3764.97,208.032L3764.84,207.907L3764.72,207.779L3764.59,207.651L3764.47,207.522L3764.35,207.392L3764.22,207.263L3764.1,207.131L3763.98,206.999L3763.86,206.867L3763.74,206.734L3763.63,206.601L3763.51,206.465L3763.39,206.33L3763.28,206.195L3763.16,206.058L3763.05,205.92L3762.93,205.782L3762.82,205.643L3762.71,205.504L3762.6,205.364L3762.49,205.223L3762.38,205.081L3762.27,204.94L3762.16,204.797L3762.06,204.653L3761.95,204.508L3761.85,204.364L3761.74,204.219L3761.64,204.073L3761.54,203.926L3761.44,203.779L3761.34,203.631L3761.23,203.481L3761.14,203.332L3761.04,203.183L3760.94,203.032L3760.84,202.88L3760.75,202.729L3760.66,202.577L3760.56,202.424L3760.47,202.269L3760.38,202.115L3760.28,201.96L3760.2,201.805L3760.11,201.65L3760.02,201.493L3759.93,201.335L3759.84,201.178L3759.76,201.019L3759.67,200.86L3759.59,200.701L3759.51,200.54L3759.43,200.38L3759.35,200.219L3759.26,200.056L3759.19,199.895L3759.11,199.732L3759.03,199.568L3758.96,199.404L3758.88,199.24L3758.81,199.075L3758.73,198.909L3758.66,198.743L3758.59,198.576L3758.52,198.41L3758.45,198.241L3758.38,198.074L3758.32,197.908L3758.28,197.821L3758.25,197.735L3758.22,197.651L3758.18,197.565L3758.15,197.482L3758.12,197.398L3758.09,197.311L3758.06,197.225L3758.03,197.14L3757.99,197.054L3757.96,196.967L3757.93,196.883L3757.9,196.797L3757.87,196.71L3757.84,196.623L3757.82,196.538L3757.79,196.452L3757.76,196.365L3757.73,196.279L3757.7,196.192L3757.67,196.104L3757.64,196.017L3757.62,195.931L3757.59,195.843L3757.56,195.754L3757.53,195.668L3757.51,195.581L3757.48,195.492L3757.46,195.404L3757.43,195.316L3757.41,195.23L3757.38,195.14L3757.36,195.052L3757.33,194.964L3757.31,194.874L3757.28,194.786L3757.26,194.697L3757.23,194.609L3757.21,194.52L3757.19,194.431L3757.16,194.342L3757.14,194.252L3757.12,194.162L3757.1,194.073L3757.08,193.983L3757.05,193.893L3757.03,193.805L3757.01,193.716L3756.99,193.623L3756.97,193.535L3756.95,193.444L3756.93,193.352L3756.91,193.264L3756.89,193.173L3756.87,193.082L3756.86,192.991L3756.84,192.901L3756.82,192.81L3756.8,192.718L3756.78,192.627L3756.76,192.536L3756.75,192.445L3756.73,192.354L3756.72,192.261L3756.7,192.17L3756.68,192.079L3756.67,191.987L3756.65,191.895L3756.64,191.803L3756.62,191.71L3756.61,191.619L3756.59,191.527L3756.58,191.435L3756.57,191.342L3756.55,191.25L3756.54,191.157L3756.53,191.062L3756.51,190.97L3756.5,190.879L3756.49,190.785L3756.48,190.691L3756.47,190.6L3756.45,190.506L3756.44,190.412L3756.43,190.319L3756.42,190.224L3756.41,190.131L3756.4,190.039L3756.39,189.945L3756.39,189.85L3756.38,189.757L3756.37,189.663L3756.36,189.569L3756.35,189.475L3756.34,189.379L3756.34,189.285L3756.33,189.191L3756.32,189.097L3756.32,189.003L3756.31,188.909L3756.3,188.814L3756.3,188.718L3756.29,188.624L3756.29,188.529L3756.28,188.433L3756.28,188.338L3756.28,188.245L3756.27,188.148L3756.27,188.052L3756.26,187.958L3756.26,187.863L3756.26,187.766L3756.26,187.671L3756.26,187.576L3756.25,187.479L3756.25,187.384L3756.25,187.288L3756.25,187.191L3756.25,187.096L3756.25,187L3756.25,186.904L3756.25,186.809L3756.25,186.712L3756.25,186.616L3756.25,186.521L3756.26,186.424L3756.26,186.329L3756.26,186.234L3756.26,186.137L3756.26,186.042L3756.27,185.948L3756.27,185.852L3756.28,185.755L3756.28,185.662L3756.28,185.567L3756.29,185.471L3756.29,185.376L3756.3,185.282L3756.3,185.186L3756.31,185.091L3756.32,184.997L3756.32,184.903L3756.33,184.809L3756.34,184.715L3756.34,184.621L3756.35,184.525L3756.36,184.431L3756.37,184.337L3756.38,184.243L3756.39,184.15L3756.39,184.055L3756.4,183.961L3756.41,183.869L3756.42,183.776L3756.43,183.681L3756.44,183.588L3756.45,183.494L3756.47,183.4L3756.48,183.309L3756.49,183.215L3756.5,183.121L3756.51,183.03L3756.53,182.938L3756.54,182.843L3756.55,182.75L3756.57,182.658L3756.58,182.565L3756.59,182.473L3756.61,182.381L3756.62,182.29L3756.64,182.197L3756.65,182.105L3756.67,182.013L3756.68,181.921L3756.7,181.83L3756.72,181.739L3756.73,181.646L3756.75,181.555L3756.76,181.464L3756.78,181.373L3756.8,181.282L3756.82,181.19L3756.84,181.099L3756.86,181.009L3756.87,180.918L3756.89,180.827L3756.91,180.736L3756.93,180.648L3756.95,180.556L3756.97,180.465L3756.99,180.377L3757.01,180.284L3757.03,180.195L3757.05,180.107L3757.08,180.017L3757.1,179.927L3757.12,179.838L3757.14,179.748L3757.16,179.658L3757.19,179.569L3757.21,179.48L3757.23,179.391L3757.26,179.303L3757.28,179.214L3757.31,179.126L3757.33,179.036L3757.36,178.948L3757.38,178.86L3757.41,178.77L3757.43,178.684L3757.46,178.596L3757.48,178.508L3757.51,178.419L3757.53,178.332L3757.56,178.246L3757.59,178.157L3757.62,178.069L3757.64,177.983L3757.67,177.896L3757.7,177.808L3757.73,177.721L3757.76,177.635L3757.79,177.548L3757.82,177.462L3757.84,177.377L3757.87,177.29L3757.9,177.203L3757.93,177.117L3757.96,177.033L3757.99,176.946L3758.03,176.86L3758.06,176.775L3758.09,176.689L3758.12,176.602L3758.15,176.518L3758.18,176.435L3758.22,176.349L3758.25,176.265L3758.28,176.179L3758.32,176.092L3758.38,175.926L3758.45,175.759L3758.52,175.59L3758.59,175.424L3758.66,175.257L3758.73,175.091L3758.81,174.925L3758.88,174.76L3758.96,174.596L3759.03,174.432L3759.11,174.268L3759.19,174.105L3759.26,173.944L3759.35,173.781L3759.43,173.62L3759.51,173.46L3759.59,173.299L3759.67,173.14L3759.76,172.981L3759.84,172.822L3759.93,172.665L3760.02,172.507L3760.11,172.35L3760.2,172.195L3760.28,172.04L3760.38,171.885L3760.47,171.731L3760.56,171.576L3760.66,171.423L3760.75,171.271L3760.84,171.12L3760.94,170.968L3761.04,170.817L3761.14,170.668L3761.23,170.519L3761.34,170.369L3761.44,170.221L3761.54,170.074L3761.64,169.927L3761.74,169.781L3761.85,169.636L3761.95,169.492L3762.06,169.347L3762.16,169.203L3762.27,169.06L3762.38,168.919L3762.49,168.777L3762.6,168.636L3762.71,168.496L3762.82,168.357L3762.93,168.218L3763.05,168.08L3763.16,167.942L3763.28,167.805L3763.39,167.67L3763.51,167.535L3763.63,167.399L3763.74,167.266L3763.86,167.133L3763.98,167.001L3764.1,166.869L3764.22,166.737L3764.35,166.608L3764.47,166.478L3764.59,166.349L3764.72,166.221L3764.84,166.093L3764.97,165.968L3765.09,165.842L3765.22,165.716L3765.35,165.593L3765.48,165.47L3765.61,165.346L3765.74,165.224L3765.87,165.103L3766,164.983L3766.13,164.863L3766.27,164.744L3766.4,164.626L3766.53,164.509L3766.67,164.392L3766.81,164.276L3766.94,164.162L3767.08,164.048L3767.22,163.935L3767.36,163.822L3767.5,163.71L3767.64,163.599L3767.78,163.49L3767.92,163.38L3768.06,163.271L3768.2,163.164L3768.35,163.058L3768.49,162.952L3768.64,162.846L3768.78,162.743L3768.93,162.639L3769.07,162.538L3769.22,162.435L3769.37,162.335L3769.52,162.235L3769.67,162.136L3769.82,162.037L3769.97,161.94L3770.12,161.845L3770.27,161.749L3770.42,161.655L3770.58,161.561L3770.73,161.468L3770.89,161.376L3771.04,161.285L3771.19,161.195L3771.35,161.106L3771.51,161.018L3771.66,160.93L3771.82,160.844L3771.98,160.759L3772.14,160.674L3772.3,160.59L3772.46,160.508L3772.62,160.425L3772.78,160.346L3772.94,160.266L3773.11,160.187L3773.27,160.108L3773.43,160.032L3773.6,159.956L3773.76,159.881L3773.92,159.807L3774.09,159.733L3774.26,159.661L3774.42,159.59L3774.59,159.52L3774.76,159.451L3774.93,159.383L3775.1,159.316L3775.18,159.283L3775.26,159.25L3775.35,159.217L3775.43,159.185L3775.52,159.153L3775.6,159.12L3775.69,159.088L3775.78,159.057L3775.86,159.026L3775.94,158.996L3776.03,158.965L3776.12,158.934L3776.2,158.903L3776.29,158.874L3776.38,158.844L3776.46,158.814L3776.55,158.785L3776.63,158.757L3776.72,158.728L3776.81,158.699L3776.9,158.671L3776.98,158.644L3777.07,158.617L3777.16,158.59L3777.24,158.562L3777.33,158.535L3777.42,158.508L3777.51,158.481L3777.6,158.456L3777.68,158.43L3777.77,158.405L3777.86,158.38L3777.95,158.354L3778.04,158.33L3778.12,158.306L3778.21,158.281L3778.3,158.258L3778.39,158.234L3778.48,158.211L3778.57,158.187L3778.66,158.165L3778.75,158.142L3778.84,158.12L3778.93,158.098L3779.02,158.076L3779.11,158.055L3779.2,158.033L3779.29,158.012L3779.38,157.992L3779.47,157.972L3779.55,157.952L3779.65,157.931L3779.74,157.912L3779.83,157.893L3779.92,157.873L3780.01,157.855L3780.1,157.837L3780.19,157.818L3780.28,157.8L3780.37,157.783L3780.46,157.766L3780.56,157.748L3780.64,157.732L3780.74,157.715L3780.83,157.699L3780.92,157.683L3781.01,157.667L3781.11,157.652L3781.2,157.636L3781.29,157.622L3781.38,157.608L3781.47,157.593L3781.57,157.579L3781.66,157.565L3781.75,157.552L3781.84,157.539L3781.93,157.526L3782.03,157.513L3782.12,157.501L3782.22,157.489L3782.31,157.477L3782.4,157.466L3782.49,157.455L3782.59,157.444L3782.68,157.434L3782.77,157.423L3782.87,157.413L3782.96,157.403L3783.06,157.394L3783.15,157.385L3783.24,157.377L3783.34,157.368L3783.43,157.36L3783.53,157.352L3783.62,157.344L3783.72,157.336L3783.81,157.33L3783.9,157.323L3784,157.317L3784.09,157.31L3784.19,157.304L3784.28,157.299L3784.38,157.294L3784.47,157.289L3784.57,157.284L3784.66,157.28L3784.76,157.276L3784.85,157.272L3784.95,157.268L3785.04,157.265L3785.14,157.262L3785.23,157.26L3785.33,157.257L3785.42,157.256L3785.52,157.254L3785.62,157.253L3785.71,157.251L3785.81,157.251L3785.9,157.25L3786.1,157.25L3786.19,157.251ZM3785.92,160.75L3785.83,160.751L3785.75,160.751L3785.66,160.752L3785.58,160.753L3785.49,160.755L3785.41,160.757L3785.32,160.759L3785.24,160.761L3785.15,160.764L3785.07,160.766L3784.99,160.769L3784.9,160.773L3784.82,160.776L3784.73,160.78L3784.65,160.784L3784.57,160.789L3784.48,160.793L3784.39,160.798L3784.31,160.803L3784.23,160.809L3784.15,160.814L3784.06,160.821L3783.98,160.827L3783.9,160.833L3783.81,160.84L3783.73,160.847L3783.65,160.854L3783.57,160.861L3783.48,160.87L3783.4,160.878L3783.32,160.886L3783.23,160.894L3783.15,160.903L3783.07,160.912L3782.98,160.922L3782.9,160.931L3782.82,160.941L3782.74,160.951L3782.66,160.961L3782.57,160.972L3782.49,160.982L3782.41,160.993L3782.33,161.005L3782.25,161.017L3782.17,161.028L3782.08,161.041L3782,161.053L3781.92,161.065L3781.84,161.078L3781.76,161.092L3781.68,161.104L3781.6,161.118L3781.52,161.132L3781.43,161.146L3781.35,161.16L3781.28,161.175L3781.19,161.19L3781.11,161.204L3781.03,161.22L3780.95,161.236L3780.87,161.251L3780.79,161.267L3780.71,161.284L3780.63,161.301L3780.55,161.317L3780.47,161.334L3780.39,161.351L3780.31,161.368L3780.23,161.386L3780.15,161.405L3780.07,161.423L3779.99,161.441L3779.92,161.459L3779.84,161.479L3779.76,161.497L3779.68,161.517L3779.6,161.537L3779.52,161.557L3779.44,161.577L3779.36,161.597L3779.29,161.617L3779.21,161.638L3779.13,161.66L3779.05,161.681L3778.97,161.703L3778.89,161.725L3778.82,161.746L3778.74,161.769L3778.66,161.791L3778.58,161.814L3778.51,161.837L3778.43,161.86L3778.35,161.883L3778.28,161.906L3778.2,161.93L3778.12,161.954L3778.04,161.979L3777.97,162.004L3777.89,162.029L3777.81,162.053L3777.74,162.078L3777.66,162.104L3777.58,162.13L3777.51,162.155L3777.43,162.182L3777.36,162.208L3777.28,162.234L3777.21,162.261L3777.13,162.288L3777.05,162.316L3776.98,162.344L3776.9,162.372L3776.83,162.399L3776.76,162.426L3776.68,162.455L3776.6,162.484L3776.53,162.512L3776.45,162.542L3776.38,162.572L3776.23,162.63L3776.08,162.691L3775.93,162.752L3775.79,162.813L3775.64,162.876L3775.49,162.94L3775.35,163.004L3775.2,163.07L3775.06,163.136L3774.91,163.203L3774.77,163.271L3774.63,163.339L3774.48,163.408L3774.34,163.479L3774.2,163.551L3774.06,163.622L3773.91,163.696L3773.77,163.769L3773.64,163.843L3773.49,163.919L3773.36,163.995L3773.22,164.073L3773.08,164.15L3772.94,164.229L3772.8,164.309L3772.67,164.389L3772.53,164.469L3772.39,164.551L3772.26,164.634L3772.12,164.717L3771.99,164.802L3771.86,164.887L3771.72,164.973L3771.59,165.059L3771.46,165.146L3771.33,165.235L3771.2,165.323L3771.07,165.413L3770.94,165.504L3770.81,165.595L3770.68,165.687L3770.55,165.779L3770.43,165.872L3770.3,165.967L3770.17,166.062L3770.05,166.157L3769.92,166.254L3769.8,166.351L3769.68,166.449L3769.55,166.547L3769.43,166.646L3769.31,166.747L3769.19,166.848L3769.07,166.949L3768.95,167.052L3768.83,167.154L3768.71,167.258L3768.59,167.362L3768.47,167.467L3768.36,167.572L3768.24,167.679L3768.12,167.786L3768.01,167.894L3767.89,168.001L3767.78,168.111L3767.67,168.222L3767.55,168.331L3767.44,168.442L3767.33,168.555L3767.22,168.666L3767.11,168.78L3767,168.893L3766.89,169.007L3766.78,169.123L3766.68,169.238L3766.57,169.355L3766.47,169.472L3766.36,169.59L3766.26,169.708L3766.15,169.826L3766.05,169.945L3765.95,170.066L3765.85,170.187L3765.75,170.308L3765.65,170.429L3765.55,170.552L3765.45,170.676L3765.35,170.8L3765.25,170.923L3765.16,171.048L3765.06,171.174L3764.97,171.3L3764.87,171.426L3764.78,171.553L3764.69,171.682L3764.6,171.81L3764.5,171.939L3764.41,172.069L3764.32,172.199L3764.23,172.33L3764.15,172.46L3764.06,172.592L3763.97,172.725L3763.89,172.857L3763.8,172.991L3763.72,173.125L3763.63,173.26L3763.55,173.395L3763.47,173.529L3763.39,173.666L3763.31,173.803L3763.23,173.94L3763.15,174.078L3763.07,174.216L3762.99,174.355L3762.92,174.494L3762.84,174.633L3762.77,174.774L3762.7,174.915L3762.62,175.055L3762.55,175.198L3762.48,175.339L3762.41,175.481L3762.34,175.626L3762.27,175.769L3762.2,175.913L3762.14,176.058L3762.07,176.203L3762,176.348L3761.94,176.494L3761.88,176.641L3761.81,176.787L3761.75,176.935L3761.69,177.083L3761.63,177.231L3761.57,177.382L3761.54,177.454L3761.51,177.528L3761.48,177.603L3761.46,177.677L3761.43,177.754L3761.4,177.83L3761.37,177.904L3761.34,177.978L3761.32,178.054L3761.29,178.129L3761.26,178.204L3761.24,178.282L3761.21,178.358L3761.18,178.433L3761.16,178.508L3761.13,178.585L3761.1,178.662L3761.08,178.738L3761.05,178.814L3761.03,178.891L3761,178.966L3760.98,179.043L3760.95,179.122L3760.93,179.198L3760.91,179.273L3760.88,179.352L3760.86,179.43L3760.84,179.506L3760.81,179.583L3760.79,179.661L3760.77,179.74L3760.75,179.817L3760.72,179.895L3760.7,179.973L3760.68,180.05L3760.66,180.128L3760.64,180.207L3760.62,180.286L3760.6,180.364L3760.58,180.443L3760.56,180.522L3760.54,180.599L3760.52,180.678L3760.5,180.757L3760.48,180.836L3760.46,180.914L3760.44,180.996L3760.42,181.075L3760.41,181.152L3760.39,181.233L3760.37,181.312L3760.35,181.39L3760.33,181.472L3760.32,181.551L3760.3,181.631L3760.28,181.711L3760.27,181.792L3760.25,181.871L3760.24,181.951L3760.22,182.032L3760.2,182.112L3760.19,182.193L3760.18,182.274L3760.16,182.354L3760.15,182.435L3760.13,182.516L3760.12,182.597L3760.11,182.678L3760.09,182.759L3760.08,182.84L3760.07,182.922L3760.05,183.003L3760.04,183.085L3760.03,183.166L3760.02,183.248L3760.01,183.329L3759.99,183.41L3759.98,183.492L3759.97,183.576L3759.96,183.656L3759.95,183.738L3759.94,183.823L3759.93,183.903L3759.92,183.986L3759.91,184.068L3759.9,184.149L3759.89,184.232L3759.89,184.317L3759.88,184.399L3759.87,184.481L3759.86,184.564L3759.85,184.647L3759.85,184.731L3759.84,184.814L3759.83,184.896L3759.83,184.98L3759.82,185.063L3759.82,185.147L3759.81,185.231L3759.8,185.314L3759.8,185.398L3759.79,185.481L3759.79,185.565L3759.78,185.649L3759.78,185.731L3759.78,185.816L3759.77,185.902L3759.77,185.985L3759.77,186.068L3759.76,186.154L3759.76,186.239L3759.76,186.322L3759.76,186.407L3759.76,186.492L3759.75,186.575L3759.75,186.66L3759.75,186.746L3759.75,186.829L3759.75,186.914L3759.75,187L3759.75,187.086L3759.75,187.171L3759.75,187.254L3759.75,187.34L3759.75,187.425L3759.76,187.508L3759.76,187.593L3759.76,187.678L3759.76,187.761L3759.76,187.846L3759.77,187.932L3759.77,188.015L3759.77,188.098L3759.78,188.184L3759.78,188.269L3759.78,188.351L3759.79,188.435L3759.79,188.519L3759.8,188.602L3759.8,188.686L3759.81,188.769L3759.82,188.853L3759.82,188.937L3759.83,189.02L3759.83,189.104L3759.84,189.186L3759.85,189.269L3759.85,189.353L3759.86,189.436L3759.87,189.519L3759.88,189.601L3759.89,189.683L3759.89,189.768L3759.9,189.851L3759.91,189.932L3759.92,190.014L3759.93,190.097L3759.94,190.177L3759.95,190.262L3759.96,190.344L3759.97,190.424L3759.98,190.508L3759.99,190.59L3760.01,190.671L3760.02,190.752L3760.03,190.834L3760.04,190.915L3760.05,190.997L3760.07,191.078L3760.08,191.16L3760.09,191.241L3760.11,191.322L3760.12,191.403L3760.13,191.484L3760.15,191.565L3760.16,191.646L3760.18,191.726L3760.19,191.807L3760.2,191.888L3760.22,191.968L3760.24,192.049L3760.25,192.129L3760.27,192.208L3760.28,192.289L3760.3,192.369L3760.32,192.449L3760.33,192.528L3760.35,192.61L3760.37,192.688L3760.39,192.767L3760.41,192.848L3760.42,192.925L3760.44,193.004L3760.46,193.086L3760.48,193.164L3760.5,193.243L3760.52,193.322L3760.54,193.401L3760.56,193.478L3760.58,193.557L3760.6,193.636L3760.62,193.714L3760.64,193.793L3760.66,193.872L3760.68,193.95L3760.7,194.027L3760.72,194.105L3760.75,194.183L3760.77,194.26L3760.79,194.339L3760.81,194.417L3760.84,194.494L3760.86,194.57L3760.88,194.648L3760.91,194.727L3760.93,194.802L3760.95,194.878L3760.98,194.957L3761,195.034L3761.03,195.109L3761.05,195.186L3761.08,195.262L3761.1,195.338L3761.13,195.415L3761.16,195.492L3761.18,195.567L3761.21,195.642L3761.24,195.718L3761.29,195.871L3761.34,196.022L3761.37,196.096L3761.4,196.17L3761.43,196.246L3761.46,196.323L3761.48,196.397L3761.51,196.472L3761.54,196.546L3761.57,196.618L3761.63,196.769L3761.69,196.917L3761.75,197.065L3761.81,197.213L3761.88,197.359L3761.94,197.506L3762,197.652L3762.07,197.797L3762.14,197.942L3762.2,198.087L3762.27,198.231L3762.34,198.374L3762.41,198.519L3762.48,198.661L3762.55,198.802L3762.62,198.945L3762.7,199.085L3762.77,199.226L3762.84,199.367L3762.92,199.506L3762.99,199.645L3763.07,199.784L3763.15,199.922L3763.23,200.06L3763.31,200.197L3763.39,200.334L3763.47,200.471L3763.55,200.605L3763.63,200.74L3763.72,200.875L3763.8,201.009L3763.89,201.143L3763.97,201.275L3764.06,201.408L3764.15,201.54L3764.23,201.67L3764.32,201.801L3764.41,201.931L3764.5,202.061L3764.6,202.19L3764.69,202.318L3764.78,202.447L3764.87,202.574L3764.97,202.7L3765.06,202.826L3765.16,202.952L3765.25,203.077L3765.35,203.2L3765.45,203.324L3765.55,203.448L3765.65,203.571L3765.75,203.692L3765.85,203.813L3765.95,203.934L3766.05,204.055L3766.15,204.174L3766.26,204.292L3766.36,204.41L3766.47,204.528L3766.57,204.645L3766.68,204.762L3766.78,204.877L3766.89,204.993L3767,205.107L3767.11,205.22L3767.22,205.334L3767.33,205.445L3767.44,205.558L3767.55,205.669L3767.67,205.778L3767.78,205.889L3767.89,205.999L3768.01,206.106L3768.12,206.214L3768.24,206.321L3768.36,206.428L3768.47,206.533L3768.59,206.638L3768.71,206.742L3768.83,206.846L3768.95,206.948L3769.07,207.051L3769.19,207.152L3769.31,207.253L3769.43,207.354L3769.55,207.453L3769.68,207.551L3769.8,207.649L3769.92,207.746L3770.05,207.843L3770.17,207.938L3770.3,208.033L3770.43,208.128L3770.55,208.221L3770.68,208.313L3770.81,208.405L3770.94,208.496L3771.07,208.587L3771.2,208.677L3771.33,208.765L3771.46,208.854L3771.59,208.941L3771.72,209.027L3771.86,209.113L3771.99,209.198L3772.12,209.283L3772.26,209.366L3772.39,209.449L3772.53,209.531L3772.67,209.611L3772.8,209.691L3772.94,209.771L3773.08,209.85L3773.22,209.927L3773.36,210.005L3773.49,210.081L3773.64,210.157L3773.77,210.231L3773.91,210.304L3774.06,210.378L3774.2,210.449L3774.34,210.521L3774.48,210.592L3774.63,210.661L3774.77,210.729L3774.91,210.797L3775.06,210.864L3775.2,210.93L3775.35,210.996L3775.49,211.06L3775.64,211.124L3775.79,211.187L3775.93,211.248L3776.08,211.309L3776.23,211.37L3776.38,211.428L3776.53,211.488L3776.6,211.516L3776.68,211.545L3776.76,211.574L3776.83,211.601L3776.9,211.628L3776.98,211.656L3777.05,211.684L3777.13,211.712L3777.21,211.739L3777.28,211.766L3777.36,211.792L3777.43,211.818L3777.51,211.845L3777.58,211.87L3777.66,211.896L3777.74,211.922L3777.81,211.947L3777.89,211.971L3777.97,211.996L3778.04,212.021L3778.2,212.07L3778.28,212.094L3778.35,212.117L3778.43,212.14L3778.51,212.163L3778.58,212.186L3778.66,212.209L3778.82,212.254L3778.89,212.275L3778.97,212.297L3779.05,212.319L3779.13,212.34L3779.21,212.362L3779.29,212.383L3779.36,212.403L3779.44,212.423L3779.6,212.463L3779.68,212.483L3779.76,212.503L3779.92,212.541L3779.99,212.559L3780.07,212.577L3780.15,212.595L3780.23,212.614L3780.31,212.632L3780.39,212.649L3780.55,212.683L3780.63,212.699L3780.71,212.716L3780.79,212.733L3780.87,212.749L3780.95,212.764L3781.11,212.796L3781.19,212.81L3781.35,212.84L3781.43,212.854L3781.52,212.868L3781.68,212.896L3781.76,212.908L3781.84,212.922L3781.92,212.935L3782,212.947L3782.17,212.972L3782.25,212.983L3782.41,213.007L3782.49,213.018L3782.57,213.028L3782.66,213.039L3782.82,213.059L3782.9,213.069L3782.98,213.078L3783.15,213.097L3783.23,213.106L3783.32,213.114L3783.4,213.122L3783.57,213.139L3783.65,213.146L3783.73,213.153L3783.9,213.167L3783.98,213.173L3784.06,213.179L3784.15,213.186L3784.31,213.197L3784.48,213.207L3784.65,213.216L3784.82,213.224L3784.9,213.227L3785.07,213.234L3785.24,213.239L3785.32,213.241L3785.41,213.243L3785.58,213.247L3785.75,213.249L3785.92,213.25L3786.08,213.25L3786.17,213.249L3786.25,213.249L3786.34,213.248L3786.43,213.247L3786.51,213.245L3786.6,213.243L3786.68,213.241L3786.76,213.239L3786.85,213.236L3786.93,213.234L3787.01,213.231L3787.1,213.227L3787.18,213.224L3787.27,213.22L3787.35,213.216L3787.43,213.211L3787.52,213.207L3787.61,213.202L3787.69,213.197L3787.77,213.191L3787.85,213.186L3787.94,213.179L3788.02,213.173L3788.1,213.167L3788.19,213.16L3788.27,213.153L3788.35,213.146L3788.43,213.139L3788.52,213.13L3788.6,213.122L3788.68,213.114L3788.77,213.106L3788.85,213.097L3788.93,213.088L3789.02,213.078L3789.1,213.069L3789.18,213.059L3789.26,213.049L3789.35,213.039L3789.43,213.028L3789.51,213.018L3789.59,213.007L3789.67,212.995L3789.75,212.983L3789.83,212.972L3789.92,212.959L3790,212.947L3790.08,212.935L3790.16,212.922L3790.24,212.908L3790.32,212.896L3790.4,212.882L3790.48,212.868L3790.57,212.854L3790.65,212.84L3790.72,212.825L3790.81,212.81L3790.89,212.796L3790.97,212.78L3791.05,212.764L3791.13,212.749L3791.21,212.733L3791.29,212.716L3791.37,212.699L3791.45,212.683L3791.53,212.666L3791.61,212.649L3791.69,212.632L3791.77,212.614L3791.85,212.595L3791.93,212.577L3792.01,212.559L3792.08,212.541L3792.16,212.521L3792.24,212.503L3792.32,212.483L3792.4,212.463L3792.48,212.443L3792.56,212.423L3792.64,212.403L3792.71,212.383L3792.79,212.362L3792.87,212.34L3792.95,212.319L3793.03,212.297L3793.11,212.275L3793.18,212.254L3793.26,212.231L3793.34,212.209L3793.42,212.186L3793.49,212.163L3793.57,212.14L3793.65,212.117L3793.72,212.094L3793.8,212.07L3793.88,212.046L3793.96,212.021L3794.03,211.996L3794.11,211.971L3794.19,211.947L3794.26,211.922L3794.34,211.896L3794.42,211.87L3794.49,211.845L3794.57,211.818L3794.64,211.792L3794.72,211.766L3794.79,211.739L3794.87,211.712L3794.95,211.684L3795.02,211.656L3795.1,211.628L3795.17,211.601L3795.24,211.574L3795.32,211.545L3795.4,211.516L3795.47,211.488L3795.55,211.458L3795.62,211.428L3795.77,211.37L3795.92,211.309L3796.07,211.248L3796.21,211.187L3796.36,211.124L3796.51,211.06L3796.65,210.996L3796.8,210.93L3796.94,210.864L3797.09,210.797L3797.23,210.729L3797.37,210.661L3797.52,210.592L3797.66,210.521L3797.8,210.449L3797.94,210.378L3798.09,210.304L3798.23,210.231L3798.37,210.157L3798.51,210.081L3798.64,210.005L3798.78,209.927L3798.92,209.85L3799.06,209.771L3799.2,209.691L3799.33,209.611L3799.47,209.531L3799.61,209.449L3799.74,209.366L3799.88,209.283L3800.01,209.198L3800.14,209.113L3800.28,209.027L3800.41,208.941L3800.54,208.854L3800.67,208.765L3800.8,208.677L3800.93,208.587L3801.06,208.496L3801.19,208.405L3801.32,208.313L3801.45,208.221L3801.57,208.128L3801.7,208.033L3801.83,207.938L3801.95,207.843L3802.08,207.746L3802.2,207.649L3802.33,207.551L3802.45,207.453L3802.57,207.354L3802.69,207.253L3802.81,207.152L3802.93,207.051L3803.06,206.948L3803.17,206.846L3803.29,206.742L3803.41,206.638L3803.53,206.533L3803.64,206.428L3803.76,206.321L3803.88,206.214L3803.99,206.106L3804.11,205.999L3804.22,205.889L3804.33,205.778L3804.45,205.669L3804.56,205.558L3804.67,205.445L3804.78,205.334L3804.89,205.22L3805,205.107L3805.11,204.993L3805.22,204.877L3805.32,204.762L3805.43,204.645L3805.53,204.528L3805.64,204.41L3805.74,204.292L3805.85,204.174L3805.95,204.055L3806.05,203.934L3806.15,203.813L3806.25,203.692L3806.35,203.571L3806.45,203.448L3806.55,203.324L3806.65,203.2L3806.75,203.077L3806.84,202.952L3806.94,202.826L3807.03,202.7L3807.13,202.574L3807.22,202.447L3807.31,202.318L3807.41,202.19L3807.5,202.061L3807.59,201.931L3807.68,201.801L3807.77,201.67L3807.85,201.54L3807.94,201.408L3808.03,201.275L3808.11,201.143L3808.2,201.009L3808.28,200.875L3808.37,200.74L3808.45,200.605L3808.53,200.471L3808.61,200.334L3808.69,200.197L3808.77,200.06L3808.85,199.922L3808.93,199.784L3809.01,199.645L3809.08,199.506L3809.16,199.367L3809.23,199.226L3809.31,199.085L3809.38,198.945L3809.45,198.802L3809.52,198.661L3809.59,198.519L3809.66,198.374L3809.73,198.231L3809.8,198.087L3809.86,197.942L3809.93,197.797L3810,197.652L3810.06,197.506L3810.12,197.359L3810.19,197.213L3810.25,197.065L3810.31,196.917L3810.37,196.769L3810.43,196.618L3810.46,196.546L3810.49,196.472L3810.52,196.397L3810.54,196.323L3810.57,196.246L3810.6,196.17L3810.63,196.096L3810.66,196.022L3810.68,195.946L3810.71,195.871L3810.74,195.796L3810.76,195.718L3810.79,195.642L3810.82,195.567L3810.84,195.492L3810.87,195.415L3810.9,195.338L3810.92,195.262L3810.95,195.186L3810.97,195.109L3811,195.034L3811.02,194.957L3811.05,194.878L3811.07,194.802L3811.09,194.727L3811.12,194.648L3811.14,194.57L3811.16,194.494L3811.19,194.417L3811.21,194.339L3811.23,194.26L3811.25,194.183L3811.28,194.105L3811.3,194.027L3811.32,193.95L3811.34,193.872L3811.36,193.793L3811.38,193.714L3811.4,193.636L3811.42,193.557L3811.44,193.478L3811.46,193.401L3811.48,193.322L3811.5,193.243L3811.52,193.164L3811.54,193.086L3811.56,193.004L3811.58,192.925L3811.6,192.848L3811.61,192.767L3811.63,192.688L3811.65,192.61L3811.67,192.528L3811.68,192.449L3811.7,192.369L3811.72,192.289L3811.73,192.208L3811.75,192.129L3811.76,192.049L3811.78,191.968L3811.8,191.888L3811.81,191.807L3811.83,191.726L3811.84,191.646L3811.85,191.565L3811.87,191.484L3811.88,191.403L3811.89,191.322L3811.91,191.241L3811.92,191.16L3811.93,191.078L3811.95,190.997L3811.96,190.915L3811.97,190.834L3811.98,190.752L3811.99,190.671L3812.01,190.59L3812.02,190.508L3812.03,190.424L3812.04,190.344L3812.05,190.262L3812.06,190.177L3812.07,190.097L3812.08,190.014L3812.09,189.932L3812.1,189.851L3812.11,189.768L3812.11,189.683L3812.12,189.601L3812.13,189.519L3812.14,189.436L3812.15,189.353L3812.15,189.269L3812.16,189.186L3812.17,189.104L3812.17,189.02L3812.18,188.937L3812.18,188.853L3812.19,188.769L3812.2,188.686L3812.2,188.602L3812.21,188.519L3812.21,188.435L3812.22,188.351L3812.22,188.269L3812.22,188.184L3812.23,188.098L3812.23,188.015L3812.23,187.932L3812.24,187.846L3812.24,187.761L3812.24,187.678L3812.24,187.593L3812.24,187.508L3812.25,187.425L3812.25,187.34L3812.25,187.254L3812.25,187.171L3812.25,187.086L3812.25,187L3812.25,186.914L3812.25,186.829L3812.25,186.746L3812.25,186.66L3812.25,186.575L3812.24,186.492L3812.24,186.407L3812.24,186.322L3812.24,186.239L3812.24,186.154L3812.23,186.068L3812.23,185.985L3812.23,185.902L3812.22,185.816L3812.22,185.731L3812.22,185.649L3812.21,185.565L3812.21,185.481L3812.2,185.398L3812.2,185.314L3812.19,185.231L3812.18,185.147L3812.18,185.063L3812.17,184.98L3812.17,184.896L3812.16,184.814L3812.15,184.731L3812.15,184.647L3812.14,184.564L3812.13,184.481L3812.12,184.399L3812.11,184.317L3812.11,184.232L3812.1,184.149L3812.09,184.068L3812.08,183.986L3812.07,183.903L3812.06,183.823L3812.05,183.738L3812.04,183.656L3812.03,183.576L3812.02,183.492L3812.01,183.41L3811.99,183.329L3811.98,183.248L3811.97,183.166L3811.96,183.085L3811.95,183.003L3811.93,182.922L3811.92,182.84L3811.91,182.759L3811.89,182.678L3811.88,182.597L3811.87,182.516L3811.85,182.435L3811.84,182.354L3811.83,182.274L3811.81,182.193L3811.8,182.112L3811.78,182.032L3811.76,181.951L3811.75,181.871L3811.73,181.792L3811.72,181.711L3811.7,181.631L3811.68,181.551L3811.67,181.472L3811.65,181.39L3811.63,181.312L3811.61,181.233L3811.6,181.152L3811.58,181.075L3811.56,180.996L3811.54,180.914L3811.52,180.836L3811.5,180.757L3811.48,180.678L3811.46,180.599L3811.44,180.522L3811.42,180.443L3811.4,180.364L3811.38,180.286L3811.36,180.207L3811.34,180.128L3811.32,180.05L3811.3,179.973L3811.28,179.895L3811.25,179.817L3811.23,179.74L3811.21,179.661L3811.19,179.583L3811.16,179.506L3811.14,179.43L3811.12,179.352L3811.09,179.273L3811.07,179.198L3811.05,179.122L3811.02,179.043L3811,178.966L3810.97,178.891L3810.95,178.814L3810.92,178.738L3810.9,178.662L3810.87,178.585L3810.84,178.508L3810.82,178.433L3810.79,178.358L3810.76,178.282L3810.74,178.204L3810.71,178.129L3810.68,178.054L3810.66,177.978L3810.63,177.904L3810.6,177.83L3810.57,177.754L3810.54,177.677L3810.52,177.603L3810.49,177.528L3810.46,177.454L3810.43,177.382L3810.37,177.231L3810.31,177.083L3810.25,176.935L3810.19,176.787L3810.12,176.641L3810.06,176.494L3810,176.348L3809.93,176.203L3809.86,176.058L3809.8,175.913L3809.73,175.769L3809.66,175.626L3809.59,175.481L3809.52,175.339L3809.45,175.198L3809.38,175.055L3809.31,174.915L3809.23,174.774L3809.16,174.633L3809.08,174.494L3809.01,174.355L3808.93,174.216L3808.85,174.078L3808.77,173.94L3808.69,173.803L3808.61,173.666L3808.53,173.529L3808.45,173.395L3808.37,173.26L3808.28,173.125L3808.2,172.991L3808.11,172.857L3808.03,172.725L3807.94,172.592L3807.85,172.46L3807.77,172.33L3807.68,172.199L3807.59,172.069L3807.5,171.939L3807.41,171.81L3807.31,171.682L3807.22,171.553L3807.13,171.426L3807.03,171.3L3806.94,171.174L3806.84,171.048L3806.75,170.923L3806.65,170.8L3806.55,170.676L3806.45,170.552L3806.35,170.429L3806.25,170.308L3806.15,170.187L3806.05,170.066L3805.95,169.945L3805.85,169.826L3805.74,169.708L3805.64,169.59L3805.53,169.472L3805.43,169.355L3805.32,169.238L3805.22,169.123L3805.11,169.007L3805,168.893L3804.89,168.78L3804.78,168.666L3804.67,168.555L3804.56,168.442L3804.45,168.331L3804.33,168.222L3804.22,168.111L3804.11,168.001L3803.99,167.894L3803.88,167.786L3803.76,167.679L3803.64,167.572L3803.53,167.467L3803.41,167.362L3803.29,167.258L3803.17,167.154L3803.06,167.052L3802.93,166.949L3802.81,166.848L3802.69,166.747L3802.57,166.646L3802.45,166.547L3802.33,166.449L3802.2,166.351L3802.08,166.254L3801.95,166.157L3801.83,166.062L3801.7,165.967L3801.57,165.872L3801.45,165.779L3801.32,165.687L3801.19,165.595L3801.06,165.504L3800.93,165.413L3800.8,165.323L3800.67,165.235L3800.54,165.146L3800.41,165.059L3800.28,164.973L3800.14,164.887L3800.01,164.802L3799.88,164.717L3799.74,164.634L3799.61,164.551L3799.47,164.469L3799.33,164.389L3799.2,164.309L3799.06,164.229L3798.92,164.15L3798.78,164.073L3798.64,163.995L3798.51,163.919L3798.37,163.843L3798.23,163.769L3798.09,163.696L3797.94,163.622L3797.8,163.551L3797.66,163.479L3797.52,163.408L3797.37,163.339L3797.23,163.271L3797.09,163.203L3796.94,163.136L3796.8,163.07L3796.65,163.004L3796.51,162.94L3796.36,162.876L3796.21,162.813L3796.07,162.752L3795.92,162.691L3795.77,162.63L3795.62,162.572L3795.55,162.542L3795.47,162.512L3795.4,162.484L3795.32,162.455L3795.24,162.426L3795.17,162.399L3795.1,162.372L3795.02,162.344L3794.95,162.316L3794.87,162.288L3794.79,162.261L3794.72,162.234L3794.64,162.208L3794.57,162.182L3794.49,162.155L3794.42,162.13L3794.34,162.104L3794.26,162.078L3794.19,162.053L3794.11,162.029L3794.03,162.004L3793.96,161.979L3793.88,161.954L3793.8,161.93L3793.72,161.906L3793.65,161.883L3793.57,161.86L3793.49,161.837L3793.42,161.814L3793.34,161.791L3793.26,161.769L3793.18,161.746L3793.11,161.725L3793.03,161.703L3792.95,161.681L3792.87,161.66L3792.79,161.638L3792.71,161.617L3792.64,161.597L3792.56,161.577L3792.48,161.557L3792.4,161.537L3792.32,161.517L3792.24,161.497L3792.16,161.479L3792.08,161.459L3792.01,161.441L3791.93,161.423L3791.85,161.405L3791.77,161.386L3791.69,161.368L3791.61,161.351L3791.53,161.334L3791.45,161.317L3791.37,161.301L3791.29,161.284L3791.21,161.267L3791.13,161.251L3791.05,161.236L3790.97,161.22L3790.89,161.204L3790.81,161.19L3790.72,161.175L3790.65,161.16L3790.57,161.146L3790.48,161.132L3790.4,161.118L3790.32,161.104L3790.24,161.092L3790.16,161.078L3790.08,161.065L3790,161.053L3789.92,161.041L3789.83,161.028L3789.75,161.017L3789.67,161.005L3789.59,160.993L3789.51,160.982L3789.43,160.972L3789.35,160.961L3789.26,160.951L3789.18,160.941L3789.1,160.931L3789.02,160.922L3788.93,160.912L3788.85,160.903L3788.77,160.894L3788.68,160.886L3788.6,160.878L3788.52,160.87L3788.43,160.861L3788.35,160.854L3788.27,160.847L3788.19,160.84L3788.1,160.833L3788.02,160.827L3787.94,160.821L3787.85,160.814L3787.77,160.809L3787.69,160.803L3787.61,160.798L3787.52,160.793L3787.43,160.789L3787.35,160.784L3787.27,160.78L3787.18,160.776L3787.1,160.773L3787.01,160.769L3786.93,160.766L3786.85,160.764L3786.76,160.761L3786.68,160.759L3786.6,160.757L3786.51,160.755L3786.43,160.753L3786.34,160.752L3786.25,160.751L3786.17,160.751L3786.08,160.75L3785.92,160.75Z" style="fill:rgb(51,51,51);"/>
                </g>
                <g transform="matrix(0.428571,0,0,1,-1553.57,191)">
                    <path d="M3786.26,157.251L3786.36,157.252L3786.6,157.255L3786.84,157.259L3786.96,157.262L3787.09,157.266L3787.33,157.273L3787.56,157.282L3787.69,157.288L3787.92,157.299L3788.16,157.311L3788.26,157.318L3788.39,157.325L3788.64,157.342L3788.75,157.35L3788.86,157.358L3789,157.369L3789.21,157.387L3789.34,157.397L3789.46,157.409L3789.57,157.419L3789.67,157.429L3789.8,157.441L3789.93,157.454L3790.05,157.467L3790.15,157.479L3790.26,157.491L3790.38,157.505L3790.5,157.52L3790.61,157.533L3790.72,157.546L3790.84,157.561L3790.96,157.578L3791.08,157.594L3791.19,157.609L3791.29,157.624L3791.41,157.641L3791.63,157.674L3791.76,157.694L3791.86,157.71L3792.08,157.746L3792.3,157.784L3792.53,157.822L3792.75,157.864L3792.97,157.904L3793.18,157.947L3793.4,157.99L3793.61,158.034L3793.83,158.082L3794.05,158.129L3794.26,158.176L3794.47,158.226L3794.68,158.277L3794.89,158.329L3795.1,158.382L3795.31,158.437L3795.51,158.493L3795.72,158.548L3795.91,158.604L3796.12,158.662L3796.32,158.721L3796.53,158.783L3796.73,158.845L3796.92,158.907L3797.12,158.969L3797.31,159.033L3797.51,159.099L3797.7,159.165L3797.9,159.233L3798.09,159.302L3798.28,159.369L3798.47,159.44L3798.66,159.512L3798.84,159.583L3799.03,159.655L3799.22,159.73L3799.4,159.805L3799.58,159.88L3799.76,159.957L3799.94,160.034L3800.12,160.112L3800.31,160.192L3800.48,160.271L3800.66,160.352L3800.84,160.434L3801.01,160.517L3801.19,160.6L3801.36,160.685L3801.53,160.77L3801.7,160.854L3801.88,160.942L3802.04,161.03L3802.21,161.118L3802.38,161.21L3802.55,161.298L3802.71,161.389L3802.88,161.481L3803.04,161.573L3803.21,161.667L3803.37,161.76L3803.53,161.855L3803.69,161.951L3803.85,162.049L3804.01,162.145L3804.17,162.242L3804.33,162.343L3804.48,162.442L3804.64,162.541L3804.79,162.643L3804.95,162.745L3805.1,162.847L3805.25,162.951L3805.4,163.056L3805.55,163.16L3805.7,163.266L3805.85,163.372L3806,163.478L3806.15,163.588L3806.29,163.696L3806.43,163.803L3806.58,163.915L3806.73,164.027L3806.87,164.138L3807.01,164.249L3807.15,164.362L3807.29,164.477L3807.43,164.591L3807.57,164.706L3807.71,164.821L3807.84,164.937L3807.98,165.056L3808.12,165.173L3808.25,165.292L3808.38,165.412L3808.52,165.531L3808.65,165.653L3808.78,165.772L3808.91,165.895L3809.04,166.019L3809.17,166.141L3809.29,166.265L3809.42,166.391L3809.55,166.516L3809.67,166.641L3809.8,166.768L3809.92,166.895L3810.05,167.024L3810.17,167.153L3810.29,167.282L3810.41,167.412L3810.53,167.542L3810.65,167.673L3810.76,167.806L3810.88,167.938L3811,168.071L3811.11,168.206L3811.23,168.339L3811.34,168.474L3811.45,168.61L3811.57,168.747L3811.68,168.884L3811.78,169.021L3811.89,169.159L3812,169.297L3812.11,169.437L3812.22,169.577L3812.32,169.717L3812.43,169.858L3812.53,170.001L3812.64,170.143L3812.74,170.285L3812.84,170.428L3812.94,170.572L3813.04,170.717L3813.14,170.863L3813.24,171.009L3813.33,171.155L3813.43,171.302L3813.52,171.449L3813.62,171.597L3813.71,171.746L3813.8,171.894L3813.89,172.044L3813.99,172.194L3814.08,172.346L3814.16,172.497L3814.25,172.648L3814.34,172.8L3814.43,172.953L3814.51,173.107L3814.6,173.261L3814.68,173.416L3814.76,173.57L3814.84,173.726L3814.92,173.883L3815,174.038L3815.08,174.196L3815.16,174.354L3815.24,174.511L3815.31,174.669L3815.39,174.83L3815.46,174.988L3815.53,175.148L3815.61,175.309L3815.68,175.471L3815.75,175.631L3815.82,175.793L3815.88,175.955L3815.95,176.119L3816.02,176.281L3816.08,176.446L3816.15,176.61L3816.21,176.774L3816.27,176.939L3816.33,177.105L3816.39,177.271L3816.45,177.438L3816.51,177.605L3816.57,177.772L3816.62,177.94L3816.68,178.108L3816.74,178.277L3816.79,178.446L3816.84,178.616L3816.89,178.786L3816.94,178.956L3816.99,179.126L3817.04,179.297L3817.09,179.47L3817.13,179.642L3817.18,179.813L3817.22,179.986L3817.26,180.16L3817.31,180.334L3817.35,180.507L3817.39,180.681L3817.42,180.857L3817.46,181.032L3817.5,181.206L3817.53,181.382L3817.57,181.559L3817.6,181.736L3817.63,181.912L3817.66,182.09L3817.7,182.268L3817.72,182.445L3817.75,182.623L3817.78,182.802L3817.8,182.982L3817.83,183.161L3817.85,183.341L3817.87,183.521L3817.9,183.7L3817.92,183.882L3817.93,184.062L3817.95,184.244L3817.97,184.426L3817.99,184.608L3818,184.79L3818.01,184.972L3818.03,185.155L3818.04,185.338L3818.05,185.522L3818.06,185.706L3818.06,185.89L3818.07,186.074L3818.07,186.258L3818.08,186.443L3818.08,186.629L3818.08,186.815L3818.08,187L3818.08,187.185L3818.08,187.371L3818.08,187.557L3818.07,187.742L3818.07,187.926L3818.06,188.11L3818.06,188.294L3818.05,188.478L3818.04,188.662L3818.03,188.845L3818.01,189.028L3818,189.21L3817.99,189.392L3817.97,189.574L3817.95,189.756L3817.93,189.938L3817.92,190.118L3817.9,190.3L3817.87,190.479L3817.85,190.659L3817.83,190.839L3817.8,191.018L3817.78,191.198L3817.75,191.377L3817.72,191.555L3817.7,191.732L3817.66,191.91L3817.63,192.088L3817.6,192.264L3817.57,192.441L3817.53,192.618L3817.5,192.794L3817.46,192.968L3817.42,193.143L3817.39,193.319L3817.35,193.493L3817.31,193.666L3817.26,193.84L3817.22,194.014L3817.18,194.187L3817.13,194.358L3817.09,194.53L3817.04,194.703L3816.99,194.874L3816.94,195.044L3816.89,195.214L3816.84,195.384L3816.79,195.554L3816.74,195.723L3816.68,195.892L3816.62,196.06L3816.57,196.228L3816.51,196.395L3816.45,196.562L3816.39,196.729L3816.33,196.895L3816.27,197.061L3816.21,197.226L3816.15,197.39L3816.08,197.554L3816.02,197.719L3815.95,197.881L3815.88,198.045L3815.82,198.207L3815.75,198.369L3815.68,198.529L3815.61,198.691L3815.53,198.852L3815.46,199.012L3815.39,199.17L3815.31,199.331L3815.24,199.489L3815.16,199.646L3815.08,199.804L3815,199.962L3814.92,200.117L3814.84,200.274L3814.76,200.43L3814.68,200.584L3814.6,200.739L3814.51,200.893L3814.43,201.047L3814.34,201.2L3814.25,201.352L3814.16,201.503L3814.08,201.654L3813.99,201.806L3813.89,201.956L3813.8,202.106L3813.71,202.254L3813.62,202.403L3813.52,202.551L3813.43,202.698L3813.33,202.845L3813.24,202.991L3813.14,203.137L3813.04,203.283L3812.94,203.428L3812.84,203.572L3812.74,203.715L3812.64,203.857L3812.53,203.999L3812.43,204.142L3812.32,204.283L3812.22,204.423L3812.11,204.563L3812,204.703L3811.89,204.841L3811.78,204.979L3811.68,205.116L3811.57,205.253L3811.45,205.39L3811.34,205.526L3811.23,205.661L3811.11,205.794L3811,205.929L3810.88,206.062L3810.76,206.194L3810.65,206.327L3810.53,206.458L3810.41,206.588L3810.29,206.718L3810.17,206.847L3810.05,206.976L3809.92,207.105L3809.8,207.232L3809.67,207.359L3809.55,207.484L3809.42,207.609L3809.29,207.735L3809.17,207.859L3809.04,207.981L3808.91,208.105L3808.78,208.228L3808.65,208.347L3808.52,208.469L3808.38,208.588L3808.25,208.708L3808.12,208.827L3807.98,208.944L3807.84,209.063L3807.71,209.179L3807.57,209.294L3807.43,209.409L3807.29,209.523L3807.15,209.638L3807.01,209.751L3806.87,209.862L3806.73,209.973L3806.58,210.085L3806.43,210.197L3806.29,210.304L3806.15,210.412L3806,210.522L3805.85,210.628L3805.7,210.734L3805.55,210.84L3805.4,210.944L3805.25,211.049L3805.1,211.153L3804.95,211.255L3804.79,211.357L3804.64,211.459L3804.48,211.558L3804.33,211.657L3804.17,211.758L3804.01,211.855L3803.85,211.951L3803.69,212.049L3803.53,212.145L3803.37,212.24L3803.21,212.333L3803.04,212.427L3802.88,212.519L3802.71,212.611L3802.55,212.702L3802.38,212.79L3802.21,212.882L3802.04,212.97L3801.88,213.058L3801.7,213.146L3801.53,213.23L3801.36,213.315L3801.19,213.4L3801.01,213.483L3800.84,213.566L3800.66,213.648L3800.48,213.729L3800.31,213.808L3800.12,213.888L3799.94,213.966L3799.76,214.043L3799.58,214.12L3799.4,214.195L3799.22,214.27L3799.03,214.345L3798.84,214.417L3798.66,214.488L3798.47,214.56L3798.28,214.631L3798.09,214.698L3797.9,214.767L3797.7,214.835L3797.51,214.901L3797.31,214.967L3797.12,215.031L3796.92,215.093L3796.73,215.155L3796.53,215.217L3796.32,215.279L3796.12,215.338L3795.91,215.396L3795.72,215.452L3795.51,215.507L3795.31,215.563L3795.1,215.618L3794.89,215.671L3794.68,215.723L3794.47,215.774L3794.26,215.824L3794.05,215.871L3793.83,215.918L3793.61,215.966L3793.4,216.01L3793.18,216.053L3792.97,216.096L3792.75,216.136L3792.53,216.178L3792.3,216.216L3792.08,216.254L3791.86,216.29L3791.76,216.306L3791.63,216.326L3791.51,216.343L3791.41,216.359L3791.29,216.376L3791.19,216.391L3791.08,216.406L3790.96,216.422L3790.84,216.439L3790.72,216.454L3790.61,216.467L3790.5,216.48L3790.38,216.495L3790.26,216.509L3790.15,216.521L3790.05,216.533L3789.93,216.546L3789.8,216.559L3789.67,216.571L3789.57,216.581L3789.46,216.591L3789.34,216.603L3789.21,216.613L3789.11,216.622L3789,216.631L3788.86,216.642L3788.75,216.65L3788.64,216.658L3788.51,216.666L3788.39,216.675L3788.26,216.682L3788.16,216.689L3788.05,216.695L3787.92,216.701L3787.8,216.707L3787.69,216.712L3787.56,216.718L3787.45,216.722L3787.33,216.727L3787.2,216.731L3787.09,216.734L3786.96,216.738L3786.84,216.741L3786.73,216.743L3786.6,216.745L3786.47,216.747L3786.36,216.748L3786.26,216.749L3786.13,216.75L3786,216.75L3786,213.25L3786.05,213.25L3786.11,213.25L3786.18,213.249L3786.25,213.248L3786.3,213.248L3786.36,213.247L3786.43,213.245L3786.48,213.244L3786.53,213.242L3786.61,213.24L3786.66,213.239L3786.71,213.237L3786.78,213.234L3786.83,213.232L3786.91,213.228L3786.96,213.226L3787.01,213.223L3787.08,213.219L3787.15,213.215L3787.2,213.212L3787.26,213.208L3787.31,213.205L3787.38,213.199L3787.45,213.194L3787.48,213.192L3787.55,213.186L3787.62,213.18L3787.68,213.175L3787.73,213.171L3787.8,213.164L3787.87,213.157L3787.92,213.152L3787.97,213.147L3788.03,213.141L3788.1,213.133L3788.17,213.126L3788.22,213.12L3788.27,213.113L3788.34,213.105L3788.41,213.096L3788.47,213.089L3788.52,213.082L3788.57,213.075L3788.64,213.065L3788.71,213.055L3788.76,213.048L3788.84,213.037L3788.89,213.029L3788.94,213.021L3789.01,213.01L3789.13,212.99L3789.26,212.969L3789.38,212.947L3789.5,212.926L3789.63,212.901L3789.75,212.877L3789.88,212.852L3790.01,212.824L3790.13,212.799L3790.25,212.771L3790.39,212.741L3790.51,212.712L3790.64,212.682L3790.76,212.65L3790.89,212.618L3791.02,212.585L3791.14,212.551L3791.28,212.515L3791.41,212.478L3791.54,212.441L3791.66,212.403L3791.79,212.365L3791.92,212.325L3792.05,212.284L3792.18,212.241L3792.32,212.198L3792.44,212.155L3792.58,212.11L3792.7,212.065L3792.84,212.018L3792.97,211.969L3793.1,211.921L3793.23,211.872L3793.37,211.821L3793.5,211.768L3793.63,211.717L3793.76,211.663L3793.89,211.608L3794.02,211.553L3794.16,211.496L3794.29,211.439L3794.42,211.381L3794.56,211.321L3794.69,211.261L3794.82,211.2L3794.95,211.138L3795.08,211.075L3795.21,211.011L3795.35,210.946L3795.48,210.878L3795.61,210.813L3795.74,210.744L3795.87,210.675L3796,210.607L3796.14,210.534L3796.27,210.463L3796.4,210.391L3796.53,210.317L3796.66,210.243L3796.79,210.166L3796.92,210.091L3797.05,210.014L3797.18,209.936L3797.31,209.856L3797.44,209.776L3797.56,209.696L3797.69,209.614L3797.82,209.531L3797.95,209.448L3798.07,209.364L3798.2,209.278L3798.33,209.192L3798.45,209.105L3798.58,209.017L3798.71,208.928L3798.83,208.838L3798.96,208.747L3799.08,208.657L3799.2,208.564L3799.33,208.47L3799.45,208.377L3799.57,208.284L3799.7,208.188L3799.82,208.09L3799.94,207.993L3800.06,207.896L3800.18,207.797L3800.3,207.696L3800.42,207.595L3800.54,207.494L3800.66,207.393L3800.78,207.289L3800.89,207.186L3801.01,207.082L3801.13,206.976L3801.24,206.871L3801.36,206.762L3801.48,206.655L3801.59,206.548L3801.7,206.437L3801.82,206.327L3801.93,206.218L3802.04,206.106L3802.15,205.993L3802.26,205.881L3802.38,205.766L3802.49,205.652L3802.59,205.538L3802.7,205.421L3802.81,205.305L3802.92,205.187L3803.03,205.069L3803.13,204.95L3803.24,204.83L3803.34,204.711L3803.44,204.59L3803.55,204.467L3803.65,204.346L3803.75,204.223L3803.85,204.1L3803.95,203.975L3804.06,203.849L3804.16,203.723L3804.26,203.597L3804.35,203.471L3804.45,203.343L3804.55,203.214L3804.64,203.085L3804.74,202.956L3804.83,202.825L3804.93,202.694L3805.02,202.562L3805.11,202.429L3805.2,202.297L3805.29,202.164L3805.38,202.03L3805.47,201.895L3805.56,201.759L3805.65,201.624L3805.74,201.487L3805.82,201.349L3805.91,201.211L3805.99,201.073L3806.08,200.934L3806.16,200.795L3806.24,200.655L3806.32,200.513L3806.4,200.372L3806.48,200.23L3806.56,200.088L3806.64,199.945L3806.72,199.801L3806.8,199.656L3806.87,199.513L3806.95,199.368L3807.02,199.221L3807.09,199.075L3807.17,198.929L3807.24,198.78L3807.31,198.633L3807.38,198.485L3807.45,198.335L3807.52,198.185L3807.58,198.036L3807.65,197.885L3807.72,197.734L3807.78,197.582L3807.84,197.43L3807.91,197.278L3807.97,197.124L3808.03,196.971L3808.09,196.817L3808.15,196.662L3808.21,196.507L3808.27,196.351L3808.32,196.196L3808.38,196.039L3808.43,195.883L3808.49,195.725L3808.54,195.567L3808.59,195.409L3808.64,195.251L3808.69,195.091L3808.74,194.931L3808.79,194.772L3808.84,194.611L3808.88,194.449L3808.93,194.288L3808.97,194.127L3809.02,193.965L3809.06,193.802L3809.1,193.639L3809.14,193.476L3809.18,193.313L3809.22,193.147L3809.26,192.983L3809.29,192.819L3809.33,192.653L3809.36,192.486L3809.4,192.32L3809.43,192.154L3809.46,191.987L3809.49,191.82L3809.52,191.653L3809.55,191.485L3809.58,191.315L3809.6,191.146L3809.63,190.978L3809.65,190.809L3809.68,190.639L3809.7,190.469L3809.72,190.298L3809.74,190.127L3809.76,189.956L3809.78,189.785L3809.79,189.613L3809.81,189.441L3809.82,189.269L3809.84,189.096L3809.85,188.923L3809.86,188.749L3809.87,188.576L3809.88,188.402L3809.89,188.228L3809.9,188.053L3809.9,187.878L3809.91,187.702L3809.91,187.528L3809.91,187.352L3809.92,187.177L3809.92,187L3809.92,186.823L3809.91,186.648L3809.91,186.472L3809.91,186.298L3809.9,186.122L3809.9,185.947L3809.89,185.772L3809.88,185.598L3809.87,185.424L3809.86,185.251L3809.85,185.077L3809.84,184.904L3809.82,184.731L3809.81,184.559L3809.79,184.387L3809.78,184.215L3809.76,184.044L3809.74,183.873L3809.72,183.702L3809.7,183.531L3809.68,183.361L3809.65,183.191L3809.63,183.022L3809.6,182.854L3809.58,182.685L3809.55,182.515L3809.52,182.347L3809.49,182.18L3809.46,182.013L3809.43,181.846L3809.4,181.68L3809.36,181.514L3809.33,181.347L3809.29,181.181L3809.26,181.017L3809.22,180.853L3809.18,180.687L3809.14,180.524L3809.1,180.361L3809.06,180.198L3809.02,180.035L3808.97,179.873L3808.93,179.712L3808.88,179.551L3808.84,179.389L3808.79,179.228L3808.74,179.069L3808.69,178.909L3808.64,178.749L3808.59,178.591L3808.54,178.433L3808.49,178.275L3808.43,178.117L3808.38,177.961L3808.32,177.804L3808.27,177.649L3808.21,177.493L3808.15,177.338L3808.09,177.183L3808.03,177.029L3807.97,176.876L3807.91,176.722L3807.84,176.57L3807.78,176.418L3807.72,176.266L3807.65,176.115L3807.58,175.964L3807.52,175.815L3807.45,175.665L3807.38,175.515L3807.31,175.367L3807.24,175.22L3807.17,175.071L3807.09,174.925L3807.02,174.779L3806.95,174.632L3806.87,174.487L3806.8,174.344L3806.72,174.199L3806.64,174.055L3806.56,173.912L3806.48,173.77L3806.4,173.628L3806.32,173.487L3806.24,173.345L3806.16,173.205L3806.08,173.066L3805.99,172.927L3805.91,172.789L3805.82,172.651L3805.74,172.513L3805.65,172.376L3805.56,172.241L3805.47,172.105L3805.38,171.97L3805.29,171.836L3805.2,171.703L3805.11,171.571L3805.02,171.438L3804.93,171.306L3804.83,171.175L3804.74,171.044L3804.64,170.915L3804.55,170.786L3804.45,170.657L3804.35,170.529L3804.26,170.403L3804.16,170.277L3804.06,170.151L3803.95,170.025L3803.85,169.9L3803.75,169.777L3803.65,169.654L3803.55,169.533L3803.44,169.41L3803.34,169.289L3803.24,169.17L3803.13,169.05L3803.03,168.931L3802.92,168.813L3802.81,168.695L3802.7,168.579L3802.59,168.462L3802.49,168.348L3802.38,168.234L3802.26,168.119L3802.15,168.007L3802.04,167.894L3801.93,167.782L3801.82,167.673L3801.7,167.563L3801.59,167.452L3801.48,167.345L3801.36,167.238L3801.24,167.129L3801.13,167.024L3801.01,166.918L3800.89,166.814L3800.78,166.711L3800.66,166.607L3800.54,166.506L3800.42,166.405L3800.3,166.304L3800.18,166.203L3800.06,166.104L3799.94,166.007L3799.82,165.91L3799.7,165.812L3799.57,165.716L3799.45,165.623L3799.33,165.53L3799.2,165.436L3799.08,165.343L3798.96,165.253L3798.83,165.162L3798.71,165.072L3798.58,164.983L3798.45,164.895L3798.33,164.808L3798.2,164.722L3798.07,164.636L3797.95,164.552L3797.82,164.469L3797.69,164.386L3797.56,164.304L3797.44,164.224L3797.31,164.144L3797.18,164.064L3797.05,163.986L3796.92,163.909L3796.79,163.834L3796.66,163.757L3796.53,163.683L3796.4,163.609L3796.27,163.537L3796.14,163.466L3796,163.393L3795.87,163.325L3795.74,163.256L3795.61,163.187L3795.48,163.122L3795.35,163.054L3795.21,162.989L3795.08,162.925L3794.95,162.862L3794.82,162.8L3794.69,162.739L3794.56,162.679L3794.42,162.619L3794.29,162.561L3794.16,162.504L3794.02,162.447L3793.89,162.392L3793.76,162.337L3793.63,162.283L3793.5,162.232L3793.37,162.179L3793.23,162.128L3793.1,162.079L3792.97,162.031L3792.84,161.982L3792.7,161.935L3792.58,161.89L3792.44,161.845L3792.32,161.802L3792.18,161.759L3792.05,161.716L3791.92,161.675L3791.79,161.635L3791.66,161.597L3791.54,161.559L3791.41,161.522L3791.28,161.485L3791.14,161.449L3791.02,161.415L3790.89,161.382L3790.76,161.35L3790.64,161.318L3790.51,161.288L3790.39,161.259L3790.25,161.229L3790.13,161.201L3790.01,161.176L3789.88,161.148L3789.75,161.123L3789.63,161.099L3789.5,161.074L3789.38,161.053L3789.26,161.031L3789.13,161.01L3789.01,160.99L3788.94,160.979L3788.89,160.971L3788.84,160.963L3788.76,160.952L3788.71,160.945L3788.64,160.935L3788.57,160.925L3788.52,160.918L3788.47,160.911L3788.41,160.904L3788.34,160.895L3788.27,160.887L3788.22,160.88L3788.17,160.874L3788.1,160.867L3788.03,160.859L3787.97,160.853L3787.92,160.848L3787.87,160.843L3787.8,160.836L3787.73,160.829L3787.68,160.825L3787.62,160.82L3787.55,160.814L3787.48,160.808L3787.45,160.806L3787.38,160.801L3787.31,160.795L3787.26,160.792L3787.2,160.788L3787.15,160.785L3787.08,160.781L3787.01,160.777L3786.96,160.774L3786.91,160.772L3786.83,160.768L3786.78,160.766L3786.71,160.763L3786.66,160.761L3786.61,160.76L3786.53,160.758L3786.48,160.756L3786.43,160.755L3786.36,160.753L3786.3,160.752L3786.25,160.752L3786.18,160.751L3786.11,160.75L3786.05,160.75L3786,160.75L3786,157.25L3786.13,157.25L3786.26,157.251Z" style="fill:rgb(51,51,51);"/>
                </g>
                <g transform="matrix(0.428571,0,0,1,-1553.57,191)">
                    <path d="M3786,160.75L3785.95,160.75L3785.89,160.75L3785.82,160.751L3785.75,160.752L3785.7,160.752L3785.64,160.753L3785.57,160.755L3785.52,160.756L3785.47,160.758L3785.39,160.76L3785.34,160.761L3785.29,160.763L3785.22,160.766L3785.17,160.768L3785.09,160.772L3785.04,160.774L3784.99,160.777L3784.92,160.781L3784.85,160.785L3784.8,160.788L3784.74,160.792L3784.69,160.795L3784.62,160.801L3784.55,160.806L3784.52,160.808L3784.45,160.814L3784.38,160.82L3784.32,160.825L3784.27,160.829L3784.2,160.836L3784.13,160.843L3784.08,160.848L3784.03,160.853L3783.97,160.859L3783.9,160.867L3783.83,160.874L3783.78,160.88L3783.73,160.887L3783.66,160.895L3783.59,160.904L3783.53,160.911L3783.48,160.918L3783.43,160.925L3783.36,160.935L3783.29,160.945L3783.24,160.952L3783.16,160.963L3783.11,160.971L3783.06,160.979L3782.99,160.99L3782.87,161.01L3782.74,161.031L3782.62,161.053L3782.5,161.074L3782.37,161.099L3782.25,161.123L3782.12,161.148L3781.99,161.176L3781.87,161.201L3781.75,161.229L3781.61,161.259L3781.49,161.288L3781.36,161.318L3781.24,161.35L3781.11,161.382L3780.98,161.415L3780.86,161.449L3780.72,161.485L3780.59,161.522L3780.46,161.559L3780.34,161.597L3780.21,161.635L3780.08,161.675L3779.95,161.716L3779.82,161.759L3779.68,161.802L3779.56,161.845L3779.42,161.89L3779.3,161.935L3779.16,161.982L3779.03,162.031L3778.9,162.079L3778.77,162.128L3778.64,162.179L3778.5,162.232L3778.37,162.283L3778.24,162.337L3778.11,162.392L3777.98,162.447L3777.84,162.504L3777.71,162.561L3777.58,162.619L3777.45,162.679L3777.31,162.739L3777.18,162.8L3777.05,162.862L3776.92,162.925L3776.79,162.989L3776.66,163.054L3776.52,163.122L3776.39,163.187L3776.26,163.256L3776.13,163.325L3776,163.393L3775.86,163.466L3775.73,163.537L3775.6,163.609L3775.47,163.683L3775.34,163.757L3775.21,163.834L3775.08,163.909L3774.95,163.986L3774.82,164.064L3774.69,164.144L3774.56,164.224L3774.44,164.304L3774.31,164.386L3774.18,164.469L3774.05,164.552L3773.93,164.636L3773.8,164.722L3773.67,164.808L3773.55,164.895L3773.42,164.983L3773.29,165.072L3773.17,165.162L3773.04,165.253L3772.92,165.343L3772.8,165.436L3772.67,165.53L3772.55,165.623L3772.43,165.716L3772.3,165.812L3772.18,165.91L3772.06,166.007L3771.94,166.104L3771.82,166.203L3771.7,166.304L3771.58,166.405L3771.46,166.506L3771.34,166.607L3771.22,166.711L3771.11,166.814L3770.99,166.918L3770.87,167.024L3770.76,167.129L3770.64,167.238L3770.52,167.345L3770.41,167.452L3770.3,167.563L3770.18,167.673L3770.07,167.782L3769.96,167.894L3769.85,168.007L3769.74,168.119L3769.62,168.234L3769.51,168.348L3769.41,168.462L3769.3,168.579L3769.19,168.695L3769.08,168.813L3768.97,168.931L3768.87,169.05L3768.76,169.17L3768.66,169.289L3768.56,169.41L3768.45,169.533L3768.35,169.654L3768.25,169.777L3768.15,169.9L3768.05,170.025L3767.94,170.151L3767.85,170.277L3767.74,170.403L3767.65,170.529L3767.55,170.657L3767.45,170.786L3767.36,170.915L3767.26,171.044L3767.17,171.175L3767.08,171.306L3766.98,171.438L3766.89,171.571L3766.8,171.703L3766.71,171.836L3766.62,171.97L3766.53,172.105L3766.44,172.241L3766.35,172.376L3766.26,172.513L3766.18,172.651L3766.09,172.789L3766.01,172.927L3765.92,173.066L3765.84,173.205L3765.76,173.345L3765.68,173.487L3765.6,173.628L3765.52,173.77L3765.44,173.912L3765.36,174.055L3765.28,174.199L3765.2,174.344L3765.13,174.487L3765.05,174.632L3764.98,174.779L3764.91,174.925L3764.83,175.071L3764.76,175.22L3764.69,175.367L3764.62,175.515L3764.55,175.665L3764.48,175.815L3764.42,175.964L3764.35,176.115L3764.28,176.266L3764.22,176.418L3764.16,176.57L3764.09,176.722L3764.03,176.876L3763.97,177.029L3763.91,177.183L3763.85,177.338L3763.79,177.493L3763.73,177.649L3763.68,177.804L3763.62,177.961L3763.57,178.117L3763.51,178.275L3763.46,178.433L3763.41,178.591L3763.36,178.749L3763.31,178.909L3763.26,179.069L3763.21,179.228L3763.16,179.389L3763.12,179.551L3763.07,179.712L3763.03,179.873L3762.98,180.035L3762.94,180.198L3762.9,180.361L3762.86,180.524L3762.82,180.687L3762.78,180.853L3762.74,181.017L3762.71,181.181L3762.67,181.347L3762.64,181.514L3762.6,181.68L3762.57,181.846L3762.54,182.013L3762.51,182.18L3762.48,182.347L3762.45,182.515L3762.42,182.685L3762.4,182.854L3762.37,183.022L3762.35,183.191L3762.33,183.361L3762.3,183.531L3762.28,183.702L3762.26,183.873L3762.24,184.044L3762.22,184.215L3762.21,184.387L3762.19,184.559L3762.18,184.731L3762.16,184.904L3762.15,185.077L3762.14,185.251L3762.13,185.424L3762.12,185.598L3762.11,185.772L3762.1,185.947L3762.1,186.122L3762.09,186.298L3762.09,186.472L3762.09,186.648L3762.08,186.823L3762.08,187L3762.08,187.177L3762.09,187.352L3762.09,187.528L3762.09,187.702L3762.1,187.878L3762.1,188.053L3762.11,188.228L3762.12,188.402L3762.13,188.576L3762.14,188.749L3762.15,188.923L3762.16,189.096L3762.18,189.269L3762.19,189.441L3762.21,189.613L3762.22,189.785L3762.24,189.956L3762.26,190.127L3762.28,190.298L3762.3,190.469L3762.33,190.639L3762.35,190.809L3762.37,190.978L3762.4,191.146L3762.42,191.315L3762.45,191.485L3762.48,191.653L3762.51,191.82L3762.54,191.987L3762.57,192.154L3762.6,192.32L3762.64,192.486L3762.67,192.653L3762.71,192.819L3762.74,192.983L3762.78,193.147L3762.82,193.313L3762.86,193.476L3762.9,193.639L3762.94,193.802L3762.98,193.965L3763.03,194.127L3763.07,194.288L3763.12,194.449L3763.16,194.611L3763.21,194.772L3763.26,194.931L3763.31,195.091L3763.36,195.251L3763.41,195.409L3763.46,195.567L3763.51,195.725L3763.57,195.883L3763.62,196.039L3763.68,196.196L3763.73,196.351L3763.79,196.507L3763.85,196.662L3763.91,196.817L3763.97,196.971L3764.03,197.124L3764.09,197.278L3764.16,197.43L3764.22,197.582L3764.28,197.734L3764.35,197.885L3764.42,198.036L3764.48,198.185L3764.55,198.335L3764.62,198.485L3764.69,198.633L3764.76,198.78L3764.83,198.929L3764.91,199.075L3764.98,199.221L3765.05,199.368L3765.13,199.513L3765.2,199.656L3765.28,199.801L3765.36,199.945L3765.44,200.088L3765.52,200.23L3765.6,200.372L3765.68,200.513L3765.76,200.655L3765.84,200.795L3765.92,200.934L3766.01,201.073L3766.09,201.211L3766.18,201.349L3766.26,201.487L3766.35,201.624L3766.44,201.759L3766.53,201.895L3766.62,202.03L3766.71,202.164L3766.8,202.297L3766.89,202.429L3766.98,202.562L3767.08,202.694L3767.17,202.825L3767.26,202.956L3767.36,203.085L3767.45,203.214L3767.55,203.343L3767.65,203.471L3767.74,203.597L3767.85,203.723L3767.94,203.849L3768.05,203.975L3768.15,204.1L3768.25,204.223L3768.35,204.346L3768.45,204.467L3768.56,204.59L3768.66,204.711L3768.76,204.83L3768.87,204.95L3768.97,205.069L3769.08,205.187L3769.19,205.305L3769.3,205.421L3769.41,205.538L3769.51,205.652L3769.62,205.766L3769.74,205.881L3769.85,205.993L3769.96,206.106L3770.07,206.218L3770.18,206.327L3770.3,206.437L3770.41,206.548L3770.52,206.655L3770.64,206.762L3770.76,206.871L3770.87,206.976L3770.99,207.082L3771.11,207.186L3771.22,207.289L3771.34,207.393L3771.46,207.494L3771.58,207.595L3771.7,207.696L3771.82,207.797L3771.94,207.896L3772.06,207.993L3772.18,208.09L3772.3,208.188L3772.43,208.284L3772.55,208.377L3772.67,208.47L3772.8,208.564L3772.92,208.657L3773.04,208.747L3773.17,208.838L3773.29,208.928L3773.42,209.017L3773.55,209.105L3773.67,209.192L3773.8,209.278L3773.93,209.364L3774.05,209.448L3774.18,209.531L3774.31,209.614L3774.44,209.696L3774.56,209.776L3774.69,209.856L3774.82,209.936L3774.95,210.014L3775.08,210.091L3775.21,210.166L3775.34,210.243L3775.47,210.317L3775.6,210.391L3775.73,210.463L3775.86,210.534L3776,210.607L3776.13,210.675L3776.26,210.744L3776.39,210.813L3776.52,210.878L3776.66,210.946L3776.79,211.011L3776.92,211.075L3777.05,211.138L3777.18,211.2L3777.31,211.261L3777.45,211.321L3777.58,211.381L3777.71,211.439L3777.84,211.496L3777.98,211.553L3778.11,211.608L3778.24,211.663L3778.37,211.717L3778.5,211.768L3778.64,211.821L3778.77,211.872L3778.9,211.921L3779.03,211.969L3779.16,212.018L3779.3,212.065L3779.42,212.11L3779.56,212.155L3779.68,212.198L3779.82,212.241L3779.95,212.284L3780.08,212.325L3780.21,212.365L3780.34,212.403L3780.46,212.441L3780.59,212.478L3780.72,212.515L3780.86,212.551L3780.98,212.585L3781.11,212.618L3781.24,212.65L3781.36,212.682L3781.49,212.712L3781.61,212.741L3781.75,212.771L3781.87,212.799L3781.99,212.824L3782.12,212.852L3782.25,212.877L3782.37,212.901L3782.5,212.926L3782.62,212.947L3782.74,212.969L3782.87,212.99L3782.99,213.01L3783.06,213.021L3783.11,213.029L3783.24,213.048L3783.29,213.055L3783.36,213.065L3783.43,213.075L3783.48,213.082L3783.53,213.089L3783.59,213.096L3783.66,213.105L3783.73,213.113L3783.78,213.12L3783.83,213.126L3783.9,213.133L3783.97,213.141L3784.03,213.147L3784.08,213.152L3784.13,213.157L3784.2,213.164L3784.27,213.171L3784.32,213.175L3784.38,213.18L3784.52,213.192L3784.55,213.194L3784.62,213.199L3784.69,213.205L3784.8,213.212L3784.92,213.219L3785.04,213.226L3785.17,213.232L3785.22,213.234L3785.34,213.239L3785.47,213.242L3785.52,213.244L3785.57,213.245L3785.7,213.248L3785.82,213.249L3785.95,213.25L3786,213.25L3786,216.75L3785.87,216.75L3785.74,216.749L3785.64,216.748L3785.53,216.747L3785.4,216.745L3785.27,216.743L3785.16,216.741L3785.04,216.738L3784.91,216.734L3784.8,216.731L3784.68,216.727L3784.55,216.722L3784.44,216.718L3784.31,216.712L3784.2,216.707L3784.08,216.701L3783.95,216.695L3783.85,216.689L3783.74,216.682L3783.61,216.675L3783.49,216.666L3783.36,216.658L3783.25,216.65L3783.14,216.642L3783,216.631L3782.89,216.622L3782.79,216.613L3782.66,216.603L3782.54,216.591L3782.43,216.581L3782.33,216.571L3782.2,216.559L3782.08,216.546L3781.95,216.533L3781.85,216.521L3781.74,216.509L3781.62,216.495L3781.5,216.48L3781.39,216.467L3781.28,216.454L3781.16,216.439L3781.04,216.422L3780.92,216.406L3780.81,216.391L3780.71,216.376L3780.59,216.359L3780.49,216.343L3780.37,216.326L3780.24,216.306L3780.14,216.29L3779.92,216.254L3779.7,216.216L3779.47,216.178L3779.25,216.136L3779.03,216.096L3778.82,216.053L3778.6,216.01L3778.39,215.966L3778.17,215.918L3777.95,215.871L3777.74,215.824L3777.53,215.774L3777.32,215.723L3777.11,215.671L3776.9,215.618L3776.69,215.563L3776.49,215.507L3776.28,215.452L3776.09,215.396L3775.88,215.338L3775.68,215.279L3775.47,215.217L3775.27,215.155L3775.08,215.093L3774.88,215.031L3774.69,214.967L3774.49,214.901L3774.3,214.835L3774.1,214.767L3773.91,214.698L3773.72,214.631L3773.53,214.56L3773.34,214.488L3773.16,214.417L3772.97,214.345L3772.78,214.27L3772.6,214.195L3772.42,214.12L3772.24,214.043L3772.06,213.966L3771.88,213.888L3771.69,213.808L3771.52,213.729L3771.34,213.648L3771.16,213.566L3770.99,213.483L3770.81,213.4L3770.64,213.315L3770.47,213.23L3770.3,213.146L3770.12,213.058L3769.96,212.97L3769.79,212.882L3769.62,212.79L3769.45,212.702L3769.29,212.611L3769.12,212.519L3768.96,212.427L3768.79,212.333L3768.63,212.24L3768.47,212.145L3768.31,212.049L3768.15,211.951L3767.99,211.855L3767.83,211.758L3767.67,211.657L3767.52,211.558L3767.36,211.459L3767.21,211.357L3767.05,211.255L3766.9,211.153L3766.75,211.049L3766.6,210.944L3766.45,210.84L3766.3,210.734L3766.15,210.628L3766,210.522L3765.85,210.412L3765.71,210.304L3765.57,210.197L3765.42,210.085L3765.27,209.973L3765.13,209.862L3764.99,209.751L3764.85,209.638L3764.71,209.523L3764.57,209.409L3764.43,209.294L3764.29,209.179L3764.16,209.063L3764.02,208.944L3763.89,208.827L3763.75,208.708L3763.62,208.588L3763.48,208.469L3763.35,208.347L3763.22,208.228L3763.09,208.105L3762.96,207.981L3762.83,207.859L3762.71,207.735L3762.58,207.609L3762.45,207.484L3762.33,207.359L3762.2,207.232L3762.08,207.105L3761.95,206.976L3761.83,206.847L3761.71,206.718L3761.59,206.588L3761.47,206.458L3761.35,206.327L3761.24,206.194L3761.12,206.062L3761,205.929L3760.89,205.794L3760.77,205.661L3760.66,205.526L3760.55,205.39L3760.43,205.253L3760.33,205.116L3760.22,204.979L3760.11,204.841L3760,204.703L3759.89,204.563L3759.78,204.423L3759.68,204.283L3759.57,204.142L3759.47,203.999L3759.37,203.857L3759.26,203.715L3759.16,203.572L3759.06,203.428L3758.96,203.283L3758.86,203.137L3758.76,202.991L3758.67,202.845L3758.57,202.698L3758.48,202.551L3758.38,202.403L3758.29,202.254L3758.2,202.106L3758.11,201.956L3758.01,201.806L3757.92,201.654L3757.84,201.503L3757.75,201.352L3757.66,201.2L3757.57,201.047L3757.49,200.893L3757.41,200.739L3757.32,200.584L3757.24,200.43L3757.16,200.274L3757.08,200.117L3757,199.962L3756.92,199.804L3756.84,199.646L3756.76,199.489L3756.69,199.331L3756.61,199.17L3756.54,199.012L3756.47,198.852L3756.39,198.691L3756.32,198.529L3756.25,198.369L3756.18,198.207L3756.12,198.045L3756.05,197.881L3755.98,197.719L3755.92,197.554L3755.85,197.39L3755.79,197.226L3755.73,197.061L3755.67,196.895L3755.61,196.729L3755.55,196.562L3755.49,196.395L3755.43,196.228L3755.38,196.06L3755.32,195.892L3755.26,195.723L3755.21,195.554L3755.16,195.384L3755.11,195.214L3755.06,195.044L3755.01,194.874L3754.96,194.703L3754.91,194.53L3754.87,194.358L3754.82,194.187L3754.78,194.014L3754.74,193.84L3754.7,193.666L3754.65,193.493L3754.61,193.319L3754.58,193.143L3754.54,192.968L3754.5,192.794L3754.47,192.618L3754.43,192.441L3754.4,192.264L3754.37,192.088L3754.34,191.91L3754.31,191.732L3754.28,191.555L3754.25,191.377L3754.22,191.198L3754.2,191.018L3754.17,190.839L3754.15,190.659L3754.13,190.479L3754.1,190.3L3754.08,190.118L3754.07,189.938L3754.05,189.756L3754.03,189.574L3754.01,189.392L3754,189.21L3753.99,189.028L3753.97,188.845L3753.96,188.662L3753.95,188.478L3753.95,188.294L3753.94,188.11L3753.93,187.926L3753.93,187.742L3753.92,187.557L3753.92,187.371L3753.92,187.185L3753.92,187L3753.92,186.815L3753.92,186.629L3753.92,186.443L3753.93,186.258L3753.93,186.074L3753.94,185.89L3753.95,185.706L3753.95,185.522L3753.96,185.338L3753.97,185.155L3753.99,184.972L3754,184.79L3754.01,184.608L3754.03,184.426L3754.05,184.244L3754.07,184.062L3754.08,183.882L3754.1,183.7L3754.13,183.521L3754.15,183.341L3754.17,183.161L3754.2,182.982L3754.22,182.802L3754.25,182.623L3754.28,182.445L3754.31,182.268L3754.34,182.09L3754.37,181.912L3754.4,181.736L3754.43,181.559L3754.47,181.382L3754.5,181.206L3754.54,181.032L3754.58,180.857L3754.61,180.681L3754.65,180.507L3754.7,180.334L3754.74,180.16L3754.78,179.986L3754.82,179.813L3754.87,179.642L3754.91,179.47L3754.96,179.297L3755.01,179.126L3755.06,178.956L3755.11,178.786L3755.16,178.616L3755.21,178.446L3755.26,178.277L3755.32,178.108L3755.38,177.94L3755.43,177.772L3755.49,177.605L3755.55,177.438L3755.61,177.271L3755.67,177.105L3755.73,176.939L3755.79,176.774L3755.85,176.61L3755.92,176.446L3755.98,176.281L3756.05,176.119L3756.12,175.955L3756.18,175.793L3756.25,175.631L3756.32,175.471L3756.39,175.309L3756.47,175.148L3756.54,174.988L3756.61,174.83L3756.69,174.669L3756.76,174.511L3756.84,174.354L3756.92,174.196L3757,174.038L3757.08,173.883L3757.16,173.726L3757.24,173.57L3757.32,173.416L3757.41,173.261L3757.49,173.107L3757.57,172.953L3757.66,172.8L3757.75,172.648L3757.84,172.497L3757.92,172.346L3758.01,172.194L3758.11,172.044L3758.2,171.894L3758.29,171.746L3758.38,171.597L3758.48,171.449L3758.57,171.302L3758.67,171.155L3758.76,171.009L3758.86,170.863L3758.96,170.717L3759.06,170.572L3759.16,170.428L3759.26,170.285L3759.37,170.143L3759.47,170.001L3759.57,169.858L3759.68,169.717L3759.78,169.577L3759.89,169.437L3760,169.297L3760.11,169.159L3760.22,169.021L3760.33,168.884L3760.43,168.747L3760.55,168.61L3760.66,168.474L3760.77,168.339L3760.89,168.206L3761,168.071L3761.12,167.938L3761.24,167.806L3761.35,167.673L3761.47,167.542L3761.59,167.412L3761.71,167.282L3761.83,167.153L3761.95,167.024L3762.08,166.895L3762.2,166.768L3762.33,166.641L3762.45,166.516L3762.58,166.391L3762.71,166.265L3762.83,166.141L3762.96,166.019L3763.09,165.895L3763.22,165.772L3763.35,165.653L3763.48,165.531L3763.62,165.412L3763.75,165.292L3763.89,165.173L3764.02,165.056L3764.16,164.937L3764.29,164.821L3764.43,164.706L3764.57,164.591L3764.71,164.477L3764.85,164.362L3764.99,164.249L3765.13,164.138L3765.27,164.027L3765.42,163.915L3765.57,163.803L3765.71,163.696L3765.85,163.588L3766,163.478L3766.15,163.372L3766.3,163.266L3766.45,163.16L3766.6,163.056L3766.75,162.951L3766.9,162.847L3767.05,162.745L3767.21,162.643L3767.36,162.541L3767.52,162.442L3767.67,162.343L3767.83,162.242L3767.99,162.145L3768.15,162.049L3768.31,161.951L3768.47,161.855L3768.63,161.76L3768.79,161.667L3768.96,161.573L3769.12,161.481L3769.29,161.389L3769.45,161.298L3769.62,161.21L3769.79,161.118L3769.96,161.03L3770.12,160.942L3770.3,160.854L3770.47,160.77L3770.64,160.685L3770.81,160.6L3770.99,160.517L3771.16,160.434L3771.34,160.352L3771.52,160.271L3771.69,160.192L3771.88,160.112L3772.06,160.034L3772.24,159.957L3772.42,159.88L3772.6,159.805L3772.78,159.73L3772.97,159.655L3773.16,159.583L3773.34,159.512L3773.53,159.44L3773.72,159.369L3773.91,159.302L3774.1,159.233L3774.3,159.165L3774.49,159.099L3774.69,159.033L3774.88,158.969L3775.08,158.907L3775.27,158.845L3775.47,158.783L3775.68,158.721L3775.88,158.662L3776.09,158.604L3776.28,158.548L3776.49,158.493L3776.69,158.437L3776.9,158.382L3777.11,158.329L3777.32,158.277L3777.53,158.226L3777.74,158.176L3777.95,158.129L3778.17,158.082L3778.39,158.034L3778.6,157.99L3778.82,157.947L3779.03,157.904L3779.25,157.864L3779.47,157.822L3779.7,157.784L3779.92,157.746L3780.14,157.71L3780.24,157.694L3780.37,157.674L3780.49,157.657L3780.59,157.641L3780.71,157.624L3780.81,157.609L3780.92,157.594L3781.04,157.578L3781.16,157.561L3781.28,157.546L3781.39,157.533L3781.5,157.52L3781.62,157.505L3781.74,157.491L3781.85,157.479L3781.95,157.467L3782.08,157.454L3782.2,157.441L3782.33,157.429L3782.43,157.419L3782.54,157.409L3782.66,157.397L3782.79,157.387L3782.89,157.378L3783,157.369L3783.14,157.358L3783.25,157.35L3783.36,157.342L3783.49,157.334L3783.61,157.325L3783.74,157.318L3783.85,157.311L3783.95,157.305L3784.08,157.299L3784.2,157.293L3784.31,157.288L3784.44,157.282L3784.55,157.278L3784.68,157.273L3784.8,157.269L3784.91,157.266L3785.04,157.262L3785.16,157.259L3785.27,157.257L3785.4,157.255L3785.53,157.253L3785.64,157.252L3785.74,157.251L3785.87,157.25L3786,157.25L3786,160.75Z" style="fill:rgb(51,51,51);"/>
                </g>
                <g transform="matrix(0.928571,0,0,1,-3425.21,-5559)">
                    <path d="M3735,5927L3791,5927" style="fill:white;"/>
                    <rect x="3735" y="5925.25" width="56" height="3.5" style="fill:rgb(51,51,51);"/>
                </g>
                <g transform="matrix(0.928571,0,0,1,-3425.21,-5539)">
                    <path d="M3735,5927L3791,5927" style="fill:white;"/>
                    <rect x="3735" y="5925.25" width="56" height="3.5" style="fill:rgb(51,51,51);"/>
                </g>
            </g>
        </g>
    </g>
</svg>
