<?xml version="1.0" encoding="UTF-8" standalone="no"?>
<!DOCTYPE svg PUBLIC "-//W3C//DTD SVG 1.1//EN" "http://www.w3.org/Graphics/SVG/1.1/DTD/svg11.dtd">
<svg width="100%" height="100%" viewBox="0 0 42 46" version="1.1" xmlns="http://www.w3.org/2000/svg" xmlns:xlink="http://www.w3.org/1999/xlink" xml:space="preserve" style="fill-rule:evenodd;clip-rule:evenodd;stroke-miterlimit:1.41421;">
    <g transform="matrix(1,0,0,1,-4769,-9544)">
        <g transform="matrix(1,-1.16941e-19,-2.31414e-19,1.98651,4738,7470)">
            <g transform="matrix(1.49566,0.218652,-0.434354,0.75291,-2274.14,457.878)">
                <path d="M1632.42,309.169L1647.05,316.955L1643.09,319.441C1643.09,319.441 1646,322.591 1647.54,324.247C1648.05,324.808 1648.06,325.672 1647.54,326.235C1647.54,326.236 1647.54,326.236 1647.54,326.236C1647.3,326.498 1646.96,326.649 1646.61,326.655C1646.25,326.66 1645.91,326.519 1645.66,326.266C1644.08,324.643 1641.08,321.57 1641.08,321.57L1637.87,325.638L1632.42,309.169Z" style="fill:none;stroke-width:1.28px;stroke:rgb(51,51,51);"/>
            </g>
        </g>
    </g>
</svg>
