<?xml version="1.0" encoding="UTF-8" standalone="no"?>
<!DOCTYPE svg PUBLIC "-//W3C//DTD SVG 1.1//EN" "http://www.w3.org/Graphics/SVG/1.1/DTD/svg11.dtd">
<svg width="100%" height="100%" viewBox="0 0 42 46" version="1.1" xmlns="http://www.w3.org/2000/svg" xmlns:xlink="http://www.w3.org/1999/xlink" xml:space="preserve" style="fill-rule:evenodd;clip-rule:evenodd;stroke-miterlimit:1.41421;">
    <g transform="matrix(1,0,0,1,-4771,-7848)">
        <g transform="matrix(1,-1.16941e-19,-2.31414e-19,1.98651,4738,7470)">
            <g transform="matrix(1,5.88674e-20,2.04168e-19,0.882264,1.45275e-14,35.2377)">
                <g transform="matrix(1,0,0,0.570573,-5028.53,-890.665)">
                    <path d="M5062.53,1910L5062.53,1897C5062.53,1897 5063.14,1889 5070.53,1889C5077.92,1889 5074.53,1889 5074.53,1889" style="fill:none;stroke-width:2px;stroke:rgb(51,51,51);"/>
                </g>
                <g transform="matrix(-1,0,0,0.570573,5120.53,-890.665)">
                    <path d="M5062.53,1910L5062.53,1897C5062.53,1897 5063.14,1889 5070.53,1889C5077.92,1889 5074.53,1889 5074.53,1889" style="fill:none;stroke-width:2px;stroke:rgb(51,51,51);"/>
                </g>
                <g transform="matrix(1,0,0,0.320947,-5030.39,-416.126)">
                    <path d="M5069.39,1901L5069.39,1917" style="fill:none;stroke-width:2.47px;stroke:rgb(51,51,51);"/>
                </g>
                <g transform="matrix(1,0,0,0.320947,-5016.39,-416.126)">
                    <path d="M5069.39,1901L5069.39,1917" style="fill:none;stroke-width:2.47px;stroke:rgb(51,51,51);"/>
                </g>
                <g transform="matrix(1.16667,0,0,0.665669,-5875.29,-1070.3)">
                    <circle cx="5075.39" cy="1883" r="6" style="fill:none;stroke-width:1.71px;stroke:rgb(51,51,51);"/>
                </g>
            </g>
        </g>
    </g>
</svg>
