<?xml version="1.0" encoding="UTF-8" standalone="no"?>
<!DOCTYPE svg PUBLIC "-//W3C//DTD SVG 1.1//EN" "http://www.w3.org/Graphics/SVG/1.1/DTD/svg11.dtd">
<svg width="100%" height="100%" viewBox="0 0 142 142" version="1.1" xmlns="http://www.w3.org/2000/svg" xmlns:xlink="http://www.w3.org/1999/xlink" xml:space="preserve" style="fill-rule:evenodd;clip-rule:evenodd;stroke-miterlimit:1.41421;">
    <g transform="matrix(1,0,0,1,-23050,-2071)">
        <g transform="matrix(0.998959,-2.42305e-19,-2.54869e-19,0.950704,21541,1769)">
            <g>
                <g transform="matrix(2,0,1.92593e-34,2,-1887.96,-394.465)">
                    <g transform="matrix(1.00104,2.55135e-19,2.68364e-19,1.05185,-21563.4,-14634.4)">
                        <path d="M23274.1,14265L23274.2,14265L23274.3,14265L23274.3,14265L23274.4,14265L23274.5,14265L23274.6,14265L23274.7,14265L23274.8,14265L23274.8,14265L23274.9,14265L23275,14265L23275.1,14265L23275.2,14265.1L23275.2,14265.1L23275.3,14265.1L23275.4,14265.1L23275.5,14265.1L23275.6,14265.1L23275.7,14265.1L23275.7,14265.1L23275.8,14265.1L23275.9,14265.1L23276,14265.1L23276.1,14265.2L23276.1,14265.2L23276.2,14265.2L23276.3,14265.2L23276.4,14265.2L23276.5,14265.2L23276.5,14265.2L23276.6,14265.3L23276.7,14265.3L23276.8,14265.3L23276.9,14265.3L23276.9,14265.3L23277,14265.4L23277.1,14265.4L23277.2,14265.4L23277.2,14265.4L23277.3,14265.4L23277.4,14265.5L23277.5,14265.5L23277.6,14265.5L23277.6,14265.5L23277.7,14265.5L23277.8,14265.6L23277.9,14265.6L23277.9,14265.6L23278.1,14265.7L23278.2,14265.7L23278.2,14265.7L23278.3,14265.7L23278.5,14265.8L23278.5,14265.8L23278.6,14265.8L23278.7,14265.9L23278.8,14265.9L23278.8,14265.9L23278.9,14266L23279,14266L23279.1,14266L23279.1,14266.1L23279.2,14266.1L23279.3,14266.1L23279.3,14266.1L23279.4,14266.2L23279.5,14266.2L23279.6,14266.2L23279.6,14266.3L23279.7,14266.3L23279.8,14266.4L23279.8,14266.4L23279.9,14266.4L23280,14266.5L23280.1,14266.5L23280.1,14266.5L23280.2,14266.6L23280.3,14266.6L23280.3,14266.6L23280.4,14266.7L23280.5,14266.7L23280.5,14266.8L23280.6,14266.8L23280.7,14266.8L23280.7,14266.9L23280.8,14266.9L23280.9,14267L23280.9,14267L23281,14267L23281.1,14267.1L23281.1,14267.1L23281.2,14267.2L23281.3,14267.2L23281.3,14267.3L23281.4,14267.3L23281.5,14267.4L23281.5,14267.4L23281.6,14267.4L23281.7,14267.5L23281.7,14267.5L23281.8,14267.6L23281.8,14267.6L23281.9,14267.7L23282,14267.7L23282,14267.8L23282.1,14267.8L23282.1,14267.9L23282.2,14267.9L23282.3,14268L23282.3,14268L23282.4,14268.1L23282.4,14268.1L23282.5,14268.2L23282.6,14268.2L23282.6,14268.3L23282.7,14268.3L23282.7,14268.4L23282.8,14268.4L23282.9,14268.5L23282.9,14268.5L23283,14268.6L23283,14268.6L23283.1,14268.7L23283.1,14268.8L23283.2,14268.8L23283.2,14268.9L23283.3,14268.9L23283.4,14269L23283.4,14269L23283.5,14269.1L23283.5,14269.1L23283.6,14269.2L23283.6,14269.3L23283.7,14269.3L23283.7,14269.4L23283.8,14269.4L23283.8,14269.5L23283.9,14269.6L23283.9,14269.6L23284,14269.7L23284,14269.7L23284.1,14269.8L23284.1,14269.9L23284.2,14269.9L23284.2,14270L23284.3,14270L23284.3,14270.1L23284.4,14270.2L23284.4,14270.2L23284.5,14270.3L23284.5,14270.3L23284.6,14270.4L23284.6,14270.5L23284.6,14270.5L23284.7,14270.6L23284.7,14270.7L23284.8,14270.7L23284.8,14270.8L23284.9,14270.9L23284.9,14270.9L23285,14271L23285,14271.1L23285,14271.1L23285.1,14271.2L23285.1,14271.3L23285.2,14271.3L23285.2,14271.4L23285.2,14271.5L23285.3,14271.5L23285.3,14271.6L23285.4,14271.7L23285.4,14271.7L23285.4,14271.8L23285.5,14271.9L23285.5,14271.9L23285.5,14272L23285.6,14272.1L23285.6,14272.1L23285.6,14272.2L23285.7,14272.3L23285.7,14272.4L23285.8,14272.4L23285.8,14272.5L23285.8,14272.6L23285.9,14272.7L23285.9,14272.7L23285.9,14272.8L23285.9,14272.9L23286,14272.9L23286,14273L23286,14273.1L23286.1,14273.2L23286.1,14273.2L23286.1,14273.3L23286.2,14273.4L23286.2,14273.5L23286.2,14273.5L23286.2,14273.6L23286.3,14273.7L23286.3,14273.8L23286.3,14273.8L23286.3,14273.9L23286.4,14274L23286.4,14274.1L23286.4,14274.1L23286.4,14274.2L23286.5,14274.3L23286.5,14274.4L23286.5,14274.4L23286.5,14274.5L23286.5,14274.6L23286.6,14274.7L23286.6,14274.8L23286.6,14274.8L23286.6,14274.9L23286.6,14275L23286.7,14275.1L23286.7,14275.1L23286.7,14275.2L23286.7,14275.3L23286.7,14275.4L23286.8,14275.5L23286.8,14275.6L23286.8,14275.7L23286.8,14275.8L23286.8,14275.9L23286.9,14276L23286.9,14276.2L23286.9,14276.3L23286.9,14276.3L23286.9,14276.4L23286.9,14276.5L23286.9,14276.6L23286.9,14276.7L23286.9,14276.8L23286.9,14276.8L23287,14276.9L23287,14277L23287,14277.1L23287,14277.2L23287,14277.3L23287,14277.5L23287,14277.7L23287,14277.9L23287,14278.1L23287,14278.2L23287,14278.2L23287,14278.3L23287,14278.4L23287,14278.5L23287,14278.6L23287,14278.7L23287,14278.7L23287,14278.8L23287,14278.9L23287,14279L23287,14279.1L23286.9,14279.2L23286.9,14279.2L23286.9,14279.3L23286.9,14279.4L23286.9,14279.5L23286.9,14279.6L23286.9,14279.7L23286.9,14279.7L23286.9,14279.8L23286.9,14279.9L23286.9,14280L23286.8,14280.1L23286.8,14280.1L23286.8,14280.2L23286.8,14280.3L23286.8,14280.4L23286.8,14280.5L23286.8,14280.5L23286.7,14280.6L23286.7,14280.7L23286.7,14280.8L23286.7,14280.9L23286.7,14280.9L23286.6,14281L23286.6,14281.1L23286.6,14281.2L23286.6,14281.2L23286.6,14281.3L23286.5,14281.4L23286.5,14281.5L23286.5,14281.6L23286.5,14281.6L23286.5,14281.7L23286.4,14281.8L23286.4,14281.9L23286.4,14281.9L23286.4,14282L23286.3,14282.1L23286.3,14282.2L23286.3,14282.2L23286.3,14282.3L23286.2,14282.4L23286.2,14282.5L23286.2,14282.5L23286.2,14282.6L23286.1,14282.7L23286.1,14282.8L23286.1,14282.8L23286,14282.9L23286,14283L23286,14283.1L23285.9,14283.1L23285.9,14283.2L23285.9,14283.3L23285.9,14283.3L23285.8,14283.4L23285.8,14283.5L23285.8,14283.6L23285.7,14283.6L23285.7,14283.7L23285.6,14283.8L23285.6,14283.8L23285.6,14283.9L23285.5,14284L23285.5,14284.1L23285.5,14284.1L23285.4,14284.2L23285.4,14284.3L23285.4,14284.3L23285.3,14284.4L23285.3,14284.5L23285.2,14284.5L23285.2,14284.6L23285.2,14284.7L23285.1,14284.7L23285.1,14284.8L23285,14284.9L23285,14284.9L23285,14285L23284.9,14285.1L23284.9,14285.1L23284.8,14285.2L23284.8,14285.3L23284.7,14285.3L23284.7,14285.4L23284.6,14285.5L23284.6,14285.5L23284.6,14285.6L23284.5,14285.7L23284.5,14285.7L23284.4,14285.8L23284.4,14285.8L23284.3,14285.9L23284.3,14286L23284.2,14286L23284.2,14286.1L23284.1,14286.1L23284.1,14286.2L23284,14286.3L23284,14286.3L23283.9,14286.4L23283.9,14286.4L23283.8,14286.5L23283.8,14286.6L23283.7,14286.6L23283.7,14286.7L23283.6,14286.7L23283.6,14286.8L23283.5,14286.9L23283.5,14286.9L23283.4,14287L23283.4,14287L23283.3,14287.1L23283.2,14287.1L23283.2,14287.2L23283.1,14287.2L23283.1,14287.3L23283,14287.4L23283,14287.4L23282.9,14287.5L23282.9,14287.5L23282.8,14287.6L23282.7,14287.6L23282.7,14287.7L23282.6,14287.7L23282.6,14287.8L23282.5,14287.8L23282.4,14287.9L23282.4,14287.9L23282.3,14288L23282.3,14288L23282.2,14288.1L23282.1,14288.1L23282.1,14288.2L23282,14288.2L23282,14288.3L23281.9,14288.3L23281.8,14288.4L23281.8,14288.4L23281.7,14288.5L23281.7,14288.5L23281.6,14288.6L23281.5,14288.6L23281.5,14288.6L23281.4,14288.7L23281.3,14288.7L23281.3,14288.8L23281.2,14288.8L23281.1,14288.9L23281.1,14288.9L23281,14289L23280.9,14289L23280.9,14289L23280.8,14289.1L23280.7,14289.1L23280.7,14289.2L23280.6,14289.2L23280.5,14289.2L23280.5,14289.3L23280.4,14289.3L23280.3,14289.4L23280.3,14289.4L23280.2,14289.4L23280.1,14289.5L23280.1,14289.5L23280,14289.5L23279.9,14289.6L23279.8,14289.6L23279.8,14289.6L23279.7,14289.7L23279.6,14289.7L23279.6,14289.8L23279.5,14289.8L23279.4,14289.8L23279.3,14289.9L23279.3,14289.9L23279.2,14289.9L23279.1,14289.9L23279.1,14290L23279,14290L23278.9,14290L23278.8,14290.1L23278.8,14290.1L23278.7,14290.1L23278.6,14290.2L23278.5,14290.2L23278.5,14290.2L23278.4,14290.2L23278.3,14290.3L23278.2,14290.3L23278.2,14290.3L23278.1,14290.3L23278,14290.4L23277.9,14290.4L23277.9,14290.4L23277.8,14290.4L23277.7,14290.5L23277.6,14290.5L23277.6,14290.5L23277.5,14290.5L23277.4,14290.5L23277.3,14290.6L23277.2,14290.6L23277.2,14290.6L23277.1,14290.6L23277,14290.6L23276.9,14290.7L23276.9,14290.7L23276.8,14290.7L23276.7,14290.7L23276.6,14290.7L23276.5,14290.8L23276.5,14290.8L23276.4,14290.8L23276.3,14290.8L23276.2,14290.8L23276.1,14290.8L23276.1,14290.8L23276,14290.9L23275.9,14290.9L23275.8,14290.9L23275.7,14290.9L23275.7,14290.9L23275.6,14290.9L23275.5,14290.9L23275.4,14290.9L23275.3,14290.9L23275.2,14290.9L23275.2,14290.9L23275.1,14291L23275,14291L23274.9,14291L23274.8,14291L23274.8,14291L23274.7,14291L23274.6,14291L23274.5,14291L23274.4,14291L23274.3,14291L23274.3,14291L23274.2,14291L23274.1,14291L23274,14291L23273.9,14291L23273.8,14291L23273.7,14291L23273.7,14291L23273.6,14291L23273.5,14291L23273.4,14291L23273.3,14291L23273.2,14291L23273.2,14291L23273.1,14291L23273,14291L23272.9,14291L23272.8,14290.9L23272.8,14290.9L23272.7,14290.9L23272.6,14290.9L23272.5,14290.9L23272.4,14290.9L23272.3,14290.9L23272.3,14290.9L23272.2,14290.9L23272.1,14290.9L23272,14290.9L23271.9,14290.8L23271.9,14290.8L23271.8,14290.8L23271.7,14290.8L23271.6,14290.8L23271.5,14290.8L23271.5,14290.8L23271.4,14290.7L23271.3,14290.7L23271.2,14290.7L23271.1,14290.7L23271.1,14290.7L23271,14290.6L23270.9,14290.6L23270.8,14290.6L23270.8,14290.6L23270.7,14290.6L23270.6,14290.5L23270.5,14290.5L23270.4,14290.5L23270.4,14290.5L23270.3,14290.5L23270.2,14290.4L23270.1,14290.4L23270.1,14290.4L23270,14290.4L23269.9,14290.3L23269.8,14290.3L23269.8,14290.3L23269.7,14290.3L23269.6,14290.2L23269.5,14290.2L23269.5,14290.2L23269.4,14290.2L23269.3,14290.1L23269.2,14290.1L23269.2,14290.1L23269.1,14290L23269,14290L23268.9,14290L23268.9,14289.9L23268.8,14289.9L23268.7,14289.9L23268.7,14289.9L23268.6,14289.8L23268.5,14289.8L23268.4,14289.8L23268.4,14289.7L23268.3,14289.7L23268.2,14289.6L23268.2,14289.6L23268.1,14289.6L23268,14289.5L23267.9,14289.5L23267.9,14289.5L23267.8,14289.4L23267.7,14289.4L23267.7,14289.4L23267.6,14289.3L23267.5,14289.3L23267.5,14289.2L23267.4,14289.2L23267.3,14289.2L23267.3,14289.1L23267.2,14289.1L23267.1,14289L23267.1,14289L23267,14289L23266.9,14288.9L23266.9,14288.9L23266.8,14288.8L23266.7,14288.8L23266.7,14288.7L23266.6,14288.7L23266.5,14288.6L23266.5,14288.6L23266.4,14288.6L23266.3,14288.5L23266.3,14288.5L23266.2,14288.4L23266.2,14288.4L23266.1,14288.3L23266,14288.3L23266,14288.2L23265.9,14288.2L23265.9,14288.1L23265.8,14288.1L23265.7,14288L23265.7,14288L23265.6,14287.9L23265.6,14287.9L23265.5,14287.8L23265.4,14287.8L23265.4,14287.7L23265.3,14287.7L23265.3,14287.6L23265.2,14287.6L23265.1,14287.5L23265.1,14287.5L23265,14287.4L23265,14287.4L23264.9,14287.3L23264.9,14287.2L23264.8,14287.2L23264.8,14287.1L23264.7,14287.1L23264.6,14287L23264.6,14287L23264.5,14286.9L23264.5,14286.9L23264.4,14286.8L23264.4,14286.7L23264.3,14286.7L23264.3,14286.6L23264.2,14286.6L23264.2,14286.5L23264.1,14286.4L23264.1,14286.4L23264,14286.3L23264,14286.3L23263.9,14286.2L23263.9,14286.1L23263.8,14286.1L23263.8,14286L23263.7,14286L23263.7,14285.9L23263.6,14285.8L23263.6,14285.8L23263.5,14285.7L23263.5,14285.7L23263.4,14285.6L23263.4,14285.5L23263.4,14285.5L23263.3,14285.4L23263.3,14285.3L23263.2,14285.3L23263.2,14285.2L23263.1,14285.1L23263.1,14285.1L23263,14285L23263,14284.9L23263,14284.9L23262.9,14284.8L23262.9,14284.7L23262.8,14284.7L23262.8,14284.6L23262.8,14284.5L23262.7,14284.5L23262.7,14284.4L23262.6,14284.3L23262.6,14284.3L23262.6,14284.2L23262.5,14284.1L23262.5,14284.1L23262.5,14284L23262.4,14283.9L23262.4,14283.8L23262.4,14283.8L23262.3,14283.7L23262.3,14283.6L23262.2,14283.6L23262.2,14283.5L23262.2,14283.4L23262.1,14283.3L23262.1,14283.3L23262.1,14283.2L23262.1,14283.1L23262,14283.1L23262,14283L23262,14282.9L23261.9,14282.8L23261.9,14282.8L23261.9,14282.7L23261.8,14282.6L23261.8,14282.5L23261.8,14282.5L23261.8,14282.4L23261.7,14282.3L23261.7,14282.2L23261.7,14282.2L23261.7,14282.1L23261.6,14282L23261.6,14281.9L23261.6,14281.9L23261.6,14281.8L23261.5,14281.7L23261.5,14281.6L23261.5,14281.6L23261.5,14281.5L23261.5,14281.4L23261.4,14281.3L23261.4,14281.2L23261.4,14281.2L23261.4,14281.1L23261.4,14281L23261.3,14280.9L23261.3,14280.9L23261.3,14280.8L23261.3,14280.7L23261.3,14280.6L23261.2,14280.5L23261.2,14280.5L23261.2,14280.4L23261.2,14280.3L23261.2,14280.2L23261.2,14280.1L23261.2,14280.1L23261.1,14280L23261.1,14279.9L23261.1,14279.8L23261.1,14279.7L23261.1,14279.7L23261.1,14279.6L23261.1,14279.5L23261.1,14279.4L23261.1,14279.3L23261.1,14279.2L23261.1,14279.2L23261,14279.1L23261,14279L23261,14278.9L23261,14278.8L23261,14278.7L23261,14278.7L23261,14278.6L23261,14278.5L23261,14278.4L23261,14278.3L23261,14278.2L23261,14278.2L23261,14278.1L23261,14277.9L23261,14277.8L23261,14277.8L23261,14277.7L23261,14277.6L23261,14277.5L23261,14277.4L23261,14277.3L23261,14277.3L23261,14277.2L23261,14277.1L23261,14277L23261,14276.9L23261.1,14276.8L23261.1,14276.8L23261.1,14276.7L23261.1,14276.6L23261.1,14276.5L23261.1,14276.4L23261.1,14276.3L23261.1,14276.3L23261.1,14276.2L23261.1,14276.1L23261.1,14276L23261.2,14275.9L23261.2,14275.9L23261.2,14275.8L23261.2,14275.7L23261.2,14275.6L23261.2,14275.5L23261.2,14275.5L23261.3,14275.4L23261.3,14275.3L23261.3,14275.2L23261.3,14275.1L23261.3,14275.1L23261.4,14275L23261.4,14274.9L23261.4,14274.8L23261.4,14274.8L23261.4,14274.7L23261.5,14274.6L23261.5,14274.5L23261.5,14274.4L23261.5,14274.4L23261.5,14274.3L23261.6,14274.2L23261.6,14274.1L23261.6,14274.1L23261.6,14274L23261.7,14273.9L23261.7,14273.8L23261.7,14273.8L23261.7,14273.7L23261.8,14273.6L23261.8,14273.5L23261.8,14273.5L23261.8,14273.4L23261.9,14273.3L23261.9,14273.2L23261.9,14273.2L23262,14273.1L23262,14273L23262,14272.9L23262.1,14272.9L23262.1,14272.8L23262.1,14272.7L23262.1,14272.7L23262.2,14272.6L23262.2,14272.5L23262.2,14272.4L23262.3,14272.4L23262.3,14272.3L23262.4,14272.2L23262.4,14272.1L23262.4,14272.1L23262.5,14272L23262.5,14271.9L23262.5,14271.9L23262.6,14271.8L23262.6,14271.7L23262.6,14271.7L23262.7,14271.6L23262.7,14271.5L23262.8,14271.5L23262.8,14271.4L23262.8,14271.3L23262.9,14271.3L23262.9,14271.2L23263,14271.1L23263,14271.1L23263,14271L23263.1,14270.9L23263.1,14270.9L23263.2,14270.8L23263.2,14270.7L23263.3,14270.7L23263.3,14270.6L23263.4,14270.5L23263.4,14270.5L23263.4,14270.4L23263.5,14270.3L23263.5,14270.3L23263.6,14270.2L23263.6,14270.2L23263.7,14270.1L23263.7,14270L23263.8,14270L23263.8,14269.9L23263.9,14269.9L23263.9,14269.8L23264,14269.7L23264,14269.7L23264.1,14269.6L23264.1,14269.6L23264.2,14269.5L23264.2,14269.4L23264.3,14269.4L23264.3,14269.3L23264.4,14269.3L23264.4,14269.2L23264.5,14269.1L23264.5,14269.1L23264.6,14269L23264.6,14269L23264.7,14268.9L23264.8,14268.9L23264.8,14268.8L23264.9,14268.8L23264.9,14268.7L23265,14268.6L23265,14268.6L23265.1,14268.5L23265.1,14268.5L23265.2,14268.4L23265.3,14268.4L23265.3,14268.3L23265.4,14268.3L23265.4,14268.2L23265.5,14268.2L23265.6,14268.1L23265.6,14268.1L23265.7,14268L23265.7,14268L23265.8,14267.9L23265.9,14267.9L23265.9,14267.8L23266,14267.8L23266,14267.7L23266.1,14267.7L23266.2,14267.6L23266.2,14267.6L23266.3,14267.5L23266.3,14267.5L23266.4,14267.4L23266.5,14267.4L23266.5,14267.4L23266.6,14267.3L23266.7,14267.3L23266.7,14267.2L23266.8,14267.2L23266.9,14267.1L23266.9,14267.1L23267,14267L23267.1,14267L23267.1,14267L23267.2,14266.9L23267.3,14266.9L23267.3,14266.8L23267.4,14266.8L23267.5,14266.8L23267.5,14266.7L23267.6,14266.7L23267.7,14266.6L23267.7,14266.6L23267.8,14266.6L23267.9,14266.5L23267.9,14266.5L23268,14266.5L23268.1,14266.4L23268.2,14266.4L23268.2,14266.4L23268.3,14266.3L23268.4,14266.3L23268.4,14266.2L23268.5,14266.2L23268.6,14266.2L23268.7,14266.1L23268.7,14266.1L23268.8,14266.1L23268.9,14266.1L23268.9,14266L23269,14266L23269.1,14266L23269.2,14265.9L23269.2,14265.9L23269.3,14265.9L23269.4,14265.8L23269.5,14265.8L23269.5,14265.8L23269.6,14265.8L23269.7,14265.7L23269.8,14265.7L23269.8,14265.7L23269.9,14265.7L23270,14265.6L23270.1,14265.6L23270.1,14265.6L23270.2,14265.6L23270.3,14265.5L23270.4,14265.5L23270.4,14265.5L23270.5,14265.5L23270.6,14265.5L23270.7,14265.4L23270.8,14265.4L23270.8,14265.4L23270.9,14265.4L23271,14265.4L23271.1,14265.3L23271.1,14265.3L23271.2,14265.3L23271.3,14265.3L23271.4,14265.3L23271.5,14265.2L23271.5,14265.2L23271.6,14265.2L23271.7,14265.2L23271.8,14265.2L23271.9,14265.2L23271.9,14265.2L23272,14265.1L23272.1,14265.1L23272.2,14265.1L23272.3,14265.1L23272.3,14265.1L23272.4,14265.1L23272.5,14265.1L23272.6,14265.1L23272.7,14265.1L23272.8,14265.1L23272.8,14265.1L23272.9,14265L23273,14265L23273.1,14265L23273.2,14265L23273.2,14265L23273.3,14265L23273.4,14265L23273.5,14265L23273.6,14265L23273.7,14265L23273.7,14265L23273.8,14265L23273.9,14265L23274,14265L23274.1,14265ZM23273.9,14267L23273.9,14267L23273.8,14267L23273.7,14267L23273.6,14267L23273.6,14267L23273.5,14267L23273.4,14267L23273.4,14267L23273.3,14267L23273.2,14267L23273.2,14267L23273.1,14267L23273,14267L23272.9,14267.1L23272.9,14267.1L23272.8,14267.1L23272.7,14267.1L23272.7,14267.1L23272.6,14267.1L23272.5,14267.1L23272.5,14267.1L23272.4,14267.1L23272.3,14267.1L23272.3,14267.1L23272.2,14267.1L23272.1,14267.2L23272.1,14267.2L23272,14267.2L23271.9,14267.2L23271.9,14267.2L23271.8,14267.2L23271.7,14267.2L23271.6,14267.3L23271.6,14267.3L23271.5,14267.3L23271.4,14267.3L23271.4,14267.3L23271.3,14267.3L23271.3,14267.3L23271.2,14267.4L23271.1,14267.4L23271.1,14267.4L23271,14267.4L23270.9,14267.4L23270.9,14267.5L23270.8,14267.5L23270.7,14267.5L23270.7,14267.5L23270.6,14267.5L23270.5,14267.6L23270.5,14267.6L23270.4,14267.6L23270.3,14267.6L23270.3,14267.6L23270.2,14267.7L23270.2,14267.7L23270.1,14267.7L23270,14267.7L23270,14267.8L23269.9,14267.8L23269.8,14267.8L23269.8,14267.8L23269.7,14267.9L23269.7,14267.9L23269.6,14267.9L23269.5,14267.9L23269.5,14268L23269.4,14268L23269.4,14268L23269.3,14268.1L23269.2,14268.1L23269.2,14268.1L23269.1,14268.1L23269.1,14268.2L23269,14268.2L23268.9,14268.2L23268.9,14268.3L23268.8,14268.3L23268.8,14268.3L23268.7,14268.4L23268.6,14268.4L23268.6,14268.4L23268.5,14268.5L23268.5,14268.5L23268.4,14268.5L23268.4,14268.6L23268.3,14268.6L23268.2,14268.6L23268.2,14268.7L23268.1,14268.7L23268.1,14268.7L23268,14268.8L23268,14268.8L23267.9,14268.8L23267.9,14268.9L23267.8,14268.9L23267.7,14269L23267.7,14269L23267.6,14269L23267.6,14269.1L23267.5,14269.1L23267.5,14269.1L23267.4,14269.2L23267.4,14269.2L23267.3,14269.3L23267.3,14269.3L23267.2,14269.3L23267.2,14269.4L23267.1,14269.4L23267.1,14269.5L23267,14269.5L23267,14269.6L23266.9,14269.6L23266.9,14269.6L23266.8,14269.7L23266.8,14269.7L23266.7,14269.8L23266.7,14269.8L23266.6,14269.9L23266.6,14269.9L23266.5,14269.9L23266.5,14270L23266.4,14270L23266.4,14270.1L23266.3,14270.1L23266.3,14270.2L23266.2,14270.2L23266.2,14270.3L23266.1,14270.3L23266.1,14270.4L23266,14270.4L23266,14270.5L23266,14270.5L23265.9,14270.6L23265.9,14270.6L23265.8,14270.7L23265.8,14270.7L23265.7,14270.8L23265.7,14270.8L23265.6,14270.9L23265.6,14270.9L23265.6,14271L23265.5,14271L23265.5,14271.1L23265.4,14271.1L23265.4,14271.2L23265.3,14271.2L23265.3,14271.3L23265.3,14271.3L23265.2,14271.4L23265.2,14271.4L23265.1,14271.5L23265.1,14271.5L23265.1,14271.6L23265,14271.6L23265,14271.7L23265,14271.7L23264.9,14271.8L23264.9,14271.9L23264.8,14271.9L23264.8,14272L23264.8,14272L23264.7,14272.1L23264.7,14272.1L23264.7,14272.2L23264.6,14272.2L23264.6,14272.3L23264.6,14272.4L23264.5,14272.4L23264.5,14272.5L23264.5,14272.5L23264.4,14272.6L23264.4,14272.6L23264.4,14272.7L23264.3,14272.8L23264.3,14272.8L23264.3,14272.9L23264.2,14272.9L23264.2,14273L23264.2,14273.1L23264.1,14273.1L23264.1,14273.2L23264.1,14273.2L23264.1,14273.3L23264,14273.4L23264,14273.4L23264,14273.5L23263.9,14273.5L23263.9,14273.6L23263.9,14273.7L23263.9,14273.7L23263.8,14273.8L23263.8,14273.8L23263.8,14273.9L23263.8,14274L23263.7,14274L23263.7,14274.1L23263.7,14274.2L23263.7,14274.2L23263.6,14274.3L23263.6,14274.3L23263.6,14274.4L23263.6,14274.5L23263.6,14274.5L23263.5,14274.6L23263.5,14274.7L23263.5,14274.7L23263.5,14274.8L23263.5,14274.9L23263.4,14274.9L23263.4,14275L23263.4,14275.1L23263.4,14275.1L23263.4,14275.2L23263.3,14275.3L23263.3,14275.3L23263.3,14275.4L23263.3,14275.5L23263.3,14275.5L23263.3,14275.6L23263.3,14275.6L23263.2,14275.7L23263.2,14275.8L23263.2,14275.8L23263.2,14275.9L23263.2,14276L23263.2,14276.1L23263.2,14276.1L23263.1,14276.2L23263.1,14276.3L23263.1,14276.3L23263.1,14276.4L23263.1,14276.5L23263.1,14276.5L23263.1,14276.6L23263.1,14276.7L23263.1,14276.7L23263.1,14276.8L23263.1,14276.9L23263,14276.9L23263,14277L23263,14277.1L23263,14277.1L23263,14277.2L23263,14277.3L23263,14277.4L23263,14277.4L23263,14277.5L23263,14277.6L23263,14277.6L23263,14277.7L23263,14277.8L23263,14277.9L23263,14277.9L23263,14278.1L23263,14278.3L23263,14278.4L23263,14278.6L23263,14278.7L23263,14278.8L23263,14278.9L23263,14278.9L23263,14279L23263,14279.1L23263.1,14279.1L23263.1,14279.2L23263.1,14279.3L23263.1,14279.3L23263.1,14279.4L23263.1,14279.5L23263.1,14279.5L23263.1,14279.7L23263.1,14279.8L23263.2,14279.9L23263.2,14279.9L23263.2,14280L23263.2,14280.1L23263.2,14280.2L23263.2,14280.3L23263.3,14280.4L23263.3,14280.4L23263.3,14280.5L23263.3,14280.6L23263.3,14280.7L23263.3,14280.7L23263.4,14280.8L23263.4,14280.9L23263.4,14281L23263.5,14281.1L23263.5,14281.3L23263.5,14281.3L23263.5,14281.4L23263.6,14281.5L23263.6,14281.5L23263.6,14281.6L23263.6,14281.7L23263.6,14281.7L23263.7,14281.8L23263.7,14281.8L23263.7,14281.9L23263.7,14282L23263.8,14282L23263.8,14282.1L23263.8,14282.2L23263.8,14282.2L23263.9,14282.3L23263.9,14282.3L23263.9,14282.4L23263.9,14282.5L23264,14282.5L23264,14282.6L23264,14282.6L23264.1,14282.7L23264.1,14282.8L23264.1,14282.8L23264.1,14282.9L23264.2,14282.9L23264.2,14283L23264.2,14283.1L23264.3,14283.1L23264.3,14283.2L23264.3,14283.2L23264.4,14283.3L23264.4,14283.4L23264.4,14283.4L23264.5,14283.5L23264.5,14283.5L23264.5,14283.6L23264.6,14283.6L23264.6,14283.7L23264.6,14283.8L23264.7,14283.8L23264.7,14283.9L23264.7,14283.9L23264.8,14284L23264.8,14284L23264.8,14284.1L23264.9,14284.1L23264.9,14284.2L23265,14284.3L23265,14284.3L23265,14284.4L23265.1,14284.4L23265.1,14284.5L23265.1,14284.5L23265.2,14284.6L23265.2,14284.6L23265.3,14284.7L23265.3,14284.7L23265.3,14284.8L23265.4,14284.8L23265.4,14284.9L23265.5,14284.9L23265.5,14285L23265.6,14285L23265.6,14285.1L23265.6,14285.1L23265.7,14285.2L23265.7,14285.2L23265.8,14285.3L23265.8,14285.3L23265.9,14285.4L23265.9,14285.4L23266,14285.5L23266,14285.5L23266,14285.6L23266.1,14285.6L23266.1,14285.7L23266.2,14285.7L23266.2,14285.8L23266.3,14285.8L23266.3,14285.9L23266.4,14285.9L23266.4,14286L23266.5,14286L23266.5,14286.1L23266.6,14286.1L23266.6,14286.1L23266.7,14286.2L23266.7,14286.2L23266.8,14286.3L23266.8,14286.3L23266.9,14286.4L23266.9,14286.4L23267,14286.4L23267,14286.5L23267.1,14286.5L23267.1,14286.6L23267.2,14286.6L23267.2,14286.7L23267.3,14286.7L23267.3,14286.7L23267.4,14286.8L23267.4,14286.8L23267.5,14286.9L23267.5,14286.9L23267.6,14286.9L23267.6,14287L23267.7,14287L23267.7,14287L23267.8,14287.1L23267.9,14287.1L23267.9,14287.2L23268,14287.2L23268,14287.2L23268.1,14287.3L23268.1,14287.3L23268.2,14287.3L23268.2,14287.4L23268.3,14287.4L23268.4,14287.4L23268.4,14287.5L23268.5,14287.5L23268.5,14287.5L23268.6,14287.6L23268.6,14287.6L23268.7,14287.6L23268.8,14287.7L23268.8,14287.7L23268.9,14287.7L23268.9,14287.8L23269,14287.8L23269.1,14287.8L23269.1,14287.9L23269.2,14287.9L23269.2,14287.9L23269.3,14287.9L23269.4,14288L23269.4,14288L23269.5,14288L23269.5,14288.1L23269.6,14288.1L23269.7,14288.1L23269.7,14288.1L23269.8,14288.2L23269.8,14288.2L23269.9,14288.2L23270,14288.2L23270,14288.3L23270.1,14288.3L23270.2,14288.3L23270.2,14288.3L23270.3,14288.4L23270.3,14288.4L23270.4,14288.4L23270.5,14288.4L23270.5,14288.4L23270.7,14288.5L23270.8,14288.5L23270.9,14288.5L23270.9,14288.6L23271,14288.6L23271.1,14288.6L23271.1,14288.6L23271.2,14288.6L23271.3,14288.7L23271.3,14288.7L23271.4,14288.7L23271.4,14288.7L23271.5,14288.7L23271.6,14288.7L23271.6,14288.7L23271.7,14288.8L23271.8,14288.8L23271.9,14288.8L23271.9,14288.8L23272,14288.8L23272.1,14288.8L23272.1,14288.8L23272.2,14288.9L23272.3,14288.9L23272.3,14288.9L23272.4,14288.9L23272.5,14288.9L23272.5,14288.9L23272.6,14288.9L23272.7,14288.9L23272.7,14288.9L23272.8,14288.9L23272.9,14288.9L23272.9,14289L23273,14289L23273.1,14289L23273.2,14289L23273.2,14289L23273.3,14289L23273.4,14289L23273.4,14289L23273.5,14289L23273.6,14289L23273.6,14289L23273.7,14289L23273.8,14289L23273.9,14289L23273.9,14289L23274,14289L23274.1,14289L23274.1,14289L23274.2,14289L23274.3,14289L23274.4,14289L23274.4,14289L23274.5,14289L23274.6,14289L23274.6,14289L23274.7,14289L23274.8,14289L23274.8,14289L23274.9,14289L23275,14289L23275.1,14289L23275.1,14288.9L23275.2,14288.9L23275.3,14288.9L23275.3,14288.9L23275.4,14288.9L23275.5,14288.9L23275.5,14288.9L23275.6,14288.9L23275.7,14288.9L23275.7,14288.9L23275.8,14288.9L23275.9,14288.8L23275.9,14288.8L23276,14288.8L23276.1,14288.8L23276.1,14288.8L23276.2,14288.8L23276.3,14288.8L23276.4,14288.7L23276.4,14288.7L23276.5,14288.7L23276.6,14288.7L23276.6,14288.7L23276.7,14288.7L23276.7,14288.7L23276.8,14288.6L23276.9,14288.6L23276.9,14288.6L23277,14288.6L23277.1,14288.6L23277.1,14288.5L23277.2,14288.5L23277.3,14288.5L23277.3,14288.5L23277.4,14288.5L23277.5,14288.4L23277.5,14288.4L23277.6,14288.4L23277.7,14288.4L23277.7,14288.4L23277.8,14288.3L23277.8,14288.3L23277.9,14288.3L23278,14288.3L23278,14288.2L23278.1,14288.2L23278.2,14288.2L23278.2,14288.2L23278.3,14288.1L23278.3,14288.1L23278.4,14288.1L23278.5,14288.1L23278.5,14288L23278.6,14288L23278.6,14288L23278.7,14287.9L23278.8,14287.9L23278.8,14287.9L23278.9,14287.9L23278.9,14287.8L23279,14287.8L23279.1,14287.8L23279.1,14287.7L23279.2,14287.7L23279.2,14287.7L23279.3,14287.6L23279.4,14287.6L23279.4,14287.6L23279.5,14287.5L23279.5,14287.5L23279.6,14287.5L23279.6,14287.4L23279.7,14287.4L23279.8,14287.4L23279.8,14287.3L23279.9,14287.3L23279.9,14287.3L23280,14287.2L23280,14287.2L23280.1,14287.2L23280.1,14287.1L23280.2,14287.1L23280.3,14287L23280.3,14287L23280.4,14287L23280.4,14286.9L23280.5,14286.9L23280.5,14286.9L23280.6,14286.8L23280.6,14286.8L23280.7,14286.7L23280.7,14286.7L23280.8,14286.7L23280.8,14286.6L23280.9,14286.6L23280.9,14286.5L23281,14286.5L23281,14286.4L23281.1,14286.4L23281.1,14286.4L23281.2,14286.3L23281.2,14286.3L23281.3,14286.2L23281.3,14286.2L23281.4,14286.1L23281.4,14286.1L23281.5,14286.1L23281.5,14286L23281.6,14286L23281.6,14285.9L23281.7,14285.9L23281.7,14285.8L23281.8,14285.8L23281.8,14285.7L23281.9,14285.7L23281.9,14285.6L23282,14285.6L23282,14285.5L23282,14285.5L23282.1,14285.4L23282.1,14285.4L23282.2,14285.3L23282.2,14285.3L23282.3,14285.2L23282.3,14285.2L23282.4,14285.1L23282.4,14285.1L23282.4,14285L23282.5,14285L23282.5,14284.9L23282.6,14284.9L23282.6,14284.8L23282.7,14284.8L23282.7,14284.7L23282.7,14284.7L23282.8,14284.6L23282.8,14284.6L23282.9,14284.5L23282.9,14284.5L23282.9,14284.4L23283,14284.4L23283,14284.3L23283,14284.3L23283.1,14284.2L23283.1,14284.1L23283.2,14284.1L23283.2,14284L23283.2,14284L23283.3,14283.9L23283.3,14283.9L23283.3,14283.8L23283.4,14283.8L23283.4,14283.7L23283.4,14283.6L23283.5,14283.6L23283.5,14283.5L23283.5,14283.5L23283.6,14283.4L23283.6,14283.4L23283.6,14283.3L23283.7,14283.2L23283.7,14283.2L23283.7,14283.1L23283.8,14283.1L23283.8,14283L23283.8,14282.9L23283.9,14282.9L23283.9,14282.8L23283.9,14282.8L23283.9,14282.7L23284,14282.6L23284,14282.6L23284,14282.5L23284.1,14282.5L23284.1,14282.4L23284.1,14282.3L23284.1,14282.3L23284.2,14282.2L23284.2,14282.2L23284.2,14282.1L23284.2,14282L23284.3,14282L23284.3,14281.9L23284.3,14281.8L23284.3,14281.8L23284.4,14281.7L23284.4,14281.7L23284.4,14281.6L23284.4,14281.5L23284.4,14281.5L23284.5,14281.4L23284.5,14281.3L23284.5,14281.3L23284.5,14281.2L23284.5,14281.1L23284.6,14281.1L23284.6,14281L23284.6,14280.9L23284.6,14280.9L23284.6,14280.8L23284.7,14280.7L23284.7,14280.7L23284.7,14280.6L23284.7,14280.5L23284.7,14280.5L23284.7,14280.4L23284.7,14280.4L23284.8,14280.3L23284.8,14280.2L23284.8,14280.2L23284.8,14280.1L23284.8,14280L23284.8,14279.9L23284.8,14279.9L23284.9,14279.8L23284.9,14279.7L23284.9,14279.7L23284.9,14279.6L23284.9,14279.5L23284.9,14279.5L23284.9,14279.4L23284.9,14279.3L23284.9,14279.3L23284.9,14279.2L23284.9,14279.1L23285,14279.1L23285,14279L23285,14278.9L23285,14278.9L23285,14278.8L23285,14278.7L23285,14278.6L23285,14278.6L23285,14278.5L23285,14278.4L23285,14278.4L23285,14278.3L23285,14278.2L23285,14278.1L23285,14278.1L23285,14277.9L23285,14277.9L23285,14277.8L23285,14277.7L23285,14277.6L23285,14277.6L23285,14277.5L23285,14277.4L23285,14277.4L23285,14277.3L23285,14277.2L23285,14277.1L23285,14277.1L23285,14277L23285,14276.9L23284.9,14276.9L23284.9,14276.8L23284.9,14276.7L23284.9,14276.7L23284.9,14276.6L23284.9,14276.5L23284.9,14276.5L23284.9,14276.4L23284.9,14276.3L23284.9,14276.3L23284.9,14276.2L23284.8,14276.1L23284.8,14276.1L23284.8,14276L23284.8,14275.9L23284.8,14275.8L23284.8,14275.8L23284.8,14275.7L23284.7,14275.6L23284.7,14275.6L23284.7,14275.5L23284.7,14275.5L23284.7,14275.4L23284.7,14275.3L23284.7,14275.3L23284.6,14275.2L23284.6,14275.1L23284.6,14275.1L23284.6,14275L23284.6,14274.9L23284.5,14274.9L23284.5,14274.8L23284.5,14274.7L23284.5,14274.7L23284.5,14274.6L23284.4,14274.5L23284.4,14274.5L23284.4,14274.4L23284.4,14274.3L23284.4,14274.3L23284.3,14274.2L23284.3,14274.2L23284.3,14274.1L23284.3,14274L23284.2,14274L23284.2,14273.9L23284.2,14273.8L23284.2,14273.8L23284.1,14273.7L23284.1,14273.7L23284.1,14273.6L23284.1,14273.5L23284,14273.5L23284,14273.4L23284,14273.4L23283.9,14273.3L23283.9,14273.2L23283.9,14273.2L23283.9,14273.1L23283.8,14273.1L23283.8,14273L23283.8,14272.9L23283.7,14272.9L23283.7,14272.8L23283.7,14272.8L23283.6,14272.7L23283.6,14272.6L23283.6,14272.6L23283.5,14272.5L23283.5,14272.5L23283.5,14272.4L23283.4,14272.4L23283.4,14272.3L23283.4,14272.2L23283.3,14272.2L23283.3,14272.1L23283.3,14272.1L23283.2,14272L23283.2,14272L23283.2,14271.9L23283.1,14271.9L23283.1,14271.8L23283,14271.7L23283,14271.7L23283,14271.6L23282.9,14271.6L23282.9,14271.5L23282.9,14271.5L23282.8,14271.4L23282.8,14271.4L23282.7,14271.3L23282.7,14271.3L23282.7,14271.2L23282.6,14271.2L23282.6,14271.1L23282.5,14271.1L23282.5,14271L23282.4,14271L23282.4,14270.9L23282.4,14270.9L23282.3,14270.8L23282.3,14270.8L23282.2,14270.7L23282.2,14270.7L23282.1,14270.6L23282.1,14270.6L23282,14270.5L23282,14270.5L23282,14270.4L23281.9,14270.4L23281.9,14270.3L23281.8,14270.3L23281.8,14270.2L23281.7,14270.2L23281.7,14270.1L23281.6,14270.1L23281.6,14270L23281.5,14270L23281.5,14269.9L23281.4,14269.9L23281.4,14269.9L23281.3,14269.8L23281.3,14269.8L23281.2,14269.7L23281.2,14269.7L23281.1,14269.6L23281.1,14269.6L23281,14269.6L23281,14269.5L23280.9,14269.5L23280.9,14269.4L23280.8,14269.4L23280.8,14269.3L23280.7,14269.3L23280.7,14269.3L23280.6,14269.2L23280.6,14269.2L23280.5,14269.1L23280.5,14269.1L23280.4,14269.1L23280.4,14269L23280.3,14269L23280.3,14269L23280.2,14268.9L23280.1,14268.9L23280.1,14268.8L23280,14268.8L23280,14268.8L23279.9,14268.7L23279.9,14268.7L23279.8,14268.7L23279.8,14268.6L23279.7,14268.6L23279.6,14268.6L23279.6,14268.5L23279.5,14268.5L23279.5,14268.5L23279.4,14268.4L23279.4,14268.4L23279.3,14268.4L23279.2,14268.3L23279.2,14268.3L23279.1,14268.3L23279.1,14268.2L23279,14268.2L23278.9,14268.2L23278.9,14268.1L23278.8,14268.1L23278.8,14268.1L23278.7,14268.1L23278.6,14268L23278.6,14268L23278.5,14268L23278.5,14267.9L23278.4,14267.9L23278.3,14267.9L23278.3,14267.9L23278.2,14267.8L23278.2,14267.8L23278.1,14267.8L23278,14267.8L23278,14267.7L23277.9,14267.7L23277.8,14267.7L23277.8,14267.7L23277.7,14267.6L23277.7,14267.6L23277.6,14267.6L23277.5,14267.6L23277.5,14267.6L23277.4,14267.5L23277.3,14267.5L23277.3,14267.5L23277.2,14267.5L23277.1,14267.5L23277.1,14267.4L23277,14267.4L23276.9,14267.4L23276.9,14267.4L23276.8,14267.4L23276.7,14267.3L23276.7,14267.3L23276.6,14267.3L23276.6,14267.3L23276.5,14267.3L23276.4,14267.3L23276.4,14267.3L23276.3,14267.2L23276.2,14267.2L23276.1,14267.2L23276.1,14267.2L23276,14267.2L23275.9,14267.2L23275.9,14267.2L23275.8,14267.1L23275.7,14267.1L23275.7,14267.1L23275.6,14267.1L23275.5,14267.1L23275.5,14267.1L23275.4,14267.1L23275.3,14267.1L23275.3,14267.1L23275.2,14267.1L23275.1,14267.1L23275.1,14267.1L23275,14267L23274.9,14267L23274.8,14267L23274.8,14267L23274.7,14267L23274.6,14267L23274.6,14267L23274.5,14267L23274.4,14267L23274.4,14267L23274.3,14267L23274.2,14267L23274.1,14267L23274.1,14267L23274,14267L23273.9,14267Z" style="fill:rgb(77,77,77);"/>
                    </g>
                    <g transform="matrix(1.50156,3.82702e-19,4.02546e-19,1.57778,-33212.6,-22112)">
                        <path d="M23274.1,14265.3L23274.2,14265.3L23274.2,14265.3L23274.3,14265.3L23274.4,14265.3L23274.5,14265.3L23274.6,14265.3L23274.7,14265.4L23274.7,14265.4L23274.8,14265.4L23274.9,14265.4L23275,14265.4L23275.1,14265.4L23275.1,14265.4L23275.2,14265.4L23275.3,14265.4L23275.4,14265.4L23275.5,14265.4L23275.5,14265.4L23275.6,14265.4L23275.7,14265.4L23275.8,14265.5L23275.8,14265.5L23275.9,14265.5L23276,14265.5L23276.1,14265.5L23276.2,14265.5L23276.2,14265.5L23276.3,14265.5L23276.4,14265.6L23276.5,14265.6L23276.6,14265.6L23276.6,14265.6L23276.7,14265.6L23276.8,14265.6L23276.9,14265.7L23276.9,14265.7L23277,14265.7L23277.1,14265.7L23277.2,14265.7L23277.2,14265.8L23277.3,14265.8L23277.4,14265.8L23277.5,14265.8L23277.5,14265.8L23277.6,14265.9L23277.7,14265.9L23277.8,14265.9L23277.8,14265.9L23277.9,14266L23278,14266L23278.1,14266L23278.1,14266L23278.2,14266.1L23278.3,14266.1L23278.4,14266.1L23278.4,14266.1L23278.5,14266.2L23278.6,14266.2L23278.6,14266.2L23278.7,14266.2L23278.8,14266.3L23278.9,14266.3L23278.9,14266.3L23279,14266.4L23279.1,14266.4L23279.1,14266.4L23279.2,14266.5L23279.3,14266.5L23279.4,14266.5L23279.4,14266.6L23279.5,14266.6L23279.6,14266.6L23279.6,14266.7L23279.7,14266.7L23279.8,14266.7L23279.8,14266.8L23279.9,14266.8L23280,14266.8L23280,14266.9L23280.1,14266.9L23280.2,14266.9L23280.2,14267L23280.3,14267L23280.4,14267.1L23280.4,14267.1L23280.5,14267.1L23280.6,14267.2L23280.6,14267.2L23280.7,14267.2L23280.8,14267.3L23280.8,14267.3L23280.9,14267.4L23281,14267.4L23281,14267.5L23281.1,14267.5L23281.1,14267.5L23281.2,14267.6L23281.3,14267.6L23281.3,14267.7L23281.4,14267.7L23281.5,14267.8L23281.5,14267.8L23281.6,14267.9L23281.6,14267.9L23281.7,14267.9L23281.8,14268L23281.8,14268L23281.9,14268.1L23281.9,14268.1L23282,14268.2L23282.1,14268.2L23282.1,14268.3L23282.2,14268.3L23282.2,14268.4L23282.3,14268.4L23282.3,14268.5L23282.4,14268.5L23282.5,14268.6L23282.5,14268.6L23282.6,14268.7L23282.6,14268.7L23282.7,14268.8L23282.7,14268.8L23282.8,14268.9L23282.8,14268.9L23282.9,14269L23283,14269L23283,14269.1L23283.1,14269.2L23283.1,14269.2L23283.2,14269.3L23283.2,14269.3L23283.3,14269.4L23283.3,14269.4L23283.4,14269.5L23283.4,14269.5L23283.5,14269.6L23283.5,14269.7L23283.6,14269.7L23283.6,14269.8L23283.7,14269.8L23283.7,14269.9L23283.8,14269.9L23283.8,14270L23283.9,14270.1L23283.9,14270.1L23284,14270.2L23284,14270.2L23284.1,14270.3L23284.1,14270.4L23284.1,14270.4L23284.2,14270.5L23284.2,14270.5L23284.3,14270.6L23284.3,14270.7L23284.4,14270.7L23284.4,14270.8L23284.5,14270.9L23284.5,14270.9L23284.5,14271L23284.6,14271L23284.6,14271.1L23284.7,14271.2L23284.7,14271.2L23284.8,14271.3L23284.8,14271.4L23284.8,14271.4L23284.9,14271.5L23284.9,14271.6L23284.9,14271.6L23285,14271.7L23285,14271.8L23285.1,14271.8L23285.1,14271.9L23285.1,14272L23285.2,14272L23285.2,14272.1L23285.2,14272.2L23285.3,14272.2L23285.3,14272.3L23285.3,14272.4L23285.4,14272.4L23285.4,14272.5L23285.5,14272.6L23285.5,14272.6L23285.5,14272.7L23285.5,14272.8L23285.6,14272.9L23285.6,14272.9L23285.6,14273L23285.7,14273.1L23285.7,14273.1L23285.7,14273.2L23285.8,14273.3L23285.8,14273.4L23285.8,14273.4L23285.8,14273.5L23285.9,14273.6L23285.9,14273.6L23285.9,14273.7L23285.9,14273.8L23286,14273.9L23286,14273.9L23286,14274L23286,14274.1L23286.1,14274.2L23286.1,14274.2L23286.1,14274.3L23286.1,14274.4L23286.2,14274.5L23286.2,14274.5L23286.2,14274.6L23286.2,14274.7L23286.2,14274.8L23286.3,14274.8L23286.3,14274.9L23286.3,14275L23286.3,14275.1L23286.3,14275.1L23286.4,14275.2L23286.4,14275.3L23286.4,14275.4L23286.4,14275.4L23286.4,14275.5L23286.4,14275.6L23286.5,14275.7L23286.5,14275.8L23286.5,14275.9L23286.5,14276L23286.5,14276.1L23286.5,14276.2L23286.6,14276.3L23286.6,14276.4L23286.6,14276.5L23286.6,14276.6L23286.6,14276.7L23286.6,14276.9L23286.6,14276.9L23286.6,14277L23286.6,14277.1L23286.6,14277.3L23286.7,14277.3L23286.7,14277.4L23286.7,14277.6L23286.7,14277.8L23286.7,14277.9L23286.7,14278L23285.3,14278L23285.3,14277.9L23285.3,14277.9L23285.3,14277.8L23285.3,14277.7L23285.3,14277.6L23285.3,14277.6L23285.3,14277.5L23285.3,14277.4L23285.3,14277.3L23285.3,14277.3L23285.3,14277.2L23285.3,14277.1L23285.3,14277.1L23285.3,14277L23285.3,14276.9L23285.3,14276.8L23285.3,14276.8L23285.3,14276.7L23285.3,14276.6L23285.2,14276.6L23285.2,14276.5L23285.2,14276.4L23285.2,14276.3L23285.2,14276.3L23285.2,14276.2L23285.2,14276.1L23285.2,14276.1L23285.2,14276L23285.1,14275.9L23285.1,14275.9L23285.1,14275.8L23285.1,14275.7L23285.1,14275.6L23285.1,14275.6L23285.1,14275.5L23285,14275.4L23285,14275.4L23285,14275.3L23285,14275.2L23285,14275.2L23285,14275.1L23284.9,14275L23284.9,14275L23284.9,14274.9L23284.9,14274.8L23284.9,14274.8L23284.8,14274.7L23284.8,14274.6L23284.8,14274.6L23284.8,14274.5L23284.8,14274.4L23284.7,14274.4L23284.7,14274.3L23284.7,14274.2L23284.7,14274.2L23284.6,14274.1L23284.6,14274L23284.6,14274L23284.6,14273.9L23284.5,14273.8L23284.5,14273.8L23284.5,14273.7L23284.5,14273.7L23284.4,14273.6L23284.4,14273.5L23284.4,14273.5L23284.4,14273.4L23284.3,14273.3L23284.3,14273.3L23284.3,14273.2L23284.2,14273.2L23284.2,14273.1L23284.2,14273L23284.2,14273L23284.1,14272.9L23284.1,14272.8L23284.1,14272.8L23284,14272.7L23284,14272.7L23284,14272.6L23283.9,14272.5L23283.9,14272.5L23283.9,14272.4L23283.8,14272.4L23283.8,14272.3L23283.8,14272.2L23283.7,14272.2L23283.7,14272.1L23283.7,14272.1L23283.6,14272L23283.6,14272L23283.5,14271.9L23283.5,14271.8L23283.5,14271.8L23283.4,14271.7L23283.4,14271.7L23283.4,14271.6L23283.3,14271.6L23283.3,14271.5L23283.2,14271.4L23283.2,14271.4L23283.2,14271.3L23283.1,14271.3L23283.1,14271.2L23283,14271.2L23283,14271.1L23283,14271.1L23282.9,14271L23282.9,14271L23282.8,14270.9L23282.8,14270.8L23282.7,14270.8L23282.7,14270.7L23282.7,14270.7L23282.6,14270.6L23282.6,14270.6L23282.5,14270.5L23282.5,14270.5L23282.4,14270.4L23282.4,14270.4L23282.3,14270.3L23282.3,14270.3L23282.2,14270.2L23282.2,14270.2L23282.2,14270.1L23282.1,14270.1L23282.1,14270L23282,14270L23282,14269.9L23281.9,14269.9L23281.9,14269.8L23281.8,14269.8L23281.8,14269.8L23281.7,14269.7L23281.7,14269.7L23281.6,14269.6L23281.6,14269.6L23281.5,14269.5L23281.5,14269.5L23281.4,14269.4L23281.4,14269.4L23281.3,14269.3L23281.3,14269.3L23281.2,14269.3L23281.2,14269.2L23281.1,14269.2L23281,14269.1L23281,14269.1L23280.9,14269L23280.9,14269L23280.8,14269L23280.8,14268.9L23280.7,14268.9L23280.7,14268.8L23280.6,14268.8L23280.6,14268.8L23280.5,14268.7L23280.4,14268.7L23280.4,14268.6L23280.3,14268.6L23280.3,14268.6L23280.2,14268.5L23280.2,14268.5L23280.1,14268.5L23280,14268.4L23280,14268.4L23279.9,14268.3L23279.9,14268.3L23279.8,14268.3L23279.8,14268.2L23279.7,14268.2L23279.6,14268.2L23279.6,14268.1L23279.5,14268.1L23279.5,14268.1L23279.4,14268L23279.3,14268L23279.3,14268L23279.2,14267.9L23279.2,14267.9L23279.1,14267.9L23279,14267.8L23279,14267.8L23278.9,14267.8L23278.9,14267.8L23278.8,14267.7L23278.7,14267.7L23278.7,14267.7L23278.6,14267.6L23278.5,14267.6L23278.5,14267.6L23278.4,14267.6L23278.3,14267.5L23278.3,14267.5L23278.2,14267.5L23278.2,14267.5L23278.1,14267.4L23278,14267.4L23278,14267.4L23277.9,14267.4L23277.8,14267.3L23277.8,14267.3L23277.7,14267.3L23277.6,14267.3L23277.6,14267.2L23277.5,14267.2L23277.4,14267.2L23277.4,14267.2L23277.3,14267.2L23277.2,14267.1L23277.2,14267.1L23277.1,14267.1L23277,14267.1L23277,14267.1L23276.9,14267L23276.8,14267L23276.8,14267L23276.7,14267L23276.6,14267L23276.6,14267L23276.5,14266.9L23276.4,14266.9L23276.4,14266.9L23276.3,14266.9L23276.2,14266.9L23276.1,14266.9L23276.1,14266.9L23276,14266.8L23275.9,14266.8L23275.9,14266.8L23275.8,14266.8L23275.7,14266.8L23275.7,14266.8L23275.6,14266.8L23275.5,14266.8L23275.4,14266.8L23275.4,14266.7L23275.3,14266.7L23275.2,14266.7L23275.2,14266.7L23275.1,14266.7L23275,14266.7L23274.9,14266.7L23274.9,14266.7L23274.8,14266.7L23274.7,14266.7L23274.7,14266.7L23274.6,14266.7L23274.5,14266.7L23274.4,14266.7L23274.4,14266.7L23274.3,14266.7L23274.2,14266.7L23274.1,14266.7L23274.1,14266.7L23274,14266.7L23273.9,14266.7L23273.9,14266.7L23273.8,14266.7L23273.7,14266.7L23273.6,14266.7L23273.6,14266.7L23273.5,14266.7L23273.4,14266.7L23273.3,14266.7L23273.3,14266.7L23273.2,14266.7L23273.1,14266.7L23273.1,14266.7L23273,14266.7L23272.9,14266.7L23272.8,14266.7L23272.8,14266.7L23272.7,14266.7L23272.6,14266.7L23272.6,14266.8L23272.5,14266.8L23272.4,14266.8L23272.3,14266.8L23272.3,14266.8L23272.2,14266.8L23272.1,14266.8L23272.1,14266.8L23272,14266.8L23271.9,14266.9L23271.9,14266.9L23271.8,14266.9L23271.7,14266.9L23271.6,14266.9L23271.6,14266.9L23271.5,14266.9L23271.4,14267L23271.4,14267L23271.3,14267L23271.2,14267L23271.2,14267L23271.1,14267L23271,14267.1L23271,14267.1L23270.9,14267.1L23270.8,14267.1L23270.8,14267.1L23270.7,14267.2L23270.6,14267.2L23270.6,14267.2L23270.5,14267.2L23270.4,14267.2L23270.4,14267.3L23270.3,14267.3L23270.2,14267.3L23270.2,14267.3L23270.1,14267.4L23270,14267.4L23270,14267.4L23269.9,14267.4L23269.8,14267.5L23269.8,14267.5L23269.7,14267.5L23269.7,14267.5L23269.6,14267.6L23269.5,14267.6L23269.5,14267.6L23269.4,14267.6L23269.3,14267.7L23269.3,14267.7L23269.2,14267.7L23269.2,14267.8L23269.1,14267.8L23269,14267.8L23269,14267.8L23268.9,14267.9L23268.8,14267.9L23268.8,14267.9L23268.7,14268L23268.7,14268L23268.6,14268L23268.5,14268.1L23268.5,14268.1L23268.4,14268.1L23268.4,14268.2L23268.3,14268.2L23268.2,14268.2L23268.2,14268.3L23268.1,14268.3L23268.1,14268.3L23268,14268.4L23268,14268.4L23267.9,14268.5L23267.8,14268.5L23267.8,14268.5L23267.7,14268.6L23267.7,14268.6L23267.6,14268.6L23267.6,14268.7L23267.5,14268.7L23267.4,14268.8L23267.4,14268.8L23267.3,14268.8L23267.3,14268.9L23267.2,14268.9L23267.2,14269L23267.1,14269L23267.1,14269L23267,14269.1L23267,14269.1L23266.9,14269.2L23266.8,14269.2L23266.8,14269.3L23266.7,14269.3L23266.7,14269.3L23266.6,14269.4L23266.6,14269.4L23266.5,14269.5L23266.5,14269.5L23266.4,14269.6L23266.4,14269.6L23266.3,14269.7L23266.3,14269.7L23266.2,14269.8L23266.2,14269.8L23266.1,14269.8L23266.1,14269.9L23266,14269.9L23266,14270L23265.9,14270L23265.9,14270.1L23265.8,14270.1L23265.8,14270.2L23265.8,14270.2L23265.7,14270.3L23265.7,14270.3L23265.6,14270.4L23265.6,14270.4L23265.5,14270.5L23265.5,14270.5L23265.4,14270.6L23265.4,14270.6L23265.3,14270.7L23265.3,14270.7L23265.3,14270.8L23265.2,14270.8L23265.2,14270.9L23265.1,14271L23265.1,14271L23265,14271.1L23265,14271.1L23265,14271.2L23264.9,14271.2L23264.9,14271.3L23264.8,14271.3L23264.8,14271.4L23264.8,14271.4L23264.7,14271.5L23264.7,14271.6L23264.6,14271.6L23264.6,14271.7L23264.6,14271.7L23264.5,14271.8L23264.5,14271.8L23264.5,14271.9L23264.4,14272L23264.4,14272L23264.3,14272.1L23264.3,14272.1L23264.3,14272.2L23264.2,14272.2L23264.2,14272.3L23264.2,14272.4L23264.1,14272.4L23264.1,14272.5L23264.1,14272.5L23264,14272.6L23264,14272.7L23264,14272.7L23263.9,14272.8L23263.9,14272.8L23263.9,14272.9L23263.8,14273L23263.8,14273L23263.8,14273.1L23263.8,14273.2L23263.7,14273.2L23263.7,14273.3L23263.7,14273.3L23263.6,14273.4L23263.6,14273.5L23263.6,14273.5L23263.6,14273.6L23263.5,14273.7L23263.5,14273.7L23263.5,14273.8L23263.5,14273.8L23263.4,14273.9L23263.4,14274L23263.4,14274L23263.4,14274.1L23263.3,14274.2L23263.3,14274.2L23263.3,14274.3L23263.3,14274.4L23263.2,14274.4L23263.2,14274.5L23263.2,14274.6L23263.2,14274.6L23263.2,14274.7L23263.1,14274.8L23263.1,14274.8L23263.1,14274.9L23263.1,14275L23263.1,14275L23263,14275.1L23263,14275.2L23263,14275.2L23263,14275.3L23263,14275.4L23263,14275.4L23262.9,14275.5L23262.9,14275.6L23262.9,14275.6L23262.9,14275.7L23262.9,14275.8L23262.9,14275.9L23262.9,14275.9L23262.8,14276L23262.8,14276.1L23262.8,14276.1L23262.8,14276.2L23262.8,14276.3L23262.8,14276.3L23262.8,14276.4L23262.8,14276.5L23262.8,14276.6L23262.7,14276.6L23262.7,14276.7L23262.7,14276.8L23262.7,14276.8L23262.7,14276.9L23262.7,14277L23262.7,14277.1L23262.7,14277.1L23262.7,14277.2L23262.7,14277.3L23262.7,14277.3L23262.7,14277.4L23262.7,14277.5L23262.7,14277.6L23262.7,14277.6L23262.7,14277.7L23262.7,14277.8L23262.7,14277.9L23262.7,14277.9L23262.7,14278L23261.3,14278L23261.3,14277.9L23261.3,14277.8L23261.3,14277.8L23261.3,14277.7L23261.3,14277.6L23261.3,14277.5L23261.3,14277.4L23261.4,14277.3L23261.4,14277.3L23261.4,14277.2L23261.4,14277.1L23261.4,14277L23261.4,14276.9L23261.4,14276.9L23261.4,14276.8L23261.4,14276.7L23261.4,14276.6L23261.4,14276.5L23261.4,14276.5L23261.4,14276.4L23261.4,14276.3L23261.5,14276.2L23261.5,14276.1L23261.5,14276.1L23261.5,14276L23261.5,14275.9L23261.5,14275.8L23261.5,14275.8L23261.5,14275.7L23261.6,14275.6L23261.6,14275.5L23261.6,14275.4L23261.6,14275.4L23261.6,14275.3L23261.6,14275.2L23261.7,14275.1L23261.7,14275.1L23261.7,14275L23261.7,14274.9L23261.7,14274.8L23261.8,14274.8L23261.8,14274.7L23261.8,14274.6L23261.8,14274.5L23261.8,14274.5L23261.9,14274.4L23261.9,14274.3L23261.9,14274.2L23261.9,14274.2L23262,14274.1L23262,14274L23262,14273.9L23262,14273.9L23262.1,14273.8L23262.1,14273.7L23262.1,14273.6L23262.1,14273.6L23262.2,14273.5L23262.2,14273.4L23262.2,14273.4L23262.2,14273.3L23262.3,14273.2L23262.3,14273.1L23262.3,14273.1L23262.4,14273L23262.4,14272.9L23262.4,14272.9L23262.5,14272.8L23262.5,14272.7L23262.5,14272.6L23262.5,14272.6L23262.6,14272.5L23262.6,14272.4L23262.7,14272.4L23262.7,14272.3L23262.7,14272.2L23262.8,14272.2L23262.8,14272.1L23262.8,14272L23262.9,14272L23262.9,14271.9L23262.9,14271.8L23263,14271.8L23263,14271.7L23263.1,14271.6L23263.1,14271.6L23263.1,14271.5L23263.2,14271.4L23263.2,14271.4L23263.2,14271.3L23263.3,14271.2L23263.3,14271.2L23263.4,14271.1L23263.4,14271L23263.5,14271L23263.5,14270.9L23263.5,14270.9L23263.6,14270.8L23263.6,14270.7L23263.7,14270.7L23263.7,14270.6L23263.8,14270.5L23263.8,14270.5L23263.9,14270.4L23263.9,14270.4L23263.9,14270.3L23264,14270.2L23264,14270.2L23264.1,14270.1L23264.1,14270.1L23264.2,14270L23264.2,14269.9L23264.3,14269.9L23264.3,14269.8L23264.4,14269.8L23264.4,14269.7L23264.5,14269.7L23264.5,14269.6L23264.6,14269.5L23264.6,14269.5L23264.7,14269.4L23264.7,14269.4L23264.8,14269.3L23264.8,14269.3L23264.9,14269.2L23264.9,14269.2L23265,14269.1L23265,14269L23265.1,14269L23265.2,14268.9L23265.2,14268.9L23265.3,14268.8L23265.3,14268.8L23265.4,14268.7L23265.4,14268.7L23265.5,14268.6L23265.5,14268.6L23265.6,14268.5L23265.7,14268.5L23265.7,14268.4L23265.8,14268.4L23265.8,14268.3L23265.9,14268.3L23265.9,14268.2L23266,14268.2L23266.1,14268.1L23266.1,14268.1L23266.2,14268L23266.2,14268L23266.3,14267.9L23266.4,14267.9L23266.4,14267.9L23266.5,14267.8L23266.5,14267.8L23266.6,14267.7L23266.7,14267.7L23266.7,14267.6L23266.8,14267.6L23266.9,14267.5L23266.9,14267.5L23267,14267.5L23267,14267.4L23267.1,14267.4L23267.2,14267.3L23267.2,14267.3L23267.3,14267.2L23267.4,14267.2L23267.4,14267.2L23267.5,14267.1L23267.6,14267.1L23267.6,14267.1L23267.7,14267L23267.8,14267L23267.8,14266.9L23267.9,14266.9L23268,14266.9L23268,14266.8L23268.1,14266.8L23268.2,14266.8L23268.2,14266.7L23268.3,14266.7L23268.4,14266.7L23268.4,14266.6L23268.5,14266.6L23268.6,14266.6L23268.6,14266.5L23268.7,14266.5L23268.8,14266.5L23268.9,14266.4L23268.9,14266.4L23269,14266.4L23269.1,14266.3L23269.1,14266.3L23269.2,14266.3L23269.3,14266.2L23269.4,14266.2L23269.4,14266.2L23269.5,14266.2L23269.6,14266.1L23269.6,14266.1L23269.7,14266.1L23269.8,14266.1L23269.9,14266L23269.9,14266L23270,14266L23270.1,14266L23270.2,14265.9L23270.2,14265.9L23270.3,14265.9L23270.4,14265.9L23270.5,14265.8L23270.5,14265.8L23270.6,14265.8L23270.7,14265.8L23270.8,14265.8L23270.8,14265.7L23270.9,14265.7L23271,14265.7L23271.1,14265.7L23271.1,14265.7L23271.2,14265.6L23271.3,14265.6L23271.4,14265.6L23271.4,14265.6L23271.5,14265.6L23271.6,14265.6L23271.7,14265.5L23271.8,14265.5L23271.8,14265.5L23271.9,14265.5L23272,14265.5L23272.1,14265.5L23272.2,14265.5L23272.2,14265.5L23272.3,14265.4L23272.4,14265.4L23272.5,14265.4L23272.5,14265.4L23272.6,14265.4L23272.7,14265.4L23272.8,14265.4L23272.9,14265.4L23272.9,14265.4L23273,14265.4L23273.1,14265.4L23273.2,14265.4L23273.3,14265.4L23273.3,14265.4L23273.4,14265.3L23273.5,14265.3L23273.6,14265.3L23273.7,14265.3L23273.8,14265.3L23273.8,14265.3L23273.9,14265.3L23274,14265.3L23274.1,14265.3Z" style="fill:rgb(77,77,77);"/>
                    </g>
                    <g transform="matrix(-0.500521,6.42798e-17,-6.14303e-17,-0.525926,13383.9,7906.77)">
                        <path d="M23260,14277.6L23260,14277.5L23260,14277.3L23260,14277.1L23260,14276.9L23260.1,14276.8L23260.1,14276.6L23260.1,14276.4L23260.1,14276.2L23260.1,14276L23260.2,14275.9L23260.2,14275.7L23260.2,14275.5L23260.3,14275.3L23260.3,14275.2L23260.3,14275L23260.4,14274.9L23260.4,14274.7L23260.4,14274.5L23260.5,14274.3L23260.5,14274.2L23260.6,14274L23260.6,14273.8L23260.7,14273.7L23260.7,14273.5L23260.8,14273.3L23260.9,14273.2L23260.9,14273L23261,14272.9L23261,14272.7L23261.1,14272.6L23261.2,14272.4L23261.2,14272.2L23261.3,14272.1L23261.4,14271.9L23261.5,14271.8L23261.5,14271.6L23261.6,14271.5L23261.7,14271.3L23261.8,14271.2L23261.9,14271L23261.9,14270.9L23262,14270.7L23262.1,14270.6L23262.2,14270.5L23262.3,14270.3L23262.4,14270.2L23262.5,14270L23262.6,14269.9L23262.7,14269.8L23262.8,14269.6L23262.9,14269.5L23263,14269.4L23263.1,14269.2L23263.2,14269.1L23263.3,14269L23263.4,14268.8L23263.5,14268.7L23263.6,14268.6L23263.7,14268.5L23263.9,14268.3L23264,14268.2L23264.1,14268.1L23264.2,14268L23264.3,14267.9L23264.5,14267.8L23264.6,14267.6L23264.7,14267.5L23264.8,14267.4L23265,14267.3L23265.1,14267.2L23265.2,14267.1L23265.4,14267L23265.5,14266.9L23265.6,14266.8L23265.8,14266.7L23265.9,14266.6L23266,14266.5L23266.2,14266.4L23266.3,14266.3L23266.5,14266.2L23266.6,14266.1L23266.7,14266L23266.9,14265.9L23267,14265.9L23267.2,14265.8L23267.3,14265.7L23267.5,14265.6L23267.6,14265.5L23267.8,14265.5L23267.9,14265.4L23268.1,14265.3L23268.2,14265.2L23268.4,14265.2L23268.6,14265.1L23268.7,14265L23268.9,14265L23269,14264.9L23269.2,14264.9L23269.3,14264.8L23269.5,14264.7L23269.7,14264.7L23269.8,14264.6L23270,14264.6L23270.2,14264.5L23270.3,14264.5L23270.5,14264.4L23270.7,14264.4L23270.8,14264.4L23271,14264.3L23271.2,14264.3L23271.4,14264.3L23271.5,14264.2L23271.7,14264.2L23271.9,14264.2L23272,14264.1L23272.2,14264.1L23272.4,14264.1L23272.6,14264.1L23272.7,14264.1L23272.9,14264L23273.1,14264L23273.3,14264L23273.5,14264L23273.6,14264L23273.8,14264L23274,14264L23274.2,14264L23274.4,14264L23274.5,14264L23274.7,14264L23274.9,14264L23275.1,14264L23275.3,14264.1L23275.4,14264.1L23275.6,14264.1L23275.8,14264.1L23276,14264.1L23276.1,14264.2L23276.3,14264.2L23276.5,14264.2L23276.6,14264.3L23276.8,14264.3L23277,14264.3L23277.2,14264.4L23277.3,14264.4L23277.5,14264.4L23277.7,14264.5L23277.8,14264.5L23278,14264.6L23278.2,14264.6L23278.3,14264.7L23278.5,14264.7L23278.7,14264.8L23278.8,14264.9L23279,14264.9L23279.1,14265L23279.3,14265L23279.4,14265.1L23279.6,14265.2L23279.8,14265.2L23279.9,14265.3L23280.1,14265.4L23280.2,14265.5L23280.4,14265.5L23280.5,14265.6L23280.7,14265.7L23280.8,14265.8L23281,14265.9L23281.1,14265.9L23281.3,14266L23281.4,14266.1L23281.5,14266.2L23281.7,14266.3L23281.8,14266.4L23282,14266.5L23282.1,14266.6L23282.2,14266.7L23282.4,14266.8L23282.5,14266.9L23282.6,14267L23282.8,14267.1L23282.9,14267.2L23283,14267.3L23283.2,14267.4L23283.3,14267.5L23283.4,14267.6L23283.5,14267.8L23283.7,14267.9L23283.8,14268L23283.9,14268.1L23284,14268.2L23284.1,14268.3L23284.3,14268.5L23284.4,14268.6L23284.5,14268.7L23284.6,14268.8L23284.7,14269L23284.8,14269.1L23284.9,14269.2L23285,14269.4L23285.1,14269.5L23285.2,14269.6L23285.3,14269.8L23285.4,14269.9L23285.5,14270L23285.6,14270.2L23285.7,14270.3L23285.8,14270.5L23285.9,14270.6L23286,14270.7L23286.1,14270.9L23286.1,14271L23286.2,14271.2L23286.3,14271.3L23286.4,14271.5L23286.5,14271.6L23286.5,14271.8L23286.6,14271.9L23286.7,14272.1L23286.8,14272.2L23286.8,14272.4L23286.9,14272.6L23287,14272.7L23287,14272.9L23287.1,14273L23287.1,14273.2L23287.2,14273.3L23287.3,14273.5L23287.3,14273.7L23287.4,14273.8L23287.4,14274L23287.5,14274.2L23287.5,14274.3L23287.6,14274.5L23287.6,14274.7L23287.6,14274.9L23287.7,14275L23287.7,14275.2L23287.7,14275.3L23287.8,14275.5L23287.8,14275.7L23287.8,14275.9L23287.9,14276L23287.9,14276.2L23287.9,14276.4L23287.9,14276.6L23287.9,14276.8L23288,14276.9L23288,14277.1L23288,14277.3L23288,14277.5L23288,14277.6L23288,14277.8L23288,14278L23284,14278L23284,14277.9L23284,14277.8L23284,14277.6L23284,14277.5L23284,14277.4L23284,14277.2L23284,14277.1L23283.9,14277L23283.9,14276.8L23283.9,14276.7L23283.9,14276.6L23283.9,14276.5L23283.9,14276.3L23283.8,14276.2L23283.8,14276.1L23283.8,14276L23283.8,14275.9L23283.7,14275.7L23283.7,14275.6L23283.7,14275.5L23283.7,14275.4L23283.6,14275.3L23283.6,14275.1L23283.6,14275L23283.5,14274.9L23283.5,14274.8L23283.4,14274.7L23283.4,14274.6L23283.3,14274.4L23283.3,14274.3L23283.3,14274.2L23283.2,14274.1L23283.2,14274L23283.1,14273.9L23283.1,14273.8L23283,14273.7L23283,14273.6L23282.9,14273.4L23282.9,14273.4L23282.8,14273.2L23282.7,14273.1L23282.7,14273L23282.6,14272.9L23282.6,14272.8L23282.5,14272.7L23282.4,14272.6L23282.4,14272.5L23282.3,14272.4L23282.2,14272.3L23282.2,14272.2L23282.1,14272.1L23282,14272L23281.9,14271.9L23281.9,14271.8L23281.8,14271.7L23281.7,14271.6L23281.6,14271.6L23281.6,14271.5L23281.5,14271.4L23281.4,14271.3L23281.3,14271.2L23281.2,14271.1L23281.2,14271L23281.1,14270.9L23281,14270.8L23280.9,14270.8L23280.8,14270.7L23280.7,14270.6L23280.6,14270.5L23280.5,14270.4L23280.4,14270.4L23280.4,14270.3L23280.3,14270.2L23280.2,14270.1L23280.1,14270.1L23280,14270L23279.9,14269.9L23279.8,14269.8L23279.7,14269.8L23279.6,14269.7L23279.5,14269.6L23279.4,14269.6L23279.3,14269.5L23279.2,14269.4L23279.1,14269.4L23279,14269.3L23278.9,14269.3L23278.8,14269.2L23278.7,14269.1L23278.5,14269.1L23278.4,14269L23278.3,14269L23278.2,14268.9L23278.1,14268.9L23278,14268.8L23277.9,14268.8L23277.8,14268.7L23277.7,14268.7L23277.6,14268.7L23277.4,14268.6L23277.3,14268.6L23277.2,14268.5L23277.1,14268.5L23277,14268.5L23276.9,14268.4L23276.7,14268.4L23276.6,14268.3L23276.5,14268.3L23276.4,14268.3L23276.3,14268.3L23276.1,14268.2L23276,14268.2L23275.9,14268.2L23275.8,14268.2L23275.6,14268.1L23275.5,14268.1L23275.4,14268.1L23275.3,14268.1L23275.1,14268.1L23275,14268.1L23274.9,14268L23274.8,14268L23274.6,14268L23274.5,14268L23274.4,14268L23274.3,14268L23274.1,14268L23274,14268L23273.9,14268L23273.7,14268L23273.6,14268L23273.5,14268L23273.4,14268L23273.2,14268L23273.1,14268L23273,14268.1L23272.9,14268.1L23272.7,14268.1L23272.6,14268.1L23272.5,14268.1L23272.4,14268.1L23272.2,14268.2L23272.1,14268.2L23272,14268.2L23271.9,14268.2L23271.7,14268.3L23271.6,14268.3L23271.5,14268.3L23271.4,14268.3L23271.3,14268.4L23271.1,14268.4L23271,14268.5L23270.9,14268.5L23270.8,14268.5L23270.7,14268.6L23270.6,14268.6L23270.4,14268.7L23270.3,14268.7L23270.2,14268.7L23270.1,14268.8L23270,14268.8L23269.9,14268.9L23269.8,14268.9L23269.7,14269L23269.6,14269L23269.5,14269.1L23269.3,14269.1L23269.2,14269.2L23269.1,14269.3L23269,14269.3L23268.9,14269.4L23268.8,14269.4L23268.7,14269.5L23268.6,14269.6L23268.5,14269.6L23268.4,14269.7L23268.3,14269.8L23268.2,14269.8L23268.1,14269.9L23268,14270L23267.9,14270.1L23267.8,14270.1L23267.7,14270.2L23267.6,14270.3L23267.6,14270.4L23267.5,14270.4L23267.4,14270.5L23267.3,14270.6L23267.2,14270.7L23267.1,14270.8L23267,14270.8L23266.9,14270.9L23266.8,14271L23266.8,14271.1L23266.7,14271.2L23266.6,14271.3L23266.5,14271.4L23266.4,14271.5L23266.4,14271.6L23266.3,14271.6L23266.2,14271.7L23266.1,14271.8L23266.1,14271.9L23266,14272L23265.9,14272.1L23265.8,14272.2L23265.8,14272.3L23265.7,14272.4L23265.6,14272.5L23265.6,14272.6L23265.5,14272.7L23265.4,14272.8L23265.4,14272.9L23265.3,14273L23265.3,14273.1L23265.2,14273.2L23265.1,14273.4L23265.1,14273.4L23265,14273.6L23265,14273.7L23264.9,14273.8L23264.9,14273.9L23264.8,14274L23264.8,14274.1L23264.7,14274.2L23264.7,14274.3L23264.7,14274.4L23264.6,14274.6L23264.6,14274.7L23264.5,14274.8L23264.5,14274.9L23264.4,14275L23264.4,14275.1L23264.4,14275.3L23264.3,14275.4L23264.3,14275.5L23264.3,14275.6L23264.3,14275.7L23264.2,14275.9L23264.2,14276L23264.2,14276.1L23264.2,14276.2L23264.1,14276.3L23264.1,14276.5L23264.1,14276.6L23264.1,14276.7L23264.1,14276.8L23264.1,14277L23264,14277.1L23264,14277.2L23264,14277.4L23264,14277.5L23264,14277.6L23264,14277.8L23264,14277.9L23264,14278L23260,14278L23260,14277.8L23260,14277.6Z" style="fill:rgb(77,77,77);"/>
                    </g>
                </g>
            </g>
        </g>
    </g>
</svg>
