<?xml version="1.0" encoding="UTF-8" standalone="no"?>
<!DOCTYPE svg PUBLIC "-//W3C//DTD SVG 1.1//EN" "http://www.w3.org/Graphics/SVG/1.1/DTD/svg11.dtd">
<svg width="100%" height="100%" viewBox="0 0 48 48" version="1.1" xmlns="http://www.w3.org/2000/svg" xmlns:xlink="http://www.w3.org/1999/xlink" xml:space="preserve" style="fill-rule:evenodd;clip-rule:evenodd;stroke-linejoin:round;stroke-miterlimit:1.41421;">
    <g transform="matrix(1,0,0,1,-8472,-10063)">
        <g transform="matrix(1,0,0,1,7869,8827)">
            <g transform="matrix(1,0,0,1,41,-14)">
                <g transform="matrix(1,0,0,1,-8277.5,-1464)">
                    <circle cx="8859" cy="2725" r="10" style="fill:white;"/>
                </g>
                <g transform="matrix(1,0,0,1,-7360,-1666)">
                    <path d="M7946,2954L7923,2954C7923,2954 7923,2954 7923,2954C7923,2946.27 7929.27,2940 7937,2940C7939.95,2940 7943.05,2940 7946,2940C7948.55,2940 7950.94,2940.68 7953,2941.87C7948.82,2944.3 7946,2948.82 7946,2954Z" style="fill:white;"/>
                </g>
                <g transform="matrix(1,0,0,1,-7360,-1666)">
                    <path d="M7960,2944C7965.52,2944 7970,2948.48 7970,2954C7970,2959.52 7965.52,2964 7960,2964C7954.48,2964 7950,2959.52 7950,2954C7950,2948.48 7954.48,2944 7960,2944ZM7962.02,2951.98L7962.02,2948L7957.98,2948L7957.98,2951.98L7954,2951.98L7954,2956.02L7957.98,2956.02L7957.98,2960L7962.02,2960L7962.02,2956.02L7966,2956.02L7966,2951.98L7962.02,2951.98Z" style="fill:white;"/>
                </g>
            </g>
        </g>
    </g>
</svg>
