<?xml version="1.0" encoding="UTF-8" standalone="no"?>
<!DOCTYPE svg PUBLIC "-//W3C//DTD SVG 1.1//EN" "http://www.w3.org/Graphics/SVG/1.1/DTD/svg11.dtd">
<svg width="100%" height="100%" viewBox="0 0 46 46" version="1.1" xmlns="http://www.w3.org/2000/svg" xmlns:xlink="http://www.w3.org/1999/xlink" xml:space="preserve" style="fill-rule:evenodd;clip-rule:evenodd;stroke-miterlimit:1.41421;">
    <g transform="matrix(1,0,0,1,-3655,-7892)">
        <g transform="matrix(1,0,0,1,3609.02,7614.99)">
            <g transform="matrix(0.930233,0,0,0.930233,-555.922,37.3527)">
                <g transform="matrix(-2.04762,-2.95768e-34,-9.85893e-35,2.04762,1224.7,87.8086)">
                    <circle cx="267" cy="92" r="8" style="fill:none;stroke-width:2.1px;stroke:rgb(51,51,51);"/>
                </g>
                <g transform="matrix(-2.04762,-2.95768e-34,-9.85893e-35,2.04762,1183.75,132.856)">
                    <path d="M253.947,74.901L253.876,74.904L253.805,74.909L253.735,74.917L253.665,74.927L253.595,74.939L253.525,74.954L253.457,74.972L253.388,74.991L253.321,75.013L253.254,75.037L253.188,75.063L253.123,75.092L253.059,75.122L252.996,75.155L252.935,75.19L252.874,75.227L252.815,75.266L252.757,75.307L252.701,75.35L252.646,75.395L252.592,75.442L252.54,75.49L252.49,75.54L252.442,75.592L252.395,75.646L252.35,75.701L252.307,75.757L252.266,75.815L252.227,75.874L252.19,75.935L252.155,75.996L252.123,76.059L252.092,76.123L252.063,76.188L252.037,76.254L252.013,76.321L251.991,76.388L251.972,76.456L251.954,76.525L251.94,76.595L251.927,76.664L251.917,76.735L251.909,76.805L251.904,76.876L251.901,76.947L251.9,77.018L251.902,77.089L251.906,77.159L251.913,77.23L251.922,77.3L251.933,77.37L251.947,77.44L251.963,77.509L251.981,77.578L252.002,77.646L252.025,77.713L252.05,77.779L252.077,77.844L252.107,77.909L252.139,77.972L252.173,78.035L252.209,78.096L252.247,78.156L252.287,78.214L252.329,78.271L252.373,78.327L252.418,78.381L252.466,78.434L252.515,78.485L258.515,84.485L258.566,84.534L258.619,84.582L258.673,84.628L258.729,84.671L258.786,84.713L258.844,84.753L258.904,84.791L258.965,84.827L259.028,84.861L259.091,84.893L259.156,84.923L259.221,84.95L259.287,84.975L259.354,84.998L259.422,85.019L259.491,85.037L259.56,85.053L259.63,85.067L259.7,85.078L259.77,85.087L259.841,85.094L259.911,85.098L259.982,85.1L260.053,85.099L260.124,85.096L260.195,85.091L260.265,85.083L260.336,85.073L260.405,85.061L260.475,85.046L260.544,85.028L260.612,85.009L260.679,84.987L260.746,84.963L260.812,84.937L260.877,84.908L260.941,84.878L261.004,84.845L261.065,84.81L261.126,84.773L261.185,84.734L261.243,84.693L261.299,84.65L261.354,84.605L261.408,84.558L261.46,84.51L261.51,84.46L261.558,84.408L261.605,84.354L261.65,84.299L261.693,84.243L261.734,84.185L261.773,84.126L261.81,84.065L261.845,84.004L261.878,83.941L261.908,83.877L261.937,83.812L261.963,83.746L261.987,83.679L262.009,83.612L262.028,83.544L262.046,83.475L262.061,83.405L262.073,83.336L262.083,83.265L262.091,83.195L262.096,83.124L262.099,83.053L262.1,82.982L262.098,82.911L262.094,82.841L262.087,82.77L262.078,82.7L262.067,82.63L262.053,82.56L262.037,82.491L262.019,82.422L261.998,82.354L261.975,82.287L261.95,82.221L261.923,82.156L261.893,82.091L261.861,82.028L261.827,81.965L261.792,81.904L261.753,81.844L261.713,81.786L261.671,81.729L261.628,81.673L261.582,81.619L261.534,81.566L261.485,81.515L255.485,75.515L255.434,75.466L255.381,75.418L255.327,75.372L255.271,75.329L255.214,75.287L255.156,75.247L255.096,75.209L255.035,75.173L254.972,75.139L254.909,75.107L254.844,75.077L254.779,75.05L254.713,75.025L254.646,75.002L254.578,74.981L254.509,74.963L254.44,74.947L254.371,74.933L254.3,74.922L254.23,74.913L254.159,74.906L254.089,74.902L254.018,74.9L253.947,74.901Z" style="fill:rgb(51,51,51);"/>
                </g>
            </g>
        </g>
    </g>
</svg>
