<?xml version="1.0" encoding="UTF-8" standalone="no"?>
<!DOCTYPE svg PUBLIC "-//W3C//DTD SVG 1.1//EN" "http://www.w3.org/Graphics/SVG/1.1/DTD/svg11.dtd">
<svg width="100%" height="100%" viewBox="0 0 48 48" version="1.1" xmlns="http://www.w3.org/2000/svg" xmlns:xlink="http://www.w3.org/1999/xlink" xml:space="preserve" style="fill-rule:evenodd;clip-rule:evenodd;stroke-linejoin:round;stroke-miterlimit:1.41421;">
    <g transform="matrix(1,0,0,1,-7969,-10065)">
        <g transform="matrix(1,0,0,1,7869,8827)">
            <g transform="matrix(1,0,0,1,-7869,-8827)">
                <g>
                    <path d="M8016,10071C8016.55,10071 8017,10071.4 8017,10072L8017,10106C8017,10106.6 8016.55,10107 8016,10107L7970,10107C7969.45,10107 7969,10106.6 7969,10106L7969,10072C7969,10071.4 7969.45,10071 7970,10071L8016,10071ZM8011,10100L8011,10096L7993,10096L7993,10100L8011,10100ZM8011,10091L8011,10087L7993,10087L7993,10091L8011,10091ZM7987,10077L7976,10077L7976,10088L7987,10088L7987,10077Z" style="fill:white;"/>
                </g>
            </g>
        </g>
    </g>
</svg>
