<?xml version="1.0" encoding="UTF-8" standalone="no"?>
<!DOCTYPE svg PUBLIC "-//W3C//DTD SVG 1.1//EN" "http://www.w3.org/Graphics/SVG/1.1/DTD/svg11.dtd">
<svg width="100%" height="100%" viewBox="0 0 42 46" version="1.1" xmlns="http://www.w3.org/2000/svg" xmlns:xlink="http://www.w3.org/1999/xlink" xml:space="preserve" style="fill-rule:evenodd;clip-rule:evenodd;stroke-linejoin:round;stroke-miterlimit:1.41421;">
    <g transform="matrix(1,0,0,1,-4768,-9749)">
        <g transform="matrix(1,-1.16941e-19,-2.31414e-19,1.98651,4738,7470)">
            <g>
                <g transform="matrix(1,5.88674e-20,1.16493e-19,0.503396,-7107,-2770.19)">
                    <path d="M7164,7794L7164,7789C7164,7788.45 7163.55,7788 7163,7788L7140,7788C7139.45,7788 7139,7788.45 7139,7789L7139,7821C7139,7821.55 7139.45,7822 7140,7822L7163,7822C7163.55,7822 7164,7821.55 7164,7821L7164,7813" style="fill:none;stroke-width:2px;stroke:rgb(51,51,51);"/>
                </g>
                <g transform="matrix(0.733333,4.31694e-20,8.5428e-20,0.369157,-196.667,1022.06)">
                    <g transform="matrix(1,0,0,1,-16.3636,0)">
                        <path d="M350,374L350,380L356,380L380,356L374,350L350,374Z" style="fill:none;stroke-width:2.73px;stroke-linejoin:miter;stroke:rgb(51,51,51);"/>
                    </g>
                    <g transform="matrix(1,0,0,1,-16.3636,0)">
                        <path d="M370,354L376,360" style="fill:none;stroke-width:2.73px;stroke-linejoin:miter;stroke:rgb(51,51,51);"/>
                    </g>
                    <g transform="matrix(1,0,0,1,-16.3636,0)">
                        <path d="M351,373L357,379" style="fill:none;stroke-width:2.73px;stroke-linejoin:miter;stroke:rgb(51,51,51);"/>
                    </g>
                    <g transform="matrix(1,0,0,1,-16.3636,0)">
                        <path d="M352,380L350,378" style="fill:none;stroke-width:2.73px;stroke-linejoin:miter;stroke:rgb(51,51,51);"/>
                    </g>
                    <g transform="matrix(1,0,0,1,-16.3636,0)">
                        <path d="M357,373L369,361" style="fill:none;stroke-width:2.73px;stroke-linejoin:miter;stroke:rgb(51,51,51);"/>
                    </g>
                </g>
                <g transform="matrix(1,5.88674e-20,1.16493e-19,0.503396,-7106,-2872.88)">
                    <path d="M7144,7999L7157,7999" style="fill:none;stroke-width:2px;stroke:rgb(51,51,51);"/>
                </g>
                <g transform="matrix(1,5.88674e-20,1.16493e-19,0.503396,-7106,-2869.86)">
                    <path d="M7144,7999L7153,7999" style="fill:none;stroke-width:2px;stroke:rgb(51,51,51);"/>
                </g>
                <g transform="matrix(1,5.88674e-20,1.16493e-19,0.503396,-7106,-2866.84)">
                    <path d="M7144,7999L7151,7999" style="fill:none;stroke-width:2px;stroke:rgb(51,51,51);"/>
                </g>
                <g transform="matrix(1,5.88674e-20,1.16493e-19,0.503396,-7106,-2863.82)">
                    <path d="M7144,7999L7151,7999" style="fill:none;stroke-width:2px;stroke:rgb(51,51,51);"/>
                </g>
            </g>
        </g>
    </g>
</svg>
