<?xml version="1.0" encoding="UTF-8" standalone="no"?>
<!DOCTYPE svg PUBLIC "-//W3C//DTD SVG 1.1//EN" "http://www.w3.org/Graphics/SVG/1.1/DTD/svg11.dtd">
<svg width="100%" height="100%" viewBox="0 0 48 48" version="1.1" xmlns="http://www.w3.org/2000/svg" xmlns:xlink="http://www.w3.org/1999/xlink" xml:space="preserve" style="fill-rule:evenodd;clip-rule:evenodd;stroke-linejoin:round;stroke-miterlimit:1.41421;">
    <g transform="matrix(1,0,0,1,-8220,-10062)">
        <g transform="matrix(1,0,0,1,7869,8827)">
            <g transform="matrix(1,0,0,1,52,-15)">
                <g transform="matrix(1.06667,0,0,1.06667,-5382.2,-73.8667)">
                    <path d="M5343,1258L5328,1258L5328,1243L5343,1243L5343,1258ZM5331.75,1246.75L5331.75,1254.25L5339.25,1254.25L5339.25,1246.75L5331.75,1246.75Z" style="fill:white;"/>
                </g>
                <g transform="matrix(1.06667,0,0,1.06667,-5382.2,-45.8667)">
                    <path d="M5343,1258L5328,1258L5328,1243L5343,1243L5343,1258ZM5331.75,1246.75L5331.75,1254.25L5339.25,1254.25L5339.25,1246.75L5331.75,1246.75Z" style="fill:white;"/>
                </g>
                <g transform="matrix(1.06667,0,0,1.06667,-5354.2,-73.8667)">
                    <path d="M5343,1258L5328,1258L5328,1243L5343,1243L5343,1258ZM5331.75,1246.75L5331.75,1254.25L5339.25,1254.25L5339.25,1246.75L5331.75,1246.75Z" style="fill:white;"/>
                </g>
                <g transform="matrix(1,0,0,1,-5029,2)">
                    <rect x="5330" y="1270" width="4" height="4" style="fill:white;"/>
                </g>
                <g transform="matrix(1,0,0,1,-5025,2)">
                    <rect x="5330" y="1270" width="4" height="4" style="fill:white;"/>
                </g>
                <g transform="matrix(1,0,0,1,-5021,2)">
                    <rect x="5330" y="1270" width="4" height="4" style="fill:white;"/>
                </g>
                <g transform="matrix(1,0,0,1,-5009,-18)">
                    <rect x="5330" y="1270" width="4" height="4" style="fill:white;"/>
                </g>
                <g transform="matrix(1,0,0,1,-5009,-10)">
                    <rect x="5330" y="1270" width="4" height="4" style="fill:white;"/>
                </g>
                <g transform="matrix(1,0,0,1,-4989,2)">
                    <rect x="5330" y="1270" width="4" height="4" style="fill:white;"/>
                </g>
                <g transform="matrix(1,0,0,1,-4997,2)">
                    <rect x="5330" y="1270" width="4" height="4" style="fill:white;"/>
                </g>
                <g transform="matrix(1,0,0,1,-5001,6)">
                    <rect x="5330" y="1270" width="4" height="4" style="fill:white;"/>
                </g>
                <g transform="matrix(1,0,0,1,-4993,6)">
                    <rect x="5330" y="1270" width="4" height="4" style="fill:white;"/>
                </g>
                <g transform="matrix(1,0,0,1,-4997,10)">
                    <rect x="5330" y="1270" width="4" height="4" style="fill:white;"/>
                </g>
                <g transform="matrix(1,0,0,1,-5001,22)">
                    <rect x="5330" y="1270" width="4" height="4" style="fill:white;"/>
                </g>
                <g transform="matrix(1,0,0,1,-5005,22)">
                    <rect x="5330" y="1270" width="4" height="4" style="fill:white;"/>
                </g>
                <g transform="matrix(1,0,0,1,-5009,22)">
                    <rect x="5330" y="1270" width="4" height="4" style="fill:white;"/>
                </g>
                <g transform="matrix(1,0,0,1,-5005,18)">
                    <rect x="5330" y="1270" width="4" height="4" style="fill:white;"/>
                </g>
                <g transform="matrix(1,0,0,1,-5009,14)">
                    <rect x="5330" y="1270" width="4" height="4" style="fill:white;"/>
                </g>
                <g transform="matrix(1,0,0,1,-5009,6)">
                    <rect x="5330" y="1270" width="4" height="4" style="fill:white;"/>
                </g>
                <g transform="matrix(1,0,0,1,-5009,2)">
                    <rect x="5330" y="1270" width="4" height="4" style="fill:white;"/>
                </g>
                <g transform="matrix(1,0,0,1,-5013,2)">
                    <rect x="5330" y="1270" width="4" height="4" style="fill:white;"/>
                </g>
                <g transform="matrix(1,0,0,1,-4997,18)">
                    <rect x="5330" y="1270" width="4" height="4" style="fill:white;"/>
                </g>
                <g transform="matrix(1,0,0,1,-4989,22)">
                    <rect x="5330" y="1270" width="4" height="4" style="fill:white;"/>
                </g>
                <g transform="matrix(1,0,0,1,-4989,18)">
                    <rect x="5330" y="1270" width="4" height="4" style="fill:white;"/>
                </g>
                <g transform="matrix(1,0,0,1,-4993,22)">
                    <rect x="5330" y="1270" width="4" height="4" style="fill:white;"/>
                </g>
                <g transform="matrix(1,0,0,1,-4989,10)">
                    <rect x="5330" y="1270" width="4" height="4" style="fill:white;"/>
                </g>
            </g>
        </g>
    </g>
</svg>
