<?xml version="1.0" encoding="UTF-8" standalone="no"?>
<!DOCTYPE svg PUBLIC "-//W3C//DTD SVG 1.1//EN" "http://www.w3.org/Graphics/SVG/1.1/DTD/svg11.dtd">
<svg width="100%" height="100%" viewBox="0 0 320 100" version="1.1" xmlns="http://www.w3.org/2000/svg" xmlns:xlink="http://www.w3.org/1999/xlink" xml:space="preserve" style="fill-rule:evenodd;clip-rule:evenodd;stroke-linejoin:round;stroke-miterlimit:1.41421;">
    <g transform="matrix(1,0,0,1,-2620,-1193)">
        <g transform="matrix(1,0,0,1,2405,86.5202)">
            <g transform="matrix(2.66667,3.36778e-16,2.17276e-16,0.833333,-16182.3,-4949.35)">
                <path d="M6265.3,7267L6265.35,7267L6265.4,7267.01L6265.44,7267.02L6265.49,7267.02L6265.54,7267.03L6265.59,7267.05L6265.63,7267.06L6265.68,7267.08L6265.73,7267.1L6265.77,7267.12L6265.82,7267.14L6265.87,7267.16L6265.91,7267.19L6265.96,7267.22L6266.01,7267.24L6266.05,7267.28L6266.1,7267.31L6266.14,7267.34L6266.19,7267.38L6266.23,7267.42L6266.28,7267.46L6266.32,7267.5L6266.36,7267.54L6266.41,7267.59L6266.45,7267.63L6266.5,7267.68L6266.54,7267.73L6266.58,7267.78L6266.62,7267.83L6266.67,7267.89L6266.71,7267.94L6266.75,7268L6266.79,7268.06L6266.83,7268.12L6266.88,7268.18L6266.92,7268.25L6266.96,7268.31L6267,7268.38L6267.04,7268.45L6267.08,7268.52L6267.12,7268.59L6267.15,7268.66L6267.19,7268.74L6267.23,7268.81L6267.27,7268.89L6267.31,7268.97L6267.35,7269.05L6267.38,7269.13L6267.42,7269.22L6267.46,7269.3L6267.49,7269.39L6267.53,7269.47L6267.57,7269.56L6267.6,7269.65L6267.64,7269.74L6267.67,7269.83L6267.7,7269.93L6267.74,7270.02L6267.77,7270.12L6267.8,7270.22L6267.84,7270.32L6267.87,7270.41L6267.9,7270.52L6267.93,7270.62L6267.96,7270.72L6267.99,7270.83L6268.03,7270.93L6268.06,7271.04L6268.09,7271.15L6268.11,7271.26L6268.14,7271.37L6268.17,7271.48L6268.2,7271.59L6268.23,7271.71L6268.26,7271.82L6268.28,7271.94L6268.31,7272.06L6268.33,7272.17L6268.36,7272.29L6268.38,7272.41L6268.41,7272.53L6268.43,7272.66L6268.46,7272.78L6268.48,7272.9L6268.5,7273.03L6268.53,7273.15L6268.55,7273.28L6268.57,7273.41L6268.59,7273.54L6268.61,7273.67L6268.63,7273.8L6268.65,7273.93L6268.67,7274.06L6268.69,7274.2L6268.7,7274.33L6268.72,7274.47L6268.74,7274.6L6268.76,7274.74L6268.77,7274.88L6268.79,7275.01L6268.8,7275.15L6268.82,7275.29L6268.83,7275.43L6268.85,7275.57L6268.86,7275.72L6268.87,7275.86L6268.88,7276L6268.89,7276.15L6268.9,7276.29L6268.91,7276.44L6268.92,7276.58L6268.93,7276.73L6268.94,7276.88L6268.95,7277.03L6268.96,7277.17L6268.96,7277.32L6268.97,7277.47L6268.98,7277.62L6268.98,7277.77L6268.99,7277.93L6268.99,7278.08L6268.99,7278.23L6268.99,7278.38L6269,7278.54L6269,7278.69L6269,7278.85L6269,7279L6269,7375L6269,7375.15L6269,7375.31L6269,7375.46L6268.99,7375.62L6268.99,7375.77L6268.99,7375.92L6268.99,7376.07L6268.98,7376.23L6268.98,7376.38L6268.97,7376.53L6268.96,7376.68L6268.96,7376.83L6268.95,7376.98L6268.94,7377.12L6268.93,7377.27L6268.92,7377.42L6268.91,7377.56L6268.9,7377.71L6268.89,7377.85L6268.88,7378L6268.87,7378.14L6268.86,7378.28L6268.85,7378.43L6268.83,7378.57L6268.82,7378.71L6268.8,7378.85L6268.79,7378.99L6268.77,7379.12L6268.76,7379.26L6268.74,7379.4L6268.72,7379.53L6268.7,7379.67L6268.69,7379.8L6268.67,7379.94L6268.65,7380.07L6268.63,7380.2L6268.61,7380.33L6268.59,7380.46L6268.57,7380.59L6268.55,7380.72L6268.53,7380.85L6268.5,7380.97L6268.48,7381.1L6268.46,7381.22L6268.43,7381.34L6268.41,7381.47L6268.38,7381.59L6268.36,7381.71L6268.33,7381.83L6268.31,7381.94L6268.28,7382.06L6268.26,7382.18L6268.23,7382.29L6268.2,7382.41L6268.17,7382.52L6268.14,7382.63L6268.11,7382.74L6268.09,7382.85L6268.06,7382.96L6268.03,7383.07L6267.99,7383.17L6267.96,7383.28L6267.93,7383.38L6267.9,7383.48L6267.87,7383.59L6267.84,7383.69L6267.8,7383.78L6267.77,7383.88L6267.74,7383.98L6267.7,7384.07L6267.67,7384.17L6267.64,7384.26L6267.6,7384.35L6267.57,7384.44L6267.53,7384.53L6267.49,7384.61L6267.46,7384.7L6267.42,7384.78L6267.38,7384.87L6267.35,7384.95L6267.31,7385.03L6267.27,7385.11L6267.23,7385.19L6267.19,7385.26L6267.15,7385.34L6267.12,7385.41L6267.08,7385.48L6267.04,7385.55L6267,7385.62L6266.96,7385.69L6266.92,7385.75L6266.88,7385.82L6266.83,7385.88L6266.79,7385.94L6266.75,7386L6266.71,7386.06L6266.67,7386.11L6266.62,7386.17L6266.58,7386.22L6266.54,7386.27L6266.5,7386.32L6266.45,7386.37L6266.41,7386.41L6266.36,7386.46L6266.32,7386.5L6266.28,7386.54L6266.23,7386.58L6266.19,7386.62L6266.14,7386.66L6266.1,7386.69L6266.05,7386.73L6266.01,7386.76L6265.96,7386.78L6265.91,7386.81L6265.87,7386.84L6265.82,7386.86L6265.77,7386.88L6265.73,7386.9L6265.68,7386.92L6265.63,7386.94L6265.59,7386.95L6265.54,7386.97L6265.49,7386.98L6265.44,7386.98L6265.4,7386.99L6265.35,7387L6265.3,7387L6265.25,7387L6152.75,7387L6152.7,7387L6152.65,7387L6152.61,7386.99L6152.56,7386.98L6152.51,7386.98L6152.46,7386.97L6152.41,7386.95L6152.37,7386.94L6152.32,7386.92L6152.27,7386.9L6152.23,7386.88L6152.18,7386.86L6152.13,7386.84L6152.09,7386.81L6152.04,7386.78L6151.99,7386.76L6151.95,7386.73L6151.9,7386.69L6151.86,7386.66L6151.81,7386.62L6151.77,7386.58L6151.72,7386.54L6151.68,7386.5L6151.64,7386.46L6151.59,7386.41L6151.55,7386.37L6151.5,7386.32L6151.46,7386.27L6151.42,7386.22L6151.38,7386.17L6151.33,7386.11L6151.29,7386.06L6151.25,7386L6151.21,7385.94L6151.17,7385.88L6151.12,7385.82L6151.08,7385.75L6151.04,7385.69L6151,7385.62L6150.96,7385.55L6150.92,7385.48L6150.88,7385.41L6150.85,7385.34L6150.81,7385.26L6150.77,7385.19L6150.73,7385.11L6150.69,7385.03L6150.65,7384.95L6150.62,7384.87L6150.58,7384.78L6150.54,7384.7L6150.51,7384.61L6150.47,7384.53L6150.44,7384.44L6150.4,7384.35L6150.36,7384.26L6150.33,7384.17L6150.3,7384.07L6150.26,7383.98L6150.23,7383.88L6150.2,7383.78L6150.16,7383.69L6150.13,7383.59L6150.1,7383.48L6150.07,7383.38L6150.04,7383.28L6150.01,7383.17L6149.98,7383.07L6149.94,7382.96L6149.91,7382.85L6149.89,7382.74L6149.86,7382.63L6149.83,7382.52L6149.8,7382.41L6149.77,7382.29L6149.74,7382.18L6149.72,7382.06L6149.69,7381.94L6149.67,7381.83L6149.64,7381.71L6149.62,7381.59L6149.59,7381.47L6149.57,7381.34L6149.54,7381.22L6149.52,7381.1L6149.5,7380.97L6149.48,7380.85L6149.45,7380.72L6149.43,7380.59L6149.41,7380.46L6149.39,7380.33L6149.37,7380.2L6149.35,7380.07L6149.33,7379.94L6149.31,7379.8L6149.3,7379.67L6149.28,7379.53L6149.26,7379.4L6149.24,7379.26L6149.23,7379.12L6149.21,7378.99L6149.2,7378.85L6149.18,7378.71L6149.17,7378.57L6149.15,7378.43L6149.14,7378.28L6149.13,7378.14L6149.12,7378L6149.11,7377.85L6149.1,7377.71L6149.09,7377.56L6149.08,7377.42L6149.07,7377.27L6149.06,7377.12L6149.05,7376.98L6149.04,7376.83L6149.04,7376.68L6149.03,7376.53L6149.02,7376.38L6149.02,7376.23L6149.02,7376.07L6149.01,7375.92L6149.01,7375.77L6149.01,7375.62L6149,7375.46L6149,7375.31L6149,7375.15L6149,7375L6149,7279L6149,7278.85L6149,7278.69L6149,7278.54L6149.01,7278.38L6149.01,7278.23L6149.01,7278.08L6149.02,7277.93L6149.02,7277.77L6149.02,7277.62L6149.03,7277.47L6149.04,7277.32L6149.04,7277.17L6149.05,7277.03L6149.06,7276.88L6149.07,7276.73L6149.08,7276.58L6149.09,7276.44L6149.1,7276.29L6149.11,7276.15L6149.12,7276L6149.13,7275.86L6149.14,7275.72L6149.15,7275.57L6149.17,7275.43L6149.18,7275.29L6149.2,7275.15L6149.21,7275.01L6149.23,7274.88L6149.24,7274.74L6149.26,7274.6L6149.28,7274.47L6149.3,7274.33L6149.31,7274.2L6149.33,7274.06L6149.35,7273.93L6149.37,7273.8L6149.39,7273.67L6149.41,7273.54L6149.43,7273.41L6149.45,7273.28L6149.48,7273.15L6149.5,7273.03L6149.52,7272.9L6149.54,7272.78L6149.57,7272.66L6149.59,7272.53L6149.62,7272.41L6149.64,7272.29L6149.67,7272.17L6149.69,7272.06L6149.72,7271.94L6149.74,7271.82L6149.77,7271.71L6149.8,7271.59L6149.83,7271.48L6149.86,7271.37L6149.89,7271.26L6149.91,7271.15L6149.94,7271.04L6149.98,7270.93L6150.01,7270.83L6150.04,7270.72L6150.07,7270.62L6150.1,7270.52L6150.13,7270.41L6150.16,7270.32L6150.2,7270.22L6150.23,7270.12L6150.26,7270.02L6150.3,7269.93L6150.33,7269.83L6150.36,7269.74L6150.4,7269.65L6150.44,7269.56L6150.47,7269.47L6150.51,7269.39L6150.54,7269.3L6150.58,7269.22L6150.62,7269.13L6150.65,7269.05L6150.69,7268.97L6150.73,7268.89L6150.77,7268.81L6150.81,7268.74L6150.85,7268.66L6150.88,7268.59L6150.92,7268.52L6150.96,7268.45L6151,7268.38L6151.04,7268.31L6151.08,7268.25L6151.12,7268.18L6151.17,7268.12L6151.21,7268.06L6151.25,7268L6151.29,7267.94L6151.33,7267.89L6151.38,7267.83L6151.42,7267.78L6151.46,7267.73L6151.5,7267.68L6151.55,7267.63L6151.59,7267.59L6151.64,7267.54L6151.68,7267.5L6151.72,7267.46L6151.77,7267.42L6151.81,7267.38L6151.86,7267.34L6151.9,7267.31L6151.95,7267.28L6151.99,7267.24L6152.04,7267.22L6152.09,7267.19L6152.13,7267.16L6152.18,7267.14L6152.23,7267.12L6152.27,7267.1L6152.32,7267.08L6152.37,7267.06L6152.41,7267.05L6152.46,7267.03L6152.51,7267.02L6152.56,7267.02L6152.61,7267.01L6152.65,7267L6152.7,7267L6152.75,7267L6265.25,7267L6265.3,7267ZM6152.75,7269.4L6152.71,7269.4L6152.67,7269.4L6152.63,7269.41L6152.6,7269.41L6152.56,7269.42L6152.52,7269.43L6152.48,7269.44L6152.44,7269.45L6152.4,7269.46L6152.37,7269.48L6152.33,7269.49L6152.29,7269.51L6152.26,7269.53L6152.22,7269.55L6152.18,7269.57L6152.15,7269.6L6152.11,7269.62L6152.07,7269.65L6152.04,7269.67L6152,7269.7L6151.96,7269.73L6151.93,7269.76L6151.89,7269.8L6151.86,7269.83L6151.82,7269.87L6151.79,7269.9L6151.75,7269.94L6151.72,7269.98L6151.69,7270.02L6151.65,7270.07L6151.62,7270.11L6151.58,7270.15L6151.55,7270.2L6151.52,7270.25L6151.48,7270.3L6151.45,7270.35L6151.42,7270.4L6151.39,7270.45L6151.35,7270.5L6151.32,7270.56L6151.29,7270.61L6151.26,7270.67L6151.23,7270.73L6151.2,7270.79L6151.16,7270.85L6151.13,7270.91L6151.1,7270.98L6151.07,7271.04L6151.04,7271.1L6151.02,7271.17L6150.99,7271.24L6150.96,7271.31L6150.93,7271.38L6150.9,7271.45L6150.87,7271.52L6150.84,7271.59L6150.82,7271.67L6150.79,7271.74L6150.76,7271.82L6150.73,7271.9L6150.71,7271.97L6150.68,7272.05L6150.65,7272.13L6150.63,7272.21L6150.6,7272.3L6150.58,7272.38L6150.55,7272.46L6150.53,7272.55L6150.51,7272.63L6150.48,7272.72L6150.46,7272.81L6150.44,7272.9L6150.41,7272.99L6150.39,7273.08L6150.37,7273.17L6150.35,7273.26L6150.32,7273.35L6150.3,7273.45L6150.28,7273.54L6150.26,7273.64L6150.24,7273.73L6150.22,7273.83L6150.2,7273.93L6150.18,7274.03L6150.17,7274.12L6150.15,7274.23L6150.13,7274.33L6150.11,7274.43L6150.1,7274.53L6150.08,7274.63L6150.06,7274.74L6150.05,7274.84L6150.03,7274.95L6150.02,7275.05L6150,7275.16L6149.99,7275.27L6149.97,7275.37L6149.96,7275.48L6149.94,7275.59L6149.93,7275.7L6149.92,7275.81L6149.91,7275.92L6149.9,7276.03L6149.89,7276.15L6149.87,7276.26L6149.86,7276.37L6149.85,7276.49L6149.84,7276.6L6149.84,7276.72L6149.83,7276.83L6149.82,7276.95L6149.81,7277.07L6149.8,7277.18L6149.8,7277.3L6149.79,7277.42L6149.78,7277.54L6149.78,7277.65L6149.77,7277.78L6149.77,7277.9L6149.77,7278.02L6149.76,7278.14L6149.76,7278.26L6149.76,7278.38L6149.75,7278.5L6149.75,7278.63L6149.75,7278.75L6149.75,7278.88L6149.75,7279.01L6149.75,7374.99L6149.75,7375.12L6149.75,7375.25L6149.75,7375.37L6149.75,7375.5L6149.76,7375.62L6149.76,7375.74L6149.76,7375.86L6149.77,7375.98L6149.77,7376.1L6149.77,7376.22L6149.78,7376.35L6149.78,7376.46L6149.79,7376.58L6149.8,7376.7L6149.8,7376.82L6149.81,7376.94L6149.82,7377.05L6149.83,7377.17L6149.84,7377.28L6149.84,7377.4L6149.85,7377.51L6149.86,7377.63L6149.87,7377.74L6149.89,7377.85L6149.9,7377.97L6149.91,7378.08L6149.92,7378.19L6149.93,7378.3L6149.94,7378.41L6149.96,7378.52L6149.97,7378.63L6149.99,7378.73L6150,7378.84L6150.02,7378.95L6150.03,7379.05L6150.05,7379.16L6150.06,7379.26L6150.08,7379.37L6150.1,7379.47L6150.11,7379.57L6150.13,7379.67L6150.15,7379.77L6150.17,7379.88L6150.18,7379.97L6150.2,7380.07L6150.22,7380.17L6150.24,7380.27L6150.26,7380.36L6150.28,7380.46L6150.3,7380.55L6150.32,7380.65L6150.35,7380.74L6150.37,7380.83L6150.39,7380.92L6150.41,7381.01L6150.44,7381.1L6150.46,7381.19L6150.48,7381.28L6150.51,7381.37L6150.53,7381.45L6150.55,7381.54L6150.58,7381.62L6150.6,7381.7L6150.63,7381.79L6150.65,7381.87L6150.68,7381.95L6150.71,7382.03L6150.73,7382.11L6150.76,7382.18L6150.79,7382.26L6150.82,7382.33L6150.84,7382.41L6150.87,7382.48L6150.9,7382.55L6150.93,7382.62L6150.96,7382.69L6150.99,7382.76L6151.02,7382.83L6151.04,7382.9L6151.07,7382.96L6151.1,7383.03L6151.13,7383.09L6151.16,7383.15L6151.2,7383.21L6151.23,7383.27L6151.26,7383.33L6151.29,7383.39L6151.32,7383.44L6151.35,7383.5L6151.39,7383.55L6151.42,7383.6L6151.45,7383.65L6151.48,7383.7L6151.52,7383.75L6151.55,7383.8L6151.58,7383.85L6151.62,7383.89L6151.65,7383.94L6151.69,7383.98L6151.72,7384.02L6151.75,7384.06L6151.79,7384.1L6151.82,7384.13L6151.86,7384.17L6151.89,7384.2L6151.93,7384.24L6151.96,7384.27L6152,7384.3L6152.04,7384.33L6152.07,7384.35L6152.11,7384.38L6152.15,7384.4L6152.18,7384.43L6152.22,7384.45L6152.26,7384.47L6152.29,7384.49L6152.33,7384.51L6152.37,7384.52L6152.4,7384.54L6152.44,7384.55L6152.48,7384.56L6152.52,7384.57L6152.56,7384.58L6152.6,7384.59L6152.63,7384.59L6152.67,7384.6L6152.71,7384.6L6152.75,7384.6L6265.25,7384.6L6265.29,7384.6L6265.33,7384.6L6265.37,7384.59L6265.4,7384.59L6265.44,7384.58L6265.48,7384.57L6265.52,7384.56L6265.56,7384.55L6265.6,7384.54L6265.63,7384.52L6265.67,7384.51L6265.71,7384.49L6265.74,7384.47L6265.78,7384.45L6265.82,7384.43L6265.86,7384.4L6265.89,7384.38L6265.93,7384.35L6265.96,7384.33L6266,7384.3L6266.04,7384.27L6266.07,7384.24L6266.11,7384.2L6266.14,7384.17L6266.18,7384.13L6266.21,7384.1L6266.25,7384.06L6266.28,7384.02L6266.32,7383.98L6266.35,7383.94L6266.38,7383.89L6266.42,7383.85L6266.45,7383.8L6266.48,7383.75L6266.52,7383.7L6266.55,7383.65L6266.58,7383.6L6266.61,7383.55L6266.65,7383.5L6266.68,7383.44L6266.71,7383.39L6266.74,7383.33L6266.77,7383.27L6266.8,7383.21L6266.84,7383.15L6266.87,7383.09L6266.9,7383.03L6266.93,7382.96L6266.96,7382.9L6266.99,7382.83L6267.02,7382.76L6267.04,7382.69L6267.07,7382.62L6267.1,7382.55L6267.13,7382.48L6267.16,7382.41L6267.19,7382.33L6267.21,7382.26L6267.24,7382.18L6267.27,7382.11L6267.29,7382.03L6267.32,7381.95L6267.35,7381.87L6267.37,7381.79L6267.4,7381.7L6267.42,7381.62L6267.45,7381.54L6267.47,7381.45L6267.49,7381.37L6267.52,7381.28L6267.54,7381.19L6267.57,7381.1L6267.59,7381.01L6267.61,7380.92L6267.63,7380.83L6267.65,7380.74L6267.68,7380.65L6267.7,7380.55L6267.72,7380.46L6267.74,7380.36L6267.76,7380.27L6267.78,7380.17L6267.8,7380.07L6267.82,7379.97L6267.83,7379.88L6267.85,7379.77L6267.87,7379.67L6267.89,7379.57L6267.9,7379.47L6267.92,7379.37L6267.94,7379.26L6267.95,7379.16L6267.97,7379.05L6267.99,7378.95L6268,7378.84L6268.01,7378.73L6268.03,7378.63L6268.04,7378.52L6268.06,7378.41L6268.07,7378.3L6268.08,7378.19L6268.09,7378.08L6268.1,7377.97L6268.11,7377.85L6268.13,7377.74L6268.14,7377.63L6268.15,7377.51L6268.16,7377.4L6268.16,7377.28L6268.17,7377.17L6268.18,7377.05L6268.19,7376.94L6268.2,7376.82L6268.2,7376.7L6268.21,7376.58L6268.22,7376.46L6268.22,7376.35L6268.23,7376.22L6268.23,7376.1L6268.23,7375.98L6268.24,7375.86L6268.24,7375.74L6268.24,7375.62L6268.25,7375.5L6268.25,7375.37L6268.25,7375.25L6268.25,7375.12L6268.25,7374.99L6268.25,7279.01L6268.25,7278.88L6268.25,7278.75L6268.25,7278.63L6268.25,7278.5L6268.24,7278.38L6268.24,7278.26L6268.24,7278.14L6268.23,7278.02L6268.23,7277.9L6268.23,7277.78L6268.22,7277.65L6268.22,7277.54L6268.21,7277.42L6268.2,7277.3L6268.2,7277.18L6268.19,7277.07L6268.18,7276.95L6268.17,7276.83L6268.16,7276.72L6268.16,7276.6L6268.15,7276.49L6268.14,7276.37L6268.13,7276.26L6268.11,7276.15L6268.1,7276.03L6268.09,7275.92L6268.08,7275.81L6268.07,7275.7L6268.06,7275.59L6268.04,7275.48L6268.03,7275.37L6268.01,7275.27L6268,7275.16L6267.99,7275.05L6267.97,7274.95L6267.95,7274.84L6267.94,7274.74L6267.92,7274.63L6267.9,7274.53L6267.89,7274.43L6267.87,7274.33L6267.85,7274.23L6267.83,7274.12L6267.82,7274.03L6267.8,7273.93L6267.78,7273.83L6267.76,7273.73L6267.74,7273.64L6267.72,7273.54L6267.7,7273.45L6267.68,7273.35L6267.65,7273.26L6267.63,7273.17L6267.61,7273.08L6267.59,7272.99L6267.57,7272.9L6267.54,7272.81L6267.52,7272.72L6267.49,7272.63L6267.47,7272.55L6267.45,7272.46L6267.42,7272.38L6267.4,7272.3L6267.37,7272.21L6267.35,7272.13L6267.32,7272.05L6267.29,7271.97L6267.27,7271.9L6267.24,7271.82L6267.21,7271.74L6267.19,7271.67L6267.16,7271.59L6267.13,7271.52L6267.1,7271.45L6267.07,7271.38L6267.04,7271.31L6267.02,7271.24L6266.99,7271.17L6266.96,7271.1L6266.93,7271.04L6266.9,7270.98L6266.87,7270.91L6266.84,7270.85L6266.8,7270.79L6266.77,7270.73L6266.74,7270.67L6266.71,7270.61L6266.68,7270.56L6266.65,7270.5L6266.61,7270.45L6266.58,7270.4L6266.55,7270.35L6266.52,7270.3L6266.48,7270.25L6266.45,7270.2L6266.42,7270.15L6266.38,7270.11L6266.35,7270.07L6266.32,7270.02L6266.28,7269.98L6266.25,7269.94L6266.21,7269.9L6266.18,7269.87L6266.14,7269.83L6266.11,7269.8L6266.07,7269.76L6266.04,7269.73L6266,7269.7L6265.96,7269.67L6265.93,7269.65L6265.89,7269.62L6265.86,7269.6L6265.82,7269.57L6265.78,7269.55L6265.74,7269.53L6265.71,7269.51L6265.67,7269.49L6265.63,7269.48L6265.6,7269.46L6265.56,7269.45L6265.52,7269.44L6265.48,7269.43L6265.44,7269.42L6265.4,7269.41L6265.37,7269.41L6265.33,7269.4L6265.29,7269.4L6265.25,7269.4L6152.75,7269.4Z" style="fill:rgb(78,78,78);"/>
            </g>
        </g>
    </g>
</svg>
