<?xml version="1.0" encoding="UTF-8" standalone="no"?>
<!DOCTYPE svg PUBLIC "-//W3C//DTD SVG 1.1//EN" "http://www.w3.org/Graphics/SVG/1.1/DTD/svg11.dtd">
<svg width="100%" height="100%" viewBox="0 0 60 60" version="1.1" xmlns="http://www.w3.org/2000/svg" xmlns:xlink="http://www.w3.org/1999/xlink" xml:space="preserve" style="fill-rule:evenodd;clip-rule:evenodd;stroke-miterlimit:1.41421;">
    <g transform="matrix(1,0,0,1,-10281,-2497)">
        <g transform="matrix(1,0,0,1,10242,2087)">
            <g transform="matrix(1,0,0,1,0,-3)">
                <g transform="matrix(1,0,0,1,-3717,255.969)">
                    <circle cx="3786" cy="187" r="28" style="fill:none;stroke-width:4px;stroke:rgb(90,157,255);"/>
                </g>
                <g transform="matrix(0.428571,0,0,1,-1553.57,256)">
                    <path d="M3786.25,157.001C3787.41,157.012 3788.56,157.067 3789.7,157.175C3790.42,157.244 3791.14,157.333 3791.84,157.44C3792.38,157.523 3792.91,157.616 3793.43,157.719C3797.42,158.509 3800.69,159.847 3803.34,161.328C3803.91,161.644 3804.45,161.97 3804.97,162.302C3805.61,162.716 3806.22,163.14 3806.8,163.571C3807.61,164.176 3808.35,164.795 3809.05,165.426C3809.87,166.176 3810.62,166.941 3811.31,167.717C3813.25,169.905 3814.7,172.169 3815.81,174.46C3817.33,177.617 3818.19,180.832 3818.52,184.052C3818.9,187.786 3818.57,191.537 3817.47,195.245C3816.53,198.428 3815,201.589 3812.67,204.639C3811.97,205.548 3811.2,206.447 3810.34,207.33C3809.61,208.074 3808.82,208.809 3807.95,209.526C3807.31,210.053 3806.63,210.571 3805.9,211.076C3805.3,211.491 3804.67,211.897 3804,212.291C3803.58,212.545 3803.13,212.794 3802.67,213.037C3799.75,214.585 3796.05,215.942 3791.6,216.595C3790.9,216.698 3790.18,216.783 3789.45,216.847C3788.33,216.948 3787.18,216.997 3786.03,217L3785.97,213C3786.16,212.999 3786.36,212.997 3786.56,212.991C3786.74,212.985 3786.93,212.976 3787.11,212.965C3787.45,212.942 3787.79,212.912 3788.12,212.871C3788.95,212.772 3789.73,212.619 3790.47,212.434C3791.57,212.158 3792.57,211.809 3793.49,211.429C3793.8,211.3 3794.1,211.166 3794.39,211.03C3794.74,210.864 3795.09,210.694 3795.42,210.52C3795.86,210.284 3796.29,210.041 3796.7,209.793C3797.23,209.469 3797.73,209.138 3798.21,208.799C3798.81,208.37 3799.37,207.931 3799.9,207.484C3800.56,206.927 3801.16,206.358 3801.73,205.783C3802.41,205.08 3803.03,204.365 3803.6,203.643C3805.33,201.457 3806.56,199.202 3807.46,196.928C3808.62,193.997 3809.2,191.023 3809.31,188.05C3809.42,185.114 3809.08,182.174 3808.21,179.259C3807.82,177.922 3807.31,176.591 3806.67,175.271C3806.16,174.231 3805.59,173.197 3804.91,172.175C3804.34,171.314 3803.71,170.459 3803,169.617C3802.41,168.921 3801.77,168.232 3801.06,167.556C3800.48,167.005 3799.86,166.463 3799.18,165.933C3798.65,165.509 3798.07,165.093 3797.46,164.689C3796.98,164.372 3796.47,164.062 3795.93,163.762C3795.52,163.532 3795.09,163.307 3794.64,163.09C3794.31,162.93 3793.97,162.775 3793.61,162.624C3792.66,162.222 3791.62,161.855 3790.47,161.566C3789.6,161.347 3788.66,161.174 3787.67,161.08C3787.19,161.034 3786.71,161.009 3786.22,161.001L3786.11,161L3785.97,161L3786.03,157C3786.1,157 3786.18,157 3786.25,157.001Z" style="fill:rgb(90,157,255);fill-rule:nonzero;"/>
                </g>
                <g transform="matrix(0.428571,0,0,1,-1553.57,256)">
                    <path d="M3786.03,161C3785.84,161 3785.64,161.003 3785.45,161.009C3785.26,161.015 3785.07,161.024 3784.89,161.035C3784.55,161.058 3784.21,161.088 3783.88,161.128C3781.93,161.364 3780.23,161.88 3778.77,162.466C3778.41,162.609 3778.07,162.756 3777.74,162.909C3777.34,163.093 3776.95,163.284 3776.58,163.48C3776.14,163.716 3775.71,163.959 3775.3,164.208C3774.77,164.531 3774.27,164.862 3773.79,165.201C3773.19,165.63 3772.63,166.069 3772.1,166.516C3771.44,167.073 3770.84,167.641 3770.27,168.217C3769.59,168.92 3768.97,169.635 3768.4,170.357C3766.68,172.543 3765.44,174.799 3764.54,177.072C3763.38,180.003 3762.8,182.978 3762.69,185.95C3762.58,188.886 3762.93,191.826 3763.79,194.741C3764.5,197.13 3765.56,199.507 3767.09,201.825C3767.66,202.687 3768.29,203.541 3769,204.382C3769.59,205.079 3770.23,205.768 3770.94,206.444C3771.52,206.994 3772.14,207.537 3772.82,208.067C3773.35,208.491 3773.93,208.907 3774.54,209.311C3775.02,209.628 3775.53,209.938 3776.07,210.238C3776.48,210.468 3776.91,210.692 3777.36,210.91C3777.69,211.07 3778.03,211.225 3778.39,211.376C3779.37,211.793 3780.45,212.171 3781.66,212.466C3782.56,212.686 3783.53,212.856 3784.55,212.94C3784.96,212.974 3785.37,212.992 3785.78,212.999L3785.89,213L3786.03,213L3785.97,217C3784.82,216.997 3783.67,216.948 3782.55,216.847C3781.82,216.783 3781.1,216.698 3780.4,216.595C3779.86,216.515 3779.32,216.425 3778.8,216.324C3774.71,215.54 3771.36,214.181 3768.66,212.672C3768.09,212.355 3767.55,212.03 3767.03,211.698C3766.39,211.284 3765.78,210.86 3765.2,210.428C3764.39,209.824 3763.65,209.204 3762.95,208.574C3762.13,207.823 3761.38,207.058 3760.69,206.283C3758.75,204.095 3757.3,201.831 3756.19,199.54C3754.67,196.383 3753.81,193.168 3753.48,189.948C3753.1,186.214 3753.43,182.463 3754.53,178.755C3755.47,175.572 3757,172.411 3759.33,169.361C3760.03,168.452 3760.8,167.553 3761.66,166.671C3762.39,165.926 3763.18,165.191 3764.05,164.474C3764.69,163.947 3765.37,163.429 3766.1,162.924C3766.7,162.51 3767.33,162.104 3767.99,161.709C3768.42,161.456 3768.87,161.206 3769.33,160.963C3772.25,159.416 3775.95,158.056 3780.4,157.404C3781.11,157.301 3781.82,157.216 3782.55,157.152C3783.68,157.053 3784.82,157.003 3785.97,157C3785.99,158.333 3786.01,159.667 3786.03,161Z" style="fill:rgb(90,157,255);fill-rule:nonzero;"/>
                </g>
                <g transform="matrix(0.928571,0,0,1,-3425.21,-5494)">
                    <path d="M3735,5927L3791,5927" style="fill:white;stroke-width:4.15px;stroke:rgb(90,157,255);"/>
                </g>
                <g transform="matrix(0.928571,0,0,1,-3425.21,-5474)">
                    <path d="M3735,5927L3791,5927" style="fill:white;stroke-width:4.15px;stroke:rgb(90,157,255);"/>
                </g>
            </g>
        </g>
    </g>
</svg>
