<?xml version="1.0" encoding="UTF-8" standalone="no"?>
<!DOCTYPE svg PUBLIC "-//W3C//DTD SVG 1.1//EN" "http://www.w3.org/Graphics/SVG/1.1/DTD/svg11.dtd">
<svg width="100%" height="100%" viewBox="0 0 60 60" version="1.1" xmlns="http://www.w3.org/2000/svg" xmlns:xlink="http://www.w3.org/1999/xlink" xml:space="preserve" style="fill-rule:evenodd;clip-rule:evenodd;stroke-miterlimit:1.41421;">
    <g transform="matrix(1,0,0,1,-10281,-2755)">
        <g transform="matrix(1,0,0,1,10242,2087)">
            <g transform="matrix(1,0,0,1,1,0)">
                <g transform="matrix(1,0,0,1,-3718,511)">
                    <circle cx="3786" cy="187" r="28" style="fill:none;stroke-width:4px;stroke:white;"/>
                </g>
                <g transform="matrix(1,0,0,1,-3694,131)">
                    <path d="M3768,549L3762,572L3747,569" style="fill:none;stroke-width:4px;stroke:white;"/>
                </g>
                <g transform="matrix(1,0,0,1,-3695,127)">
                    <path d="M3790,571L3787,571" style="fill:none;stroke-width:4px;stroke:white;"/>
                </g>
                <g transform="matrix(1,0,0,1,-3746,127)">
                    <path d="M3790,571L3787,571" style="fill:none;stroke-width:4px;stroke:white;"/>
                </g>
                <g transform="matrix(2.83277e-16,1,-1,2.83277e-16,639,-3065)">
                    <path d="M3790,571L3787,571" style="fill:none;stroke-width:4px;stroke:white;"/>
                </g>
                <g transform="matrix(2.83277e-16,1,-1,2.83277e-16,639,-3116)">
                    <path d="M3790,571L3787,571" style="fill:none;stroke-width:4px;stroke:white;"/>
                </g>
            </g>
        </g>
    </g>
</svg>
