<?xml version="1.0" encoding="UTF-8" standalone="no"?>
<!DOCTYPE svg PUBLIC "-//W3C//DTD SVG 1.1//EN" "http://www.w3.org/Graphics/SVG/1.1/DTD/svg11.dtd">
<svg width="100%" height="100%" viewBox="0 0 60 60" version="1.1" xmlns="http://www.w3.org/2000/svg" xmlns:xlink="http://www.w3.org/1999/xlink" xml:space="preserve" style="fill-rule:evenodd;clip-rule:evenodd;stroke-linejoin:round;stroke-miterlimit:1.41421;">
    <g transform="matrix(1,0,0,1,-10281,-3035)">
        <g transform="matrix(1,0,0,1,10242,2087)">
            <g transform="matrix(1.53846,0,0,1.5625,-47.4335,-110.522)">
                <g transform="matrix(0.953333,-1.66785e-17,-1.80871e-17,0.96,-3482.5,-5250.55)">
                    <path d="M3747.36,6212.33L3729.64,6212.33L3729.64,6189.67L3747.36,6189.67C3747.36,6197.22 3747.36,6204.78 3747.36,6212.33ZM3732.36,6192.33L3732.36,6209.67L3744.64,6209.67L3744.64,6192.33C3740.55,6192.33 3736.45,6192.33 3732.36,6192.33Z" style="fill:rgb(90,157,255);fill-rule:nonzero;"/>
                </g>
                <g transform="matrix(0.953333,-1.66785e-17,-1.92929e-17,1.024,-3488.35,-5652.53)">
                    <path d="M3747.36,6193.5L3744.64,6193.5L3744.64,6192.25L3732.36,6192.25L3732.36,6209.75L3733.73,6209.75L3733.73,6212.25L3729.64,6212.25L3729.64,6189.75L3747.36,6189.75C3747.36,6191 3747.36,6192.25 3747.36,6193.5Z" style="fill:rgb(90,157,255);fill-rule:nonzero;"/>
                </g>
                <g transform="matrix(0.953333,-1.66785e-17,-1.92929e-17,1.024,-3494.2,-5658.29)">
                    <path d="M3747.36,6193.5L3744.64,6193.5L3744.64,6192.25L3732.36,6192.25L3732.36,6209.75L3733.73,6209.75L3733.73,6212.25L3729.64,6212.25L3729.64,6189.75L3747.36,6189.75C3747.36,6191 3747.36,6192.25 3747.36,6193.5Z" style="fill:rgb(90,157,255);fill-rule:nonzero;"/>
                </g>
            </g>
        </g>
    </g>
</svg>
