<?xml version="1.0" encoding="UTF-8" standalone="no"?>
<!DOCTYPE svg PUBLIC "-//W3C//DTD SVG 1.1//EN" "http://www.w3.org/Graphics/SVG/1.1/DTD/svg11.dtd">
<svg width="100%" height="100%" viewBox="0 0 60 60" version="1.1" xmlns="http://www.w3.org/2000/svg" xmlns:xlink="http://www.w3.org/1999/xlink" xml:space="preserve" style="fill-rule:evenodd;clip-rule:evenodd;stroke-miterlimit:1.41421;">
    <g transform="matrix(1,0,0,1,-10281,-2369)">
        <g transform="matrix(1,0,0,1,10242,2087)">
            <g transform="matrix(1.58741,0,0,1.58741,-173.874,-89.4402)">
                <g transform="matrix(0.916667,0,0,0.916667,-3373.5,-5048.41)">
                    <circle cx="3840" cy="5786" r="6" style="fill:none;stroke-width:2.75px;stroke:rgb(90,157,255);"/>
                </g>
                <g transform="matrix(0.916667,0,0,0.916667,-3360.5,-5061.41)">
                    <circle cx="3840" cy="5786" r="6" style="fill:none;stroke-width:2.75px;stroke:rgb(90,157,255);"/>
                </g>
                <g transform="matrix(1,0,0,1,-3694,-5530.73)">
                    <path d="M3833,5800C3833,5800 3833.18,5791.65 3840.5,5791.65C3847.82,5791.65 3848,5800 3848,5800" style="fill:none;stroke-width:2.52px;stroke:rgb(90,157,255);"/>
                </g>
                <g transform="matrix(1,0,0,1,-3681,-5543.73)">
                    <path d="M3833,5800C3833,5800 3833.18,5791.65 3840.5,5791.65C3847.82,5791.65 3848,5800 3848,5800" style="fill:none;stroke-width:2.52px;stroke:rgb(90,157,255);"/>
                </g>
            </g>
        </g>
    </g>
</svg>
