<?xml version="1.0" encoding="UTF-8" standalone="no"?>
<!DOCTYPE svg PUBLIC "-//W3C//DTD SVG 1.1//EN" "http://www.w3.org/Graphics/SVG/1.1/DTD/svg11.dtd">
<svg width="100%" height="100%" viewBox="0 0 32 32" version="1.1" xmlns="http://www.w3.org/2000/svg" xmlns:xlink="http://www.w3.org/1999/xlink" xml:space="preserve" style="fill-rule:evenodd;clip-rule:evenodd;stroke-linejoin:round;stroke-miterlimit:1.41421;">
    <g transform="matrix(1,0,0,1,-7950,-16424)">
        <g transform="matrix(1,0,0,1,7921,15592)">
            <g transform="matrix(1,0,0,1,0,507.672)">
                <g transform="matrix(0.585115,-2.77069e-18,-2.86624e-18,0.576923,-10383.9,-2481.15)">
                    <path d="M17798,4916L17849.3,4916" style="fill:none;stroke:rgb(113,113,113);stroke-width:3.44px;"/>
                </g>
                <g transform="matrix(0.666667,2.22069e-17,2.15901e-17,0.56,-11835.3,-2400.28)">
                    <rect x="17801" y="4888" width="9" height="25" style="fill:rgb(113,113,113);"/>
                </g>
                <g transform="matrix(0.666667,2.22069e-17,4.00958e-17,1.04,-11825.3,-4758.52)">
                    <rect x="17801" y="4888" width="9" height="25" style="fill:rgb(113,113,113);"/>
                </g>
                <g transform="matrix(0.666667,2.49732e-17,3.53787e-17,0.8,-11815.3,-3579.4)">
                    <rect x="17801" y="4888" width="9" height="25" style="fill:rgb(113,113,113);"/>
                </g>
            </g>
        </g>
    </g>
</svg>
