<?xml version="1.0" encoding="UTF-8" standalone="no"?>
<svg width="32px" height="30px" viewBox="0 0 32 30" version="1.1" xmlns="http://www.w3.org/2000/svg" xmlns:xlink="http://www.w3.org/1999/xlink">
    <!-- Generator: Sketch 41.2 (35397) - http://www.bohemiancoding.com/sketch -->
    <title>Group 12 Copy</title>
    <desc>Created with Sketch.</desc>
    <defs></defs>
    <g id="Page-1" stroke="none" stroke-width="1" fill="none" fill-rule="evenodd">
        <g id="erorrs&amp;uploads" transform="translate(-1334.000000, -877.000000)">
            <g id="Group-12-Copy" transform="translate(1332.000000, 869.000000)">
                <rect id="Rectangle-2" x="0" y="0" width="36" height="46"></rect>
                <path d="M21.9987754,27.886232 L21.9999925,27.8862305 L30.4444444,27.875 L28.7857273,11 L32.3412829,11 L34,27.875 L34,38 L2,38 L2,27.875 L3.77777778,11 L7.33333333,11 L5.55555556,27.875 L11.9988649,27.8986164 C12.01875,30.6588188 14.2652043,33 16.9999962,33 C19.7555271,33 22.0021743,30.6518122 21.9987754,27.886232 Z M20.25,18.2 L20.25,8 L14.75,8 L14.75,18.2 L12,18.2 L17.5,25 L23,18.2 L20.25,18.2 Z" id="Shape" fill="#5A9DFF"></path>
            </g>
        </g>
    </g>
</svg>