<?xml version="1.0" encoding="UTF-8" standalone="no"?>
<svg width="34px" height="40px" viewBox="0 0 34 40" version="1.1" xmlns="http://www.w3.org/2000/svg" xmlns:xlink="http://www.w3.org/1999/xlink">
    <!-- Generator: Sketch 41.2 (35397) - http://www.bohemiancoding.com/sketch -->
    <title>uncnown copy</title>
    <desc>Created with Sketch.</desc>
    <defs>
        <rect id="path-1" x="1" y="3" width="34" height="40" rx="3"></rect>
        <mask id="mask-2" maskContentUnits="userSpaceOnUse" maskUnits="objectBoundingBox" x="0" y="0" width="34" height="40" fill="white">
            <use xlink:href="#path-1"></use>
        </mask>
    </defs>
    <g id="Page-1" stroke="none" stroke-width="1" fill="none" fill-rule="evenodd">
        <g id="erorrs&amp;uploads" transform="translate(-1423.000000, -872.000000)">
            <g id="uncnown-copy" transform="translate(1422.000000, 869.000000)">
                <rect id="Rectangle-32-Copy-3" x="0" y="0" width="36" height="46"></rect>
                <use id="Rectangle-33-Copy" stroke="#9A9A9A" mask="url(#mask-2)" stroke-width="4" xlink:href="#path-1"></use>
                <path d="M10.6123779,13.1528262 C10.990228,12.1074669 11.5114007,11.2016748 12.2019544,10.4354501 C12.8794788,9.67062107 13.7003257,9.07187718 14.6644951,8.64200977 C15.6416938,8.21353803 16.7100977,8 17.9087948,8 C19.4462541,8 20.723127,8.22470342 21.752443,8.67550593 C22.781759,9.13049546 23.6156352,9.69295185 24.2410423,10.3670621 C24.8664495,11.038381 25.3224756,11.7655269 25.5830619,12.542917 C25.8566775,13.320307 26,14.0446615 26,14.7187718 C26,15.8339149 25.8566775,16.7494766 25.5830619,17.4682484 C25.3224756,18.1884159 24.9837134,18.8053036 24.5798046,19.31612 C24.1889251,19.8255408 23.732899,20.2623866 23.2508143,20.6182833 C22.7687296,20.9811584 22.2996743,21.3398465 21.8697068,21.6999302 C21.4397394,22.0586183 21.0488599,22.4731333 20.7100977,22.9351012 C20.3843648,23.4012561 20.1628664,23.9790649 20.0846906,24.6769016 L20.0846906,26 L15.6938111,26 L15.6938111,24.4326588 C15.7589577,23.4347523 15.9413681,22.6001396 16.228013,21.9260293 C16.514658,21.2533147 16.8664495,20.6782973 17.257329,20.2023726 C17.6482085,19.726448 18.0521173,19.31612 18.4820847,18.9685973 C18.9250814,18.6168876 19.3289902,18.2721563 19.6938111,17.923238 C20.0586319,17.5743196 20.3583062,17.1905094 20.5928339,16.7732031 C20.8143322,16.3558967 20.9185668,15.8339149 20.8925081,15.2072575 C20.8925081,14.136776 20.6449511,13.3482205 20.1628664,12.837404 C19.6807818,12.3279833 19.0032573,12.0711793 18.1302932,12.0711793 C17.5439739,12.0711793 17.0488599,12.1953943 16.6188925,12.4368458 C16.2019544,12.6824843 15.8501629,13.0076762 15.5765472,13.4152128 C15.3029316,13.8199581 15.1074919,14.2944871 14.9771987,14.8401954 C14.8469055,15.384508 14.781759,15.9706909 14.781759,16.5987439 L10,16.5987439 C10.0260586,15.3454292 10.2345277,14.1981856 10.6123779,13.1528262 Z" id="Shape-Copy-3" fill="#9A9A9A"></path>
                <path d="M21,33.9992341 C21,35.656625 19.6530612,37 18,37 C16.3469388,37 15,35.656625 15,33.9992341 C15,32.3449068 16.3469388,31 18,31 C19.6530612,31 21,32.3449068 21,33.9992341 Z" id="Shape-Copy-4" fill="#9A9A9A"></path>
            </g>
        </g>
    </g>
</svg>