<?xml version="1.0" encoding="UTF-8" standalone="no"?>
<!DOCTYPE svg PUBLIC "-//W3C//DTD SVG 1.1//EN" "http://www.w3.org/Graphics/SVG/1.1/DTD/svg11.dtd">
<svg width="100%" height="100%" viewBox="0 0 36 46" version="1.1" xmlns="http://www.w3.org/2000/svg" xmlns:xlink="http://www.w3.org/1999/xlink" xml:space="preserve" style="fill-rule:evenodd;clip-rule:evenodd;stroke-linejoin:round;stroke-miterlimit:1.41421;">
    <g transform="matrix(1,0,0,1,-7946,-12047)">
        <g transform="matrix(1,0,0,1,7909,11392)">
            <g transform="matrix(1,0,0,1,-8168,-11186)">
                <g transform="matrix(-1.42121e-16,-0.878049,1,-1.59769e-16,-3530,19004.7)">
                    <path d="M8153,11756L8112,11756L8117.01,11736L8147.99,11736L8153,11756Z" style="fill:rgb(220,91,36);"/>
                </g>
                <g transform="matrix(0.9375,0,0,1,582.438,115)">
                    <path d="M8168.07,11764L8149.93,11764L8149.93,11734L8168.07,11734C8168.07,11744 8168.07,11754 8168.07,11764ZM8152.07,11736L8152.07,11762L8165.93,11762L8165.93,11736C8161.31,11736 8156.69,11736 8152.07,11736Z" style="fill:rgb(220,91,36);fill-rule:nonzero;"/>
                </g>
                <g transform="matrix(0.833333,0,0,1,1370.83,115)">
                    <g transform="matrix(1,0,0,1,74,13)">
                        <rect x="8151" y="11739" width="12" height="2" style="fill:rgb(220,91,36);fill-rule:nonzero;"/>
                    </g>
                    <g transform="matrix(1,0,0,1,74,17)">
                        <rect x="8151" y="11739" width="12" height="2" style="fill:rgb(220,91,36);fill-rule:nonzero;"/>
                    </g>
                </g>
                <g transform="matrix(1,0,0,1,14.8192,119.108)">
                    <path d="M8200.02,11744.3L8200.81,11744.3C8201.56,11744.3 8202.12,11744.2 8202.49,11743.9C8202.85,11743.6 8203.04,11743.2 8203.04,11742.6C8203.04,11742 8202.89,11741.6 8202.58,11741.3C8202.26,11741.1 8201.78,11740.9 8201.12,11740.9L8200.02,11740.9L8200.02,11744.3ZM8205.49,11742.5C8205.49,11743.7 8205.1,11744.7 8204.33,11745.3C8203.57,11746 8202.47,11746.3 8201.06,11746.3L8200.02,11746.3L8200.02,11750.4L8197.59,11750.4L8197.59,11739L8201.24,11739C8202.63,11739 8203.68,11739.3 8204.4,11739.8C8205.12,11740.4 8205.49,11741.3 8205.49,11742.5Z" style="fill:white;fill-rule:nonzero;"/>
                </g>
                <g transform="matrix(1.25,0,0,1.25,-2058.25,-2966)">
                    <path d="M8229,11856C8226.79,11856 8225,11857.8 8225,11860C8225,11862.2 8226.79,11864 8229,11864C8231.21,11864 8233,11862.2 8233,11860L8229,11860L8229,11856Z" style="fill:rgb(220,91,36);"/>
                </g>
                <g transform="matrix(1.25,0,0,1.25,-2057.25,-2967)">
                    <path d="M8233,11860C8233,11857.8 8231.21,11856 8229,11856L8229,11860L8233,11860Z" style="fill:rgb(220,91,36);"/>
                </g>
            </g>
        </g>
    </g>
</svg>
