<?xml version="1.0" encoding="UTF-8" standalone="no"?>
<!DOCTYPE svg PUBLIC "-//W3C//DTD SVG 1.1//EN" "http://www.w3.org/Graphics/SVG/1.1/DTD/svg11.dtd">
<svg width="100%" height="100%" viewBox="0 0 50 50" version="1.1" xmlns="http://www.w3.org/2000/svg" xmlns:xlink="http://www.w3.org/1999/xlink" xml:space="preserve" style="fill-rule:evenodd;clip-rule:evenodd;stroke-linejoin:round;stroke-miterlimit:1.41421;">
    <g transform="matrix(1,0,0,1,-8940,-11613)">
        <g transform="matrix(1,0,0,1,8269,11360)">
            <g>
                <g transform="matrix(1,0,0,1,-7671,-7650)">
                    <path d="M8391,7919C8391,7910.72 8384.28,7904 8376,7904L8358,7904C8349.72,7904 8343,7910.72 8343,7919L8343,7937C8343,7945.28 8349.72,7952 8358,7952L8376,7952C8384.28,7952 8391,7945.28 8391,7937L8391,7919Z" style="fill:rgb(90,157,255);stroke-width:2px;stroke:rgb(90,157,255);"/>
                </g>
                <g transform="matrix(1,0,0,1,0,1)">
                    <g transform="matrix(1,0,0,1,-7668,-7749)">
                        <path d="M8349,8021L8377,8017L8366,8039L8349,8021Z" style="fill:none;stroke-width:3px;stroke-linejoin:miter;stroke:white;"/>
                    </g>
                    <g transform="matrix(1,0,0,1,-7668,-7749)">
                        <path d="M8377,8017L8357,8029L8357,8037L8361,8034" style="fill:none;stroke-width:3px;stroke-linejoin:miter;stroke:white;"/>
                    </g>
                </g>
            </g>
        </g>
    </g>
</svg>
