<?xml version="1.0" encoding="UTF-8" standalone="no"?>
<!DOCTYPE svg PUBLIC "-//W3C//DTD SVG 1.1//EN" "http://www.w3.org/Graphics/SVG/1.1/DTD/svg11.dtd">
<svg width="100%" height="100%" viewBox="0 0 110 78" version="1.1" xmlns="http://www.w3.org/2000/svg" xmlns:xlink="http://www.w3.org/1999/xlink" xml:space="preserve" style="fill-rule:evenodd;clip-rule:evenodd;stroke-linejoin:round;stroke-miterlimit:1.41421;">
    <g transform="matrix(1,0,0,1,-5927,-420)">
        <g transform="matrix(1,-1.50723e-19,-1.86185e-19,2.05997,5315.86,51)">
            <g transform="matrix(0.246113,1.80075e-20,2.22443e-20,0.119474,611.247,179.571)">
                <path d="M185.56,34.04C199.939,19.059 219.96,9.765 242.105,9.765C271.544,9.765 297.221,26.176 310.899,50.542C322.787,45.234 335.94,42.278 349.781,42.278C402.873,42.278 445.917,85.696 445.917,139.252C445.917,192.816 402.873,236.234 349.781,236.234C343.3,236.234 336.969,235.578 330.841,234.346C318.802,255.822 295.851,270.339 269.506,270.339C258.483,270.339 248.056,267.796 238.763,263.261C226.56,291.979 198.11,312.118 164.962,312.118C130.437,312.118 101.011,290.275 89.719,259.637C84.784,260.679 79.666,261.229 74.423,261.229C33.319,261.229 0,227.563 0,186.032C0,158.193 14.962,133.892 37.211,120.889C32.631,110.344 30.088,98.718 30.088,86.489C30.088,38.726 68.866,0.001 116.694,0.001C144.777,0.001 169.733,13.35 185.56,34.04" style="fill:rgb(201,201,201);fill-rule:nonzero;"/>
                <g>
                    <path d="M64.583,161.855C64.301,162.589 64.681,162.74 64.773,162.865C65.612,163.474 66.457,163.913 67.316,164.405C71.864,166.816 76.163,167.517 80.653,167.517C89.801,167.517 95.483,162.655 95.483,154.823L95.483,154.673C95.483,147.43 89.067,144.796 83.058,142.896L82.271,142.646C77.736,141.172 73.824,139.9 73.824,136.912L73.824,136.761C73.824,134.205 76.111,132.324 79.656,132.324C83.595,132.324 88.268,133.635 91.276,135.3C91.276,135.3 92.167,135.87 92.488,135.012C92.665,134.546 94.186,130.45 94.35,130.004C94.52,129.526 94.219,129.166 93.904,128.976C90.463,126.885 85.712,125.456 80.797,125.456L79.886,125.463C71.51,125.463 65.664,130.522 65.664,137.77L65.664,137.921C65.664,145.556 72.113,148.04 78.156,149.764L79.126,150.065C83.53,151.415 87.324,152.582 87.324,155.675L87.324,155.833C87.324,158.663 84.853,160.774 80.882,160.774C79.335,160.774 74.413,160.748 69.098,157.386C68.456,157.005 68.089,156.737 67.591,156.435C67.329,156.271 66.674,155.99 66.385,156.848L64.583,161.855Z" style="fill:white;fill-rule:nonzero;"/>
                    <path d="M198.491,161.855C198.209,162.589 198.589,162.74 198.681,162.865C199.52,163.474 200.365,163.913 201.224,164.405C205.772,166.816 210.071,167.517 214.561,167.517C223.709,167.517 229.391,162.655 229.391,154.823L229.391,154.673C229.391,147.43 222.975,144.796 216.966,142.896L216.179,142.646C211.644,141.172 207.732,139.9 207.732,136.912L207.732,136.761C207.732,134.205 210.019,132.324 213.564,132.324C217.503,132.324 222.176,133.635 225.184,135.3C225.184,135.3 226.075,135.87 226.396,135.012C226.573,134.546 228.094,130.45 228.258,130.004C228.428,129.526 228.127,129.166 227.812,128.976C224.371,126.885 219.627,125.456 214.705,125.456L213.794,125.463C205.418,125.463 199.572,130.522 199.572,137.77L199.572,137.921C199.572,145.556 206.028,148.04 212.064,149.764L213.034,150.065C217.438,151.415 221.239,152.582 221.239,155.675L221.239,155.833C221.239,158.663 218.768,160.774 214.79,160.774C213.243,160.774 208.328,160.748 203.006,157.386C202.364,157.005 201.984,156.75 201.499,156.435C201.335,156.331 200.562,156.029 200.3,156.848L198.491,161.855Z" style="fill:white;fill-rule:nonzero;"/>
                    <path d="M289.907,146.512C289.907,150.936 289.081,154.429 287.456,156.893C285.844,159.331 283.412,160.524 280.024,160.524C276.629,160.524 274.211,159.331 272.625,156.893C271.019,154.429 270.207,150.936 270.207,146.512C270.207,142.095 271.019,138.608 272.618,136.171C274.211,133.759 276.629,132.585 280.024,132.585C283.412,132.585 285.844,133.759 287.456,136.171C289.081,138.608 289.907,142.095 289.907,146.512M297.542,138.307C296.795,135.771 295.622,133.536 294.069,131.675C292.515,129.807 290.543,128.306 288.203,127.218C285.87,126.13 283.117,125.573 280.024,125.573C276.924,125.573 274.165,126.13 271.832,127.218C269.499,128.306 267.526,129.807 265.973,131.681C264.413,133.543 263.247,135.778 262.5,138.307C261.752,140.83 261.372,143.589 261.372,146.512C261.372,149.435 261.752,152.201 262.5,154.717C263.247,157.247 264.413,159.482 265.973,161.35C267.526,163.217 269.505,164.712 271.839,165.773C274.172,166.835 276.924,167.373 280.024,167.373C283.117,167.373 285.863,166.835 288.203,165.773C290.536,164.712 292.509,163.217 294.069,161.35C295.622,159.489 296.795,157.254 297.542,154.717C298.289,152.194 298.669,149.435 298.669,146.512C298.669,143.589 298.289,140.83 297.542,138.307" style="fill:white;fill-rule:nonzero;"/>
                    <path d="M360.242,159.337C359.993,158.597 359.265,158.879 359.265,158.879C358.158,159.305 356.978,159.691 355.713,159.888C354.442,160.091 353.039,160.189 351.532,160.189C347.842,160.189 344.9,159.088 342.796,156.919C340.692,154.743 339.506,151.23 339.519,146.479C339.532,142.16 340.574,138.91 342.449,136.426C344.31,133.962 347.148,132.697 350.923,132.697C354.068,132.697 356.474,133.064 358.99,133.85C358.99,133.85 359.593,134.112 359.875,133.326C360.55,131.464 361.041,130.147 361.756,128.109C361.959,127.526 361.461,127.283 361.277,127.211C360.288,126.824 357.955,126.189 356.185,125.92C354.54,125.671 352.607,125.54 350.457,125.54C347.253,125.54 344.395,126.09 341.951,127.178C339.506,128.26 337.442,129.761 335.797,131.628C334.158,133.496 332.913,135.731 332.087,138.261C331.255,140.784 330.842,143.549 330.842,146.485C330.842,152.816 332.546,157.935 335.921,161.677C339.303,165.445 344.376,167.352 350.995,167.352C354.907,167.352 358.918,166.559 361.808,165.425C361.808,165.425 362.359,165.157 362.116,164.515L360.242,159.337Z" style="fill:white;"/>
                    <path d="M373.602,142.271C373.969,139.813 374.643,137.769 375.693,136.176C377.272,133.758 379.684,132.421 383.078,132.421C386.472,132.421 388.708,133.758 390.32,136.176C391.388,137.775 391.854,139.899 392.037,142.278L373.602,142.271ZM399.304,136.871C398.657,134.42 397.051,131.949 396.001,130.822C394.337,129.026 392.705,127.774 391.094,127.08C388.989,126.175 386.46,125.579 383.688,125.579C380.464,125.579 377.534,126.123 375.155,127.237C372.775,128.351 370.777,129.878 369.203,131.779C367.638,133.673 366.458,135.927 365.705,138.49C364.95,141.033 364.571,143.805 364.571,146.734C364.571,149.716 364.964,152.495 365.744,154.985C366.53,157.508 367.789,159.717 369.486,161.559C371.19,163.407 373.373,164.848 375.988,165.864C378.589,166.867 381.748,167.391 385.371,167.378C392.837,167.358 396.769,165.694 398.388,164.796C398.676,164.632 398.945,164.357 398.611,163.558L396.912,158.826C396.657,158.124 395.943,158.38 395.943,158.38C394.089,159.068 391.467,160.3 385.333,160.287C381.322,160.281 378.352,159.101 376.491,157.246C374.585,155.359 373.64,152.58 373.484,148.655L399.325,148.674C399.325,148.674 400.006,148.667 400.078,147.999C400.104,147.724 400.962,142.691 399.304,136.871" style="fill:white;"/>
                    <path d="M166.606,142.271C166.973,139.813 167.648,137.769 168.69,136.176C170.283,133.758 172.688,132.421 176.083,132.421C179.477,132.421 181.719,133.758 183.331,136.176C184.393,137.775 184.858,139.899 185.041,142.278L166.606,142.271ZM192.309,136.871C191.661,134.42 190.055,131.949 189.006,130.822C187.342,129.026 185.716,127.774 184.098,127.08C181.987,126.175 179.464,125.579 176.699,125.579C173.468,125.579 170.538,126.123 168.159,127.237C165.78,128.351 163.781,129.878 162.208,131.779C160.642,133.673 159.462,135.927 158.709,138.49C157.955,141.033 157.575,143.805 157.575,146.734C157.575,149.716 157.968,152.495 158.748,154.985C159.535,157.508 160.793,159.717 162.49,161.559C164.194,163.407 166.377,164.848 168.992,165.864C171.593,166.867 174.752,167.391 178.376,167.378C185.841,167.358 189.773,165.694 191.392,164.796C191.68,164.632 191.949,164.357 191.615,163.558L189.917,158.826C189.662,158.124 188.947,158.38 188.947,158.38C187.093,159.068 184.471,160.3 178.337,160.287C174.333,160.281 171.357,159.101 169.496,157.246C167.589,155.359 166.645,152.58 166.488,148.655L192.329,148.674C192.329,148.674 193.011,148.667 193.083,147.999C193.109,147.724 193.967,142.691 192.309,136.871" style="fill:white;"/>
                    <path d="M110.74,159.195C109.724,158.389 109.587,158.187 109.252,157.663C108.735,156.869 108.472,155.741 108.472,154.3C108.472,152.032 109.226,150.395 110.779,149.299C110.766,149.299 113.008,147.359 118.277,147.431C121.979,147.478 125.296,148.028 125.296,148.028L125.296,159.779C125.296,159.779 122.012,160.48 118.316,160.704C113.06,161.025 110.72,159.189 110.74,159.195M121.023,141.035C119.974,140.956 118.617,140.918 116.992,140.918C114.777,140.918 112.634,141.193 110.622,141.736C108.603,142.281 106.788,143.119 105.228,144.234C103.655,145.36 102.397,146.796 101.48,148.5C100.562,150.205 100.097,152.21 100.097,154.45C100.097,156.744 100.49,158.73 101.283,160.355C102.069,161.987 103.203,163.35 104.652,164.4C106.087,165.448 107.863,166.214 109.914,166.68C111.946,167.145 114.246,167.381 116.763,167.381C119.417,167.381 122.052,167.158 124.614,166.725C127.15,166.294 130.257,165.664 131.122,165.461C131.98,165.264 132.931,165.002 132.931,165.002C133.573,164.838 133.52,164.157 133.52,164.157L133.507,140.525C133.507,135.333 132.125,131.493 129.405,129.108C126.692,126.735 122.694,125.536 117.53,125.536C115.59,125.536 112.477,125.798 110.602,126.172C110.602,126.172 104.96,127.266 102.64,129.088C102.64,129.088 102.128,129.402 102.404,130.117L104.232,135.032C104.462,135.669 105.084,135.451 105.084,135.451C105.084,135.451 105.281,135.373 105.51,135.235C110.478,132.535 116.769,132.615 116.769,132.615C119.561,132.615 121.711,133.184 123.159,134.285C124.568,135.373 125.283,136.998 125.283,140.445L125.283,141.54C123.067,141.218 121.023,141.035 121.023,141.035" style="fill:white;fill-rule:nonzero;"/>
                    <path d="M329.488,127.717C329.685,127.134 329.272,126.852 329.101,126.787C328.662,126.623 326.46,126.157 324.769,126.046C321.519,125.849 319.716,126.393 318.104,127.121C316.499,127.842 314.723,129.015 313.739,130.345L313.733,127.193C313.733,126.76 313.425,126.413 312.992,126.413L306.367,126.413C305.934,126.413 305.626,126.76 305.626,127.193L305.626,165.748C305.626,166.181 305.973,166.528 306.413,166.528L313.202,166.528C313.635,166.528 313.982,166.181 313.982,165.748L313.982,146.487C313.982,143.898 314.27,141.323 314.841,139.704C315.398,138.098 316.158,136.82 317.102,135.903C318.045,134.985 319.12,134.343 320.3,133.983C321.499,133.615 322.829,133.491 323.76,133.491C325.117,133.491 326.598,133.845 326.598,133.845C327.102,133.897 327.378,133.589 327.548,133.143C327.987,131.964 329.252,128.419 329.488,127.717" style="fill:white;"/>
                    <path d="M265.75,109.85C264.924,109.595 264.177,109.424 263.194,109.247C262.198,109.064 261.018,108.972 259.681,108.972C255.008,108.972 251.325,110.296 248.737,112.904C246.168,115.493 244.418,119.438 243.54,124.622L243.225,126.372L237.36,126.372C237.36,126.372 236.639,126.346 236.494,127.126L235.531,132.5C235.459,133.011 235.682,133.332 236.37,133.332L242.085,133.332L236.285,165.681C235.833,168.282 235.315,170.426 234.738,172.051C234.174,173.657 233.617,174.856 232.936,175.727C232.274,176.567 231.651,177.195 230.57,177.556C229.679,177.851 228.65,177.989 227.529,177.989C226.906,177.989 226.074,177.884 225.458,177.759C224.842,177.641 224.521,177.504 224.062,177.313C224.062,177.313 223.394,177.058 223.125,177.727C222.915,178.277 221.395,182.465 221.211,182.983C221.028,183.494 221.283,183.893 221.611,184.011C222.371,184.28 222.935,184.457 223.97,184.699C225.412,185.04 226.625,185.06 227.758,185.06C230.137,185.06 232.307,184.726 234.102,184.077C235.911,183.421 237.484,182.281 238.88,180.748C240.381,179.083 241.331,177.34 242.235,174.961C243.133,172.608 243.894,169.685 244.51,166.277L250.329,133.332L258.842,133.332C258.842,133.332 259.563,133.358 259.707,132.578L260.671,127.204C260.736,126.693 260.52,126.372 259.832,126.372L251.568,126.372C251.607,126.189 251.981,123.279 252.931,120.546C253.337,119.372 254.098,118.436 254.746,117.787C255.376,117.151 256.11,116.699 256.909,116.436C257.728,116.174 258.659,116.043 259.681,116.043C260.461,116.043 261.221,116.135 261.805,116.253C262.604,116.424 262.919,116.515 263.129,116.574C263.967,116.836 264.079,116.587 264.249,116.181L266.222,110.754C266.425,110.171 265.934,109.922 265.75,109.85" style="fill:white;"/>
                    <path d="M150.283,165.748C150.283,166.181 149.975,166.535 149.542,166.535L142.687,166.535C142.255,166.535 141.947,166.181 141.947,165.748L141.947,110.586C141.947,110.154 142.255,109.806 142.687,109.806L149.542,109.806C149.975,109.806 150.283,110.154 150.283,110.586L150.283,165.748Z" style="fill:white;"/>
                </g>
            </g>
        </g>
    </g>
</svg>
