<?xml version="1.0" encoding="UTF-8" standalone="no"?>
<svg width="13px" height="20px" viewBox="0 0 13 20" version="1.1" xmlns="http://www.w3.org/2000/svg" xmlns:xlink="http://www.w3.org/1999/xlink">
    <!-- Generator: sketchtool 41.2 (35397) - http://www.bohemiancoding.com/sketch -->
    <title>3033ADFF-B181-40BF-8A83-AF20F59C0742</title>
    <desc>Created with sketchtool.</desc>
    <defs></defs>
    <g id="Page-1" stroke="none" stroke-width="1" fill="none" fill-rule="evenodd">
        <g id="Create-Personal-Event" transform="translate(-782.000000, -274.000000)" fill="#CECECF">
            <g id="create-event" transform="translate(960.000000, 540.000000) rotate(0.000000) translate(-960.000000, -540.000000) ">
                <g id="Clipped">
                    <g id="Group" transform="translate(0.000000, -0.950704)">
                        <g id="Group-2" transform="translate(781.469183, 274.782738)">
                            <path d="M0.995397312,4.40717931 C1.28995366,3.64641017 1.69623828,2.98721234 2.23456539,2.42958583 C2.7627354,1.87297503 3.40263367,1.43723409 4.15426021,1.12439445 C4.91604387,0.812570512 5.74892733,0.657166401 6.68338195,0.657166401 C7.88192157,0.657166401 8.87731888,0.820696217 9.679731,1.14877156 C10.4821431,1.47989404 11.1321985,1.88922644 11.61974,2.37981589 C12.1072816,2.86837391 12.4627806,3.39756045 12.6659229,3.96331267 C12.8792224,4.52906489 12.9909506,5.05622001 12.9909506,5.54680945 C12.9909506,6.35836425 12.8792224,7.02467207 12.6659229,7.54776434 C12.4627806,8.07187232 12.1986956,8.52081753 11.883825,8.89256854 C11.5791116,9.26330383 11.2236125,9.58122205 10.8477993,9.8402289 C10.471986,10.1043143 10.1063298,10.3653526 9.77114504,10.6274066 C9.43596023,10.8884449 9.13124677,11.1901117 8.86716177,11.5263127 C8.61323388,11.8655609 8.44056292,12.2860661 8.37962023,12.7939227 L8.37962023,13.7568188 L4.95667233,13.7568188 L4.95667233,12.6161729 C5.0074579,11.889938 5.14965752,11.2825416 5.37311406,10.7919521 C5.5965706,10.3023784 5.87081272,9.88390456 6.17552618,9.53754638 C6.48023964,9.1911882 6.79511022,8.89256854 7.13029503,8.63965596 C7.47563695,8.38369625 7.79050753,8.13281511 8.07490676,7.87888682 C8.35930599,7.62495854 8.59291965,7.34563743 8.77574773,7.0419392 C8.94841869,6.73824097 9.02967561,6.35836425 9.00936138,5.90230905 C9.00936138,5.12325708 8.81637619,4.54937915 8.44056292,4.17762814 C8.06474965,3.80689285 7.53657964,3.62000163 6.85605291,3.62000163 C6.39898272,3.62000163 6.01301233,3.7104001 5.67782752,3.88611847 C5.35279983,4.06488398 5.07855771,4.30154515 4.86525829,4.59813338 C4.65195886,4.89269019 4.49960213,5.23803266 4.39803098,5.6351765 C4.29645982,6.03130462 4.24567425,6.45790414 4.24567425,6.91497505 L0.518012887,6.91497505 C0.538327117,6.00286465 0.700840964,5.16794845 0.995397312,4.40717931 Z" id="Shape"></path>
                            <path d="M8.58276253,17.2650919 C8.58276253,18.3640936 7.68893638,19.254874 6.59196791,19.254874 C5.49499944,19.254874 4.60117329,18.3640936 4.60117329,17.2650919 C4.60117329,16.1681218 5.49499944,15.2763256 6.59196791,15.2763256 C7.68893638,15.2763256 8.58276253,16.1681218 8.58276253,17.2650919 Z" id="Shape"></path>
                        </g>
                    </g>
                </g>
            </g>
        </g>
    </g>
</svg>