<?xml version="1.0" encoding="UTF-8" standalone="no"?>
<!DOCTYPE svg PUBLIC "-//W3C//DTD SVG 1.1//EN" "http://www.w3.org/Graphics/SVG/1.1/DTD/svg11.dtd">
<svg xmlns="http://www.w3.org/2000/svg" width="100%" height="100%" viewBox="0 0 115 115" version="1.1" style="fill-rule:evenodd;clip-rule:evenodd;stroke-linejoin:round;stroke-miterlimit:1.41421;">
  <rect x="0" y="0" width="114.338" height="114.289" style="fill:#f4f5f6;"/>
  <path d="M99.469,18.356l-84.6,0c-2.599,0 -4.7,2.101 -4.7,4.7l0,65.8c0,2.595 2.101,4.7 4.7,4.7l84.6,0c2.599,0 4.7,-2.105 4.7,-4.7l0,-65.8c0,-2.594 -2.101,-4.7 -4.7,-4.7Zm-4.7,65.8l-75.2,0l0,-56.4l75.2,0l0,56.4Zm-17.32,-24.078l-15.185,7.544l-17.719,-28.675l-15.576,35.809l56.4,0l-7.92,-14.678Zm-5.005,-8.822c3.243,0 5.875,-2.632 5.875,-5.875c0,-3.243 -2.632,-5.875 -5.875,-5.875c-3.243,0 -5.875,2.632 -5.875,5.875c0,3.243 2.632,5.875 5.875,5.875Z" style="fill:#ccc;"/>
</svg>
