<?xml version="1.0" encoding="UTF-8" standalone="no"?><!DOCTYPE svg PUBLIC "-//W3C//DTD SVG 1.1//EN" "http://www.w3.org/Graphics/SVG/1.1/DTD/svg11.dtd"><svg width="100%" height="100%" viewBox="0 0 22 23" version="1.1" xmlns="http://www.w3.org/2000/svg" xmlns:xlink="http://www.w3.org/1999/xlink" xml:space="preserve" style="fill-rule:evenodd;clip-rule:evenodd;stroke-linejoin:round;stroke-miterlimit:1.41421;"><g><path d="M12.51,0.629l0,21.984l-12.213,-2.687l0,-16.609l12.213,-2.688Z" style="fill:#2a3181;"/><path d="M21.059,20.782l-10.381,0l0,-18.32l10.381,0c0,6.106 0,12.213 0,18.32Zm-9.16,-17.099l0,15.877l7.939,0l0,-15.877c-2.646,0 -5.293,0 -7.939,0Z" style="fill:#2a3181;fill-rule:nonzero;"/><g><rect x="11.899" y="6.125" width="6.107" height="1.221" style="fill:#2a3181;fill-rule:nonzero;"/><rect x="11.899" y="8.568" width="6.107" height="1.221" style="fill:#2a3181;fill-rule:nonzero;"/><rect x="11.899" y="11.011" width="6.107" height="1.221" style="fill:#2a3181;fill-rule:nonzero;"/><rect x="11.899" y="13.453" width="6.107" height="1.221" style="fill:#2a3181;fill-rule:nonzero;"/><rect x="11.899" y="15.896" width="6.107" height="1.221" style="fill:#2a3181;fill-rule:nonzero;"/></g><path d="M8.983,14.971l-1.474,0l-0.826,-3.206c-0.031,-0.115 -0.083,-0.35 -0.157,-0.708c-0.073,-0.358 -0.116,-0.598 -0.127,-0.72c-0.017,0.15 -0.058,0.392 -0.125,0.724c-0.067,0.333 -0.118,0.57 -0.155,0.712l-0.822,3.198l-1.469,0l-1.558,-6.104l1.274,0l0.78,3.332c0.137,0.615 0.235,1.148 0.297,1.599c0.016,-0.159 0.055,-0.405 0.115,-0.737c0.059,-0.333 0.116,-0.591 0.169,-0.775l0.889,-3.419l1.223,0l0.889,3.419c0.039,0.153 0.088,0.387 0.146,0.702c0.059,0.314 0.103,0.584 0.134,0.81c0.028,-0.218 0.072,-0.488 0.133,-0.812c0.062,-0.325 0.117,-0.587 0.167,-0.787l0.777,-3.332l1.273,0l-1.553,6.104Z" style="fill:#fff;fill-rule:nonzero;"/></g></svg>