<?xml version="1.0" encoding="UTF-8" standalone="no"?><!DOCTYPE svg PUBLIC "-//W3C//DTD SVG 1.1//EN" "http://www.w3.org/Graphics/SVG/1.1/DTD/svg11.dtd"><svg width="100%" height="100%" viewBox="0 0 22 23" version="1.1" xmlns="http://www.w3.org/2000/svg" xmlns:xlink="http://www.w3.org/1999/xlink" xml:space="preserve" style="fill-rule:evenodd;clip-rule:evenodd;stroke-linejoin:round;stroke-miterlimit:1.41421;"><g><path d="M12.51,0.26l0,21.984l-12.213,-2.687l0,-16.61l12.213,-2.687Z" style="fill:#dc5b24;"/><path d="M21.059,20.413l-10.381,0l0,-18.32l10.381,0c0,6.106 0,12.213 0,18.32Zm-9.16,-17.099l0,15.877l7.939,0l0,-15.877c-2.646,0 -5.293,0 -7.939,0Z" style="fill:#dc5b24;fill-rule:nonzero;"/><g><rect x="11.899" y="13.084" width="6.107" height="1.221" style="fill:#dc5b24;fill-rule:nonzero;"/><rect x="11.899" y="15.527" width="6.107" height="1.221" style="fill:#dc5b24;fill-rule:nonzero;"/></g><path d="M5.692,10.909l0.487,0c0.455,0 0.795,-0.09 1.021,-0.27c0.226,-0.18 0.339,-0.441 0.339,-0.785c0,-0.346 -0.095,-0.602 -0.284,-0.768c-0.189,-0.165 -0.486,-0.248 -0.89,-0.248l-0.673,0l0,2.071Zm3.34,-1.107c0,0.75 -0.235,1.325 -0.704,1.722c-0.469,0.398 -1.136,0.596 -2.001,0.596l-0.635,0l0,2.481l-1.479,0l0,-6.975l2.228,0c0.846,0 1.49,0.182 1.93,0.547c0.441,0.364 0.661,0.907 0.661,1.629Z" style="fill:#fff;fill-rule:nonzero;"/><path d="M13.731,5.146c-1.686,0 -3.053,1.367 -3.053,3.053c0,1.685 1.368,3.053 3.053,3.053c1.687,0 3.054,-1.367 3.054,-3.053l-3.054,0l0,-3.053Z" style="fill:#dc5b24;"/><path d="M17.395,7.588c0,-1.686 -1.367,-3.053 -3.053,-3.053l0,3.053l3.053,0Z" style="fill:#dc5b24;"/></g></svg>