<svg width="21" height="25" viewBox="0 0 21 25" xmlns="http://www.w3.org/2000/svg" xmlns:xlink="http://www.w3.org/1999/xlink"><title>FE160213-10B3-42E9-A02F-7B0353DDDFAC</title><defs><rect id="a" x="2" width="21" height="25" rx="3"/><mask id="b" x="0" y="0" width="21" height="25" fill="#fff"><use xlink:href="#a"/></mask></defs><g transform="translate(-2)" fill="none" fill-rule="evenodd"><path d="M0 0h25v25H0z"/><use stroke="#9A9A9A" mask="url(#b)" stroke-width="4" xlink:href="#a"/><path d="M8.344 7.863c.213-.581.506-1.084.895-1.51a4.003 4.003 0 0 1 1.385-.996A4.52 4.52 0 0 1 12.449 5c.865 0 1.583.125 2.162.375.579.253 1.048.566 1.4.94.351.373.608.777.754 1.209.154.432.235.834.235 1.209 0 .62-.08 1.128-.235 1.527a3.63 3.63 0 0 1-.564 1.027c-.22.283-.476.525-.747.723-.272.202-.535.401-.777.601-.242.2-.462.43-.653.686-.183.26-.307.58-.351.968V15h-2.47v-.87c.036-.555.139-1.019.3-1.393.161-.374.36-.694.58-.958.22-.264.446-.492.688-.685.25-.196.477-.387.682-.581.205-.194.374-.407.505-.639.125-.232.184-.522.169-.87 0-.595-.14-1.033-.41-1.317-.272-.283-.653-.425-1.144-.425-.33 0-.608.069-.85.203a1.787 1.787 0 0 0-.586.543 2.37 2.37 0 0 0-.337.792 4.14 4.14 0 0 0-.11.977H8a5.895 5.895 0 0 1 .344-1.914zM14 18.5c0 .828-.673 1.5-1.5 1.5s-1.5-.672-1.5-1.5.673-1.5 1.5-1.5 1.5.672 1.5 1.5z" fill="#9A9A9A"/></g></svg>