<svg viewBox="0 0 37 37" xmlns="http://www.w3.org/2000/svg" fill-rule="evenodd" clip-rule="evenodd" stroke-miterlimit="1.414">
  <path d="M28.005.273l.116.002.12.004h.36l.12.01.11.01.12.01.11.01.11.01.12.01.11.02.11.02.11.02.11.02.11.02.11.02.11.02.11.03.11.03.11.03.11.03.11.03.11.03.11.03.1.04.1.03.11.04.1.04.1.04.11.04.1.04.1.04.1.04.1.04.1.05.1.05.1.05.1.05.1.05.1.05.1.05.1.06.1.05.09.06.09.06.09.06.09.06.09.06.09.06.09.06.09.06.09.06.08.06.09.07.09.07.08.07.08.07.08.07.08.07.08.07.08.07.08.08.08.08.08.07.07.08.07.08.07.08.07.08.07.08.07.08.07.09.07.084.06.09.07.09.06.08.06.09.06.09.06.09.06.09.06.09.06.09.06.09.06.09.056.09.06.1.06.09.05.096.05.1.05.093.05.09.04.1.05.1.05.1.04.1.04.1.04.1.04.11.04.11.04.102.04.102.034.11.03.102.03.11.03.103.03.11.03.11.03.11.03.11.03.11.02.11.02.11.02.11.02.11.02.11.013.11.02.11.01.11.01.11.01.12.01.12.01.11.01.11v18.96l-.006.11-.01.11-.01.11-.01.113-.01.115-.02.11-.02.11-.02.11-.02.11-.017.11-.02.11-.02.11-.02.11-.02.11-.02.11-.02.11-.03.106-.03.11-.03.11-.03.1-.04.108-.03.107-.03.108-.036.11-.04.11-.04.1-.04.1-.04.105-.04.1-.05.1-.042.1-.047.1-.042.1-.05.1-.05.1-.05.1-.05.1-.06.097-.053.1-.054.09-.054.1-.06.09-.06.09-.06.09-.06.09-.06.09-.06.09-.06.09-.064.09-.06.08-.066.09-.06.08-.07.09-.07.09-.07.08-.07.08-.07.08-.07.08-.073.08-.076.08-.08.08-.08.08-.08.07-.08.08-.08.07-.08.07-.08.07-.08.07-.08.07-.09.07-.083.07-.09.07-.09.07-.09.07-.09.06-.09.07-.09.06-.09.06-.09.06-.1.06-.09.06-.09.06-.09.055-.09.057-.094.05-.1.05-.1.05-.1.05-.1.05-.1.043-.1.045-.1.05-.1.04-.1.04-.1.04-.1.04-.1.04-.1.04-.1.04-.1.04-.1.03-.105.03-.11.03-.1.03-.11.03-.11.03-.11.03-.11.02-.11.02-.11.02-.11.02-.116.02-.11.02-.11.01-.12.02-.114.02-.12.02-.11.01-.11.01-.113.01-.12.01h-.113l-.12.006H9.34l-.115-.01-.115-.01-.114-.01-.114-.01-.12-.01-.12-.01-.11-.02-.12-.02-.11-.02-.11-.02-.11-.02-.11-.02-.11-.027-.11-.02-.11-.03-.11-.02-.11-.03-.11-.03L7.2 36l-.11-.03-.1-.02-.11-.03-.11-.037-.1-.04-.11-.04-.11-.04-.11-.04-.1-.04-.1-.05-.1-.042-.1-.04-.1-.04-.1-.05-.1-.05-.1-.05-.09-.05-.09-.05-.1-.05-.1-.05-.1-.05-.09-.07-.09-.06-.09-.06-.09-.06-.09-.06-.09-.06-.09-.06-.09-.06-.09-.07-.09-.06-.086-.06-.084-.07-.085-.07-.08-.07-.08-.07-.08-.07-.08-.07-.08-.07-.076-.08-.08-.07-.08-.08-.08-.08-.08-.08-.07-.08-.07-.08-.08-.08-.07-.08-.07-.08-.07-.08-.07-.08-.07-.08-.07-.09-.07-.09-.07-.09-.07-.08-.07-.09-.06-.09-.06-.09-.06-.1L2 32.1V32l-.056-.094-.054-.093-.053-.094-.05-.1-.05-.1-.048-.1-.05-.1-.05-.1-.05-.1-.04-.1-.05-.1-.04-.1-.04-.11-.04-.1-.04-.11-.04-.1-.04-.11-.04-.11-.04-.11-.03-.11-.03-.11-.03-.11-.03-.11-.03-.1-.03-.11-.03-.11-.03-.11-.02-.11V29l-.02-.11-.02-.112-.02-.113-.02-.113-.02-.114-.01-.114-.01-.114-.01-.114-.01-.115-.01-.11-.01-.11V9.2l.01-.118v-.11l.01-.12v-.114l.01-.115.01-.115.01-.114.01-.113.02-.11.01-.11.01-.11.02-.12.02-.11.02-.11.03-.11.03-.11.02-.11.03-.11.02-.11.03-.11.03-.11.03-.11.03-.1.03-.1.03-.1.03-.1.04-.1.04-.1.03-.1.04-.1.04-.1.04-.1.05-.11.05-.1.05-.1.05-.1.05-.1.05-.1.05-.1.05-.09.05-.09.05-.1.05-.09.06-.1.06-.09.05-.09.06-.09.06-.09.06-.09.08-.1.06-.09.062-.08.067-.09.07-.08.07-.09.07-.08.07-.08.07-.08.07-.08.08-.08.08-.08.07-.09.08-.08.08-.08.08-.07.08-.08.08-.08.08-.07.08-.07.08-.07.09-.07.08-.07.09-.06.085-.06.09-.07.09-.07.09-.06.09-.06.09-.062.09-.06.09-.06.09-.06.09-.06.09-.055.09-.06.09-.05.09-.05.1-.05.1-.05.1-.05.1-.05.1-.04.1-.04.1-.04.1-.04.1-.04.1-.02.1-.04.11-.04.12-.03.11-.03.1-.03.11-.04.11-.03.1-.03.1-.03L7.5.6l.11-.03.11-.02.11-.02.11-.03.11-.02.11-.02.11-.02.11-.02L8.5.4l.11-.02.12-.013.11-.01.11-.01.12-.01h.48L9.67.3H28zm-18.195 2h-.188l-.092.004-.09.004-.09.01-.09.01-.09.01-.088.01-.09.01-.087.01-.088.01-.087.02-.087.02-.087.02-.087.02-.09.02-.09.02-.09.02-.09.02-.09.02-.09.03-.09.03-.08.03-.08.03-.08.03-.08.03-.08.03-.08.03-.08.03-.08.03-.08.04-.08.04-.08.04-.08.03L6.8 3l-.07.02-.07.02-.08.04-.07.04-.07.04-.08.04-.08.04-.08.04-.07.05-.07.042-.07.05-.07.05-.07.05-.07.05-.07.05-.07.05-.07.05-.07.06-.07.05-.07.05-.06.06-.07.055-.06.056-.07.05-.07.057-.06.05-.06.06-.06.06-.06.06-.06.06-.06.06-.06.06-.06.066-.06.07-.06.07-.058.066-.05.06-.057.062-.05.06-.05.07-.05.07-.05.07-.05.068-.05.07-.05.07-.05.07-.046.07-.05.07-.05.07-.04.075-.05.075-.05.075-.04.08-.04.074-.04.08-.04.08-.04.08-.04.08-.04.08-.04.08-.04.08-.04.08-.03.08-.03.08-.03.08-.03.08-.03.08-.02.08L3 7.3l-.02.08-.02.08-.02.08-.02.09-.02.08-.02.09-.02.09-.02.09-.02.09-.02.087-.014.086-.02.09-.01.09-.02.09-.01.09-.01.09-.01.09v.09l-.01.09v.18l-.007.09v18.5l.01.09.01.09v.18l.01.09.01.09.01.08.01.08.01.09.02.08.02.08.01.09.01.09.01.09.02.084.02.08.02.09.02.08.03.083.02.08.02.087.02.08.02.09.03.08.03.08.03.08.03.078.03.08.03.08.03.08.03.08.036.08.035.07.04.07.04.077.04.07.04.08.04.07.045.08.04.078.046.07.05.077.048.07.05.07.05.07.05.07.05.07.05.07.05.07.05.068.05.065.05.07.05.07.05.064.05.06.05.06.05.06.06.06.06.06.06.06.06.06.06.06.06.06.06.06.07.054.06.05.064.06.064.05.062.056.07.05.06.05.07.05.07.05.07.05.07.05.07.05.07.05.07.04.07.05.07.04.078.046.07.04.08.04.076.04.08.04.08.04.07.04.074.04.08.036.075.04.08.04.08.03.08.035.08.03.08.03.08.03.08.03.08.03.08.03.09.03.09.02.09.02.088.02.084.03.09.02.08.02.086.02.085.02.09.02.08.01.08.02.09.02.08.015.08.01.09.01.09.01.09.01.09.01.09.006h.09l.09.01.09.004H28.1l.096-.008.09-.01.09-.006.083-.01.09-.01.09-.01.09-.01.09-.018.09-.013.09-.018.08-.02.08-.02.09-.02.08-.02.08-.02.08-.02.08-.02.08-.03.08-.026.08-.03.08-.03.08-.02.08-.03.08-.03.08-.03.08-.03.08-.03.08-.03.08-.03.07-.03.08-.036.08-.04.08-.03.08-.04.08-.04.08-.04.072-.04.08-.04.07-.04.07-.04.07-.045.07-.05.08-.045.07-.045.07-.05.07-.04.07-.05L32 33l.062-.05.07-.05.07-.05.062-.05.065-.055.06-.056.06-.06.06-.06.06-.05.06-.06.06-.06.06-.06.06-.06.06-.06.06-.06.05-.06.05-.07.06-.06.05-.06.06-.06.05-.06.05-.07.05-.07.05-.07.05-.07.05-.07.05-.07.05-.07.04-.07.05-.07.05-.07.05-.07.04-.08.05-.07.04-.07.04-.08.04-.08.04-.08.04-.08.04-.08.04-.08.04-.08.04-.08.04-.08.03-.08.03-.08.03-.08.03-.08.03-.08.03-.08.03-.08.02-.08.03-.08.02-.08.02-.08.02-.09.02-.08.02-.08.02-.09.02-.09.01-.09.01-.09.01-.08.01-.09.01-.08.01-.09.01-.09.01-.09.01-.09.01-.09v-.09l.01-.09.002-.09.01-.09.007-.09v-.09l.006-.09V8.95l-.008-.092v-.09l-.01-.088-.01-.09-.01-.088-.01-.088-.01-.09-.01-.086-.01-.087-.02-.08-.02-.08-.01-.08-.02-.08-.02-.09-.02-.08-.03-.08-.02-.08-.02-.08-.02-.08-.03-.08-.026-.08-.03-.08-.026-.08-.03-.08-.03-.08-.03-.08-.03-.08-.03-.07-.04-.08-.04-.08-.03-.08-.04-.08-.04-.07-.04-.07-.04-.07-.04-.08-.04-.07-.05-.07-.05-.07-.04-.07-.04-.07-.05-.07-.04-.07-.05-.07-.04-.07-.05-.07-.05-.06-.05-.07-.05-.07-.05-.07-.056-.07-.05-.06-.05-.06-.06-.06-.05-.06-.05-.07-.05-.06-.054-.06-.06-.06-.06-.06-.06-.06-.06-.06-.06-.06-.06-.05-.06-.06-.06-.05L32.4 4l-.063-.06-.066-.05-.06-.05-.06-.05-.06-.05-.07-.05-.07-.05-.06-.05-.07-.044-.07-.05-.07-.04-.07-.05-.07-.045-.07-.05-.07-.04-.07-.04-.08-.04-.07-.04-.07-.04-.08-.04-.06-.06-.08-.03-.07-.04-.08-.03-.07-.03-.08-.03-.08-.03-.08-.03-.08-.03-.08-.03-.08-.02-.08-.03-.08-.02-.08-.02-.08-.02-.09-.02-.08-.02-.08-.02-.08-.02-.08-.02-.08-.02-.08-.01-.08-.01-.09-.01-.07-.04-.08-.01-.09-.01-.09-.01-.09-.01-.09-.01-.09-.003-.09-.01h-.18l-.09-.003H9.81z" fill="#5a9dff"/>
  <g fill="none" stroke="#5a9dff" stroke-width="2">
    <circle cx="18.854" cy="14.541" r="7.867"/>
    <path d="M7.85 34.898s.542-12.49 11.004-12.49 10.99 12.49 10.99 12.49"/>
  </g>
</svg>
