<?xml version="1.0" encoding="UTF-8" standalone="no"?><!DOCTYPE svg PUBLIC "-//W3C//DTD SVG 1.1//EN" "http://www.w3.org/Graphics/SVG/1.1/DTD/svg11.dtd"><svg width="100%" height="100%" viewBox="0 0 22 23" version="1.1" xmlns="http://www.w3.org/2000/svg" xmlns:xlink="http://www.w3.org/1999/xlink" xml:space="preserve" style="fill-rule:evenodd;clip-rule:evenodd;stroke-linejoin:round;stroke-miterlimit:1.41421;"><g><path d="M12.51,0.738l0,21.984l-12.213,-2.687l0,-16.61l12.213,-2.687Z" style="fill:#007334;"/><path d="M21.059,20.89l-10.381,0l0,-18.32l10.381,0c0,6.107 0,12.213 0,18.32Zm-9.16,-17.099l0,15.878l7.939,0l0,-15.878c-2.646,0 -5.293,0 -7.939,0Z" style="fill:#007334;fill-rule:nonzero;"/><g><rect x="15.563" y="6.234" width="2.443" height="1.221" style="fill:#007334;fill-rule:nonzero;"/><rect x="15.563" y="8.677" width="2.443" height="1.221" style="fill:#007334;fill-rule:nonzero;"/><rect x="15.563" y="11.12" width="2.443" height="1.221" style="fill:#007334;fill-rule:nonzero;"/><rect x="15.563" y="13.562" width="2.443" height="1.221" style="fill:#007334;fill-rule:nonzero;"/><rect x="15.563" y="16.005" width="2.443" height="1.221" style="fill:#007334;fill-rule:nonzero;"/><rect x="11.899" y="6.234" width="2.443" height="1.221" style="fill:#007334;fill-rule:nonzero;"/><rect x="11.899" y="8.677" width="2.443" height="1.221" style="fill:#007334;fill-rule:nonzero;"/><rect x="11.899" y="11.12" width="2.443" height="1.221" style="fill:#007334;fill-rule:nonzero;"/><rect x="11.899" y="13.562" width="2.443" height="1.221" style="fill:#007334;fill-rule:nonzero;"/><rect x="11.899" y="16.005" width="2.443" height="1.221" style="fill:#007334;fill-rule:nonzero;"/></g><path d="M9.254,15.079l-1.477,0l-1.42,-2.308l-1.419,2.308l-1.386,0l2.025,-3.147l-1.896,-2.956l1.428,0l1.315,2.196l1.29,-2.196l1.394,0l-1.916,3.027l2.062,3.076Z" style="fill:#fff;fill-rule:nonzero;"/></g></svg>