<?xml version="1.0" encoding="UTF-8" standalone="no"?><!DOCTYPE svg PUBLIC "-//W3C//DTD SVG 1.1//EN" "http://www.w3.org/Graphics/SVG/1.1/DTD/svg11.dtd"><svg width="100%" height="100%" viewBox="0 0 23 29" version="1.1" xmlns="http://www.w3.org/2000/svg" xmlns:xlink="http://www.w3.org/1999/xlink" xml:space="preserve" style="fill-rule:evenodd;clip-rule:evenodd;stroke-linejoin:round;stroke-miterlimit:1.41421;"><g><g><path d="M16.563,1.362l0,3.053c0,1.145 0.687,1.832 1.832,1.832l3.054,0" style="fill:none;stroke:#e61b35;stroke-width:2px;"/><path d="M16.563,1.362l-12.824,0c-1.145,0 -1.832,0.686 -1.832,1.832l0,21.984c0,1.145 0.687,1.832 1.832,1.832l15.878,0c1.145,0 1.832,-0.687 1.832,-1.832l0,-18.931l-4.886,-4.885Z" style="fill:none;stroke:#e61b35;stroke-width:2px;"/></g><path d="M5.15,20.882c0.891,0.936 2.548,-0.331 5.017,-5.885c2.469,-5.554 1.562,-7.333 0.557,-7.185c-1.004,0.148 -1.789,2.07 1.301,6.132c3.09,4.063 6.279,4.166 6.442,2.664c0.162,-1.503 -4.316,-0.831 -6.915,0.185c-2.599,1.017 -7.628,2.801 -6.402,4.089Z" style="fill:none;stroke:#e61b35;stroke-width:2px;stroke-linejoin:miter;"/></g></svg>