<svg width="218" height="67" viewBox="0 0 218 67" xmlns="http://www.w3.org/2000/svg"><title>515112D7-42D2-4EC8-A76D-3AA209104027</title><g fill="#030404" fill-rule="evenodd"><path d="M20.81 0h.416-.417M170.436 51.527h8.919V2.973h-8.919zM63.514 31.14c-.068-3.734-1.559-6.71-5.694-6.71-3.796 0-5.966 2.366-6.575 6.71h12.27zm-3.796 14.659c4.474 0 6.982-1.439 8.61-2.254l2.914 5.783c-2.169 1.221-5.559 3.19-12.338 3.19-11.05 0-17.286-6.99-17.286-17.51 0-10.452 7.186-17.172 16.337-17.172 10.304 0 15.32 7.35 14.236 19.566H51.245c.406 5.09 2.982 8.397 8.473 8.397zM93.54 52.518c-10.672 0-17.24-7.059-17.24-17.307 0-11.13 7.457-17.375 17.513-17.375 5.405 0 8.62 1.63 10.193 2.647l-2.94 5.866c-1.507-.95-3.627-1.968-6.98-1.968-5.336 0-8.14 4.45-8.14 10.559 0 6.108 2.668 10.836 8.346 10.836 3.831 0 5.923-1.588 6.949-2.2l2.804 5.793c-1.573 1.018-4.417 3.15-10.506 3.15M116.913 18.827v20.274c0 3.309 1.138 4.997 4.352 4.997 3.415 0 6.026-3.309 6.695-4.12v-21.15h8.906v23.427c0 4.186.468 7.494.87 9.452h-8.771c-.268-.877-.603-3.037-.67-4.388-1.74 2.228-5.088 5.2-10.511 5.2-7.164 0-9.775-4.66-9.775-10.668V18.827h8.904M164.307 26.546c-.542-.337-1.557-.743-3.453-.743-3.995 0-6.364 3.511-7.177 4.997v20.727h-9.004v-32.88h9.004v4.455c1.422-2.43 4.13-5.266 8.328-5.266 2.437 0 3.723.473 4.468.878l-2.166 7.832M208.126 18.827l-6.311 21.552-7.608-21.552h-9.762l12.502 30.19c-2.103 8.248-4.171 10.705-8.851 10.705-1.996 0-3.114-.315-3.596-.454l-1.182 6.306c.688.21 2.549.817 5.37.817 9.154 0 13.174-6.02 16.133-13.987l9.969-25.291 3.21-8.286h-9.874M32.99 37.246c-2.353-3.637-4.106-6.037-5.326-6.99 6.12-1.54 12.17-6.633 12.17-14.94C39.835 5.136 32.81.279 21.69.276h-.012C11.865.278 6.194 4.88 4.868 12.86H0l9.73 8.223 10.286-8.223H14.49s.044-5.713 7.317-5.713c6.208 0 8.328 4.497 8.328 8.237 0 5.45-2.899 9.578-9.847 9.578H4.856l-.006 26.52h9.734v-19.96h.032c2.141 0 4.224.79 7.817 6.079L31.1 51.48h10.832L32.99 37.246"/></g></svg>