<?xml version="1.0" encoding="UTF-8" standalone="no"?><!DOCTYPE svg PUBLIC "-//W3C//DTD SVG 1.1//EN" "http://www.w3.org/Graphics/SVG/1.1/DTD/svg11.dtd"><svg width="100%" height="100%" viewBox="0 0 115 87" version="1.1" xmlns="http://www.w3.org/2000/svg" xmlns:xlink="http://www.w3.org/1999/xlink" xml:space="preserve" style="fill-rule:evenodd;clip-rule:evenodd;stroke-linejoin:round;stroke-miterlimit:1.41421;"><g><g><path d="M112.254,0.969c1.309,0 2.372,1.063 2.372,2.372l0,80.648c0,1.309 -1.063,2.372 -2.372,2.372l-109.112,0c-1.309,0 -2.372,-1.063 -2.372,-2.372l0,-80.648c0,-1.309 1.063,-2.372 2.372,-2.372l109.112,0Zm-11.86,68.788l0,-9.488l-42.696,0l0,9.488l42.696,0Zm0,-21.348l0,-9.488l-42.696,0l0,9.488l42.696,0Zm-56.928,-33.208l-26.092,0l0,26.092l26.092,0l0,-26.092Z" style="fill:#f4f5f6;"/></g></g></svg>