<?xml version="1.0" encoding="UTF-8" standalone="no"?>
<!DOCTYPE svg PUBLIC "-//W3C//DTD SVG 1.1//EN" "http://www.w3.org/Graphics/SVG/1.1/DTD/svg11.dtd">
<svg width="100%" height="100%" viewBox="0 0 24 20" version="1.1" xmlns="http://www.w3.org/2000/svg" xmlns:xlink="http://www.w3.org/1999/xlink" xml:space="preserve" style="fill-rule:evenodd;clip-rule:evenodd;stroke-linejoin:round;stroke-miterlimit:1.41421;">
    <g transform="matrix(1,0,0,1,-8361,-5390)">
        <g transform="matrix(0.998959,-2.42305e-19,-2.54869e-19,0.950704,6902,5203)">
            <g>
                <g transform="matrix(-1.69449e-16,-1.36122,0.556134,-1.14318e-16,1356.56,2247)">
                    <path d="M1497.98,188.101C1498.28,187.477 1498.73,187.477 1499.02,188.101C1500.29,190.789 1503.59,197.769 1505.52,201.868C1505.76,202.368 1505.84,203.155 1505.72,203.849C1505.61,204.543 1505.32,205 1505,205C1501.73,205 1495.27,205 1492,205C1491.68,205 1491.39,204.543 1491.28,203.849C1491.16,203.155 1491.24,202.368 1491.48,201.868C1493.41,197.769 1496.71,190.789 1497.98,188.101Z" style="fill:rgb(77,77,77);fill-opacity:0.2;"/>
                </g>
                <g transform="matrix(-1.69449e-16,-1.36122,0.556134,-1.14318e-16,1370.58,2247)">
                    <path d="M1497.98,188.101C1498.28,187.477 1498.73,187.477 1499.02,188.101C1500.29,190.789 1503.59,197.769 1505.52,201.868C1505.76,202.368 1505.84,203.155 1505.72,203.849C1505.61,204.543 1505.32,205 1505,205C1501.73,205 1495.27,205 1492,205C1491.68,205 1491.39,204.543 1491.28,203.849C1491.16,203.155 1491.24,202.368 1491.48,201.868C1493.41,197.769 1496.71,190.789 1497.98,188.101Z" style="fill:rgb(77,77,77);fill-opacity:0.2;"/>
                </g>
            </g>
        </g>
    </g>
</svg>
