<?xml version="1.0" encoding="UTF-8" standalone="no"?>
<!DOCTYPE svg PUBLIC "-//W3C//DTD SVG 1.1//EN" "http://www.w3.org/Graphics/SVG/1.1/DTD/svg11.dtd">
<svg width="100%" height="100%" viewBox="0 0 26 18" version="1.1" xmlns="http://www.w3.org/2000/svg" xmlns:xlink="http://www.w3.org/1999/xlink" xml:space="preserve" style="fill-rule:evenodd;clip-rule:evenodd;stroke-linejoin:round;stroke-miterlimit:1.41421;">
    <g transform="matrix(1,0,0,1,-8,-393)">
        <g transform="matrix(0.998959,-2.42305e-19,-2.54869e-19,0.950704,4,4.65711e-16)">
            <g transform="matrix(1,0,0,1,-1.00104,-2.55135e-19)">
                <g transform="matrix(1.20125,3.06162e-19,5.36728e-19,2.1037,-34.636,-545.911)">
                    <rect x="33" y="461" width="10" height="4" style="fill:white;"/>
                </g>
                <g transform="matrix(1.20125,3.06162e-19,5.36728e-19,2.1037,-27.6288,-556.43)">
                    <rect x="33" y="461" width="10" height="4" style="fill:white;"/>
                </g>
                <g transform="matrix(1.20125,3.06162e-19,5.36728e-19,2.1037,-20.6215,-545.911)">
                    <rect x="33" y="461" width="10" height="4" style="fill:white;"/>
                </g>
            </g>
        </g>
    </g>
</svg>
