<?xml version="1.0" encoding="UTF-8" standalone="no"?>
<!DOCTYPE svg PUBLIC "-//W3C//DTD SVG 1.1//EN" "http://www.w3.org/Graphics/SVG/1.1/DTD/svg11.dtd">
<svg width="100%" height="100%" viewBox="0 0 30 30" version="1.1" xmlns="http://www.w3.org/2000/svg" xmlns:xlink="http://www.w3.org/1999/xlink" xml:space="preserve" style="fill-rule:evenodd;clip-rule:evenodd;stroke-linejoin:round;stroke-miterlimit:1.41421;">
    <g transform="matrix(1,0,0,1,-13388,-15757)">
        <g transform="matrix(0.998959,-2.42305e-19,-2.54869e-19,0.950704,13111,15458)">
            <g>
                <g>
                    <g transform="matrix(0.600625,1.53081e-19,1.61018e-19,0.631111,103.107,143.473)">
                        <path d="M330,284.333C330,282.494 328.506,281 326.667,281L303.333,281C301.494,281 300,282.494 300,284.333L300,307.667C300,309.506 301.494,311 303.333,311L326.667,311C328.506,311 330,309.506 330,307.667L330,284.333Z" style="fill:rgb(77,77,77);"/>
                    </g>
                    <g transform="matrix(0.600625,1.53081e-19,1.61018e-19,0.631111,103.107,143.473)">
                        <path d="M326.811,279.337C326.842,279.338 327.041,279.345 327.041,279.345C327.942,279.409 328.828,279.734 329.563,280.257C329.854,280.464 330.111,280.705 330.359,280.96C330.442,281.055 330.522,281.149 330.599,281.248C331.127,281.92 331.479,282.724 331.61,283.57C331.642,283.78 331.657,283.992 331.664,284.205C331.805,292.068 331.8,299.934 331.664,307.797C331.645,308.34 331.55,308.87 331.364,309.381C331.17,309.913 330.884,310.416 330.522,310.852C329.961,311.528 329.22,312.056 328.395,312.36C327.877,312.552 327.332,312.647 326.781,312.666L303.218,312.666C302.92,312.656 302.622,312.626 302.33,312.567C301.731,312.445 301.156,312.209 300.641,311.88C300.436,311.749 300.238,311.602 300.054,311.441C299.972,311.369 299.893,311.293 299.813,311.219C299.726,311.129 299.642,311.038 299.558,310.945C299.267,310.602 299.011,310.228 298.819,309.821C298.518,309.185 298.36,308.5 298.335,307.797C298.199,299.934 298.195,292.068 298.335,284.205C298.355,283.619 298.465,283.038 298.683,282.492C299.19,281.222 300.221,280.179 301.498,279.68C301.963,279.498 302.462,279.38 302.961,279.345C302.964,279.345 303.157,279.338 303.189,279.337C311.058,279.061 318.941,279.061 326.811,279.337ZM303.362,282.666C303.198,282.672 303.038,282.682 302.879,282.728C302.797,282.752 302.717,282.785 302.639,282.818C302.594,282.836 302.553,282.861 302.512,282.885C302.409,282.944 302.312,283.01 302.224,283.091C302.128,283.18 302.045,283.274 301.967,283.378C301.93,283.428 301.898,283.485 301.869,283.539C301.742,283.772 301.676,284.027 301.667,284.292C301.528,292.11 301.39,299.936 301.669,307.75C301.676,307.859 301.688,307.968 301.716,308.074C301.817,308.449 302.032,308.771 302.342,309.005C302.422,309.065 302.511,309.124 302.602,309.166C302.81,309.262 303.022,309.315 303.25,309.332C311.079,309.606 318.922,309.606 326.75,309.332C326.977,309.316 327.19,309.262 327.397,309.166C327.492,309.122 327.581,309.062 327.665,308.999C328.075,308.694 328.314,308.217 328.332,307.709C328.467,299.873 328.747,292.023 328.328,284.196C328.287,283.736 328.059,283.307 327.694,283.021C327.567,282.921 327.425,282.843 327.275,282.781C327.09,282.705 326.892,282.675 326.694,282.668C318.921,282.395 311.139,282.666 303.362,282.666Z" style="fill:rgb(77,77,77);fill-rule:nonzero;"/>
                    </g>
                    <g transform="matrix(1.00104,2.55135e-19,2.68364e-19,1.05185,-4.00417,20.0558)">
                        <path d="M301.832,290.555L295.272,300.394L295.006,300.421L290.293,295.707L291.707,294.293L294.845,297.43L300.168,289.445C300.723,289.815 301.277,290.185 301.832,290.555Z" style="fill:white;fill-rule:nonzero;"/>
                    </g>
                </g>
            </g>
        </g>
    </g>
</svg>
