<?xml version="1.0" encoding="UTF-8" standalone="no"?>
<!DOCTYPE svg PUBLIC "-//W3C//DTD SVG 1.1//EN" "http://www.w3.org/Graphics/SVG/1.1/DTD/svg11.dtd">
<svg width="100%" height="100%" viewBox="0 0 30 30" version="1.1" xmlns="http://www.w3.org/2000/svg" xmlns:xlink="http://www.w3.org/1999/xlink" xml:space="preserve" style="fill-rule:evenodd;clip-rule:evenodd;stroke-linejoin:round;stroke-miterlimit:1.41421;">
    <g transform="matrix(1,0,0,1,-13388,-15710)">
        <g transform="matrix(0.998959,-2.42305e-19,-2.54869e-19,0.950704,13111,15458)">
            <g transform="matrix(0.600625,1.53081e-19,1.61018e-19,0.631111,103.107,94.0356)">
                <path d="M326.795,279.335C327.339,279.355 327.874,279.45 328.386,279.637C329.716,280.125 330.799,281.182 331.319,282.5C331.535,283.046 331.643,283.62 331.665,284.205C331.764,292.068 331.764,299.932 331.665,307.795C331.646,308.298 331.565,308.792 331.403,309.27C330.935,310.652 329.857,311.784 328.5,312.319C327.954,312.535 327.38,312.643 326.795,312.665C318.932,312.764 311.068,312.764 303.205,312.665C302.62,312.643 302.046,312.535 301.5,312.319C300.182,311.799 299.125,310.716 298.637,309.386C298.45,308.873 298.355,308.339 298.335,307.795C298.232,299.932 298.232,292.068 298.335,284.205C298.355,283.661 298.45,283.126 298.637,282.614C299.125,281.284 300.182,280.201 301.5,279.681C302.046,279.465 302.62,279.357 303.205,279.335C311.068,279.232 318.932,279.232 326.795,279.335ZM303.344,282.667C303.145,282.669 302.949,282.698 302.761,282.767C302.305,282.935 301.935,283.305 301.767,283.761C301.705,283.932 301.674,284.109 301.667,284.29C301.565,292.11 301.373,299.938 301.669,307.754C301.68,307.933 301.716,308.109 301.782,308.277C301.95,308.703 302.297,309.05 302.723,309.218C302.891,309.284 303.067,309.32 303.246,309.331C311.076,309.628 318.924,309.628 326.754,309.331C326.933,309.32 327.109,309.284 327.277,309.218C327.703,309.05 328.05,308.703 328.218,308.277C328.284,308.109 328.32,307.933 328.331,307.754C328.627,299.924 328.627,292.076 328.331,284.246C328.32,284.067 328.284,283.891 328.218,283.723C328.05,283.297 327.703,282.95 327.277,282.782C327.095,282.71 326.905,282.675 326.71,282.667C318.922,282.566 311.133,282.667 303.344,282.667Z" style="fill:rgb(77,77,77);fill-rule:nonzero;"/>
            </g>
        </g>
    </g>
</svg>
