<?xml version="1.0" encoding="UTF-8" standalone="no"?>
<!DOCTYPE svg PUBLIC "-//W3C//DTD SVG 1.1//EN" "http://www.w3.org/Graphics/SVG/1.1/DTD/svg11.dtd">
<svg width="100%" height="100%" viewBox="0 0 30 30" version="1.1" xmlns="http://www.w3.org/2000/svg" xmlns:xlink="http://www.w3.org/1999/xlink" xml:space="preserve" style="fill-rule:evenodd;clip-rule:evenodd;stroke-linejoin:round;stroke-miterlimit:1.41421;">
    <g transform="matrix(1,0,0,1,-14849,-14248)">
        <g transform="matrix(0.998959,-2.42305e-19,-2.54869e-19,0.950704,13111,14002)">
            <g transform="matrix(1,2.40741e-34,0,1,226.235,-10.5182)">
                <g transform="matrix(0.600625,1.53081e-19,1.61018e-19,0.631111,1309.36,54.6963)">
                    <path d="M374.127,349.716C374.445,349.728 374.761,349.761 375.072,349.829C375.628,349.951 376.162,350.17 376.645,350.471C376.934,350.65 377.196,350.861 377.447,351.09C377.937,351.58 378.443,352.054 378.915,352.561C379.17,352.829 379.392,353.126 379.582,353.443L379.655,353.562L379.823,353.892C379.853,353.962 379.882,354.032 379.911,354.102L379.966,354.231C380.004,354.346 380.048,354.462 380.082,354.578C380.087,354.596 380.127,354.751 380.137,354.792L380.172,354.926C380.215,355.163 380.258,355.4 380.275,355.642C380.289,355.834 380.287,356.027 380.28,356.219L380.275,356.36C380.267,356.432 380.259,356.504 380.252,356.577L380.237,356.717C380.215,356.834 380.198,356.954 380.172,357.07C380.121,357.306 380.051,357.541 379.966,357.767C379.73,358.394 379.363,358.969 378.901,359.453C372.036,366.481 365.008,373.348 358.061,380.295C357.966,380.38 357.873,380.467 357.774,380.548C357.587,380.699 357.388,380.839 357.181,380.962C356.624,381.293 356,381.517 355.359,381.613C355.156,381.643 354.952,381.657 354.747,381.665L354.635,381.667L348.334,381.667L348.334,375.269C348.341,375.063 348.355,374.858 348.384,374.654C348.449,374.21 348.578,373.766 348.76,373.355C348.993,372.828 349.321,372.354 349.713,371.933C356.574,364.9 363.449,357.874 370.556,351.09C371.125,350.548 371.823,350.143 372.578,349.92C372.926,349.817 373.281,349.759 373.642,349.726C373.804,349.718 373.965,349.713 374.127,349.716ZM373.966,353.048C373.552,353.063 373.157,353.216 372.856,353.503C365.777,360.26 358.763,367.098 352.097,374.264C351.855,374.538 351.698,374.883 351.672,375.25L351.669,375.302L351.668,375.326L351.668,378.333C352.696,378.333 353.725,378.381 354.752,378.328C354.832,378.321 354.911,378.308 354.99,378.292C355.266,378.228 355.528,378.096 355.735,377.903C363.07,371.401 369.76,364.201 376.528,357.111C376.662,356.956 376.772,356.784 376.845,356.591C377.001,356.179 376.988,355.699 376.799,355.3C376.72,355.133 376.616,354.981 376.489,354.847C376.051,354.377 375.601,353.917 375.126,353.485C375.004,353.379 374.876,353.289 374.732,353.216C374.516,353.107 374.276,353.057 374.036,353.048C374,353.047 374.001,353.048 373.966,353.048Z" style="fill:white;fill-rule:nonzero;"/>
                </g>
                <g transform="matrix(0.600625,1.53081e-19,1.61018e-19,0.631111,1309.36,54.6963)">
                    <path d="M377.18,358.821L374.823,361.178L368.823,355.178L371.18,352.821C373.18,354.821 375.18,356.821 377.18,358.821Z" style="fill:white;fill-rule:nonzero;"/>
                </g>
                <g transform="matrix(0.600625,1.53081e-19,1.61018e-19,0.631111,1299.37,65.1965)">
                    <path d="M377.178,358.82L374.821,361.177L368.821,355.177L371.178,352.82C373.178,354.82 375.178,356.82 377.178,358.82Z" style="fill:white;fill-rule:nonzero;"/>
                </g>
                <g transform="matrix(0.600625,1.53081e-19,1.61018e-19,0.631111,1308.36,55.7481)">
                    <path d="M356.512,377.155L354.155,379.512L350.488,375.845L352.845,373.488C354.068,374.71 355.29,375.933 356.512,377.155Z" style="fill:white;fill-rule:nonzero;"/>
                </g>
            </g>
        </g>
    </g>
</svg>
