<?xml version="1.0" encoding="UTF-8" standalone="no"?>
<!DOCTYPE svg PUBLIC "-//W3C//DTD SVG 1.1//EN" "http://www.w3.org/Graphics/SVG/1.1/DTD/svg11.dtd">
<svg width="100%" height="100%" viewBox="0 0 30 30" version="1.1" xmlns="http://www.w3.org/2000/svg" xmlns:xlink="http://www.w3.org/1999/xlink" xml:space="preserve" style="fill-rule:evenodd;clip-rule:evenodd;stroke-linejoin:round;stroke-miterlimit:1.41421;">
    <g transform="matrix(1,0,0,1,-14944,-14188)">
        <g transform="matrix(0.998959,-2.42305e-19,-2.54869e-19,0.950704,13111,14002)">
            <g transform="matrix(1,9.62965e-35,0,1,241.861,-356.578)">
                <g transform="matrix(1.00104,2.55135e-19,2.52578e-19,0.989978,-16373.6,-4830.66)">
                    <path d="M17972,5462.88C17972,5462.88 17971.9,5463.58 17971.8,5463.88C17971.6,5464.72 17971,5465.43 17970.2,5465.79C17969.9,5465.96 17969.5,5466.05 17969.1,5466.06L17956.9,5466.06C17956.5,5466.05 17956.1,5465.96 17955.8,5465.79C17955.1,5465.46 17954.5,5464.85 17954.2,5464.1C17954.1,5463.74 17954,5462.89 17954,5462.89L17954,5445.88L17956,5445.88L17956,5462.96C17956,5462.96 17956,5463.06 17956,5463.11C17956.1,5463.43 17956.3,5463.71 17956.6,5463.85C17956.7,5463.9 17957,5463.94 17957,5463.94L17969.1,5463.94C17969.1,5463.94 17969.3,5463.9 17969.4,5463.85C17969.7,5463.73 17969.9,5463.49 17969.9,5463.21C17970,5463.1 17970,5462.99 17970,5462.88L17970,5445.88L17972,5445.88L17972,5462.88Z" style="fill:rgb(77,77,77);fill-rule:nonzero;"/>
                </g>
                <g transform="matrix(1.00104,2.55135e-19,2.32582e-19,0.911605,-16350.6,-4403.68)">
                    <rect x="17942" y="5448" width="2" height="15" style="fill:rgb(77,77,77);fill-rule:nonzero;"/>
                </g>
                <g transform="matrix(-1.00104,-2.55135e-19,2.32582e-19,0.911605,19566.8,-4403.68)">
                    <rect x="17942" y="5448" width="2" height="15" style="fill:rgb(77,77,77);fill-rule:nonzero;"/>
                </g>
                <g transform="matrix(1.18642,3.02382e-19,2.68364e-19,1.05185,-19675.7,-5167.75)">
                    <rect x="17931.1" y="5444" width="16.875" height="2" style="fill:rgb(77,77,77);fill-rule:nonzero;"/>
                </g>
                <g transform="matrix(1.00104,2.55135e-19,2.68364e-19,1.05185,-16373.6,-5167.75)">
                    <path d="M17964.2,5441C17964.2,5441 17964.7,5441.07 17965,5441.16C17965.8,5441.43 17966.4,5442.05 17966.8,5442.83C17966.9,5443.04 17966.9,5443.26 17967,5443.48C17967,5443.65 17967,5444 17967,5444L17967,5445L17965,5445L17965,5444C17965,5444 17964.8,5443.25 17964.4,5443.1C17964.3,5443.04 17964,5443 17964,5443L17962,5443C17962,5443 17961.7,5443.04 17961.6,5443.1C17961.2,5443.25 17961,5443.59 17961,5443.94L17961,5444L17961,5445L17959,5445L17959,5444C17959,5444 17959,5443.83 17959,5443.78C17959,5443.58 17959.1,5443.38 17959.1,5443.19L17959.1,5443.11C17959.2,5442.9 17959.3,5442.7 17959.4,5442.51C17959.8,5441.88 17960.4,5441.39 17961,5441.16C17961.3,5441.09 17961.5,5441.04 17961.7,5441.01C17961.8,5441.01 17961.9,5441 17961.9,5441L17964.2,5441Z" style="fill:rgb(77,77,77);fill-rule:nonzero;"/>
                </g>
            </g>
        </g>
    </g>
</svg>
