<?xml version="1.0" encoding="UTF-8" standalone="no"?>
<!DOCTYPE svg PUBLIC "-//W3C//DTD SVG 1.1//EN" "http://www.w3.org/Graphics/SVG/1.1/DTD/svg11.dtd">
<svg width="100%" height="100%" viewBox="0 0 30 30" version="1.1" xmlns="http://www.w3.org/2000/svg" xmlns:xlink="http://www.w3.org/1999/xlink" xml:space="preserve" style="fill-rule:evenodd;clip-rule:evenodd;stroke-linejoin:round;stroke-miterlimit:1.41421;">
    <g transform="matrix(1,0,0,1,-14985,-14248)">
        <g transform="matrix(0.998959,-2.42305e-19,-2.54869e-19,0.950704,13111,14002)">
            <g transform="matrix(1,1.44445e-34,-4.81482e-35,1,1459.52,-197.735)">
                <clipPath id="_clip1">
                    <rect x="421.437" y="459.659" width="20.021" height="25.244"/>
                </clipPath>
                <g clip-path="url(#_clip1)">
                    <g opacity="0.3">
                        <g transform="matrix(1.10074e-17,0.180502,-0.516028,3.16844e-17,525.622,204.073)">
                            <path d="M1555.83,201.898L1526.69,201.898L1526.69,198.019L1544.17,198.019L1544.17,166.98L1526.69,166.98L1526.69,163.1L1555.83,163.1C1555.83,176.033 1555.83,188.966 1555.83,201.898Z" style="fill:rgb(77,77,77);fill-rule:nonzero;"/>
                        </g>
                        <g transform="matrix(4.95332e-17,0.812261,-0.708664,4.35124e-17,555.123,-936.376)">
                            <path d="M1718.7,168.87L1730.36,168.87L1730.36,163.1L1731.34,162.577L1745.14,174.284L1745.14,174.756L1731.34,186.465L1730.36,185.941L1730.36,180.171L1718.7,180.171C1718.7,176.404 1718.7,168.87 1718.7,168.87ZM1721.29,177.346L1732.95,177.346C1732.95,177.346 1732.95,181.52 1732.95,181.52L1741.2,174.52L1732.95,167.521L1732.95,171.695C1732.95,171.695 1721.29,171.695 1721.29,171.695C1721.29,173.579 1721.29,175.462 1721.29,177.346Z" style="fill:rgb(77,77,77);fill-rule:nonzero;"/>
                        </g>
                    </g>
                </g>
            </g>
        </g>
    </g>
</svg>
