<?xml version="1.0" encoding="UTF-8" standalone="no"?>
<!DOCTYPE svg PUBLIC "-//W3C//DTD SVG 1.1//EN" "http://www.w3.org/Graphics/SVG/1.1/DTD/svg11.dtd">
<svg width="100%" height="100%" viewBox="0 0 28 18" version="1.1" xmlns="http://www.w3.org/2000/svg" xmlns:xlink="http://www.w3.org/1999/xlink" xml:space="preserve" style="fill-rule:evenodd;clip-rule:evenodd;stroke-miterlimit:1.41421;">
    <g transform="matrix(1,0,0,1,-36,-338)">
        <g transform="matrix(0.998959,-2.42305e-19,-2.54869e-19,0.950704,4,4.65711e-16)">
            <g transform="matrix(1.00104,2.55135e-19,2.68364e-19,1.05185,9.38211e-15,-57.8519)">
                <g>
                    <g transform="matrix(0.477243,-4.59569e-35,-3.24332e-36,0.477243,-2383.06,-500.831)">
                        <path d="M5062.53,1910.62L5062.53,1897C5062.53,1897 5063.13,1889.67 5070.91,1889.67C5072.2,1889.67 5073.01,1889.67 5073.01,1889.67" style="fill:none;stroke-width:4.19px;stroke:white;"/>
                    </g>
                    <g transform="matrix(-0.477243,9.19137e-35,4.92002e-35,0.477243,2460.06,-500.831)">
                        <path d="M5062.53,1910.62L5062.53,1897C5062.53,1897 5063.13,1889.67 5070.91,1889.67C5072.2,1889.67 5073.01,1889.67 5073.01,1889.67" style="fill:none;stroke-width:4.19px;stroke:white;"/>
                    </g>
                    <g transform="matrix(0.583333,-3.59553e-17,-4.80464e-17,0.583333,-2922.14,-700.917)">
                        <circle cx="5075.39" cy="1883" r="6" style="fill:none;stroke-width:3.43px;stroke:white;"/>
                    </g>
                </g>
                <g transform="matrix(1,2.13821e-50,0,1,15,3.20732e-49)">
                    <g transform="matrix(0.477243,-4.59569e-35,-3.24332e-36,0.477243,-2383.06,-500.831)">
                        <path d="M5062.53,1910.62L5062.53,1897C5062.53,1897 5063.13,1889.67 5070.91,1889.67C5072.2,1889.67 5073.01,1889.67 5073.01,1889.67" style="fill:none;stroke-width:4.19px;stroke:white;"/>
                    </g>
                    <g transform="matrix(-0.477243,9.19137e-35,4.92002e-35,0.477243,2460.06,-500.831)">
                        <path d="M5062.53,1910.62L5062.53,1897C5062.53,1897 5063.13,1889.67 5070.91,1889.67C5072.2,1889.67 5073.01,1889.67 5073.01,1889.67" style="fill:none;stroke-width:4.19px;stroke:white;"/>
                    </g>
                    <g transform="matrix(0.583333,-3.59553e-17,-4.80464e-17,0.583333,-2922.14,-700.917)">
                        <circle cx="5075.39" cy="1883" r="6" style="fill:none;stroke-width:3.43px;stroke:white;"/>
                    </g>
                </g>
            </g>
        </g>
    </g>
</svg>
