<?xml version="1.0" encoding="UTF-8" standalone="no"?>
<!DOCTYPE svg PUBLIC "-//W3C//DTD SVG 1.1//EN" "http://www.w3.org/Graphics/SVG/1.1/DTD/svg11.dtd">
<svg width="100%" height="100%" viewBox="0 0 30 30" version="1.1" xmlns="http://www.w3.org/2000/svg" xmlns:xlink="http://www.w3.org/1999/xlink" xml:space="preserve" style="fill-rule:evenodd;clip-rule:evenodd;stroke-linejoin:round;stroke-miterlimit:1.41421;">
    <g transform="matrix(1,0,0,1,-14897,-14248)">
        <g transform="matrix(0.998959,-2.42305e-19,-2.54869e-19,0.950704,13111,14002)">
            <g transform="matrix(1,1.92593e-34,0,1,1415.47,-6.35096)">
                <g transform="matrix(1,4.81482e-35,0,1,-0.00201128,-46.2815)">
                    <g transform="matrix(1.06778,2.72144e-19,2.43967e-19,0.956229,-18841.3,-4974.11)">
                        <path d="M18009.1,5535.14C18005.4,5535.14 17997.9,5535.14 17997.9,5535.14C17997.9,5535.14 17997.7,5535.15 17997.7,5535.16C17997.6,5535.19 17997.5,5535.24 17997.4,5535.31C17997.1,5535.51 17996.9,5536.24 17996.9,5536.24L17996.9,5553.84C17996.9,5553.84 17997,5554.12 17997,5554.22C17997.1,5554.52 17997.3,5554.76 17997.6,5554.88C17997.6,5554.91 17997.9,5554.94 17997.9,5554.94L18009.1,5554.94C18009.1,5554.94 18009.4,5554.91 18009.4,5554.88C18009.7,5554.76 18009.9,5554.52 18010,5554.22C18010,5554.12 18010.1,5554.01 18010.1,5553.9L18010.1,5553.84L18011.9,5553.86C18011.9,5553.86 18011.9,5554.62 18011.8,5554.98C18011.5,5555.88 18010.9,5556.61 18010.1,5556.94C18009.8,5557.07 18009.2,5557.14 18009.2,5557.14L17997.9,5557.14C17997.9,5557.14 17997.2,5557.07 17996.9,5556.94C17996.1,5556.61 17995.5,5555.88 17995.2,5554.98C17995.1,5554.64 17995.1,5553.84 17995.1,5553.84L17995.1,5536.24C17995.1,5536.24 17995.1,5535.44 17995.2,5535.11C17995.5,5534.2 17996.1,5533.48 17996.9,5533.14C17997.2,5533.02 17997.5,5532.96 17997.8,5532.94L17997.9,5532.94L18009.1,5532.94C18009.1,5532.94 18009.1,5534.41 18009.1,5535.14Z" style="fill:white;fill-rule:nonzero;"/>
                    </g>
                    <g transform="matrix(1.00104,2.55135e-19,2.68364e-19,1.05185,-17640.4,-5501.15)">
                        <path d="M18006.1,5529C18006.1,5529 18006.2,5529.01 18006.3,5529.02C18006.4,5529.04 18006.5,5529.06 18006.6,5529.09C18007,5529.21 18007.3,5529.47 18007.6,5529.8L18007.7,5529.88C18007.8,5530.04 18007.9,5530.21 18007.9,5530.4C18008,5530.78 18008,5531.22 18007.9,5531.6C18007.8,5531.82 18007.7,5532.02 18007.6,5532.2L18007.5,5532.27C18007.4,5532.39 18007.3,5532.51 18007.2,5532.61C18006.9,5532.8 18006.6,5532.93 18006.3,5532.98C18006.2,5532.99 18006.1,5533 18006.1,5533L18002,5533C18002,5533 18001.7,5532.98 18001.5,5532.94C18001.1,5532.83 18000.7,5532.56 18000.4,5532.2L18000.3,5532.12C18000.2,5531.96 18000.2,5531.79 18000.1,5531.6C18000,5531.22 18000,5530.78 18000.1,5530.4C18000.2,5530.18 18000.3,5529.98 18000.4,5529.8L18000.5,5529.73C18000.6,5529.61 18000.7,5529.49 18000.8,5529.39C18001.1,5529.2 18001.4,5529.07 18001.7,5529.02C18001.8,5529.01 18001.9,5529 18001.9,5529L18006.1,5529Z" style="fill:white;fill-rule:nonzero;"/>
                    </g>
                    <g>
                        <g transform="matrix(0.444907,-1.41994e-17,-2.69744e-17,1.05185,-7625.05,-5499.5)">
                            <rect x="17998" y="5535.44" width="4.5" height="2" style="fill:white;fill-rule:nonzero;"/>
                        </g>
                        <g transform="matrix(0.222454,-7.09968e-18,-2.69744e-17,1.05185,-3625.33,-5499.5)">
                            <rect x="17998" y="5535.44" width="9" height="2" style="fill:white;fill-rule:nonzero;"/>
                        </g>
                        <g transform="matrix(0.222454,-7.09968e-18,-2.69744e-17,1.05185,-3625.33,-5495.29)">
                            <rect x="17998" y="5535.44" width="9" height="2" style="fill:white;fill-rule:nonzero;"/>
                        </g>
                        <g transform="matrix(0.222454,-7.09968e-18,-2.69744e-17,1.05185,-3625.33,-5491.09)">
                            <rect x="17998" y="5535.44" width="9" height="2" style="fill:white;fill-rule:nonzero;"/>
                        </g>
                    </g>
                </g>
                <g transform="matrix(0.600625,1.53081e-19,1.61018e-19,0.631111,183.009,57.8519)">
                    <g transform="matrix(1,0,0,1,-16.3636,-16.6667)">
                        <path d="M374.125,349.716C374.332,349.723 374.538,349.737 374.742,349.768C375.306,349.854 375.848,350.038 376.352,350.301C376.754,350.511 377.115,350.784 377.446,351.092C377.939,351.573 378.422,352.066 378.91,352.554C379.021,352.676 379.131,352.799 379.233,352.929C379.306,353.024 379.374,353.122 379.444,353.219C379.51,353.325 379.576,353.43 379.637,353.539C380.373,354.827 380.492,356.44 379.944,357.82C379.784,358.223 379.575,358.605 379.32,358.956C379.193,359.132 379.049,359.293 378.903,359.454C371.87,366.32 365.003,373.354 358.053,380.304C357.723,380.602 357.373,380.871 356.98,381.083C356.521,381.331 356.018,381.507 355.505,381.601C355.231,381.65 354.957,381.671 354.679,381.681L348.348,381.748L348.329,381.729C348.331,379.575 348.333,377.421 348.333,375.267C348.345,374.931 348.381,374.595 348.457,374.267C348.661,373.39 349.097,372.579 349.718,371.927C356.572,364.902 363.683,358.131 370.537,351.105C370.784,350.876 371.047,350.662 371.333,350.482C372.062,350.023 372.905,349.764 373.764,349.72C373.884,349.716 374.004,349.714 374.125,349.716ZM373.962,353.048C373.653,353.059 373.367,353.149 373.103,353.309C373.021,353.359 372.946,353.422 372.874,353.485C365.719,360.128 359.065,367.292 352.161,374.196C352.132,374.225 352.103,374.255 352.076,374.286C352.004,374.373 351.938,374.462 351.882,374.561C351.753,374.789 351.685,375.041 351.667,375.302C351.666,375.341 351.667,375.341 351.667,375.38L351.665,378.38C352.689,378.369 353.715,378.416 354.736,378.343C354.854,378.331 354.974,378.315 355.086,378.277C355.192,378.242 355.295,378.203 355.393,378.15C355.526,378.078 355.643,377.989 355.755,377.888C362.69,370.953 370.061,364.428 376.556,357.079C376.913,356.665 377.038,356.076 376.892,355.551C376.822,355.297 376.687,355.07 376.514,354.874C376.062,354.375 375.58,353.897 375.08,353.444C374.787,353.198 374.421,353.062 374.039,353.048C374,353.048 374.001,353.048 373.962,353.048Z" style="fill:white;fill-rule:nonzero;"/>
                    </g>
                    <g transform="matrix(1,4.27642e-50,0,1,-16.3636,-16.6667)">
                        <path d="M377.18,358.821L374.823,361.178L368.823,355.178L371.18,352.821C373.18,354.821 375.18,356.821 377.18,358.821Z" style="fill:white;fill-rule:nonzero;"/>
                    </g>
                    <g transform="matrix(1,8.55285e-50,0,1,-33.0013,-0.0289855)">
                        <path d="M377.178,358.822L374.821,361.179L368.821,355.179L371.178,352.822C373.178,354.822 375.178,356.822 377.178,358.822Z" style="fill:white;fill-rule:nonzero;"/>
                    </g>
                    <g transform="matrix(1,4.27642e-50,0,1,-18.0303,-15)">
                        <path d="M356.513,377.156L354.156,379.513L350.489,375.846L352.846,373.489C354.068,374.711 355.291,375.933 356.513,377.156Z" style="fill:white;fill-rule:nonzero;"/>
                    </g>
                </g>
            </g>
        </g>
    </g>
</svg>
