<?xml version="1.0" encoding="UTF-8" standalone="no"?>
<!DOCTYPE svg PUBLIC "-//W3C//DTD SVG 1.1//EN" "http://www.w3.org/Graphics/SVG/1.1/DTD/svg11.dtd">
<svg width="100%" height="100%" viewBox="0 0 24 20" version="1.1" xmlns="http://www.w3.org/2000/svg" xmlns:xlink="http://www.w3.org/1999/xlink" xml:space="preserve" style="fill-rule:evenodd;clip-rule:evenodd;stroke-miterlimit:1.41421;">
    <g transform="matrix(1,0,0,1,-38,-224)">
        <g transform="matrix(0.998959,-2.42305e-19,-2.54869e-19,0.950704,4,4.65711e-16)">
            <g transform="matrix(1.00104,2.55135e-19,2.68364e-19,1.05185,3.00313,-57.8519)">
                <g transform="matrix(1,0,0,1,-3,0)">
                    <path d="M58,299L34,299L34,283L58,283L58,299ZM54,287L54,283L52,283L52,287L54,287ZM40,287L40,283L38,283L38,287L40,287Z" style="fill:white;"/>
                </g>
                <g transform="matrix(1.11111,0,0,1,-4.22222,-2)">
                    <rect x="38" y="282" width="9" height="4" style="fill:none;stroke-width:1.89px;stroke:white;"/>
                </g>
            </g>
        </g>
    </g>
</svg>
