<?xml version="1.0" encoding="UTF-8" standalone="no"?>
<!DOCTYPE svg PUBLIC "-//W3C//DTD SVG 1.1//EN" "http://www.w3.org/Graphics/SVG/1.1/DTD/svg11.dtd">
<svg width="100%" height="100%" viewBox="0 0 20 20" version="1.1" xmlns="http://www.w3.org/2000/svg" xmlns:xlink="http://www.w3.org/1999/xlink" xml:space="preserve" style="fill-rule:evenodd;clip-rule:evenodd;stroke-miterlimit:1.41421;">
    <g transform="matrix(1,0,0,1,-299,-188)">
        <g transform="matrix(0.998959,-2.42305e-19,-2.54869e-19,0.950704,-3,4.67409e-16)">
            <g transform="matrix(0.810367,2.06538e-19,2.17247e-19,0.851499,-150.523,-7.26279)">
                <g transform="matrix(-1,0,-4.27642e-50,1,841.276,158)">
                    <circle cx="267" cy="92" r="8" style="fill:none;stroke-width:2.47px;stroke:rgb(77,77,77);"/>
                </g>
                <g transform="matrix(-1,0,-4.27642e-50,1,821.5,179.824)">
                    <path d="M253.942,74.53L253.866,74.533L253.789,74.538L253.712,74.546L253.636,74.556L253.56,74.569L253.485,74.584L253.41,74.601L253.336,74.62L253.262,74.642L253.189,74.666L253.117,74.693L253.046,74.721L252.975,74.752L252.906,74.785L252.837,74.82L252.77,74.857L252.704,74.896L252.639,74.938L252.576,74.981L252.514,75.026L252.453,75.074L252.394,75.123L252.336,75.173L252.28,75.226L252.226,75.28L252.173,75.336L252.123,75.394L252.074,75.453L252.026,75.514L251.981,75.576L251.938,75.639L251.896,75.704L251.857,75.77L251.82,75.837L251.785,75.906L251.752,75.975L251.721,76.046L251.693,76.117L251.666,76.189L251.642,76.262L251.62,76.336L251.601,76.41L251.584,76.485L251.569,76.56L251.556,76.636L251.546,76.712L251.538,76.789L251.533,76.866L251.53,76.942L251.529,77.019L251.531,77.096L251.535,77.173L251.542,77.249L251.551,77.326L251.562,77.402L251.576,77.477L251.592,77.552L251.61,77.627L251.631,77.701L251.654,77.774L251.679,77.847L251.707,77.919L251.736,77.99L251.768,78.06L251.802,78.128L251.838,78.196L251.877,78.263L251.917,78.328L251.959,78.392L252.003,78.455L252.05,78.517L252.098,78.577L252.148,78.635L252.2,78.692L252.253,78.747L258.253,84.747L258.308,84.8L258.365,84.852L258.423,84.902L258.483,84.95L258.545,84.996L258.607,85.041L258.672,85.083L258.737,85.123L258.804,85.162L258.872,85.198L258.94,85.232L259.01,85.264L259.081,85.293L259.153,85.321L259.226,85.346L259.299,85.369L259.373,85.39L259.448,85.408L259.523,85.424L259.598,85.438L259.674,85.449L259.751,85.458L259.827,85.465L259.904,85.469L259.981,85.471L260.058,85.47L260.134,85.467L260.211,85.462L260.288,85.454L260.364,85.444L260.44,85.431L260.515,85.416L260.59,85.399L260.664,85.38L260.738,85.358L260.811,85.334L260.883,85.307L260.954,85.279L261.025,85.248L261.094,85.215L261.162,85.18L261.23,85.143L261.296,85.104L261.361,85.062L261.424,85.019L261.486,84.974L261.547,84.926L261.606,84.877L261.664,84.827L261.72,84.774L261.774,84.72L261.827,84.664L261.877,84.606L261.926,84.547L261.974,84.486L262.019,84.424L262.062,84.361L262.103,84.296L262.143,84.23L262.18,84.163L262.215,84.094L262.248,84.025L262.279,83.954L262.307,83.883L262.334,83.811L262.358,83.738L262.38,83.664L262.399,83.59L262.416,83.515L262.431,83.44L262.444,83.364L262.454,83.288L262.462,83.211L262.467,83.134L262.47,83.058L262.47,82.981L262.469,82.904L262.465,82.827L262.458,82.751L262.449,82.674L262.438,82.598L262.424,82.523L262.408,82.448L262.39,82.373L262.369,82.299L262.346,82.226L262.321,82.153L262.293,82.081L262.264,82.01L262.232,81.94L262.198,81.872L262.162,81.804L262.123,81.737L262.083,81.672L262.041,81.608L261.996,81.545L261.95,81.483L261.902,81.423L261.852,81.365L261.8,81.308L261.747,81.253L255.747,75.253L255.692,75.2L255.635,75.148L255.577,75.098L255.517,75.05L255.455,75.004L255.392,74.959L255.328,74.917L255.263,74.877L255.196,74.838L255.128,74.802L255.06,74.768L254.99,74.736L254.919,74.707L254.847,74.679L254.774,74.654L254.701,74.631L254.627,74.61L254.552,74.592L254.477,74.576L254.402,74.562L254.326,74.551L254.249,74.542L254.173,74.535L254.096,74.531L254.019,74.529L253.942,74.53Z" style="fill:rgb(77,77,77);"/>
                </g>
            </g>
        </g>
    </g>
</svg>
