<?xml version="1.0" encoding="UTF-8" standalone="no"?>
<!DOCTYPE svg PUBLIC "-//W3C//DTD SVG 1.1//EN" "http://www.w3.org/Graphics/SVG/1.1/DTD/svg11.dtd">
<svg width="100%" height="100%" viewBox="0 0 30 26" version="1.1" xmlns="http://www.w3.org/2000/svg" xmlns:xlink="http://www.w3.org/1999/xlink" xml:space="preserve" style="fill-rule:evenodd;clip-rule:evenodd;stroke-linejoin:round;stroke-miterlimit:1.41421;">
    <g transform="matrix(1,0,0,1,-35,-27)">
        <g transform="matrix(0.998959,-2.42305e-19,-2.54869e-19,0.950704,4,4.65711e-16)">
            <g transform="matrix(1.00104,2.55135e-19,2.68364e-19,1.05185,-173.18,-57.8519)">
                <g transform="matrix(1.03448,8.44584e-17,8.16431e-17,0.666667,-13.2414,26.6667)">
                    <rect x="210" y="83" width="29" height="6" style="fill:white;"/>
                </g>
                <g transform="matrix(1.03448,8.44584e-17,8.16431e-17,0.666667,-13.2414,37.6667)">
                    <rect x="210" y="83" width="29" height="6" style="fill:white;"/>
                </g>
                <g transform="matrix(1.03448,8.44584e-17,8.16431e-17,0.666667,-13.2414,48.6667)">
                    <rect x="210" y="83" width="29" height="6" style="fill:white;"/>
                </g>
            </g>
        </g>
    </g>
</svg>
