<?xml version="1.0" encoding="UTF-8" standalone="no"?>
<!DOCTYPE svg PUBLIC "-//W3C//DTD SVG 1.1//EN" "http://www.w3.org/Graphics/SVG/1.1/DTD/svg11.dtd">
<svg width="100%" height="100%" viewBox="0 0 24 24" version="1.1" xmlns="http://www.w3.org/2000/svg" xmlns:xlink="http://www.w3.org/1999/xlink" xml:space="preserve" style="fill-rule:evenodd;clip-rule:evenodd;stroke-miterlimit:1.41421;">
    <g transform="matrix(1,0,0,1,-267,-29)">
        <g transform="matrix(0.998959,-2.42305e-19,-2.54869e-19,0.950704,4,4.65711e-16)">
            <g transform="matrix(-1.00104,-2.55135e-19,2.68364e-19,1.05185,547.752,-56.8)">
                <g>
                    <g>
                        <g transform="matrix(1,0,0,1,2.18164,0)">
                            <circle cx="267" cy="92" r="8" style="fill:none;stroke-width:2px;stroke:white;"/>
                        </g>
                        <g transform="matrix(1,0,0,1,22.1816,22)">
                            <path d="M253.914,75.002L253.845,75.006L253.776,75.013L253.708,75.021L253.639,75.033L253.572,75.046L253.505,75.062L253.438,75.081L253.372,75.101L253.307,75.124L253.243,75.149L253.179,75.176L253.117,75.206L253.055,75.237L252.995,75.271L252.936,75.307L252.878,75.344L252.822,75.384L252.767,75.426L252.713,75.469L252.661,75.514L252.61,75.562L252.562,75.61L252.514,75.661L252.469,75.713L252.426,75.767L252.384,75.822L252.344,75.878L252.307,75.936L252.271,75.995L252.237,76.055L252.206,76.117L252.176,76.179L252.149,76.243L252.124,76.307L252.101,76.372L252.081,76.438L252.062,76.505L252.046,76.572L252.033,76.639L252.021,76.708L252.013,76.776L252.006,76.845L252.002,76.914L252,76.983L252.001,77.052L252.004,77.121L252.009,77.19L252.017,77.258L252.027,77.327L252.039,77.394L252.054,77.462L252.071,77.529L252.091,77.595L252.112,77.661L252.136,77.725L252.162,77.789L252.191,77.852L252.221,77.914L252.254,77.975L252.288,78.035L252.325,78.093L252.364,78.15L252.405,78.206L252.447,78.26L252.492,78.313L252.538,78.365L252.586,78.414L258.586,84.414L258.635,84.462L258.687,84.508L258.74,84.553L258.794,84.595L258.85,84.636L258.907,84.675L258.965,84.712L259.025,84.746L259.086,84.779L259.148,84.809L259.211,84.838L259.275,84.864L259.339,84.888L259.405,84.909L259.471,84.929L259.538,84.946L259.606,84.961L259.673,84.973L259.742,84.983L259.81,84.991L259.879,84.996L259.948,84.999L260.017,85L260.086,84.998L260.155,84.994L260.224,84.987L260.292,84.979L260.361,84.967L260.428,84.954L260.495,84.938L260.562,84.919L260.628,84.899L260.693,84.876L260.757,84.851L260.821,84.824L260.883,84.794L260.945,84.763L261.005,84.729L261.064,84.693L261.122,84.656L261.178,84.616L261.233,84.574L261.287,84.531L261.339,84.486L261.39,84.438L261.438,84.39L261.486,84.339L261.531,84.287L261.574,84.233L261.616,84.178L261.656,84.122L261.693,84.064L261.729,84.005L261.763,83.945L261.794,83.883L261.824,83.821L261.851,83.757L261.876,83.693L261.899,83.628L261.919,83.562L261.938,83.495L261.954,83.428L261.967,83.361L261.979,83.292L261.987,83.224L261.994,83.155L261.998,83.086L262,83.017L261.999,82.948L261.996,82.879L261.991,82.81L261.983,82.742L261.973,82.673L261.961,82.606L261.946,82.538L261.929,82.471L261.909,82.405L261.888,82.339L261.864,82.275L261.838,82.211L261.809,82.148L261.779,82.086L261.746,82.025L261.712,81.965L261.675,81.907L261.636,81.85L261.595,81.794L261.553,81.74L261.508,81.687L261.462,81.635L261.414,81.586L255.414,75.586L255.365,75.538L255.313,75.492L255.26,75.447L255.206,75.405L255.15,75.364L255.093,75.325L255.035,75.288L254.975,75.254L254.914,75.221L254.852,75.191L254.789,75.162L254.725,75.136L254.661,75.112L254.595,75.091L254.529,75.071L254.462,75.054L254.394,75.039L254.326,75.027L254.258,75.017L254.19,75.009L254.121,75.004L254.052,75.001L253.983,75L253.914,75.002Z" style="fill:white;"/>
                        </g>
                    </g>
                </g>
            </g>
        </g>
    </g>
</svg>
