<svg viewBox="0 0 142 142" xmlns="http://www.w3.org/2000/svg" fill-rule="evenodd" clip-rule="evenodd" stroke-miterlimit="1.414">
  <path d="M71.203 26.958h2l.2.2h1.6l.2.2h.8l.2.2h.6l.2.2h.6l.2.2h.6l.2.2h.2l.4.2h.4l.4.2h.2l.2.2h.2l.2.2h.4v.2h.4l.2.2h.4v.2h.2l.2.2h.2l.2.2h.2l.2.2h.2l.2.2h.2v.2h.4v.2h.2l.2.2h.2l.2.2.2.2h.2v.2h.2l.2.2h.2l.2.2.2.2.2.2h.2v.2h.2v.2h.2l.2.2.2.2.2.2h.2v.2h.2v.2h.2l.2.2.2.2.2.2v.2h.2v.2h.2l.2.2.2.2.2.2v.2h.2v.2h.2v.2l.2.2.2.2.2.2v.2h.2v.2h.2v.2l.2.2.2.2.2.2v.2l.2.2v.2h.2v.2l.2.2.2.2v.2l.2.2v.2h.2v.4h.2v.2l.2.2v.2l.2.2v.2l.2.2v.2l.2.2v.2h.2v.4l.2.2v.4h.2v.4l.2.2v.2l.2.2v.4l.2.2v.4l.2.2v.4l.2.2v.6l.2.2v.6l.2.2v.6l.2.2v.8l.2.2v1.6l.2.2v4.4l-.2.2v1.6l-.2.2v.8l-.2.2v.6l-.2.2v.6l-.2.2v.6l-.2.2v.4l-.2.2v.4l-.2.2v.4l-.2.2v.2l-.2.2v.4h-.2v.4l-.2.2v.4h-.2v.2l-.2.2v.2l-.2.2v.2l-.2.2v.2l-.2.2v.2h-.2v.4h-.2v.2l-.2.2v.2l-.2.2-.2.2v.2h-.2v.2l-.2.2v.2l-.2.2-.2.2-.2.2v.2h-.2v.2h-.2v.2l-.2.2-.2.2-.2.2v.2h-.2v.2h-.2v.2l-.2.2-.2.2-.2.2h-.2v.2h-.2v.2l-.2.2-.2.2-.2.2h-.2v.2h-.2v.2h-.2l-.2.2-.2.2-.2.2h-.2v.2h-.2v.2h-.2l-.2.2-.2.2-.2.2h-.2l-.2.2h-.2v.2h-.2l-.2.2-.2.2h-.2l-.2.2h-.2v.2h-.4v.2h-.2l-.2.2h-.2l-.2.2h-.2l-.2.2h-.2l-.2.2h-.2v.2h-.4l-.2.2h-.4v.2h-.4l-.2.2h-.2l-.2.2h-.4l-.2.2h-.4l-.2.2h-.4l-.2.2h-.6l-.2.2h-.6l-.2.2h-.6l-.2.2h-.8l-.2.2h-1.6l-.2.2h-4.4l-.2-.2h-1.6l-.2-.2h-.8l-.2-.2h-.6l-.2-.2h-.6l-.2-.2h-.6l-.2-.2h-.4l-.2-.2h-.4l-.2-.2h-.4l-.2-.2h-.2l-.2-.2h-.4v-.2h-.4l-.2-.2h-.4v-.2h-.2l-.2-.2h-.2l-.2-.2h-.2l-.2-.2h-.2l-.2-.2h-.2v-.2h-.4v-.2h-.2l-.2-.2h-.2l-.2-.2-.2-.2h-.2v-.2h-.2l-.2-.2h-.2l-.2-.2-.2-.2-.2-.2h-.2v-.2h-.2v-.2h-.2l-.2-.2-.2-.2-.2-.2h-.2v-.2h-.2v-.2h-.2l-.2-.2-.2-.2-.2-.2v-.2h-.2v-.2h-.2l-.2-.2-.2-.2-.2-.2v-.2h-.2v-.2h-.2v-.2l-.2-.2-.2-.2-.2-.2v-.2h-.2v-.2h-.2v-.2l-.2-.2-.2-.2-.2-.2v-.2l-.2-.2v-.2h-.2v-.2l-.2-.2-.2-.2v-.2l-.2-.2v-.2h-.2v-.4h-.2v-.2l-.2-.2v-.2l-.2-.2v-.2l-.2-.2v-.2l-.2-.2v-.2h-.2v-.4l-.2-.2v-.4h-.2v-.4l-.2-.2v-.2l-.2-.2v-.4l-.2-.2v-.4l-.2-.2v-.4l-.2-.2v-.6l-.2-.2v-.6l-.2-.2v-.6l-.2-.2v-.8l-.2-.2v-1.6l-.2-.2v-4.4l.2-.2v-1.6l.2-.2v-.8l.2-.2v-.6l.2-.2v-.6l.2-.2v-.6l.2-.2v-.4l.2-.2v-.4l.2-.2v-.4l.2-.2v-.2l.2-.2v-.4h.2v-.4l.2-.2v-.4h.2v-.2l.2-.2v-.2l.2-.2v-.2l.2-.2v-.2l.2-.2v-.2h.2v-.4h.2v-.2l.2-.2v-.2l.2-.2.2-.2v-.2h.2v-.2l.2-.2v-.2l.2-.2.2-.2.2-.2v-.2h.2v-.2h.2v-.2l.2-.2.2-.2.2-.2v-.2h.2v-.2h.2v-.2l.2-.2.2-.2.2-.2h.2v-.2h.2v-.2l.2-.2.2-.2.2-.2h.2v-.2h.2v-.2h.2l.2-.2.2-.2.2-.2h.2v-.2h.2v-.2h.2l.2-.2.2-.2.2-.2h.2l.2-.2h.2v-.2h.2l.2-.2.2-.2h.2l.2-.2h.2v-.2h.4v-.2h.2l.2-.2h.2l.2-.2h.2l.2-.2h.2l.2-.2h.2v-.2h.4l.2-.2h.4v-.2h.4l.2-.2h.2l.2-.2h.4l.2-.2h.4l.2-.2h.4l.2-.2h.6l.2-.2h.6l.2-.2h.6l.2-.2h.8l.2-.2h1.6l.2-.2h2.4zm-.4 4h-1.8l-.2.2h-1.4l-.2.2h-.8l-.2.2h-.6l-.2.2h-.6v.2h-.6l-.2.2h-.4l-.2.2h-.4v.2h-.4l-.2.2h-.4v.2h-.2l-.2.2h-.4v.2h-.4v.2h-.2l-.2.2h-.2l-.2.2h-.2v.2h-.4v.2h-.2l-.2.2h-.2v.2h-.2l-.2.2h-.2v.2h-.2l-.2.2-.2.2h-.2v.2h-.2v.2h-.2v.2h-.2l-.2.2-.2.2-.2.2h-.2v.2h-.2v.2h-.2v.2h-.2v.2h-.2v.2h-.2v.2l-.2.2-.2.2-.2.2-.2.2v.2h-.2v.2h-.2v.2h-.2v.2l-.2.2-.2.2v.2h-.2v.2l-.2.2v.2h-.2v.2l-.2.2v.2h-.2v.4h-.2v.2l-.2.2v.2l-.2.2v.2h-.2v.4h-.2v.4l-.2.2v.2h-.2v.4l-.2.2v.4h-.2v.4l-.2.2v.4l-.2.2v.6h-.2v.6l-.2.2v.6l-.2.2v.8l-.2.2v1.4h-.2v4.4h.2v1.4l.2.2v.8l.2.2v.6l.2.2v.4l.2.2v.6l.2.2v.4l.2.2v.4h.2v.4l.2.2v.4h.2v.2l.2.2v.4h.2v.4h.2v.2l.2.2v.2l.2.2v.2h.2v.4h.2v.2l.2.2v.2h.2v.2l.2.2v.2h.2v.2l.2.2.2.2v.2h.2v.2h.2v.2h.2v.2l.2.2.2.2.2.2.2.2v.2h.2v.2h.2v.2h.2v.2h.2v.2h.2v.2h.2l.2.2.2.2.2.2h.2v.2h.2v.2h.2v.2h.2l.2.2.2.2h.2v.2h.2l.2.2h.2v.2h.2l.2.2h.2v.2h.4v.2h.2l.2.2h.2l.2.2h.2v.2h.4v.2h.4l.2.2h.2v.2h.4l.2.2h.4v.2h.4l.2.2h.4l.4.2h.4v.2h.6l.2.2h.6l.2.2h.8l.2.2h1.4v.2h4.4v-.2h1.4l.2-.2h.8l.2-.2h.6l.2-.2h.6v-.2h.6l.2-.2h.4l.2-.2h.4v-.2h.4l.2-.2h.4v-.2h.2l.2-.2h.4v-.2h.4v-.2h.2l.2-.2h.2l.2-.2h.2v-.2h.4v-.2h.2l.2-.2h.2v-.2h.2l.2-.2h.2v-.2h.2l.2-.2.2-.2h.2v-.2h.2v-.2h.2v-.2h.2l.2-.2.2-.2.2-.2h.2v-.2h.2v-.2h.2v-.2h.2v-.2h.2v-.2h.2v-.2l.2-.2.2-.2.2-.2.2-.2v-.2h.2v-.2h.2v-.2h.2v-.2l.2-.2.2-.2v-.2h.2v-.2l.2-.2v-.2h.2v-.2l.2-.2v-.2h.2v-.4h.2v-.2l.2-.2v-.2l.2-.2v-.2h.2v-.4h.2v-.4l.2-.2v-.2h.2v-.4l.2-.2v-.4h.2v-.4l.2-.2v-.4l.2-.2v-.6h.2v-.6l.2-.2v-.6l.2-.2v-.8l.2-.2v-1.4h.2v-4.4h-.2v-1.4l-.2-.2v-.8l-.2-.2v-.6l-.2-.2v-.6h-.2v-.6l-.2-.2v-.4l-.2-.2v-.4h-.2v-.4l-.2-.2v-.4h-.2v-.2l-.2-.2v-.4h-.2v-.4h-.2v-.2l-.2-.2v-.2l-.2-.2v-.2h-.2v-.4h-.2v-.2l-.2-.2v-.2h-.2v-.2l-.2-.2v-.2h-.2v-.2l-.2-.2-.2-.2v-.2h-.2v-.2h-.2v-.2h-.2v-.2l-.2-.2-.2-.2-.2-.2-.2-.2v-.2h-.2v-.2h-.2v-.2h-.2v-.2h-.2v-.2h-.2v-.2h-.2l-.2-.2-.2-.2-.2-.2h-.2v-.2h-.2v-.2h-.2v-.2h-.2l-.2-.2-.2-.2h-.2v-.2h-.2l-.2-.2h-.2v-.2h-.2l-.2-.2h-.2v-.2h-.4v-.2h-.2l-.2-.2h-.2l-.2-.2h-.2v-.2h-.4v-.2h-.4l-.2-.2h-.2v-.2h-.4l-.2-.2h-.4v-.2h-.4l-.2-.2h-.4l-.2-.2h-.6v-.2h-.6l-.2-.2h-.6l-.2-.2h-.8l-.2-.2h-1.4l-.2-.2h-2.2z" fill="rgb(77,77,77)"/>
  <path d="M71.11 74.997h1.5l.3.3h3l.3.3h1.5l.3.3h1.2l.3.3h.9v.3h.9l.3.3h.6l.3.3h.6l.3.3h.6l.3.3h.6l.3.3h.3l.3.3h.3l.3.3h.6v.3h.6v.3h.6v.3h.6v.3h.6v.3h.3l.3.3h.3l.3.3h.3l.3.3.3.3h.3v.3h.3l.3.3h.3v.3h.3l.3.3.3.3h.3l.3.3.3.3.3.3h.3v.3h.3v.3h.3v.3h.3l.3.3.3.3.3.3.3.3.3.3h.3v.3l.3.3.3.3.3.3.3.3.3.3v.3h.3v.3h.3v.3h.3v.3l.3.3.3.3.3.3v.3l.3.3.3.3v.3h.3v.3l.3.3v.3h.3v.3l.3.3.3.3v.3l.3.3v.3l.3.3v.3h.3v.6h.3v.6h.3v.6h.3v.3l.3.3v.6l.3.3v.3l.3.3v.3l.3.3v.6l.3.3v.6l.3.3v.6l.3.3v.6l.3.3v.9h.3v.9l.3.3v1.2l.3.3v1.5l.3.3v3h.3v2.1h-4.2v-4.2h-.3v-1.8l-.3-.3v-1.2l-.3-.3v-.9l-.3-.3v-.6l-.3-.3v-.9h-.3v-.6l-.3-.3v-.6l-.3-.3v-.3l-.3-.3v-.6l-.3-.3v-.3h-.3v-.6l-.3-.3v-.3l-.3-.3v-.3l-.3-.3v-.3h-.3v-.6h-.3v-.3l-.3-.3-.3-.3v-.3l-.3-.3v-.3h-.3v-.3l-.3-.3v-.3h-.3v-.3h-.3v-.3l-.3-.3-.3-.3v-.3h-.3v-.3l-.3-.3-.3-.3-.3-.3-.3-.3-.3-.3v-.3h-.3v-.3h-.3v-.3h-.3v-.3h-.3l-.3-.3-.3-.3-.3-.3-.3-.3-.3-.3h-.3v-.3h-.3l-.3-.3-.3-.3h-.3v-.3h-.3v-.3h-.3l-.3-.3h-.3v-.3h-.3l-.3-.3h-.3l-.3-.3-.3-.3h-.3v-.3h-.6v-.3h-.3l-.3-.3h-.3l-.3-.3h-.3l-.3-.3h-.3l-.3-.3h-.3l-.3-.3h-.6l-.3-.3h-.3l-.3-.3h-.6l-.3-.3h-.6v-.3h-.9l-.3-.3h-.6l-.3-.3h-.9l-.3-.3h-1.2l-.3-.3h-1.8v-.3h-8.4v.3h-1.8l-.3.3h-1.2l-.3.3h-.9l-.3.3h-.6l-.3.3h-.9v.3h-.6l-.3.3h-.6l-.3.3h-.3l-.3.3h-.6l-.3.3h-.3v.3h-.6l-.3.3h-.3l-.3.3h-.3l-.3.3h-.3v.3h-.6v.3h-.3l-.3.3-.3.3h-.3l-.3.3h-.3v.3h-.3l-.3.3h-.3v.3h-.3v.3h-.3l-.3.3-.3.3h-.3v.3h-.3l-.3.3-.3.3-.3.3-.3.3-.3.3h-.3v.3h-.3v.3h-.3v.3h-.3v.3l-.3.3-.3.3-.3.3-.3.3-.3.3v.3h-.3v.3l-.3.3-.3.3v.3h-.3v.3h-.3v.3l-.3.3v.3h-.3v.3l-.3.3v.3l-.3.3-.3.3v.3h-.3v.6h-.3v.3l-.3.3v.3l-.3.3v.3l-.3.3v.6h-.3v.3l-.3.3v.6l-.3.3v.3l-.3.3v.6l-.3.3v.6h-.3v.9l-.3.3v.6l-.3.3v.9l-.3.3v1.2l-.3.3v1.8h-.3v4.2h-4.2v-1.8l.3-.3v-3l.3-.3v-1.5l.3-.3v-1.2l.3-.3v-.9h.3v-.9l.3-.3v-.6l.3-.3v-.6l.3-.3v-.6l.3-.3v-.6l.3-.3v-.3l.3-.3v-.3l.3-.3v-.6l.3-.3v-.3h.3v-.6h.3v-.6h.3v-.6h.3v-.3l.3-.3v-.3l.3-.3v-.3l.3-.3.3-.3v-.3h.3v-.3l.3-.3v-.3h.3v-.3l.3-.3.3-.3v-.3l.3-.3.3-.3.3-.3v-.3h.3v-.3h.3v-.3h.3v-.3l.3-.3.3-.3.3-.3.3-.3.3-.3v-.3h.3l.3-.3.3-.3.3-.3.3-.3.3-.3h.3v-.3h.3v-.3h.3v-.3h.3l.3-.3.3-.3.3-.3h.3l.3-.3.3-.3h.3v-.3h.3l.3-.3h.3v-.3h.3l.3-.3.3-.3h.3l.3-.3h.3l.3-.3h.3v-.3h.6v-.3h.6v-.3h.6v-.3h.6v-.3h.6l.3-.3h.3l.3-.3h.3l.3-.3h.6l.3-.3h.6l.3-.3h.6l.3-.3h.6l.3-.3h.9v-.3h.9l.3-.3h1.2l.3-.3h1.5l.3-.3h3l.3-.3h2.1z" fill="rgb(77,77,77)"/>
  <path d="M84.942 79.378v.7l-.1.1v.8l-.1.1v.4l-.1.2v.3l-.1.1v.4l-.1.2v.1l-.1.2v.2l-.1.1v.2l-.1.2-.1.1v.2l-.1.1v.2l-.1.1-.1.2v.2l-.1.1-.1.2-.1.1v.2l-.1.1-.1.2-.1.1-.1.2v.1l-.1.2-.1.1-.1.1-.1.2-.1.1-.1.2-.1.1-.1.1-.1.2-.1.1-.1.1-.1.2-.1.1-.1.1-.1.2-.1.1-.1.1-.1.1-.2.2-.1.1-.1.1-.1.1-.1.1-.2.1-.1.2-.1.1-.1.1-.2.1-.1.1-.1.1-.2.1-.1.1-.1.1-.2.1-.1.1-.1.1-.2.1-.1.1-.2.1-.1.1-.1.1-.2.1h-.1l-.2.1-.1.1-.2.1-.1.1h-.2l-.1.1-.2.1-.1.1h-.2l-.2.1-.1.1h-.2l-.1.1h-.2l-.1.1-.2.1h-.2l-.1.1h-.2l-.2.1h-.1l-.2.1h-.3l-.2.1h-.4l-.1.1h-.4l-.1.1h-.7l-.2.1h-2.2l-.2-.1h-.7l-.1-.1h-.4l-.1-.1h-.4l-.2-.1h-.3l-.2-.1h-.1l-.2-.1h-.2l-.1-.1h-.2l-.2-.1-.1-.1h-.2l-.1-.1h-.2l-.1-.1-.2-.1h-.2l-.1-.1-.2-.1-.1-.1h-.2l-.1-.1-.2-.1-.1-.1-.2-.1h-.1l-.2-.1-.1-.1-.1-.1-.2-.1-.1-.1-.2-.1-.1-.1-.1-.1-.2-.1-.1-.1-.1-.1-.2-.1-.1-.1-.1-.1-.2-.1-.1-.1-.1-.1-.1-.2-.2-.1-.1-.1-.1-.1-.1-.1-.1-.1-.2-.2-.1-.1-.1-.1-.1-.1-.1-.2-.1-.1-.1-.1-.1-.2-.1-.1-.1-.1-.1-.2-.1-.1-.1-.1-.1-.2-.1-.1-.1-.2-.1-.1-.1-.1-.1-.2v-.1l-.1-.2-.1-.1-.1-.2-.1-.1v-.2l-.1-.1-.1-.2-.1-.1v-.2l-.1-.2-.1-.1v-.2l-.1-.1v-.2l-.1-.1-.1-.2v-.2l-.1-.1v-.2l-.1-.2v-.1l-.1-.2v-.4l-.1-.1v-.3l-.1-.2v-.4l-.1-.1v-.8l-.1-.1v-1.1h4v.9l.1.1v.7l.1.1v.3l.1.2v.3l.1.1v.3l.1.1v.1l.1.1v.1l.1.2v.2l.1.1v.1l.1.1v.1l.1.1v.1l.1.2.1.2.1.1v.1l.1.1v.1l.1.1.1.1v.1l.1.1.1.1v.1l.1.1.1.1.1.1v.1l.1.1.1.1h.1v.1l.1.1.1.1.1.1.1.1v.1l.1.1.1.1h.1l.1.1.1.1.1.1.1.1h.1v.1l.1.1.1.1h.1l.1.1.1.1.1.1h.1l.1.1.1.1h.1l.1.1.1.1h.1l.1.1h.1l.1.1.1.1h.2l.1.1h.1l.1.1h.1l.1.1h.1l.1.1h.2l.2.1h.1l.1.1h.2l.1.1h.2l.1.1h.3l.2.1h.3l.2.1h.6l.1.1h1.8l.1-.1h.6l.2-.1h.3l.2-.1h.3l.1-.1h.2l.1-.1h.2l.1-.1h.1l.2-.1h.2l.1-.1h.1l.1-.1h.1l.1-.1h.1l.1-.1h.2l.1-.1.1-.1h.1l.1-.1h.1l.1-.1.1-.1h.1l.1-.1.1-.1h.1l.1-.1.1-.1.1-.1h.1l.1-.1.1-.1v-.1h.1l.1-.1.1-.1.1-.1.1-.1h.1l.1-.1.1-.1v-.1l.1-.1.1-.1.1-.1.1-.1v-.1h.1l.1-.1.1-.1v-.1l.1-.1.1-.1.1-.1v-.1l.1-.1.1-.1v-.1l.1-.1.1-.1v-.1l.1-.1v-.1l.1-.1.1-.2.1-.2v-.1l.1-.1v-.1l.1-.1v-.1l.1-.1v-.2l.1-.2v-.1l.1-.1v-.1l.1-.1v-.3l.1-.1v-.3l.1-.2v-.3l.1-.1v-.7l.1-.1v-.9h4v.4z" fill="rgb(77,77,77)"/>
</svg>
