<svg width="20" height="24" viewBox="0 0 20 24" xmlns="http://www.w3.org/2000/svg"><title>364185C0-282A-4B26-977A-9FCE0C228330</title><g fill="none" fill-rule="evenodd"><path d="M-6-3h28v28H-6z"/><path d="M9.236 10.87l-1.34-.962c-.121-.12-.121-.24-.121-.361L8.992 7.5c.122-.12.244-.241.365-.12l1.583.48c.365-.24.73-.48 1.096-.601l.243-1.565c0-.12.122-.24.366-.24h2.435c.121 0 .243.12.365.24l.243 1.565c.366.12.73.361 1.096.602l1.583-.602c.122 0 .243 0 .365.12l1.218 2.047c.121.12 0 .24-.122.36l-1.34.964v1.203l1.34.963c.122.24.122.361.122.482l-1.218 2.046c-.122.12-.243.24-.365.12l-1.705-.481c-.365.24-.73.481-1.095.601l-.244 1.565c.122.12-.122.24-.243.24h-2.435c-.122 0-.244-.12-.366-.24l-.243-1.565c-.365-.12-.73-.36-1.096-.601l-1.583.601c-.121 0-.243 0-.365-.12l-1.217-2.046c-.122-.12 0-.24.121-.361l1.34-1.083V10.87zm7.316.585c0-1.5-1.241-2.728-2.759-2.728-1.517 0-2.758 1.228-2.758 2.728 0 1.5 1.241 2.727 2.758 2.727 1.518 0 2.759-1.227 2.759-2.727zM13.242 0c1.213 0 2.207.982 2.207 2.182v2.182h-2.207V3.273H2.207v16.363h11.035v-1.09h2.207v3.272c0 1.2-.994 2.182-2.207 2.182H2.207C.993 24 0 23.018 0 21.818V2.182C0 .982.993 0 2.207 0h11.035zM5.517 21.818c0-.602.49-1.09 1.091-1.09H8.84a1.091 1.091 0 0 1 0 2.182H6.608a1.088 1.088 0 0 1-1.09-1.092z" fill="#FFF"/></g></svg>