<svg width="20" height="26" viewBox="0 0 20 26" xmlns="http://www.w3.org/2000/svg" xmlns:xlink="http://www.w3.org/1999/xlink"><title>C617AD69-0400-46DE-9B0E-14F4D247B75A</title><defs><path d="M8.25 10.87l-1.34-.962c-.123-.12-.123-.24-.123-.361L8.007 7.5c.122-.12.244-.241.366-.12l1.585.48c.366-.24.732-.48 1.097-.601l.244-1.565c0-.12.122-.24.366-.24h2.44c.121 0 .243.12.365.24l.244 1.565c.366.12.732.361 1.097.602l1.586-.602c.122 0 .244 0 .366.12l1.219 2.047c.122.12 0 .24-.122.36l-1.341.964v1.203l1.341.963c.122.24.122.361.122.482l-1.22 2.046c-.121.12-.243.24-.365.12l-1.708-.481c-.365.24-.731.481-1.097.601l-.244 1.565c.122.12-.122.24-.244.24h-2.439c-.122 0-.244-.12-.366-.24l-.244-1.565c-.365-.12-.731-.36-1.097-.601l-1.585.601c-.122 0-.244 0-.366-.12l-1.22-2.046c-.122-.12 0-.24.122-.361l1.342-1.083V10.87z" id="a"/><mask id="b" x="0" y="0" width="12.296" height="12.036" fill="#fff"><use xlink:href="#a"/></mask></defs><g transform="translate(-5)" fill="none" fill-rule="evenodd"><path d="M0 0h28v28H0z"/><g transform="translate(6 1)"><path d="M12.263 0c1.216 0 2.21.982 2.21 2.182v1.09H.317v16.364h14.158v2.182c0 1.2-.995 2.182-2.21 2.182H2.21C.995 24 0 23.018 0 21.818V2.182C0 .982.995 0 2.21 0h10.053z" stroke="#FFF" stroke-width="2"/><path d="M14.053 11.455c0-.672-.557-1.221-1.237-1.221s-1.237.55-1.237 1.22c0 .672.557 1.221 1.237 1.221s1.237-.549 1.237-1.22z" fill="#FFF"/><use stroke="#FFF" mask="url(#b)" stroke-width="4" xlink:href="#a"/></g><rect fill="#FFF" x="12" y="22.1" width="3" height="1.5" rx=".75"/></g></svg>