<?xml version="1.0" encoding="UTF-8" standalone="no"?>
<!DOCTYPE svg PUBLIC "-//W3C//DTD SVG 1.1//EN" "http://www.w3.org/Graphics/SVG/1.1/DTD/svg11.dtd">
<svg width="100%" height="100%" viewBox="0 0 32 32" version="1.1" xmlns="http://www.w3.org/2000/svg" xmlns:xlink="http://www.w3.org/1999/xlink" xml:space="preserve" style="fill-rule:evenodd;clip-rule:evenodd;stroke-miterlimit:1.41421;">
    <g transform="matrix(1,0,0,1,-6932,-5384)">
        <g transform="matrix(0.998959,-2.42305e-19,-2.54869e-19,0.950704,6902,5230)">
            <g transform="matrix(0.500521,1.27567e-19,1.34182e-19,0.525926,11.512,-19.9852)">
                <g transform="matrix(1,0,0,1,-3717,191)">
                    <circle cx="3786" cy="187" r="28" style="fill:none;stroke-width:4px;stroke:white;"/>
                </g>
                <g transform="matrix(0.428571,0,0,1,-1553.57,191)">
                    <path d="M3786,159C3801.45,159 3814,171.546 3814,187C3814,202.454 3801.45,215 3786,215" style="fill:none;stroke-width:5.2px;stroke:white;"/>
                </g>
                <g transform="matrix(0.428571,0,0,1,-1553.57,191)">
                    <path d="M3786,215C3770.55,215 3758,202.454 3758,187C3758,171.546 3770.55,159 3786,159" style="fill:none;stroke-width:5.2px;stroke:white;"/>
                </g>
                <g transform="matrix(0.928571,0,0,1,-3425.21,-5559)">
                    <path d="M3735,5927L3791,5927" style="fill:white;stroke-width:4.15px;stroke:white;"/>
                </g>
                <g transform="matrix(0.928571,0,0,1,-3425.21,-5539)">
                    <path d="M3735,5927L3791,5927" style="fill:white;stroke-width:4.15px;stroke:white;"/>
                </g>
            </g>
        </g>
    </g>
</svg>
