<?xml version="1.0" encoding="UTF-8" standalone="no"?>
<!DOCTYPE svg PUBLIC "-//W3C//DTD SVG 1.1//EN" "http://www.w3.org/Graphics/SVG/1.1/DTD/svg11.dtd">
<svg width="100%" height="100%" viewBox="0 0 32 32" version="1.1" xmlns="http://www.w3.org/2000/svg" xmlns:xlink="http://www.w3.org/1999/xlink" xml:space="preserve" style="fill-rule:evenodd;clip-rule:evenodd;stroke-linejoin:round;stroke-miterlimit:1.41421;">
    <g transform="matrix(1,0,0,1,-6932,-5384)">
        <g transform="matrix(0.998959,-2.42305e-19,-2.54869e-19,0.950704,6902,5230)">
            <g transform="matrix(1.00104,2.55135e-19,2.68364e-19,1.05185,-6909.19,-5501.19)">
                <path d="M6948,5414L6948,5414L6948,5414L6948,5414ZM6960.65,5406C6958.81,5409.87 6955.25,5412.76 6950.96,5413.69C6951.35,5413.31 6951.69,5412.89 6951.99,5412.45C6952.11,5412.28 6952.22,5412.11 6952.33,5411.93C6952.48,5411.68 6952.63,5411.41 6952.76,5411.15C6952.93,5410.82 6953.07,5410.5 6953.21,5410.16C6953.4,5409.72 6953.57,5409.27 6953.71,5408.82C6954.02,5407.9 6954.26,5406.95 6954.44,5406L6960.65,5406ZM6941.56,5406C6941.74,5406.95 6941.98,5407.9 6942.29,5408.82C6942.44,5409.27 6942.6,5409.72 6942.78,5410.16C6942.92,5410.5 6943.07,5410.82 6943.24,5411.15C6943.37,5411.41 6943.52,5411.68 6943.67,5411.93C6943.78,5412.11 6943.89,5412.28 6944,5412.45C6944.3,5412.89 6944.65,5413.31 6945.04,5413.69C6940.75,5412.76 6937.19,5409.87 6935.35,5406L6941.56,5406ZM6952.4,5406C6952.23,5406.78 6952.03,5407.56 6951.77,5408.32C6951.53,5409.05 6951.24,5409.76 6950.88,5410.44C6950.6,5410.95 6950.29,5411.45 6949.91,5411.89C6949.48,5412.38 6948.95,5412.85 6948.29,5412.97C6948.24,5412.98 6948.19,5412.99 6948.14,5412.99C6948.1,5413 6948.05,5413 6948,5413C6947.89,5413 6947.78,5412.99 6947.67,5412.97C6947.42,5412.91 6947.18,5412.81 6946.96,5412.67C6946.61,5412.44 6946.31,5412.15 6946.04,5411.83C6945.59,5411.29 6945.23,5410.67 6944.92,5410.04C6944.51,5409.2 6944.2,5408.31 6943.95,5407.41C6943.82,5406.95 6943.7,5406.47 6943.6,5406L6952.4,5406ZM6941.24,5396C6941.15,5396.78 6941.08,5397.56 6941.04,5398.34C6940.95,5400.23 6941.01,5402.13 6941.24,5404L6934.58,5404C6934.2,5402.73 6934,5401.39 6934,5400C6934,5398.61 6934.2,5397.27 6934.58,5396L6941.24,5396ZM6952.74,5396C6952.76,5396.1 6952.77,5396.19 6952.78,5396.29C6952.97,5397.81 6953.03,5399.34 6952.99,5400.87C6952.96,5401.92 6952.88,5402.96 6952.74,5404L6943.26,5404C6943.07,5402.56 6942.99,5401.1 6943,5399.65C6943.01,5398.43 6943.1,5397.21 6943.26,5396L6952.74,5396ZM6954.76,5396L6961.42,5396C6961.8,5397.27 6962,5398.61 6962,5400C6962,5401.39 6961.8,5402.73 6961.42,5404L6954.76,5404C6954.94,5402.49 6955.02,5400.97 6954.99,5399.44C6954.98,5398.29 6954.9,5397.14 6954.76,5396ZM6945.04,5386.31C6944.74,5386.61 6944.46,5386.93 6944.21,5387.26C6944.09,5387.42 6943.98,5387.59 6943.87,5387.75C6943.73,5387.96 6943.6,5388.18 6943.48,5388.4C6943.33,5388.66 6943.19,5388.94 6943.06,5389.21C6942.89,5389.59 6942.73,5389.97 6942.58,5390.36C6942.16,5391.45 6941.85,5392.59 6941.61,5393.73C6941.59,5393.82 6941.58,5393.91 6941.56,5394L6935.35,5394C6937.19,5390.13 6940.75,5387.24 6945.04,5386.31ZM6950.96,5386.31C6955.25,5387.24 6958.81,5390.13 6960.65,5394L6954.44,5394C6954.21,5392.81 6953.89,5391.63 6953.47,5390.49C6953.33,5390.1 6953.17,5389.71 6952.99,5389.33C6952.86,5389.05 6952.73,5388.78 6952.58,5388.51C6952.46,5388.29 6952.33,5388.07 6952.2,5387.86C6952.09,5387.69 6951.98,5387.52 6951.86,5387.36C6951.59,5386.99 6951.29,5386.63 6950.96,5386.31ZM6948,5387C6948.13,5387 6948.26,5387.02 6948.38,5387.05C6948.6,5387.1 6948.8,5387.19 6948.98,5387.3C6949.34,5387.51 6949.64,5387.8 6949.91,5388.11C6950.36,5388.64 6950.72,5389.24 6951.03,5389.86C6951.46,5390.73 6951.79,5391.65 6952.05,5392.59C6952.19,5393.05 6952.3,5393.53 6952.4,5394L6943.6,5394C6943.77,5393.22 6943.97,5392.44 6944.23,5391.68C6944.48,5390.92 6944.79,5390.17 6945.18,5389.47C6945.44,5388.99 6945.74,5388.52 6946.09,5388.11C6946.52,5387.61 6947.06,5387.15 6947.71,5387.03C6947.76,5387.02 6947.81,5387.01 6947.86,5387.01C6947.9,5387 6947.95,5387 6948,5387Z" style="fill:white;"/>
            </g>
        </g>
    </g>
</svg>
