<?xml version="1.0" encoding="UTF-8" standalone="no"?>
<!DOCTYPE svg PUBLIC "-//W3C//DTD SVG 1.1//EN" "http://www.w3.org/Graphics/SVG/1.1/DTD/svg11.dtd">
<svg width="100%" height="100%" viewBox="0 0 32 32" version="1.1" xmlns="http://www.w3.org/2000/svg" xmlns:xlink="http://www.w3.org/1999/xlink" xml:space="preserve" style="fill-rule:evenodd;clip-rule:evenodd;stroke-linejoin:round;stroke-miterlimit:1.41421;">
    <g transform="matrix(1,0,0,1,-6932,-5444)">
        <g transform="matrix(0.998959,-2.42305e-19,-2.54869e-19,0.950704,6902,5230)">
            <g transform="matrix(0.846299,2.15696e-19,2.2688e-19,0.889255,-83.4358,33.1046)">
                <g transform="matrix(0.916667,0,0,0.916667,-3373.5,-5066.68)">
                    <circle cx="3840" cy="5786" r="6" style="fill:white;"/>
                </g>
                <g transform="matrix(0.916667,0,0,0.916667,-3360.5,-5079.68)">
                    <circle cx="3840" cy="5786" r="6" style="fill:white;"/>
                </g>
                <g transform="matrix(1,0,0,1,-3694,-5549)">
                    <path d="M3832.81,5800.39C3832.81,5800.39 3833.18,5791.65 3840.5,5791.65C3847.82,5791.65 3848.18,5800.39 3848.18,5800.39" style="fill:white;"/>
                </g>
                <g transform="matrix(1,0,0,1,-3681,-5562)">
                    <path d="M3832.82,5800.38C3832.82,5800.38 3833.18,5791.65 3840.5,5791.65C3847.82,5791.65 3848.19,5800.38 3848.19,5800.38" style="fill:white;"/>
                </g>
            </g>
        </g>
    </g>
</svg>
