<?xml version="1.0" encoding="UTF-8" standalone="no"?>
<!DOCTYPE svg PUBLIC "-//W3C//DTD SVG 1.1//EN" "http://www.w3.org/Graphics/SVG/1.1/DTD/svg11.dtd">
<svg width="100%" height="100%" viewBox="0 0 42 42" version="1.1" xmlns="http://www.w3.org/2000/svg" xmlns:xlink="http://www.w3.org/1999/xlink" xml:space="preserve" style="fill-rule:evenodd;clip-rule:evenodd;stroke-linejoin:round;stroke-miterlimit:1.41421;">
    <g transform="matrix(1,0,0,1,-14777,-14974)">
        <g transform="matrix(0.998959,-2.42305e-19,-2.54869e-19,0.950704,13111,13974)">
            <g transform="matrix(1,0,0,1,2.62508e-14,29.4519)">
                <g transform="matrix(0.864536,2.20344e-19,2.68364e-19,1.05185,-11103.8,-14734.3)">
                    <rect x="14775" y="14985" width="44" height="2" style="fill:white;fill-rule:nonzero;"/>
                </g>
                <g transform="matrix(0.864536,2.20344e-19,2.68364e-19,1.05185,-11103.8,-14723.8)">
                    <rect x="14775" y="14985" width="44" height="2" style="fill:white;fill-rule:nonzero;"/>
                </g>
                <g transform="matrix(0.864536,2.20344e-19,2.68364e-19,1.05185,-11103.8,-14713.3)">
                    <rect x="14775" y="14985" width="44" height="2" style="fill:white;fill-rule:nonzero;"/>
                </g>
                <g transform="matrix(0.864536,2.20344e-19,2.68364e-19,1.05185,-11103.8,-14702.8)">
                    <rect x="14775" y="14985" width="44" height="2" style="fill:white;fill-rule:nonzero;"/>
                </g>
            </g>
        </g>
    </g>
</svg>
