<?xml version="1.0" encoding="UTF-8" standalone="no"?>
<!DOCTYPE svg PUBLIC "-//W3C//DTD SVG 1.1//EN" "http://www.w3.org/Graphics/SVG/1.1/DTD/svg11.dtd">
<svg width="100%" height="100%" viewBox="0 0 34 34" version="1.1" xmlns="http://www.w3.org/2000/svg" xmlns:xlink="http://www.w3.org/1999/xlink" xml:space="preserve" style="fill-rule:evenodd;clip-rule:evenodd;stroke-linejoin:round;stroke-miterlimit:1.41421;">
    <g transform="matrix(1,0,0,1,-16073,-30235)">
        <g transform="matrix(0.998959,-2.42305e-19,-2.54869e-19,0.950704,14568,29965)">
            <g transform="matrix(1,9.62965e-35,0,1,-54.1722,17.8815)">
                <g transform="matrix(0.583941,3.21585e-18,3.07221e-18,0.601058,-17029.2,-17256.5)">
                    <path d="M31853.4,29179.3C31855,29179.3 31856.7,29179.7 31858,29180.6L31858.2,29180.7C31858.4,29180.9 31858.6,29181 31858.8,29181.2C31859.2,29181.5 31859.6,29181.9 31860,29182.3C31860.4,29182.8 31860.8,29183.3 31861.2,29183.9C31861.9,29185.3 31862.4,29186.8 31862.7,29188.4C31862.7,29188.6 31862.7,29188.7 31862.7,29188.9L31862.7,29202L31859.3,29202L31859.3,29189.1C31859.2,29188.5 31859.1,29187.9 31858.9,29187.4C31858.5,29186 31857.8,29184.8 31856.7,29183.9C31856.2,29183.5 31855.7,29183.3 31855.2,29183.1C31855.1,29183 31855,29183 31854.9,29183C31854.4,29182.8 31853.8,29182.8 31853.3,29182.8C31850.4,29182.7 31847.6,29182.7 31844.7,29182.8C31844.2,29182.8 31843.6,29182.8 31843.1,29183C31843,29183 31842.9,29183 31842.8,29183.1C31842.4,29183.2 31842,29183.4 31841.7,29183.7C31841.4,29183.9 31841.1,29184.1 31840.8,29184.4C31840.7,29184.5 31840.5,29184.6 31840.4,29184.8C31840.4,29184.9 31840.3,29185 31840.2,29185C31840.1,29185.2 31840,29185.4 31839.9,29185.5C31839.7,29185.9 31839.5,29186.3 31839.3,29186.8C31839.2,29187 31839.1,29187.2 31839.1,29187.5C31839,29187.7 31838.9,29187.9 31838.9,29188.2C31838.8,29188.4 31838.8,29188.7 31838.7,29189L31838.7,29189.1L31838.7,29202L31835.3,29202L31835.3,29188.9C31835.3,29188.8 31835.3,29188.8 31835.3,29188.6C31835.4,29188.2 31835.4,29187.8 31835.5,29187.3C31835.8,29186.1 31836.3,29184.8 31837,29183.7C31837.1,29183.4 31837.3,29183.2 31837.5,29182.9C31837.7,29182.7 31837.8,29182.5 31838,29182.3C31838.5,29181.7 31839.1,29181.2 31839.7,29180.8L31839.8,29180.7C31840,29180.6 31840.3,29180.4 31840.5,29180.3C31840.9,29180.1 31841.3,29179.9 31841.7,29179.8C31841.9,29179.7 31842,29179.7 31842.2,29179.6C31842.9,29179.4 31843.5,29179.3 31844.2,29179.3C31844.4,29179.3 31844.6,29179.3 31844.8,29179.3C31847.7,29179.3 31850.5,29179.2 31853.4,29179.3Z" style="fill:rgb(77,77,77);fill-rule:nonzero;"/>
                </g>
                <g transform="matrix(0.667361,1.7009e-19,1.78909e-19,0.701235,-1818.37,-1041.68)">
                    <path d="M5075.77,1875.51C5076.09,1875.53 5076.4,1875.56 5076.71,1875.62C5077.5,1875.76 5078.27,1876.02 5078.97,1876.41C5079.81,1876.87 5080.56,1877.49 5081.17,1878.23C5081.75,1878.93 5082.2,1879.73 5082.49,1880.59C5083.1,1882.37 5083,1884.38 5082.22,1886.09C5081.8,1887.02 5081.19,1887.85 5080.44,1888.54C5080.27,1888.71 5080.07,1888.86 5079.88,1889.01C5079.39,1889.37 5078.87,1889.67 5078.31,1889.91C5077.69,1890.17 5077.02,1890.35 5076.34,1890.44C5076.03,1890.48 5075.71,1890.5 5075.39,1890.5C5074.82,1890.5 5074.25,1890.43 5073.69,1890.31C5073.33,1890.22 5072.97,1890.12 5072.63,1889.98C5072.01,1889.73 5071.43,1889.4 5070.9,1889.01C5070.7,1888.86 5070.51,1888.71 5070.33,1888.54C5069.59,1887.85 5068.97,1887.02 5068.55,1886.09C5068.03,1884.95 5067.81,1883.67 5067.91,1882.42C5067.97,1881.67 5068.14,1880.94 5068.41,1880.25C5068.74,1879.41 5069.23,1878.63 5069.83,1877.96C5070.28,1877.47 5070.79,1877.04 5071.35,1876.68C5071.61,1876.52 5071.87,1876.37 5072.15,1876.24C5072.36,1876.13 5072.59,1876.04 5072.81,1875.95C5073.58,1875.67 5074.39,1875.53 5075.21,1875.5C5075.49,1875.5 5075.49,1875.5 5075.77,1875.51ZM5075.26,1878.5C5074.78,1878.52 5074.29,1878.61 5073.84,1878.77C5073.7,1878.82 5073.57,1878.88 5073.43,1878.95C5072.94,1879.18 5072.5,1879.51 5072.13,1879.9C5071.75,1880.29 5071.45,1880.75 5071.24,1881.25C5071.06,1881.7 5070.94,1882.17 5070.9,1882.66C5070.83,1883.55 5071.03,1884.46 5071.48,1885.23C5071.72,1885.65 5072.03,1886.02 5072.38,1886.35C5072.48,1886.44 5072.59,1886.52 5072.7,1886.61C5073.02,1886.85 5073.38,1887.04 5073.75,1887.19C5073.95,1887.28 5074.16,1887.33 5074.38,1887.38C5074.63,1887.44 5074.89,1887.48 5075.15,1887.49C5075.75,1887.52 5076.36,1887.44 5076.94,1887.23C5077.45,1887.04 5077.92,1886.75 5078.34,1886.4C5078.53,1886.24 5078.7,1886.05 5078.86,1885.86C5079.23,1885.41 5079.52,1884.89 5079.69,1884.34C5080.01,1883.3 5079.94,1882.14 5079.49,1881.15C5079.27,1880.66 5078.96,1880.2 5078.57,1879.83C5078.5,1879.75 5078.42,1879.67 5078.34,1879.6C5078.11,1879.41 5077.87,1879.24 5077.61,1879.09C5077.53,1879.04 5077.44,1878.99 5077.35,1878.95C5077.21,1878.88 5077.07,1878.82 5076.94,1878.77C5076.55,1878.63 5076.14,1878.55 5075.73,1878.51L5075.63,1878.51C5075.44,1878.5 5075.44,1878.5 5075.26,1878.5Z" style="fill:rgb(77,77,77);fill-rule:nonzero;"/>
                </g>
                <g transform="matrix(2.00208,5.10269e-19,2.68364e-19,1.05185,-62101.5,-30375.4)">
                    <rect x="31800" y="29153" width="1" height="6" style="fill:rgb(77,77,77);"/>
                </g>
                <g transform="matrix(2.00208,5.10269e-19,2.68364e-19,1.05185,-62095.5,-30375.4)">
                    <rect x="31800" y="29153" width="1" height="6" style="fill:rgb(77,77,77);"/>
                </g>
                <g transform="matrix(2.00208,5.10269e-19,2.68364e-19,1.05185,-62083.5,-30375.4)">
                    <rect x="31800" y="29153" width="1" height="6" style="fill:rgb(77,77,77);"/>
                </g>
                <g transform="matrix(2.00208,5.10269e-19,2.68364e-19,1.05185,-62077.5,-30375.4)">
                    <rect x="31800" y="29153" width="1" height="6" style="fill:rgb(77,77,77);"/>
                </g>
                <g transform="matrix(0.583941,3.21585e-18,3.07221e-18,0.601058,-17011.2,-17256.5)">
                    <path d="M31853.4,29179.3C31855,29179.3 31856.7,29179.7 31858,29180.6L31858.2,29180.7C31858.4,29180.9 31858.6,29181 31858.8,29181.2C31859.2,29181.5 31859.6,29181.9 31860,29182.3C31860.8,29183.2 31861.4,29184.3 31861.9,29185.5C31862.2,29186.4 31862.5,29187.4 31862.7,29188.4C31862.7,29188.6 31862.7,29188.7 31862.7,29188.9L31862.7,29202L31859.3,29202L31859.3,29189.1C31859.2,29188.5 31859.1,29187.9 31858.9,29187.4C31858.5,29186.1 31857.8,29184.8 31856.7,29183.9C31856.5,29183.7 31856.2,29183.6 31855.9,29183.4C31855.7,29183.3 31855.4,29183.2 31855.2,29183.1C31855,29183 31854.8,29183 31854.7,29182.9C31854.2,29182.8 31853.8,29182.8 31853.3,29182.8C31850.4,29182.7 31847.6,29182.7 31844.7,29182.8C31844.3,29182.8 31843.8,29182.8 31843.3,29182.9C31843.2,29183 31843,29183 31842.8,29183.1C31842.4,29183.2 31842,29183.4 31841.7,29183.7C31840.7,29184.3 31840,29185.2 31839.5,29186.3C31839.3,29186.7 31839.1,29187.2 31839,29187.6C31838.9,29188.1 31838.8,29188.5 31838.7,29188.9L31838.7,29189L31838.7,29189.1L31838.7,29202L31835.3,29202L31835.3,29188.9C31835.3,29188.2 31835.5,29187.4 31835.7,29186.7C31835.8,29186.3 31835.9,29186 31836,29185.7C31836.3,29185 31836.6,29184.3 31837,29183.7C31837.1,29183.4 31837.3,29183.2 31837.5,29182.9C31837.6,29182.7 31837.8,29182.6 31837.9,29182.4C31838.4,29181.8 31839,29181.2 31839.7,29180.8L31839.8,29180.7C31840,29180.6 31840.3,29180.4 31840.5,29180.3C31840.7,29180.2 31841,29180.1 31841.2,29180C31842.1,29179.6 31842.9,29179.4 31843.8,29179.3C31844.1,29179.3 31844.5,29179.3 31844.8,29179.3C31847.7,29179.3 31850.5,29179.2 31853.4,29179.3Z" style="fill:rgb(77,77,77);fill-rule:nonzero;"/>
                </g>
                <g transform="matrix(0.667361,1.7009e-19,1.78909e-19,0.701235,-1800.35,-1041.68)">
                    <path d="M5075.77,1875.51C5076.09,1875.53 5076.4,1875.56 5076.71,1875.62C5077.5,1875.76 5078.27,1876.02 5078.97,1876.41C5079.81,1876.87 5080.56,1877.49 5081.17,1878.23C5081.75,1878.93 5082.2,1879.73 5082.49,1880.59C5083.1,1882.37 5083,1884.38 5082.22,1886.09C5081.8,1887.02 5081.19,1887.85 5080.44,1888.54C5080.27,1888.71 5080.07,1888.86 5079.88,1889.01C5079.39,1889.37 5078.87,1889.67 5078.31,1889.91C5077.69,1890.17 5077.02,1890.35 5076.34,1890.44C5076.03,1890.48 5075.71,1890.5 5075.39,1890.5C5074.82,1890.5 5074.25,1890.43 5073.69,1890.31C5073.33,1890.22 5072.97,1890.12 5072.63,1889.98C5072.01,1889.73 5071.43,1889.4 5070.9,1889.01C5070.7,1888.86 5070.51,1888.71 5070.33,1888.54C5069.59,1887.85 5068.97,1887.02 5068.55,1886.09C5068.03,1884.95 5067.81,1883.67 5067.91,1882.42C5067.97,1881.67 5068.14,1880.94 5068.41,1880.25C5068.74,1879.41 5069.23,1878.63 5069.83,1877.96C5070.28,1877.47 5070.79,1877.04 5071.35,1876.68C5071.61,1876.52 5071.87,1876.37 5072.15,1876.24C5072.36,1876.13 5072.59,1876.04 5072.81,1875.95C5073.58,1875.67 5074.39,1875.53 5075.21,1875.5C5075.49,1875.5 5075.49,1875.5 5075.77,1875.51ZM5075.26,1878.5C5074.78,1878.52 5074.29,1878.61 5073.84,1878.77C5073.7,1878.82 5073.57,1878.88 5073.43,1878.95C5072.94,1879.18 5072.5,1879.51 5072.13,1879.9C5071.75,1880.29 5071.45,1880.75 5071.24,1881.25C5071.06,1881.7 5070.94,1882.17 5070.9,1882.66C5070.83,1883.55 5071.03,1884.46 5071.48,1885.23C5071.72,1885.65 5072.03,1886.02 5072.38,1886.35C5072.48,1886.44 5072.59,1886.52 5072.7,1886.61C5073.02,1886.85 5073.38,1887.04 5073.75,1887.19C5073.95,1887.28 5074.16,1887.33 5074.38,1887.38C5074.63,1887.44 5074.89,1887.48 5075.15,1887.49C5075.75,1887.52 5076.36,1887.44 5076.94,1887.23C5077.45,1887.04 5077.92,1886.75 5078.34,1886.4C5078.53,1886.24 5078.7,1886.05 5078.86,1885.86C5079.23,1885.41 5079.52,1884.89 5079.69,1884.34C5080.01,1883.3 5079.94,1882.14 5079.49,1881.15C5079.27,1880.66 5078.96,1880.2 5078.57,1879.83C5078.5,1879.75 5078.42,1879.67 5078.34,1879.6C5078.11,1879.41 5077.87,1879.24 5077.61,1879.09C5077.53,1879.04 5077.44,1878.99 5077.35,1878.95C5077.21,1878.88 5077.07,1878.82 5076.94,1878.77C5076.55,1878.63 5076.14,1878.55 5075.73,1878.51L5075.63,1878.51C5075.44,1878.5 5075.44,1878.5 5075.26,1878.5Z" style="fill:rgb(77,77,77);fill-rule:nonzero;"/>
                </g>
            </g>
        </g>
    </g>
</svg>
