<?xml version="1.0" encoding="UTF-8" standalone="no"?>
<!DOCTYPE svg PUBLIC "-//W3C//DTD SVG 1.1//EN" "http://www.w3.org/Graphics/SVG/1.1/DTD/svg11.dtd">
<svg width="100%" height="100%" viewBox="0 0 34 34" version="1.1" xmlns="http://www.w3.org/2000/svg" xmlns:xlink="http://www.w3.org/1999/xlink" xml:space="preserve" style="fill-rule:evenodd;clip-rule:evenodd;stroke-miterlimit:1.41421;">
    <g transform="matrix(1,0,0,1,-13729,-30270)">
        <g transform="matrix(0.998959,-2.42305e-19,-2.54869e-19,0.950704,11868,29998)">
            <g transform="matrix(1,0,0,1,1.61008e-14,1.05185)">
                <g transform="matrix(1.00104,2.55135e-19,2.68364e-19,1.05185,-11880.4,-31555.6)">
                    <path d="M13749,30279C13749,30278.4 13748.6,30278 13748,30278L13744,30278C13743.4,30278 13743,30278.4 13743,30279L13743,30283C13743,30283.6 13743.4,30284 13744,30284L13748,30284C13748.6,30284 13749,30283.6 13749,30283L13749,30279Z" style="fill:none;stroke-width:2px;stroke:white;"/>
                </g>
                <g transform="matrix(1.00104,2.55135e-19,2.68364e-19,1.05185,-11880.4,-31540.8)">
                    <path d="M13749,30279C13749,30278.4 13748.6,30278 13748,30278L13744,30278C13743.4,30278 13743,30278.4 13743,30279L13743,30283C13743,30283.6 13743.4,30284 13744,30284L13748,30284C13748.6,30284 13749,30283.6 13749,30283L13749,30279Z" style="fill:none;stroke-width:2px;stroke:white;"/>
                </g>
                <g transform="matrix(1.00104,2.55135e-19,2.68364e-19,1.05185,-11868.3,-31540.8)">
                    <path d="M13749,30279C13749,30278.4 13748.6,30278 13748,30278L13744,30278C13743.4,30278 13743,30278.4 13743,30279L13743,30283C13743,30283.6 13743.4,30284 13744,30284L13748,30284C13748.6,30284 13749,30283.6 13749,30283L13749,30279Z" style="fill:none;stroke-width:2px;stroke:white;"/>
                </g>
                <g transform="matrix(1.00104,2.55135e-19,2.68364e-19,1.05185,-11892.4,-31540.8)">
                    <path d="M13749,30279C13749,30278.4 13748.6,30278 13748,30278L13744,30278C13743.4,30278 13743,30278.4 13743,30279L13743,30283C13743,30283.6 13743.4,30284 13744,30284L13748,30284C13748.6,30284 13749,30283.6 13749,30283L13749,30279Z" style="fill:none;stroke-width:2px;stroke:white;"/>
                </g>
                <g transform="matrix(1.00104,2.55135e-19,2.68364e-19,1.05185,-11880.4,-31553.5)">
                    <path d="M13746,30282L13746,30290" style="fill:none;stroke-width:2px;stroke:white;"/>
                </g>
                <g transform="matrix(1.00104,2.55135e-19,2.68364e-19,1.05185,-11880.4,-31553.5)">
                    <path d="M13734,30290C13734,30290 13734,30288.2 13734,30287C13734,30286.4 13734.4,30286 13735,30286C13738.9,30286 13753.1,30286 13757,30286C13757.6,30286 13758,30286.4 13758,30287C13758,30288.2 13758,30290 13758,30290" style="fill:none;stroke-width:2px;stroke:white;"/>
                </g>
            </g>
        </g>
    </g>
</svg>
