<?xml version="1.0" encoding="UTF-8" standalone="no"?>
<!DOCTYPE svg PUBLIC "-//W3C//DTD SVG 1.1//EN" "http://www.w3.org/Graphics/SVG/1.1/DTD/svg11.dtd">
<svg width="100%" height="100%" viewBox="0 0 42 42" version="1.1" xmlns="http://www.w3.org/2000/svg" xmlns:xlink="http://www.w3.org/1999/xlink" xml:space="preserve" style="fill-rule:evenodd;clip-rule:evenodd;stroke-linejoin:round;stroke-miterlimit:1.41421;">
    <g transform="matrix(1,0,0,1,-14622,-14974)">
        <g transform="matrix(0.998959,-2.42305e-19,-2.54869e-19,0.950704,13111,13974)">
            <g transform="matrix(1,0,0,1,-21.9463,48.3852)">
                <g transform="matrix(1.00104,2.55135e-19,2.68364e-19,1.05185,-9037.48,-6461.53)">
                    <rect x="10581" y="7097" width="2" height="42" style="fill:rgb(90,157,255);fill-rule:nonzero;"/>
                </g>
                <g transform="matrix(-0.500521,0.91093,-0.825645,-0.500882,12729.1,-5048.63)">
                    <path d="M10581,7097L10583,7097L10583,7139L10581,7139C10581,7125 10581,7111 10581,7097Z" style="fill:rgb(90,157,255);fill-rule:nonzero;"/>
                </g>
                <g transform="matrix(-0.500521,-0.91093,0.825645,-0.500882,975.176,14230.3)">
                    <path d="M10581,7139L10581,7097L10583,7097L10583,7139C10582.3,7139 10581.7,7139 10581,7139Z" style="fill:rgb(90,157,255);fill-rule:nonzero;"/>
                </g>
                <g transform="matrix(1.00104,2.55135e-19,2.68364e-19,1.05185,-9036.98,-6457.32)">
                    <path d="M10588.2,7097.71L10582.2,7103.71L10582.2,7103.75C10582.1,7103.81 10582,7103.86 10581.9,7103.9C10581.7,7104.03 10581.3,7104.03 10581.1,7103.9C10581,7103.85 10580.9,7103.79 10580.8,7103.71L10574.8,7097.71L10576.2,7096.29L10581.5,7101.59L10586.8,7096.29C10587.3,7096.77 10587.7,7097.24 10588.2,7097.71Z" style="fill:rgb(90,157,255);fill-rule:nonzero;"/>
                </g>
                <g transform="matrix(1.00104,2.55135e-19,-2.68364e-19,-1.05185,-9036.98,8507.38)">
                    <path d="M10581.6,7103.99C10581.7,7103.99 10581.7,7103.97 10581.8,7103.95C10582,7103.9 10582.1,7103.82 10582.2,7103.71L10588.2,7097.71L10586.8,7096.29L10581.5,7101.59L10576.2,7096.29L10574.8,7097.71L10580.8,7103.71L10580.8,7103.75C10581,7103.86 10581.1,7103.93 10581.3,7103.97C10581.3,7103.99 10581.4,7103.99 10581.5,7104C10581.5,7104 10581.5,7104 10581.6,7103.99Z" style="fill:rgb(90,157,255);fill-rule:nonzero;"/>
                </g>
                <g transform="matrix(-0.500521,-0.91093,0.866928,-0.525926,684.949,14406.5)">
                    <path d="M10582.2,7103.71C10582.1,7103.78 10582,7103.84 10582,7103.89C10581.7,7104.03 10581.4,7104.04 10581.1,7103.92C10581,7103.87 10580.9,7103.79 10580.8,7103.71L10574.8,7097.71L10576.2,7096.29L10581.5,7101.59L10586.8,7096.29L10588.2,7097.71C10586.2,7099.71 10584.2,7101.71 10582.2,7103.71Z" style="fill:rgb(90,157,255);fill-rule:nonzero;"/>
                </g>
                <g transform="matrix(-0.500521,-0.91093,-0.866928,0.525926,13018.8,6923.65)">
                    <path d="M10586.8,7096.29L10581.5,7101.59L10576.2,7096.29L10574.8,7097.71L10580.8,7103.71C10580.9,7103.79 10581,7103.87 10581.1,7103.92C10581.4,7104.03 10581.7,7104.03 10582,7103.89C10582,7103.84 10582.1,7103.78 10582.2,7103.71L10588.2,7097.71C10587.7,7097.24 10587.3,7096.76 10586.8,7096.29Z" style="fill:rgb(90,157,255);fill-rule:nonzero;"/>
                </g>
                <g transform="matrix(-0.500521,0.91093,-0.866928,-0.525926,13018.8,-4872.54)">
                    <path d="M10576.2,7096.29L10581.5,7101.59L10586.8,7096.29L10588.2,7097.71L10582.2,7103.71C10582.1,7103.79 10582,7103.87 10581.9,7103.92C10581.6,7104.03 10581.3,7104.03 10581,7103.89C10581,7103.84 10580.9,7103.78 10580.8,7103.71L10574.8,7097.71C10575.3,7097.24 10575.7,7096.77 10576.2,7096.29Z" style="fill:rgb(90,157,255);fill-rule:nonzero;"/>
                </g>
                <g transform="matrix(-0.500521,0.91093,0.866928,0.525926,684.949,-12354.4)">
                    <path d="M10580.8,7103.71C10580.9,7103.78 10581,7103.84 10581,7103.89C10581.3,7104.03 10581.6,7104.03 10581.9,7103.92C10582,7103.87 10582.1,7103.79 10582.2,7103.71L10588.2,7097.71L10586.8,7096.29L10581.5,7101.59L10576.2,7096.29L10574.8,7097.71C10576.8,7099.71 10578.8,7101.71 10580.8,7103.71Z" style="fill:rgb(90,157,255);fill-rule:nonzero;"/>
                </g>
            </g>
        </g>
    </g>
</svg>
