<?xml version="1.0" encoding="UTF-8" standalone="no"?>
<!DOCTYPE svg PUBLIC "-//W3C//DTD SVG 1.1//EN" "http://www.w3.org/Graphics/SVG/1.1/DTD/svg11.dtd">
<svg width="100%" height="100%" viewBox="0 0 34 34" version="1.1" xmlns="http://www.w3.org/2000/svg" xmlns:xlink="http://www.w3.org/1999/xlink" xml:space="preserve" style="fill-rule:evenodd;clip-rule:evenodd;stroke-linejoin:round;stroke-miterlimit:1.41421;">
    <g transform="matrix(1,0,0,1,-16340,-30236)">
        <g transform="matrix(0.998959,-2.42305e-19,-2.54869e-19,0.950704,14568,29965)">
            <g transform="matrix(1,0,0,1,71.961,17.8815)">
                <g transform="matrix(1.06778,2.72144e-19,2.43967e-19,0.956229,-17504.8,-5016.19)">
                    <path d="M18009.3,5532.9C18009.3,5532.9 18009.6,5532.93 18009.7,5532.97C18009.7,5532.97 18009.7,5532.98 18009.8,5532.99C18010,5533.05 18010.2,5533.12 18010.3,5533.23L18010.4,5533.26C18010.5,5533.3 18010.5,5533.34 18010.6,5533.38C18010.8,5533.5 18010.9,5533.64 18011.1,5533.81C18011.5,5534.25 18011.7,5534.83 18011.9,5535.46C18011.9,5535.68 18011.9,5536.11 18011.9,5536.11L18011.9,5553.89C18011.9,5553.89 18011.9,5554.6 18011.8,5554.94C18011.5,5555.66 18011.1,5556.28 18010.5,5556.66C18010.4,5556.74 18010.3,5556.81 18010.2,5556.87C18010,5556.94 18009.9,5557 18009.7,5557.03C18009.5,5557.07 18009.2,5557.1 18009.2,5557.1L17997.8,5557.1C17997.8,5557.1 17997,5556.98 17996.7,5556.77L17996.6,5556.74C17996.5,5556.7 17996.5,5556.66 17996.4,5556.62C17996.2,5556.5 17996.1,5556.36 17995.9,5556.19C17995.5,5555.75 17995.3,5555.17 17995.1,5554.54C17995.1,5554.32 17995.1,5553.89 17995.1,5553.89L17995.1,5536.11C17995.1,5536.11 17995.1,5535.4 17995.2,5535.06C17995.5,5534.34 17995.9,5533.72 17996.5,5533.34C17996.6,5533.26 17996.7,5533.19 17996.8,5533.13C17997,5533.06 17997.2,5533 17997.3,5532.97C17997.5,5532.93 17997.8,5532.9 17997.8,5532.9L18009.3,5532.9ZM17997.8,5535.1C17997.8,5535.1 17997.4,5535.2 17997.3,5535.35C17997.2,5535.48 17997.1,5535.64 17997,5535.82C17997,5535.94 17996.9,5536.18 17996.9,5536.18L17996.9,5553.86C17996.9,5553.86 17997,5554.07 17997,5554.18C17997.1,5554.45 17997.3,5554.68 17997.5,5554.8C17997.6,5554.86 17997.8,5554.9 17997.8,5554.9L18009.2,5554.9C18009.2,5554.9 18009.4,5554.86 18009.5,5554.8C18009.7,5554.68 18009.9,5554.45 18010,5554.18C18010,5554.06 18010.1,5553.94 18010.1,5553.82C18010.2,5547.93 18010.1,5536.14 18010.1,5536.14C18010.1,5536.14 18010,5535.93 18010,5535.82C18009.9,5535.55 18009.7,5535.32 18009.5,5535.2C18009.4,5535.14 18009.2,5535.1 18009.2,5535.1L17997.8,5535.1Z" style="fill:rgb(77,77,77);fill-rule:nonzero;"/>
                </g>
                <g transform="matrix(1.00104,2.55135e-19,2.68364e-19,1.05185,-16303.9,-5543.26)">
                    <path d="M18006.1,5529C18006.2,5529.01 18006.4,5529.03 18006.5,5529.06C18006.6,5529.08 18006.6,5529.09 18006.7,5529.12C18006.8,5529.15 18006.8,5529.16 18006.9,5529.2C18006.9,5529.22 18006.9,5529.23 18007,5529.25C18007.2,5529.36 18007.3,5529.49 18007.5,5529.66C18007.6,5529.83 18007.8,5530.02 18007.8,5530.22C18008,5530.56 18008,5530.94 18008,5531.31C18007.9,5531.73 18007.7,5532.12 18007.4,5532.42C18007.3,5532.55 18007.1,5532.66 18007,5532.75C18006.9,5532.77 18006.9,5532.78 18006.9,5532.8C18006.8,5532.84 18006.8,5532.85 18006.7,5532.88L18006.6,5532.9C18006.5,5532.94 18006.3,5532.98 18006.2,5532.99C18006.2,5532.99 18006,5533 18006,5533L18002,5533C18002,5533 18001.8,5532.99 18001.8,5532.99C18001.6,5532.97 18001.3,5532.9 18001.1,5532.8C18000.8,5532.62 18000.4,5532.32 18000.2,5531.95C18000.1,5531.69 18000,5531.4 18000,5531.11C18000,5530.87 18000,5530.63 18000.1,5530.41C18000.1,5530.22 18000.2,5530.04 18000.3,5529.88C18000.5,5529.72 18000.6,5529.58 18000.7,5529.46C18000.7,5529.44 18000.8,5529.42 18000.8,5529.4C18000.8,5529.38 18000.9,5529.36 18000.9,5529.34C18001.1,5529.21 18001.3,5529.11 18001.5,5529.06C18001.5,5529.05 18001.6,5529.05 18001.6,5529.04C18001.7,5529.03 18001.7,5529.02 18001.8,5529.01C18001.8,5529.01 18002,5529 18002,5529C18003.4,5529 18004.7,5528.94 18006.1,5529Z" style="fill:rgb(77,77,77);fill-rule:nonzero;"/>
                </g>
                <g transform="matrix(0.444907,-1.41994e-17,-2.69744e-17,1.05185,-6288.54,-5541.58)">
                    <rect x="17998" y="5535.4" width="9" height="2" style="fill:rgb(77,77,77);fill-rule:nonzero;"/>
                </g>
                <g transform="matrix(0.444907,-1.41994e-17,-2.69744e-17,1.05185,-6288.54,-5537.37)">
                    <rect x="17998" y="5535.4" width="9" height="2" style="fill:rgb(77,77,77);fill-rule:nonzero;"/>
                </g>
                <g transform="matrix(0.444907,-1.41994e-17,-2.69744e-17,1.05185,-6288.54,-5533.16)">
                    <rect x="17998" y="5535.4" width="9" height="2" style="fill:rgb(77,77,77);fill-rule:nonzero;"/>
                </g>
                <g transform="matrix(0.222454,-7.09968e-18,-2.69744e-17,1.05185,-2288.82,-5541.58)">
                    <rect x="17998" y="5535.4" width="9" height="2" style="fill:rgb(77,77,77);fill-rule:nonzero;"/>
                </g>
                <g transform="matrix(0.222454,-7.09968e-18,-2.69744e-17,1.05185,-2288.82,-5537.37)">
                    <rect x="17998" y="5535.4" width="9" height="2" style="fill:rgb(77,77,77);fill-rule:nonzero;"/>
                </g>
                <g transform="matrix(0.222454,-7.09968e-18,-2.69744e-17,1.05185,-2288.82,-5533.16)">
                    <rect x="17998" y="5535.4" width="9" height="2" style="fill:rgb(77,77,77);fill-rule:nonzero;"/>
                </g>
            </g>
        </g>
    </g>
</svg>
