<?xml version="1.0" encoding="UTF-8" standalone="no"?>
<!DOCTYPE svg PUBLIC "-//W3C//DTD SVG 1.1//EN" "http://www.w3.org/Graphics/SVG/1.1/DTD/svg11.dtd">
<svg width="100%" height="100%" viewBox="0 0 42 42" version="1.1" xmlns="http://www.w3.org/2000/svg" xmlns:xlink="http://www.w3.org/1999/xlink" xml:space="preserve" style="fill-rule:evenodd;clip-rule:evenodd;stroke-linejoin:round;stroke-miterlimit:1.41421;">
    <g transform="matrix(1,0,0,1,-14933,-14975)">
        <g transform="matrix(0.998959,-2.42305e-19,-2.54869e-19,0.950704,13111,13974)">
            <g transform="matrix(1.00104,2.55135e-19,2.68364e-19,1.05185,-13122,-14700.7)">
                <path d="M14955.3,14980.6C14955.9,14981.5 14956.5,14982.5 14957,14983.4C14957.5,14984.3 14958,14985.3 14958.5,14986.2C14958.8,14986.8 14959.1,14987.3 14959.4,14987.9C14960.5,14990.1 14961.5,14992.5 14962.4,14994.8C14962.8,14996 14963.1,14997.1 14963.4,14998.2C14963.7,14999.4 14964,15000.5 14964.1,15001.7C14964.3,15003 14964.4,15004.4 14964.3,15005.7C14964.3,15007.1 14964,15008.4 14963.5,15009.7C14963.1,15010.6 14962.7,15011.4 14962.1,15012.2C14961.6,15012.9 14961,15013.5 14960.4,15014C14960.1,15014.2 14959.8,15014.4 14959.6,15014.6C14957.8,15015.8 14955.8,15016.5 14953.8,15016.8C14952.3,15017 14950.8,15017 14949.3,15016.9C14947.2,15016.7 14945.1,15016.1 14943.3,15015C14943,15014.8 14942.7,15014.6 14942.5,15014.4C14942,15014 14941.6,15013.6 14941.2,15013.2C14940.9,15012.8 14940.6,15012.4 14940.3,15012C14940.1,15011.7 14939.9,15011.4 14939.7,15011C14938.6,15008.8 14938.3,15006.2 14938.4,15003.7C14938.4,15002.9 14938.5,15002.1 14938.6,15001.3C14938.8,15000.5 14939,14999.6 14939.2,14998.8C14939.5,14998 14939.8,14997.2 14940.2,14996.4C14940.5,14995.9 14940.7,14995.3 14941,14994.8C14941,14994.8 14941,14994.7 14941.1,14994.6C14941.1,14994.5 14941.2,14994.4 14941.2,14994.3C14941.3,14994.1 14941.3,14994 14941.4,14993.8C14941.8,14993 14942.2,14992.2 14942.7,14991.4C14942.9,14991 14943.2,14990.6 14943.4,14990.2C14943.7,14989.7 14944.1,14989.2 14944.4,14988.6L14945.2,14987.4L14946.7,14988.1C14946.6,14988.5 14946.4,14988.9 14946.3,14989.4C14946.3,14989.5 14946.2,14989.7 14946.2,14989.9C14946,14990.5 14945.9,14991.2 14945.9,14991.9C14945.8,14992.4 14945.8,14992.8 14945.8,14993.3C14945.8,14993.9 14945.9,14994.6 14946.1,14995.3C14946.2,14995.6 14946.4,14995.9 14946.6,14996.2C14946.7,14996.5 14946.9,14996.7 14947.1,14997C14947.6,14997.4 14948.1,14997.6 14948.7,14997.8C14949,14997.9 14949.3,14997.9 14949.7,14998C14949.8,14998 14950,14998 14950.2,14998C14950.6,14998 14950.9,14998 14951.3,14997.9C14951.5,14997.9 14951.7,14997.8 14951.8,14997.8C14952.3,14997.6 14952.7,14997.4 14953,14997.1C14953.1,14997 14953.2,14996.9 14953.3,14996.8C14953.6,14996.4 14953.9,14995.9 14954.1,14995.4C14954.4,14994.8 14954.5,14994.1 14954.6,14993.4C14954.7,14993 14954.7,14992.6 14954.8,14992.2C14954.8,14991.8 14954.8,14991.5 14954.8,14991.1C14954.8,14990.2 14954.8,14989.4 14954.7,14988.6C14954.6,14987.6 14954.5,14986.7 14954.4,14985.7C14954.1,14984.2 14953.8,14982.8 14953.4,14981.3L14953.1,14980L14954.5,14979.4C14954.8,14979.8 14955,14980.2 14955.3,14980.6ZM14956.5,14986.8C14956.6,14987.1 14956.6,14987.5 14956.6,14987.8C14956.7,14988.2 14956.7,14988.7 14956.7,14989.1C14956.8,14989.8 14956.8,14990.4 14956.8,14991.1C14956.8,14991.3 14956.8,14991.3 14956.8,14991.5C14956.8,14991.9 14956.8,14992.2 14956.7,14992.6C14956.7,14993 14956.7,14993.3 14956.6,14993.7C14956.4,14994.7 14956.2,14995.8 14955.7,14996.7C14955.4,14997.3 14955,14997.9 14954.6,14998.4C14954.2,14998.7 14953.9,14999 14953.5,14999.2C14952.9,14999.6 14952.3,14999.8 14951.7,14999.9C14951.2,15000 14950.7,15000 14950.3,15000C14950,15000 14949.7,15000 14949.5,15000C14949,14999.9 14948.6,14999.8 14948.1,14999.7C14947.4,14999.5 14946.7,14999.2 14946.1,14998.7C14945.9,14998.5 14945.7,14998.4 14945.5,14998.2C14944.7,14997.3 14944.3,14996.2 14944,14995.1C14943.9,14994.6 14943.9,14994.1 14943.8,14993.6L14943.8,14993.5C14943.6,14993.9 14943.4,14994.4 14943.2,14994.8C14943.1,14994.9 14943.1,14995 14943,14995.2C14943,14995.3 14942.9,14995.4 14942.9,14995.5C14942.8,14995.6 14942.8,14995.6 14942.8,14995.7C14942.6,14996.1 14942.4,14996.5 14942.2,14996.9C14942.1,14997.1 14942,14997.3 14941.9,14997.5C14941.6,14998.3 14941.2,14999.1 14941,15000C14940.8,15000.7 14940.6,15001.5 14940.5,15002.2C14940.5,15002.7 14940.4,15003.3 14940.4,15003.8C14940.4,15004.1 14940.4,15004.4 14940.4,15004.7C14940.4,15005 14940.4,15005.3 14940.4,15005.6C14940.4,15006.4 14940.5,15007.2 14940.7,15007.9C14941,15008.9 14941.3,15009.9 14941.9,15010.7C14942,15011 14942.2,15011.2 14942.3,15011.4C14942.6,15011.7 14942.9,15012.1 14943.2,15012.3C14943.5,15012.7 14943.9,15013 14944.4,15013.3C14945.2,15013.8 14946.1,15014.2 14947,15014.4C14947.5,15014.6 14948.1,15014.7 14948.6,15014.8C14949,15014.8 14949.3,15014.9 14949.6,15014.9C14950.2,15015 14950.7,15015 14951.2,15015C14951.5,15015 14951.8,15015 14952.1,15015C14954.1,15014.9 14956.1,15014.4 14957.8,15013.4C14958.2,15013.2 14958.5,15012.9 14958.9,15012.6C14959.3,15012.3 14959.7,15011.9 14960.1,15011.5C14960.5,15011 14960.9,15010.4 14961.2,15009.9C14961.6,15009.1 14961.9,15008.2 14962.1,15007.3C14962.2,15006.8 14962.3,15006.4 14962.3,15005.9C14962.4,15005.6 14962.4,15005.3 14962.4,15005C14962.4,15004.4 14962.4,15003.9 14962.3,15003.4C14962.2,15001.8 14961.9,15000.3 14961.5,14998.7C14961,14996.7 14960.3,14994.8 14959.5,14992.8C14958.9,14991.4 14958.3,14990.1 14957.6,14988.8C14957.3,14988.1 14956.9,14987.4 14956.6,14986.8L14956.5,14986.6C14956.5,14986.7 14956.5,14986.7 14956.5,14986.8Z" style="fill:white;fill-rule:nonzero;"/>
            </g>
        </g>
    </g>
</svg>
