<?xml version="1.0" encoding="UTF-8" standalone="no"?>
<!DOCTYPE svg PUBLIC "-//W3C//DTD SVG 1.1//EN" "http://www.w3.org/Graphics/SVG/1.1/DTD/svg11.dtd">
<svg width="100%" height="100%" viewBox="0 0 34 34" version="1.1" xmlns="http://www.w3.org/2000/svg" xmlns:xlink="http://www.w3.org/1999/xlink" xml:space="preserve" style="fill-rule:evenodd;clip-rule:evenodd;stroke-linejoin:round;stroke-miterlimit:1.41421;">
    <g transform="matrix(1,0,0,1,-16428,-30237)">
        <g transform="matrix(0.998959,-2.42305e-19,-2.54869e-19,0.950704,14568,29965)">
            <g transform="matrix(1,0,0,1,116.005,18.9333)">
                <g transform="matrix(2.00208,-1.02541e-16,-4.05957e-17,1.05185,-12148.5,-5580.07)">
                    <path d="M6950,5568C6950,5567.45 6949.78,5567 6949.5,5567L6947.5,5567C6947.22,5567 6947,5567.45 6947,5568L6947,5570C6947,5570.55 6947.22,5571 6947.5,5571L6949.5,5571C6949.78,5571 6950,5570.55 6950,5570L6950,5568Z" style="fill:rgb(77,77,77);"/>
                </g>
                <g transform="matrix(0.910038,2.31941e-19,2.34818e-19,0.92037,-929.852,-16974.5)">
                    <path d="M2968.9,18744.9C2968.9,18744.9 2969.57,18744.9 2969.79,18745C2969.85,18745 2969.92,18745.1 2969.98,18745.1C2970.4,18745.3 2970.74,18745.7 2970.93,18746.1C2971,18746.3 2971.05,18746.5 2971.08,18746.7C2971.09,18746.7 2971.1,18747.1 2971.1,18747.1L2971.1,18760.9C2971.1,18760.9 2971.04,18761.6 2970.93,18761.9C2970.74,18762.3 2970.4,18762.7 2969.98,18762.9C2969.92,18762.9 2969.85,18763 2969.79,18763C2969.6,18763.1 2969.4,18763.1 2969.2,18763.1C2969.2,18763.1 2968.9,18763.1 2968.9,18763.1L2949.1,18763.1C2949.1,18763.1 2948.8,18763.1 2948.8,18763.1C2948.63,18763.1 2948.47,18763.1 2948.31,18763C2948.28,18763 2948.24,18763 2948.21,18763C2947.71,18762.8 2947.29,18762.4 2947.07,18761.9C2947,18761.7 2946.95,18761.5 2946.92,18761.3C2946.91,18761.3 2946.9,18760.9 2946.9,18760.9L2946.9,18747.1C2946.9,18747.1 2946.96,18746.4 2947.07,18746.1C2947.29,18745.6 2947.71,18745.2 2948.21,18745C2948.24,18745 2948.28,18745 2948.31,18745C2948.47,18744.9 2948.63,18744.9 2948.8,18744.9C2948.8,18744.9 2949.08,18744.9 2949.1,18744.9C2955.81,18744.9 2968.9,18744.9 2968.9,18744.9ZM2949.1,18747.1L2949.1,18760.9L2968.9,18760.9L2968.9,18747.1C2962.3,18747.1 2955.7,18747.1 2949.1,18747.1Z" style="fill:rgb(77,77,77);fill-rule:nonzero;"/>
                </g>
                <g transform="matrix(1.00104,2.55135e-19,2.68364e-19,1.05185,-1202.14,-19442.4)">
                    <rect x="2955" y="18752" width="4" height="4" style="fill:rgb(77,77,77);"/>
                </g>
                <g transform="matrix(2.00208,5.10269e-19,5.36728e-19,2.1037,-4166.22,-39171)">
                    <rect x="2961" y="18755" width="4" height="1" style="fill:rgb(77,77,77);"/>
                </g>
                <g transform="matrix(2.00208,5.10269e-19,5.36728e-19,2.1037,-4166.22,-39166.8)">
                    <rect x="2961" y="18755" width="4" height="1" style="fill:rgb(77,77,77);"/>
                </g>
            </g>
        </g>
    </g>
</svg>
