<?xml version="1.0" encoding="UTF-8" standalone="no"?>
<!DOCTYPE svg PUBLIC "-//W3C//DTD SVG 1.1//EN" "http://www.w3.org/Graphics/SVG/1.1/DTD/svg11.dtd">
<svg width="100%" height="100%" viewBox="0 0 34 34" version="1.1" xmlns="http://www.w3.org/2000/svg" xmlns:xlink="http://www.w3.org/1999/xlink" xml:space="preserve" style="fill-rule:evenodd;clip-rule:evenodd;stroke-linejoin:round;stroke-miterlimit:1.41421;">
    <g transform="matrix(1,0,0,1,-16250,-30237)">
        <g transform="matrix(0.998959,-2.42305e-19,-2.54869e-19,0.950704,14568,29965)">
            <g transform="matrix(1,0,0,1,24.9101,18.9333)">
                <g transform="matrix(-1.61248e-16,-1.05185,1.6684,-2.81493e-16,-4641.38,3134.52)">
                    <path d="M2721,3786.46C2721,3786.46 2720.95,3786.7 2720.88,3786.81C2720.68,3787.14 2720.24,3787.41 2719.69,3787.53C2719.47,3787.58 2719.01,3787.6 2719.01,3787.6L2715,3787.6L2715,3786.4L2719,3786.4L2719,3781.6L2709,3781.6C2709,3781.6 2709,3781.61 2709,3781.61L2709,3783.4L2707,3783.4L2707,3781.59C2707,3781.58 2707.01,3781.48 2707.01,3781.48C2707.02,3781.4 2707.05,3781.32 2707.09,3781.25C2707.1,3781.23 2707.11,3781.21 2707.12,3781.19C2707.32,3780.86 2707.76,3780.59 2708.31,3780.47C2708.43,3780.45 2708.57,3780.43 2708.7,3780.41C2708.76,3780.41 2708.89,3780.4 2708.89,3780.4L2719.01,3780.4C2719.01,3780.4 2719.47,3780.43 2719.69,3780.47C2720.24,3780.59 2720.68,3780.86 2720.88,3781.19C2720.89,3781.21 2720.9,3781.23 2720.91,3781.25C2720.95,3781.32 2720.98,3781.4 2720.99,3781.48C2720.99,3781.48 2721,3781.59 2721,3781.59L2721,3786.46Z" style="fill:white;fill-rule:nonzero;"/>
                </g>
                <g transform="matrix(-1.61248e-16,-1.05185,1.6684,-2.81493e-16,-4637.38,3139.78)">
                    <path d="M2721,3786.33C2720.99,3786.39 2720.98,3786.46 2720.96,3786.52C2720.92,3786.62 2720.87,3786.73 2720.79,3786.83C2720.7,3786.94 2720.58,3787.05 2720.45,3787.15C2720.21,3787.31 2719.91,3787.44 2719.57,3787.52C2719.52,3787.53 2719.47,3787.54 2719.42,3787.55C2719.23,3787.58 2719.05,3787.6 2718.85,3787.6L2714.98,3787.6L2714.98,3786.4L2719,3786.4L2719,3781.6L2709,3781.6L2709,3783.4L2707,3783.4L2707,3781.69C2707.01,3781.62 2707.02,3781.54 2707.05,3781.47L2707.06,3781.42C2707.09,3781.37 2707.1,3781.34 2707.13,3781.29C2707.2,3781.17 2707.3,3781.05 2707.43,3780.95C2707.69,3780.73 2708.06,3780.56 2708.48,3780.47C2708.5,3780.47 2708.53,3780.47 2708.55,3780.46C2708.74,3780.43 2709,3780.4 2709,3780.4L2719,3780.4C2719.13,3780.4 2719.11,3780.41 2719.24,3780.43L2719.29,3780.43C2719.35,3780.44 2719.4,3780.45 2719.45,3780.46L2719.5,3780.47C2719.63,3780.5 2719.75,3780.53 2719.87,3780.57C2719.96,3780.6 2720.05,3780.64 2720.13,3780.67C2720.56,3780.87 2720.85,3781.16 2720.96,3781.48C2720.98,3781.54 2720.99,3781.61 2721,3781.67L2721,3781.71L2721,3786.29C2721,3786.31 2721,3786.32 2721,3786.33Z" style="fill:white;fill-rule:nonzero;"/>
                </g>
                <g transform="matrix(-1.61248e-16,-1.05185,1.6684,-2.81493e-16,-4633.37,3145.04)">
                    <path d="M2720.99,3786.35C2720.97,3786.56 2720.87,3786.76 2720.69,3786.94C2720.43,3787.21 2720.01,3787.42 2719.52,3787.53C2719.5,3787.53 2719.47,3787.53 2719.45,3787.54C2719.26,3787.58 2719.06,3787.6 2718.85,3787.6L2709.15,3787.6C2709.02,3787.6 2708.89,3787.59 2708.76,3787.57L2708.71,3787.57C2708.66,3787.56 2708.6,3787.55 2708.55,3787.54L2708.5,3787.53C2708.37,3787.5 2708.25,3787.47 2708.13,3787.43C2708.04,3787.4 2707.95,3787.36 2707.87,3787.33C2707.44,3787.13 2707.15,3786.84 2707.04,3786.52C2707.02,3786.46 2707.01,3786.39 2707,3786.33L2707,3786.29L2707,3781.71C2707,3781.67 2707.01,3781.63 2707.01,3781.59C2707.02,3781.55 2707.03,3781.52 2707.04,3781.48C2707.09,3781.36 2707.16,3781.23 2707.26,3781.11C2707.34,3781.02 2707.44,3780.93 2707.55,3780.85C2707.79,3780.69 2708.1,3780.56 2708.43,3780.48C2708.48,3780.47 2708.53,3780.46 2708.58,3780.45C2708.77,3780.42 2708.95,3780.41 2709.15,3780.4L2718.85,3780.4C2719.13,3780.41 2719.41,3780.44 2719.67,3780.51C2719.93,3780.58 2720.17,3780.68 2720.37,3780.8C2720.73,3781.03 2720.95,3781.33 2720.99,3781.65L2721,3781.69L2721,3786.31C2721,3786.33 2721,3786.34 2720.99,3786.35ZM2709,3781.6L2709,3786.4L2719,3786.4L2719,3781.6L2709,3781.6Z" style="fill:white;fill-rule:nonzero;"/>
                </g>
            </g>
        </g>
    </g>
</svg>
