<?xml version="1.0" encoding="UTF-8" standalone="no"?>
<!DOCTYPE svg PUBLIC "-//W3C//DTD SVG 1.1//EN" "http://www.w3.org/Graphics/SVG/1.1/DTD/svg11.dtd">
<svg width="100%" height="100%" viewBox="0 0 18 27" version="1.1" xmlns="http://www.w3.org/2000/svg" xmlns:xlink="http://www.w3.org/1999/xlink" xml:space="preserve" style="fill-rule:evenodd;clip-rule:evenodd;stroke-linejoin:round;stroke-miterlimit:1.41421;">
    <g transform="matrix(1,0,0,1,-1111,-27)">
        <g transform="matrix(0.998959,-2.42305e-19,-2.54869e-19,0.950704,4,4.65711e-16)">
            <g transform="matrix(1.00104,2.55135e-19,2.68364e-19,1.05185,-37.0385,-57.8519)">
                <g transform="matrix(1.42464,0,0,1.42464,-7407.17,-859.037)">
                    <path d="M6002.98,664.339C6003.27,663.59 6003.67,662.941 6004.2,662.392C6004.72,661.844 6005.35,661.415 6006.09,661.107C6006.84,660.8 6007.66,660.647 6008.58,660.647C6009.76,660.647 6010.74,660.808 6011.53,661.131C6012.32,661.457 6012.96,661.86 6013.44,662.343C6013.92,662.824 6014.27,663.345 6014.47,663.902C6014.68,664.459 6014.79,664.978 6014.79,665.461C6014.79,666.26 6014.68,666.916 6014.47,667.431C6014.27,667.947 6014.01,668.389 6013.7,668.755C6013.4,669.12 6013.05,669.433 6012.68,669.688C6012.31,669.948 6011.95,670.205 6011.62,670.463C6011.29,670.72 6010.99,671.017 6010.73,671.348C6010.48,671.682 6010.31,672.096 6010.25,672.596L6010.25,673.544L6006.88,673.544L6006.88,672.421C6006.93,671.706 6007.07,671.108 6007.29,670.625C6007.51,670.143 6007.78,669.731 6008.08,669.39C6008.38,669.049 6008.69,668.755 6009.02,668.506C6009.36,668.254 6009.67,668.007 6009.95,667.757C6010.23,667.507 6010.46,667.232 6010.64,666.933C6010.81,666.634 6010.89,666.26 6010.87,665.811C6010.87,665.044 6010.68,664.479 6010.31,664.113C6009.94,663.748 6009.42,663.564 6008.75,663.564C6008.3,663.564 6007.92,663.653 6007.59,663.826C6007.27,664.002 6007,664.235 6006.79,664.527C6006.58,664.817 6006.43,665.157 6006.33,665.548C6006.23,665.938 6006.18,666.358 6006.18,666.808L6002.51,666.808C6002.53,665.91 6002.69,665.088 6002.98,664.339Z" style="fill:rgb(206,206,207);fill-rule:nonzero;"/>
                </g>
                <g transform="matrix(1.42464,0,0,1.42464,-7407.17,-859.037)">
                    <path d="M6010.45,676.998C6010.45,678.08 6009.57,678.957 6008.49,678.957C6007.41,678.957 6006.53,678.08 6006.53,676.998C6006.53,675.918 6007.41,675.04 6008.49,675.04C6009.57,675.04 6010.45,675.918 6010.45,676.998Z" style="fill:rgb(206,206,207);fill-rule:nonzero;"/>
                </g>
            </g>
        </g>
    </g>
</svg>
