<?xml version="1.0" encoding="UTF-8" standalone="no"?>
<!DOCTYPE svg PUBLIC "-//W3C//DTD SVG 1.1//EN" "http://www.w3.org/Graphics/SVG/1.1/DTD/svg11.dtd">
<svg width="100%" height="100%" viewBox="0 0 26 29" version="1.1" xmlns="http://www.w3.org/2000/svg" xmlns:xlink="http://www.w3.org/1999/xlink" xml:space="preserve" style="fill-rule:evenodd;clip-rule:evenodd;stroke-linejoin:round;stroke-miterlimit:1.41421;">
    <g transform="matrix(1,0,0,1,-978,-26)">
        <g transform="matrix(0.998959,-2.42305e-19,-2.54869e-19,0.950704,4,4.65711e-16)">
            <g transform="matrix(1.00104,2.55135e-19,2.68364e-19,1.05185,-37.0385,-57.8519)">
                <g transform="matrix(1.42464,0,0,1.42464,-7407.17,-859.037)">
                    <path d="M5921.21,676.651C5921.21,678.253 5919.91,679.548 5918.31,679.548C5916.71,679.548 5915.42,678.253 5915.42,676.651C5915.42,675.053 5916.71,673.754 5918.31,673.754C5919.91,673.754 5921.21,675.053 5921.21,676.651Z" style="fill:rgb(206,206,207);fill-rule:nonzero;"/>
                </g>
                <g transform="matrix(1.42464,0,0,1.42464,-7407.17,-859.037)">
                    <path d="M5911.18,676.696C5910.44,676.696 5910.16,676.315 5910.06,676.088C5909.82,675.535 5910.09,674.758 5910.81,673.952C5910.83,673.931 5911.88,672.808 5912.35,671.094C5912.74,669.684 5912.76,668.651 5912.76,668.639C5912.92,665.397 5913.67,661.109 5918.31,661.109C5922.95,661.109 5923.7,665.397 5923.86,668.622C5923.86,668.651 5923.89,669.684 5924.27,671.094C5924.74,672.821 5925.79,673.931 5925.8,673.943C5926.54,674.758 5926.81,675.535 5926.56,676.087C5926.46,676.315 5926.18,676.696 5925.44,676.696L5911.18,676.696Z" style="fill:rgb(206,206,207);fill-rule:nonzero;"/>
                </g>
                <g transform="matrix(1.42464,0,0,1.42464,-7407.17,-859.037)">
                    <path d="M5918.31,661.605C5921.65,661.605 5923.13,663.962 5923.37,668.648C5923.37,668.648 5923.38,669.727 5923.79,671.226C5924.3,673.093 5925.45,674.286 5925.45,674.286C5926.3,675.237 5926.41,675.988 5925.38,675.988L5911.11,675.988C5910.07,675.988 5910.33,675.237 5911.18,674.286C5911.18,674.286 5912.32,673.093 5912.83,671.226C5913.24,669.727 5913.26,668.648 5913.26,668.648C5913.49,663.962 5914.97,661.605 5918.31,661.605ZM5918.31,660.612C5912.66,660.612 5912.36,666.623 5912.27,668.597C5912.27,668.641 5912.24,669.622 5911.87,670.964C5911.44,672.546 5910.47,673.592 5910.46,673.602C5909.57,674.593 5909.2,675.328 5909.54,676.079C5909.66,676.35 5910.05,676.982 5911.11,676.982L5925.38,676.982C5926.43,676.982 5926.83,676.35 5926.95,676.078C5927.28,675.328 5927.06,674.592 5926.18,673.622C5926.16,673.592 5925.18,672.546 5924.75,670.964C5924.38,669.622 5924.36,668.641 5924.36,668.631C5924.26,666.623 5923.96,660.612 5918.31,660.612Z" style="fill:rgb(3,4,4);fill-rule:nonzero;"/>
                </g>
                <g transform="matrix(1.42464,0,0,1.42464,-7407.17,-859.037)">
                    <path d="M5919.26,661.23C5919.26,661.756 5918.84,662.18 5918.31,662.18C5917.79,662.18 5917.36,661.756 5917.36,661.23C5917.36,660.706 5917.79,660.282 5918.31,660.282C5918.84,660.282 5919.26,660.706 5919.26,661.23Z" style="fill:rgb(206,206,207);fill-rule:nonzero;"/>
                </g>
            </g>
        </g>
    </g>
</svg>
