<?xml version="1.0" encoding="UTF-8" standalone="no"?>
<!DOCTYPE svg PUBLIC "-//W3C//DTD SVG 1.1//EN" "http://www.w3.org/Graphics/SVG/1.1/DTD/svg11.dtd">
<svg width="100%" height="100%" viewBox="0 0 25 24" version="1.1" xmlns="http://www.w3.org/2000/svg" xmlns:xlink="http://www.w3.org/1999/xlink" xml:space="preserve" style="fill-rule:evenodd;clip-rule:evenodd;stroke-linejoin:round;stroke-miterlimit:1.41421;">
    <g transform="matrix(1,0,0,1,-1044,-28)">
        <g transform="matrix(0.998959,-2.42305e-19,-2.54869e-19,0.950704,4,4.65711e-16)">
            <g transform="matrix(1.00104,2.55135e-19,2.68364e-19,1.05185,-37.0385,-57.8519)">
                <g transform="matrix(1.42464,0,0,1.42464,-7407.17,-859.037)">
                    <path d="M5972.47,668.924L5971.84,666.252L5969.5,666.502C5969.26,666.105 5968.99,665.741 5968.68,665.416L5969.54,663.32L5967.2,661.878L5965.74,663.691C5965.24,663.559 5964.72,663.492 5964.19,663.489L5963.27,661.453L5960.62,662.166L5960.93,664.418C5960.56,664.646 5960.22,664.905 5959.92,665.188L5957.9,664.357L5956.46,666.696L5958.2,668.098C5958.07,668.576 5958,669.071 5957.99,669.57L5956.01,670.391L5956.65,673.066L5958.85,672.829C5959.11,673.271 5959.41,673.672 5959.75,674.025L5958.94,675.996L5961.28,677.436L5962.69,675.698C5963.16,675.815 5963.65,675.881 5964.14,675.886L5964.97,677.889L5967.65,677.253L5967.41,674.98C5967.82,674.728 5968.2,674.44 5968.53,674.115L5970.58,674.958L5972.02,672.618L5970.21,671.156C5970.32,670.711 5970.38,670.253 5970.39,669.792L5972.47,668.924ZM5966,673.076C5964.11,674.042 5961.79,673.299 5960.83,671.41C5959.86,669.52 5960.6,667.209 5962.49,666.239C5964.38,665.272 5966.69,666.02 5967.66,667.906C5968.63,669.793 5967.88,672.106 5966,673.076Z" style="fill:rgb(206,206,207);fill-rule:nonzero;"/>
                </g>
                <g transform="matrix(1.42464,0,0,1.42464,-7407.17,-859.037)">
                    <path d="M5965.49,669.028C5965.85,669.72 5965.58,670.57 5964.89,670.923C5964.19,671.277 5963.34,671.004 5962.99,670.313C5962.63,669.619 5962.91,668.774 5963.6,668.416C5964.29,668.063 5965.15,668.335 5965.49,669.028Z" style="fill:rgb(206,206,207);fill-rule:nonzero;"/>
                </g>
            </g>
        </g>
    </g>
</svg>
