<?xml version="1.0" encoding="UTF-8" standalone="no"?>
<!DOCTYPE svg PUBLIC "-//W3C//DTD SVG 1.1//EN" "http://www.w3.org/Graphics/SVG/1.1/DTD/svg11.dtd">
<svg width="100%" height="100%" viewBox="0 0 30 30" version="1.1" xmlns="http://www.w3.org/2000/svg" xmlns:xlink="http://www.w3.org/1999/xlink" xml:space="preserve" style="fill-rule:evenodd;clip-rule:evenodd;stroke-linejoin:round;stroke-miterlimit:1.41421;">
    <g transform="matrix(1,0,0,1,-14149,-15483)">
        <g transform="matrix(0.998959,-2.42305e-19,-2.54869e-19,0.950704,13111,15458)">
            <g transform="matrix(1.07804,2.7476e-19,2.89007e-19,1.13276,-19077,-5927.59)">
                <path d="M18675.9,5257.19C18674.4,5256.94 18672.9,5256.94 18671.5,5257.19L18670.4,5260.58C18669.7,5260.84 18669,5261.17 18668.4,5261.59L18665.1,5260.28C18664,5261.27 18663,5262.44 18662.3,5263.75L18664.3,5266.67C18664,5267.4 18663.9,5268.16 18663.8,5268.93L18660.7,5270.69C18660.8,5272.18 18661.1,5273.64 18661.7,5275.01L18665.2,5275.26C18665.6,5275.92 18666.1,5276.53 18666.7,5277.07L18666.1,5280.58C18667.4,5281.44 18668.7,5282.1 18670.1,5282.5L18672.5,5279.89C18673.3,5279.98 18674.1,5279.98 18674.9,5279.89L18677.3,5282.5C18678.7,5282.1 18680,5281.44 18681.2,5280.58L18680.7,5277.07C18681.3,5276.53 18681.7,5275.92 18682.2,5275.26L18685.7,5275.01C18686.3,5273.64 18686.6,5272.18 18686.7,5270.69L18683.6,5268.93C18683.5,5268.16 18683.3,5267.4 18683.1,5266.67L18685.1,5263.75C18684.4,5262.44 18683.4,5261.27 18682.3,5260.28L18679,5261.59C18678.4,5261.17 18677.7,5260.84 18676.9,5260.58L18675.9,5257.19ZM18673.7,5265.84C18676,5265.84 18677.9,5267.7 18677.9,5270C18677.9,5272.3 18676,5274.16 18673.7,5274.16C18671.4,5274.16 18669.5,5272.3 18669.5,5270C18669.5,5267.7 18671.4,5265.84 18673.7,5265.84Z" style="fill:rgb(206,206,207);"/>
            </g>
        </g>
    </g>
</svg>
