<?xml version="1.0" encoding="UTF-8" standalone="no"?>
<!DOCTYPE svg PUBLIC "-//W3C//DTD SVG 1.1//EN" "http://www.w3.org/Graphics/SVG/1.1/DTD/svg11.dtd">
<svg width="100%" height="100%" viewBox="0 0 30 30" version="1.1" xmlns="http://www.w3.org/2000/svg" xmlns:xlink="http://www.w3.org/1999/xlink" xml:space="preserve" style="fill-rule:evenodd;clip-rule:evenodd;stroke-linejoin:round;stroke-miterlimit:1.41421;">
    <g transform="matrix(1,0,0,1,-14214,-15483)">
        <g transform="matrix(0.998959,-2.42305e-19,-2.54869e-19,0.950704,13113,15458)">
            <path d="M1108.12,48.241C1104.49,46.226 1102.15,43.03 1102.15,39.435C1102.15,33.345 1108.88,28.4 1117.16,28.4C1125.45,28.4 1132.18,33.345 1132.18,39.435C1132.18,45.525 1125.45,50.47 1117.16,50.47C1115.95,50.47 1114.77,50.364 1113.64,50.161C1110.63,55.688 1101.82,56.589 1104.96,55.122C1107.2,54.076 1107.91,50.758 1108.12,48.241ZM1117.49,42.886C1118.41,42.886 1119.15,43.65 1119.15,44.59C1119.15,45.531 1118.41,46.295 1117.49,46.295C1116.58,46.295 1115.84,45.531 1115.84,44.59C1115.84,43.65 1116.58,42.886 1117.49,42.886ZM1118.43,41.744L1118.43,41.649C1118.43,41.334 1118.45,41.016 1118.51,40.707C1118.52,40.628 1118.54,40.549 1118.57,40.473C1118.59,40.409 1118.62,40.344 1118.67,40.297C1118.71,40.261 1118.75,40.231 1118.8,40.203C1118.94,40.116 1119.08,40.04 1119.23,39.956C1119.33,39.893 1119.44,39.826 1119.54,39.753C1120.04,39.387 1120.44,38.882 1120.69,38.295C1120.87,37.867 1120.96,37.398 1120.97,36.931C1120.97,36.896 1120.97,36.862 1120.97,36.828C1120.98,36.725 1120.98,36.62 1120.98,36.518C1120.98,36.267 1120.95,36.017 1120.91,35.77C1120.83,35.265 1120.65,34.768 1120.38,34.341C1120.17,34.009 1119.89,33.716 1119.58,33.49C1119.21,33.228 1118.79,33.054 1118.36,32.96C1118.08,32.9 1117.8,32.874 1117.52,32.867C1117.41,32.864 1117.29,32.868 1117.18,32.87C1117,32.884 1116.82,32.899 1116.63,32.931C1116.19,33.009 1115.76,33.16 1115.38,33.394C1114.81,33.732 1114.35,34.242 1114.05,34.839C1113.9,35.122 1113.79,35.42 1113.7,35.728C1113.63,35.981 1113.59,36.237 1113.56,36.498C1113.54,36.631 1113.53,36.764 1113.53,36.899L1115.53,36.899L1115.53,36.886L1115.53,36.876C1115.54,36.685 1115.58,36.496 1115.63,36.313C1115.7,36.052 1115.81,35.797 1115.97,35.584C1116.07,35.456 1116.18,35.349 1116.31,35.258C1116.41,35.188 1116.52,35.133 1116.64,35.093C1116.88,35.008 1117.13,34.976 1117.38,34.97C1117.56,34.966 1117.75,34.979 1117.92,35.013C1118.11,35.05 1118.3,35.117 1118.46,35.235C1118.51,35.276 1118.57,35.32 1118.61,35.373C1118.66,35.441 1118.71,35.508 1118.76,35.585C1118.9,35.845 1118.95,36.144 1118.97,36.439C1118.98,36.52 1118.98,36.6 1118.98,36.681C1118.97,36.737 1118.96,36.793 1118.96,36.849C1118.96,36.877 1118.96,36.905 1118.96,36.933L1118.96,36.953C1118.95,37.241 1118.85,37.515 1118.69,37.743C1118.61,37.842 1118.52,37.925 1118.43,38C1118.38,38.033 1118.34,38.064 1118.29,38.093C1118.09,38.217 1117.87,38.322 1117.67,38.457C1117.55,38.543 1117.43,38.638 1117.32,38.745C1117.22,38.841 1117.13,38.947 1117.05,39.059C1116.62,39.638 1116.49,40.39 1116.45,41.101C1116.44,41.203 1116.44,41.305 1116.43,41.407C1116.43,41.52 1116.43,41.632 1116.43,41.744L1118.43,41.744ZM1120.96,36.956L1120.96,36.949L1120.96,36.947C1120.96,36.95 1120.96,36.953 1120.96,36.956Z" style="fill:rgb(206,206,207);"/>
        </g>
    </g>
</svg>
