<?xml version="1.0" encoding="UTF-8" standalone="no"?>
<!DOCTYPE svg PUBLIC "-//W3C//DTD SVG 1.1//EN" "http://www.w3.org/Graphics/SVG/1.1/DTD/svg11.dtd">
<svg width="100%" height="100%" viewBox="0 0 30 30" version="1.1" xmlns="http://www.w3.org/2000/svg" xmlns:xlink="http://www.w3.org/1999/xlink" xml:space="preserve" style="fill-rule:evenodd;clip-rule:evenodd;stroke-linejoin:round;stroke-miterlimit:1.41421;">
    <g transform="matrix(1,0,0,1,-14083,-15483)">
        <g transform="matrix(0.998959,-2.42305e-19,-2.54869e-19,0.950704,13111,15458)">
            <g transform="matrix(1.00104,2.55135e-19,2.68364e-19,1.05185,-37.0385,-57.8519)">
                <g transform="matrix(0.984257,1.60191e-17,1.70503e-17,0.978006,-6740.97,-5059.34)">
                    <path d="M7893.24,5281.51C7893.01,5283.57 7891.3,5285.6 7889.18,5285.6C7887.06,5285.6 7885.34,5283.57 7885.11,5281.51L7893.24,5281.51ZM7899.34,5279.46L7879.01,5279.46C7877.52,5279.46 7877.89,5277.93 7879.1,5276.57C7879.1,5276.57 7880.73,5274.88 7881.45,5272.22C7882.04,5270.08 7882.07,5268.54 7882.07,5268.54C7882.4,5261.87 7884.42,5257.99 7889.18,5257.99C7893.93,5257.99 7896.13,5261.87 7896.47,5268.54C7896.47,5268.54 7896.49,5270.08 7897.07,5272.22C7897.8,5274.88 7899.43,5276.57 7899.43,5276.57C7900.65,5277.93 7900.8,5279.46 7899.34,5279.46Z" style="fill:rgb(206,206,207);"/>
                </g>
                <g transform="matrix(2.10537,-3.25464e-16,-8.80073e-16,2.1074,-11436.2,-1311.48)">
                    <path d="M5919.26,661.23C5919.26,661.756 5918.84,662.18 5918.31,662.18C5917.79,662.18 5917.36,661.756 5917.36,661.23C5917.36,660.706 5917.79,660.282 5918.31,660.282C5918.84,660.282 5919.26,660.706 5919.26,661.23Z" style="fill:rgb(206,206,207);fill-rule:nonzero;"/>
                </g>
            </g>
        </g>
    </g>
</svg>
