<svg width="79" height="91" viewBox="0 0 79 91" xmlns="http://www.w3.org/2000/svg"><title>22C929F7-A349-4D0A-B944-D7F72C7472DA</title><g fill="none" fill-rule="evenodd"><path d="M0 66.699v5.711h.825s13.965-6.119 42.092-6.119c13.823 0 33.632 6.12 33.632 6.12l1.857-.409V25.09l-1.238-.612c-3.561 4.3-15.475 14.686-15.475 14.686l.207 25.496-1.445.408S51.452 62.62 39.41 62.62c-20.168 0-37.965 8.77-37.965 8.77S17.47 61.6 40.647 61.6c12.971 0 17.539 1.835 17.539 1.835l2.27-.407V13.054l-1.651-.408c-2.713 8.16-12.472 23.028-18.57 28.148v17.542l-.62.408c-20.173 0-37.552 12.034-37.552 12.034S18.573 57.52 37.76 57.52l1.031-.408V.408L36.933 0C33.293 20.242 18.485 48.873 0 66.699zM35.208 90.185c-1.011.528-2.27.792-3.778.792-1.946 0-3.504-.62-4.675-1.858C25.585 87.88 25 86.255 25 84.243c0-2.163.658-3.91 1.975-5.244C28.29 77.666 29.96 77 31.983 77c1.298 0 2.373.185 3.225.556v1.689c-.98-.541-2.06-.812-3.244-.812-1.57 0-2.844.52-3.82 1.557-.977 1.037-1.465 2.423-1.465 4.159 0 1.647.456 2.96 1.369 3.937.913.978 2.11 1.467 3.592 1.467 1.374 0 2.563-.302 3.568-.906v1.538zM47.807 90.524H45.9l-2.29-3.791a8.254 8.254 0 0 0-.61-.9 3.46 3.46 0 0 0-.606-.61 2.106 2.106 0 0 0-.668-.343 2.776 2.776 0 0 0-.806-.109h-1.316v5.753H38V77h4.083c.598 0 1.15.074 1.655.222a3.72 3.72 0 0 1 1.317.674c.372.302.663.677.873 1.127.21.45.315.976.315 1.58 0 .471-.072.904-.215 1.296a3.376 3.376 0 0 1-.61 1.052 3.69 3.69 0 0 1-.955.788c-.372.216-.79.385-1.254.504v.038c.229.1.428.215.596.344.169.129.33.281.482.457.153.177.304.376.453.6.15.222.316.482.5.777l2.567 4.065zm-8.204-12.09v4.904h2.175c.4 0 .771-.06 1.111-.18.34-.119.635-.29.883-.514a2.33 2.33 0 0 0 .582-.82c.14-.324.21-.687.21-1.09 0-.722-.237-1.287-.711-1.692-.474-.406-1.16-.609-2.056-.609h-2.194zM62.948 90.524h-1.593v-9.073c0-.716.044-1.593.133-2.63h-.038c-.153.61-.29 1.046-.41 1.31l-4.675 10.393h-.782l-4.665-10.317c-.134-.302-.27-.764-.41-1.387h-.039c.051.54.076 1.424.076 2.65v9.054H49V77h2.118l4.198 9.431c.324.723.534 1.264.63 1.622h.056c.274-.742.493-1.295.659-1.66L60.944 77h2.004v13.524z" fill="#DEDEDE"/><path d="M-11-3H89V97H-11z"/></g></svg>