<svg width="100" height="70" viewBox="0 0 100 70" xmlns="http://www.w3.org/2000/svg"><title>84B47B2E-4334-4929-BA66-1BB7FAD11A2C</title><g fill="none" fill-rule="evenodd"><path d="M41.465 7.606C44.678 4.26 49.152 2.182 54.1 2.182c6.579 0 12.316 3.667 15.373 9.112a21.253 21.253 0 0 1 8.688-1.847c11.864 0 21.483 9.702 21.483 21.67 0 11.969-9.619 21.671-21.483 21.671-1.448 0-2.863-.147-4.232-.422-2.69 4.8-7.819 8.043-13.706 8.043-2.463 0-4.793-.568-6.87-1.582-2.727 6.418-9.084 10.918-16.491 10.918-7.715 0-14.29-4.881-16.814-11.727a16.53 16.53 0 0 1-3.418.355C7.445 58.373 0 50.85 0 41.57c0-6.22 3.343-11.651 8.315-14.557a19.242 19.242 0 0 1-1.592-7.687C6.723 8.653 15.39 0 26.076 0c6.276 0 11.852 2.983 15.389 7.606" fill="#5A9DFF"/><path d="M14.023 36.134c-.063.164.022.197.042.225.188.136.377.234.569.344 1.016.54 1.976.696 2.98.696 2.044 0 3.314-1.087 3.314-2.837v-.033c0-1.619-1.434-2.207-2.777-2.632l-.176-.056c-1.013-.33-1.887-.613-1.887-1.281v-.034c0-.571.51-.991 1.303-.991.88 0 1.924.293 2.597.665 0 0 .199.127.27-.065.04-.104.38-1.02.416-1.119.038-.107-.029-.187-.1-.23-.768-.467-1.83-.786-2.928-.786l-.204.002c-1.871 0-3.178 1.13-3.178 2.75v.033c0 1.707 1.441 2.262 2.792 2.647l.217.067c.984.302 1.831.563 1.831 1.254v.035c0 .632-.552 1.104-1.439 1.104a4.824 4.824 0 0 1-2.633-.757c-.144-.085-.226-.145-.337-.212-.059-.037-.205-.1-.27.092l-.402 1.119zM43.023 36.134c-.063.164.022.197.042.225.188.136.377.234.569.344 1.016.54 1.976.696 2.98.696 2.044 0 3.314-1.087 3.314-2.837v-.033c0-1.619-1.434-2.207-2.777-2.632l-.176-.056c-1.013-.33-1.887-.613-1.887-1.281v-.034c0-.571.51-.991 1.303-.991.88 0 1.924.293 2.597.665 0 0 .199.127.27-.065.04-.104.38-1.02.416-1.119.038-.107-.029-.187-.1-.23-.768-.467-1.828-.786-2.928-.786l-.204.002c-1.871 0-3.178 1.13-3.178 2.75v.033c0 1.707 1.443 2.262 2.792 2.647l.217.067c.984.302 1.833.563 1.833 1.254v.035c0 .632-.552 1.104-1.441 1.104a4.827 4.827 0 0 1-2.633-.757c-.144-.085-.229-.142-.337-.212-.037-.024-.21-.091-.268.092l-.404 1.119zM63.376 32.679c0 .989-.184 1.77-.547 2.32-.36.544-.904.811-1.661.811-.759 0-1.299-.267-1.653-.811-.36-.55-.54-1.331-.54-2.32 0-.987.18-1.766.538-2.31.356-.54.896-.802 1.655-.802.757 0 1.3.262 1.66.801.364.545.548 1.324.548 2.311m1.706-1.834a4.105 4.105 0 0 0-.776-1.481 3.73 3.73 0 0 0-1.31-.996c-.522-.244-1.137-.368-1.828-.368-.693 0-1.31.124-1.83.368a3.726 3.726 0 0 0-1.31.997 4.09 4.09 0 0 0-.776 1.48A6.45 6.45 0 0 0 57 32.68c0 .653.085 1.271.252 1.834.167.565.428 1.064.776 1.482.347.417.79.75 1.31.988.522.237 1.137.358 1.83.358.691 0 1.305-.12 1.828-.358a3.671 3.671 0 0 0 1.31-.988c.347-.416.61-.916.776-1.482a6.46 6.46 0 0 0 .252-1.834 6.46 6.46 0 0 0-.252-1.834M79.57 35.552c-.056-.165-.219-.102-.219-.102a3.865 3.865 0 0 1-.793.225 5.974 5.974 0 0 1-.935.068c-.824 0-1.482-.247-1.952-.731-.47-.486-.735-1.271-.732-2.333.003-.965.236-1.691.655-2.247.416-.55 1.05-.833 1.893-.833.703 0 1.24.082 1.803.258 0 0 .135.058.198-.117.15-.416.26-.71.42-1.166.045-.13-.066-.185-.107-.2a6.649 6.649 0 0 0-1.138-.29 8.676 8.676 0 0 0-1.28-.084c-.716 0-1.354.123-1.9.366a3.934 3.934 0 0 0-1.376.994 4.207 4.207 0 0 0-.829 1.483A5.86 5.86 0 0 0 73 32.68c0 1.415.38 2.559 1.135 3.395.756.842 1.89 1.268 3.368 1.268.874 0 1.77-.177 2.417-.43 0 0 .123-.06.069-.204l-.42-1.157zM83.018 31.73c.082-.55.233-1.006.467-1.362.353-.54.892-.84 1.65-.84.76 0 1.258.3 1.619.84.239.357.343.832.383 1.363l-4.119-.001zm5.743-1.207a3.587 3.587 0 0 0-.738-1.351c-.371-.402-.736-.682-1.096-.837A4.205 4.205 0 0 0 85.272 28c-.72 0-1.375.122-1.907.37a3.79 3.79 0 0 0-1.33 1.015c-.35.424-.613.927-.782 1.5A6.48 6.48 0 0 0 81 32.727c0 .667.088 1.288.262 1.844.176.564.457 1.057.836 1.469.381.413.869.735 1.453.962.581.224 1.287.341 2.097.338 1.668-.004 2.547-.376 2.909-.577.064-.036.124-.098.05-.276l-.38-1.058c-.057-.157-.217-.1-.217-.1-.414.154-1 .43-2.37.427-.897-.002-1.56-.265-1.976-.68-.426-.421-.637-1.042-.672-1.92l5.774.005s.152-.002.168-.151c.006-.061.198-1.186-.172-2.487zM36.018 31.73c.082-.55.233-1.006.466-1.362.356-.54.893-.84 1.652-.84.758 0 1.26.3 1.62.84.237.357.34.832.382 1.363l-4.12-.001zm5.744-1.207a3.589 3.589 0 0 0-.739-1.351c-.371-.402-.735-.682-1.096-.837A4.21 4.21 0 0 0 38.273 28c-.722 0-1.376.122-1.908.37a3.79 3.79 0 0 0-1.33 1.015c-.35.424-.613.927-.782 1.5A6.48 6.48 0 0 0 34 32.727c0 .667.088 1.288.262 1.844.176.564.457 1.057.836 1.469.381.413.869.735 1.453.962.581.224 1.287.341 2.097.338 1.668-.004 2.547-.376 2.909-.577.064-.036.124-.098.05-.276l-.38-1.058c-.057-.157-.217-.1-.217-.1-.414.154-1 .43-2.37.427-.895-.002-1.56-.265-1.976-.68-.426-.421-.637-1.042-.672-1.92l5.774.005s.153-.002.169-.151c.005-.061.197-1.186-.173-2.487zM23.378 35.521c-.227-.18-.257-.225-.332-.342-.116-.177-.174-.43-.174-.751 0-.507.168-.873.515-1.118-.003 0 .498-.434 1.675-.417.828.01 1.569.133 1.569.133v2.626s-.734.157-1.56.206c-1.174.072-1.697-.338-1.693-.337m2.298-4.058a12.472 12.472 0 0 0-.9-.026c-.496 0-.974.061-1.424.183-.451.122-.857.31-1.205.558a2.786 2.786 0 0 0-.838.954c-.205.38-.309.828-.309 1.33 0 .512.088.955.265 1.319.176.364.43.669.753.903.32.234.717.406 1.176.51.454.104.968.157 1.53.157.593 0 1.182-.05 1.755-.147a33.71 33.71 0 0 0 1.454-.282c.192-.044.404-.103.404-.103.143-.037.132-.19.132-.19l-.003-5.28c0-1.16-.31-2.018-.917-2.55-.606-.531-1.5-.799-2.653-.799-.434 0-1.13.059-1.549.142 0 0-1.26.245-1.779.652 0 0-.114.07-.053.23l.409 1.098c.051.142.19.094.19.094s.044-.018.096-.049c1.11-.603 2.515-.585 2.515-.585.624 0 1.105.127 1.428.373.315.243.475.606.475 1.377v.244c-.495-.072-.952-.113-.952-.113M72.332 28.382a.157.157 0 0 0-.086-.207 5.24 5.24 0 0 0-.968-.166c-.727-.044-1.13.078-1.49.24-.358.161-.755.424-.975.72l-.002-.704c0-.096-.068-.174-.165-.174h-1.48c-.097 0-.166.078-.166.174v8.616c0 .097.078.174.176.174h1.517a.174.174 0 0 0 .174-.174v-4.304c0-.579.064-1.154.192-1.516.125-.359.294-.644.505-.85.211-.204.451-.348.715-.428.268-.083.565-.11.773-.11.303 0 .634.079.634.079.113.011.175-.057.213-.157.098-.263.38-1.056.433-1.213M58.966 24.196A4.574 4.574 0 0 0 57.61 24c-1.044 0-1.867.296-2.445.879-.575.578-.966 1.46-1.162 2.618l-.07.391h-1.31s-.162-.006-.194.169l-.215 1.2c-.017.115.033.186.187.186h1.277l-1.296 7.23a9.015 9.015 0 0 1-.346 1.422c-.126.36-.25.627-.402.822-.148.188-.287.328-.529.409-.2.066-.429.096-.68.096-.139 0-.325-.023-.462-.051-.138-.026-.21-.057-.312-.1 0 0-.15-.057-.21.093a174.38 174.38 0 0 0-.427 1.174c-.041.115.016.204.09.23.169.06.295.1.526.154.322.076.593.08.847.08.531 0 1.016-.074 1.417-.22.404-.146.756-.4 1.068-.743.335-.372.548-.762.75-1.293.2-.526.37-1.18.508-1.94l1.3-7.362h1.903s.16.005.193-.169l.215-1.2c.015-.115-.033-.187-.187-.187h-1.847c.009-.04.092-.691.305-1.302.09-.262.26-.471.405-.616a1.21 1.21 0 0 1 .484-.302c.183-.059.39-.088.62-.088.173 0 .343.02.474.047.178.038.249.059.296.072.187.058.212.003.25-.088l.44-1.213c.046-.13-.064-.186-.105-.202M32.863 37.5c0 .097-.07.176-.166.176h-1.532c-.096 0-.165-.079-.165-.175V25.174c0-.096.069-.174.165-.174h1.532c.097 0 .166.078.166.174v12.327z" fill="#FFF"/><path d="M0-13h100V87H0z"/></g></svg>